<?xml version="1.0" encoding="utf-8" standalone="no"?>
<!DOCTYPE svg PUBLIC "-//W3C//DTD SVG 1.1//EN"
  "http://www.w3.org/Graphics/SVG/1.1/DTD/svg11.dtd">
<svg xmlns:xlink="http://www.w3.org/1999/xlink" width="653.577891pt" height="249.716062pt" viewBox="0 0 653.577891 249.716062" xmlns="http://www.w3.org/2000/svg" version="1.1">
 <metadata>
  <rdf:RDF xmlns:dc="http://purl.org/dc/elements/1.1/" xmlns:cc="http://creativecommons.org/ns#" xmlns:rdf="http://www.w3.org/1999/02/22-rdf-syntax-ns#">
   <cc:Work>
    <dc:type rdf:resource="http://purl.org/dc/dcmitype/StillImage"/>
    <dc:date>2026-07-21T03:44:06.314884</dc:date>
    <dc:format>image/svg+xml</dc:format>
    <dc:creator>
     <cc:Agent>
      <dc:title>Matplotlib v3.10.8, https://matplotlib.org/</dc:title>
     </cc:Agent>
    </dc:creator>
   </cc:Work>
  </rdf:RDF>
 </metadata>
 <defs>
  <style type="text/css">*{stroke-linejoin: round; stroke-linecap: butt}</style>
 </defs>
 <g id="figure_1">
  <g id="patch_1">
   <path d="M 0 249.716062 
L 653.577891 249.716062 
L 653.577891 0 
L 0 0 
z
" style="fill: #ffffff"/>
  </g>
  <g id="axes_1">
   <g id="patch_2">
    <path d="M 80.797891 211.192 
L 351.337891 211.192 
L 351.337891 89.592 
L 80.797891 89.592 
z
" style="fill: #ffffff"/>
   </g>
   <g id="matplotlib.axis_1">
    <g id="xtick_1">
     <g id="line2d_1">
      <path d="M 113.790574 211.192 
L 113.790574 89.592 
" clip-path="url(#p34cbe676df)" style="fill: none; stroke: #dde5e7; stroke-width: 0.8; stroke-linecap: square"/>
     </g>
     <g id="line2d_2">
      <defs>
       <path id="mb272a21e32" d="M 0 0 
L 0 3.5 
" style="stroke: #66747c; stroke-width: 0.8"/>
      </defs>
      <g>
       <use xlink:href="#mb272a21e32" x="113.790574" y="211.192" style="fill: #66747c; stroke: #66747c; stroke-width: 0.8"/>
      </g>
     </g>
     <g id="text_1">
      <!-- −1 -->
      <g style="fill: #66747c" transform="translate(106.050925 226.170359) scale(0.105 -0.105)">
       <defs>
        <path id="DejaVuSans-2212" d="M 678 2272 
L 4684 2272 
L 4684 1741 
L 678 1741 
L 678 2272 
z
" transform="scale(0.015625)"/>
        <path id="DejaVuSans-31" d="M 794 531 
L 1825 531 
L 1825 4091 
L 703 3866 
L 703 4441 
L 1819 4666 
L 2450 4666 
L 2450 531 
L 3481 531 
L 3481 0 
L 794 0 
L 794 531 
z
" transform="scale(0.015625)"/>
       </defs>
       <use xlink:href="#DejaVuSans-2212"/>
       <use xlink:href="#DejaVuSans-31" transform="translate(83.789062 0)"/>
      </g>
     </g>
    </g>
    <g id="xtick_2">
     <g id="line2d_3">
      <path d="M 179.775939 211.192 
L 179.775939 89.592 
" clip-path="url(#p34cbe676df)" style="fill: none; stroke: #dde5e7; stroke-width: 0.8; stroke-linecap: square"/>
     </g>
     <g id="line2d_4">
      <g>
       <use xlink:href="#mb272a21e32" x="179.775939" y="211.192" style="fill: #66747c; stroke: #66747c; stroke-width: 0.8"/>
      </g>
     </g>
     <g id="text_2">
      <!-- 0 -->
      <g style="fill: #66747c" transform="translate(176.435627 226.170359) scale(0.105 -0.105)">
       <defs>
        <path id="DejaVuSans-30" d="M 2034 4250 
Q 1547 4250 1301 3770 
Q 1056 3291 1056 2328 
Q 1056 1369 1301 889 
Q 1547 409 2034 409 
Q 2525 409 2770 889 
Q 3016 1369 3016 2328 
Q 3016 3291 2770 3770 
Q 2525 4250 2034 4250 
z
M 2034 4750 
Q 2819 4750 3233 4129 
Q 3647 3509 3647 2328 
Q 3647 1150 3233 529 
Q 2819 -91 2034 -91 
Q 1250 -91 836 529 
Q 422 1150 422 2328 
Q 422 3509 836 4129 
Q 1250 4750 2034 4750 
z
" transform="scale(0.015625)"/>
       </defs>
       <use xlink:href="#DejaVuSans-30"/>
      </g>
     </g>
    </g>
    <g id="xtick_3">
     <g id="line2d_5">
      <path d="M 245.761305 211.192 
L 245.761305 89.592 
" clip-path="url(#p34cbe676df)" style="fill: none; stroke: #dde5e7; stroke-width: 0.8; stroke-linecap: square"/>
     </g>
     <g id="line2d_6">
      <g>
       <use xlink:href="#mb272a21e32" x="245.761305" y="211.192" style="fill: #66747c; stroke: #66747c; stroke-width: 0.8"/>
      </g>
     </g>
     <g id="text_3">
      <!-- 1 -->
      <g style="fill: #66747c" transform="translate(242.420993 226.170359) scale(0.105 -0.105)">
       <use xlink:href="#DejaVuSans-31"/>
      </g>
     </g>
    </g>
    <g id="xtick_4">
     <g id="line2d_7">
      <path d="M 311.746671 211.192 
L 311.746671 89.592 
" clip-path="url(#p34cbe676df)" style="fill: none; stroke: #dde5e7; stroke-width: 0.8; stroke-linecap: square"/>
     </g>
     <g id="line2d_8">
      <g>
       <use xlink:href="#mb272a21e32" x="311.746671" y="211.192" style="fill: #66747c; stroke: #66747c; stroke-width: 0.8"/>
      </g>
     </g>
     <g id="text_4">
      <!-- 2 -->
      <g style="fill: #66747c" transform="translate(308.406359 226.170359) scale(0.105 -0.105)">
       <defs>
        <path id="DejaVuSans-32" d="M 1228 531 
L 3431 531 
L 3431 0 
L 469 0 
L 469 531 
Q 828 903 1448 1529 
Q 2069 2156 2228 2338 
Q 2531 2678 2651 2914 
Q 2772 3150 2772 3378 
Q 2772 3750 2511 3984 
Q 2250 4219 1831 4219 
Q 1534 4219 1204 4116 
Q 875 4013 500 3803 
L 500 4441 
Q 881 4594 1212 4672 
Q 1544 4750 1819 4750 
Q 2544 4750 2975 4387 
Q 3406 4025 3406 3419 
Q 3406 3131 3298 2873 
Q 3191 2616 2906 2266 
Q 2828 2175 2409 1742 
Q 1991 1309 1228 531 
z
" transform="scale(0.015625)"/>
       </defs>
       <use xlink:href="#DejaVuSans-32"/>
      </g>
     </g>
    </g>
    <g id="text_5">
     <!-- Разность точности DoRA − LoRA, п.п. -->
     <g style="fill: #15242d" transform="translate(113.865977 240.332391) scale(0.105 -0.105)">
      <defs>
       <path id="DejaVuSans-420" d="M 1259 4147 
L 1259 2394 
L 2053 2394 
Q 2494 2394 2734 2622 
Q 2975 2850 2975 3272 
Q 2975 3691 2734 3919 
Q 2494 4147 2053 4147 
L 1259 4147 
z
M 628 4666 
L 2053 4666 
Q 2838 4666 3239 4311 
Q 3641 3956 3641 3272 
Q 3641 2581 3239 2228 
Q 2838 1875 2053 1875 
L 1259 1875 
L 1259 0 
L 628 0 
L 628 4666 
z
" transform="scale(0.015625)"/>
       <path id="DejaVuSans-430" d="M 2194 1759 
Q 1497 1759 1228 1600 
Q 959 1441 959 1056 
Q 959 750 1161 570 
Q 1363 391 1709 391 
Q 2188 391 2477 730 
Q 2766 1069 2766 1631 
L 2766 1759 
L 2194 1759 
z
M 3341 1997 
L 3341 0 
L 2766 0 
L 2766 531 
Q 2569 213 2275 61 
Q 1981 -91 1556 -91 
Q 1019 -91 701 211 
Q 384 513 384 1019 
Q 384 1609 779 1909 
Q 1175 2209 1959 2209 
L 2766 2209 
L 2766 2266 
Q 2766 2663 2505 2880 
Q 2244 3097 1772 3097 
Q 1472 3097 1187 3025 
Q 903 2953 641 2809 
L 641 3341 
Q 956 3463 1253 3523 
Q 1550 3584 1831 3584 
Q 2591 3584 2966 3190 
Q 3341 2797 3341 1997 
z
" transform="scale(0.015625)"/>
       <path id="DejaVuSans-437" d="M 2206 1888 
Q 2594 1813 2809 1584 
Q 3025 1356 3025 1019 
Q 3025 478 2622 193 
Q 2219 -91 1475 -91 
Q 1225 -91 961 -47 
Q 697 -3 416 84 
L 416 619 
Q 638 503 903 445 
Q 1169 388 1459 388 
Q 1931 388 2195 563 
Q 2459 738 2459 1019 
Q 2459 1294 2225 1461 
Q 1991 1628 1563 1628 
L 1100 1628 
L 1100 2103 
L 1584 2103 
Q 1947 2103 2158 2242 
Q 2369 2381 2369 2600 
Q 2369 2800 2151 2944 
Q 1934 3088 1563 3088 
Q 1341 3088 1089 3047 
Q 838 3006 534 2916 
L 534 3438 
Q 841 3513 1106 3550 
Q 1372 3588 1609 3588 
Q 2222 3588 2576 3342 
Q 2931 3097 2931 2656 
Q 2931 2366 2743 2164 
Q 2556 1963 2206 1888 
z
" transform="scale(0.015625)"/>
       <path id="DejaVuSans-43d" d="M 581 3500 
L 1159 3500 
L 1159 2072 
L 3025 2072 
L 3025 3500 
L 3603 3500 
L 3603 0 
L 3025 0 
L 3025 1613 
L 1159 1613 
L 1159 0 
L 581 0 
L 581 3500 
z
" transform="scale(0.015625)"/>
       <path id="DejaVuSans-43e" d="M 1959 3097 
Q 1497 3097 1228 2736 
Q 959 2375 959 1747 
Q 959 1119 1226 758 
Q 1494 397 1959 397 
Q 2419 397 2687 759 
Q 2956 1122 2956 1747 
Q 2956 2369 2687 2733 
Q 2419 3097 1959 3097 
z
M 1959 3584 
Q 2709 3584 3137 3096 
Q 3566 2609 3566 1747 
Q 3566 888 3137 398 
Q 2709 -91 1959 -91 
Q 1206 -91 779 398 
Q 353 888 353 1747 
Q 353 2609 779 3096 
Q 1206 3584 1959 3584 
z
" transform="scale(0.015625)"/>
       <path id="DejaVuSans-441" d="M 3122 3366 
L 3122 2828 
Q 2878 2963 2633 3030 
Q 2388 3097 2138 3097 
Q 1578 3097 1268 2742 
Q 959 2388 959 1747 
Q 959 1106 1268 751 
Q 1578 397 2138 397 
Q 2388 397 2633 464 
Q 2878 531 3122 666 
L 3122 134 
Q 2881 22 2623 -34 
Q 2366 -91 2075 -91 
Q 1284 -91 818 406 
Q 353 903 353 1747 
Q 353 2603 823 3093 
Q 1294 3584 2113 3584 
Q 2378 3584 2631 3529 
Q 2884 3475 3122 3366 
z
" transform="scale(0.015625)"/>
       <path id="DejaVuSans-442" d="M 188 3500 
L 3541 3500 
L 3541 3041 
L 2147 3041 
L 2147 0 
L 1581 0 
L 1581 3041 
L 188 3041 
L 188 3500 
z
" transform="scale(0.015625)"/>
       <path id="DejaVuSans-44c" d="M 2781 1038 
Q 2781 1319 2576 1466 
Q 2372 1613 1978 1613 
L 1159 1613 
L 1159 459 
L 1978 459 
Q 2372 459 2576 607 
Q 2781 756 2781 1038 
z
M 581 3500 
L 1159 3500 
L 1159 2072 
L 2003 2072 
Q 2672 2072 3033 1817 
Q 3394 1563 3394 1038 
Q 3394 513 3033 256 
Q 2672 0 2003 0 
L 581 0 
L 581 3500 
z
" transform="scale(0.015625)"/>
       <path id="DejaVuSans-20" transform="scale(0.015625)"/>
       <path id="DejaVuSans-447" d="M 2625 0 
L 2625 1472 
L 1553 1472 
Q 1075 1472 756 1769 
Q 469 2038 469 2613 
L 469 3500 
L 1044 3500 
L 1044 2666 
Q 1044 2300 1206 2116 
Q 1372 1931 1697 1931 
L 2625 1931 
L 2625 3500 
L 3200 3500 
L 3200 0 
L 2625 0 
z
" transform="scale(0.015625)"/>
       <path id="DejaVuSans-438" d="M 3578 3500 
L 3578 0 
L 3006 0 
L 3006 2809 
L 1319 0 
L 581 0 
L 581 3500 
L 1153 3500 
L 1153 697 
L 2838 3500 
L 3578 3500 
z
" transform="scale(0.015625)"/>
       <path id="DejaVuSans-44" d="M 1259 4147 
L 1259 519 
L 2022 519 
Q 2988 519 3436 956 
Q 3884 1394 3884 2338 
Q 3884 3275 3436 3711 
Q 2988 4147 2022 4147 
L 1259 4147 
z
M 628 4666 
L 1925 4666 
Q 3281 4666 3915 4102 
Q 4550 3538 4550 2338 
Q 4550 1131 3912 565 
Q 3275 0 1925 0 
L 628 0 
L 628 4666 
z
" transform="scale(0.015625)"/>
       <path id="DejaVuSans-6f" d="M 1959 3097 
Q 1497 3097 1228 2736 
Q 959 2375 959 1747 
Q 959 1119 1226 758 
Q 1494 397 1959 397 
Q 2419 397 2687 759 
Q 2956 1122 2956 1747 
Q 2956 2369 2687 2733 
Q 2419 3097 1959 3097 
z
M 1959 3584 
Q 2709 3584 3137 3096 
Q 3566 2609 3566 1747 
Q 3566 888 3137 398 
Q 2709 -91 1959 -91 
Q 1206 -91 779 398 
Q 353 888 353 1747 
Q 353 2609 779 3096 
Q 1206 3584 1959 3584 
z
" transform="scale(0.015625)"/>
       <path id="DejaVuSans-52" d="M 2841 2188 
Q 3044 2119 3236 1894 
Q 3428 1669 3622 1275 
L 4263 0 
L 3584 0 
L 2988 1197 
Q 2756 1666 2539 1819 
Q 2322 1972 1947 1972 
L 1259 1972 
L 1259 0 
L 628 0 
L 628 4666 
L 2053 4666 
Q 2853 4666 3247 4331 
Q 3641 3997 3641 3322 
Q 3641 2881 3436 2590 
Q 3231 2300 2841 2188 
z
M 1259 4147 
L 1259 2491 
L 2053 2491 
Q 2509 2491 2742 2702 
Q 2975 2913 2975 3322 
Q 2975 3731 2742 3939 
Q 2509 4147 2053 4147 
L 1259 4147 
z
" transform="scale(0.015625)"/>
       <path id="DejaVuSans-41" d="M 2188 4044 
L 1331 1722 
L 3047 1722 
L 2188 4044 
z
M 1831 4666 
L 2547 4666 
L 4325 0 
L 3669 0 
L 3244 1197 
L 1141 1197 
L 716 0 
L 50 0 
L 1831 4666 
z
" transform="scale(0.015625)"/>
       <path id="DejaVuSans-4c" d="M 628 4666 
L 1259 4666 
L 1259 531 
L 3531 531 
L 3531 0 
L 628 0 
L 628 4666 
z
" transform="scale(0.015625)"/>
       <path id="DejaVuSans-2c" d="M 750 794 
L 1409 794 
L 1409 256 
L 897 -744 
L 494 -744 
L 750 256 
L 750 794 
z
" transform="scale(0.015625)"/>
       <path id="DejaVuSans-43f" d="M 3603 3500 
L 3603 0 
L 3025 0 
L 3025 3041 
L 1159 3041 
L 1159 0 
L 581 0 
L 581 3500 
L 3603 3500 
z
" transform="scale(0.015625)"/>
       <path id="DejaVuSans-2e" d="M 684 794 
L 1344 794 
L 1344 0 
L 684 0 
L 684 794 
z
" transform="scale(0.015625)"/>
      </defs>
      <use xlink:href="#DejaVuSans-420"/>
      <use xlink:href="#DejaVuSans-430" transform="translate(60.302734 0)"/>
      <use xlink:href="#DejaVuSans-437" transform="translate(121.582031 0)"/>
      <use xlink:href="#DejaVuSans-43d" transform="translate(174.755859 0)"/>
      <use xlink:href="#DejaVuSans-43e" transform="translate(240.136719 0)"/>
      <use xlink:href="#DejaVuSans-441" transform="translate(301.318359 0)"/>
      <use xlink:href="#DejaVuSans-442" transform="translate(356.298828 0)"/>
      <use xlink:href="#DejaVuSans-44c" transform="translate(414.550781 0)"/>
      <use xlink:href="#DejaVuSans-20" transform="translate(473.486328 0)"/>
      <use xlink:href="#DejaVuSans-442" transform="translate(505.273438 0)"/>
      <use xlink:href="#DejaVuSans-43e" transform="translate(563.525391 0)"/>
      <use xlink:href="#DejaVuSans-447" transform="translate(624.707031 0)"/>
      <use xlink:href="#DejaVuSans-43d" transform="translate(683.789062 0)"/>
      <use xlink:href="#DejaVuSans-43e" transform="translate(749.169922 0)"/>
      <use xlink:href="#DejaVuSans-441" transform="translate(810.351562 0)"/>
      <use xlink:href="#DejaVuSans-442" transform="translate(865.332031 0)"/>
      <use xlink:href="#DejaVuSans-438" transform="translate(923.583984 0)"/>
      <use xlink:href="#DejaVuSans-20" transform="translate(988.574219 0)"/>
      <use xlink:href="#DejaVuSans-44" transform="translate(1020.361328 0)"/>
      <use xlink:href="#DejaVuSans-6f" transform="translate(1097.363281 0)"/>
      <use xlink:href="#DejaVuSans-52" transform="translate(1158.544922 0)"/>
      <use xlink:href="#DejaVuSans-41" transform="translate(1224.027344 0)"/>
      <use xlink:href="#DejaVuSans-20" transform="translate(1292.435547 0)"/>
      <use xlink:href="#DejaVuSans-2212" transform="translate(1324.222656 0)"/>
      <use xlink:href="#DejaVuSans-20" transform="translate(1408.011719 0)"/>
      <use xlink:href="#DejaVuSans-4c" transform="translate(1439.798828 0)"/>
      <use xlink:href="#DejaVuSans-6f" transform="translate(1493.761719 0)"/>
      <use xlink:href="#DejaVuSans-52" transform="translate(1554.943359 0)"/>
      <use xlink:href="#DejaVuSans-41" transform="translate(1620.425781 0)"/>
      <use xlink:href="#DejaVuSans-2c" transform="translate(1688.833984 0)"/>
      <use xlink:href="#DejaVuSans-20" transform="translate(1720.621094 0)"/>
      <use xlink:href="#DejaVuSans-43f" transform="translate(1752.408203 0)"/>
      <use xlink:href="#DejaVuSans-2e" transform="translate(1817.789062 0)"/>
      <use xlink:href="#DejaVuSans-43f" transform="translate(1849.576172 0)"/>
      <use xlink:href="#DejaVuSans-2e" transform="translate(1914.957031 0)"/>
     </g>
    </g>
   </g>
   <g id="matplotlib.axis_2">
    <g id="ytick_1">
     <g id="line2d_9">
      <defs>
       <path id="m3f8f356171" d="M 0 0 
L -3.5 0 
" style="stroke: #66747c; stroke-width: 0.8"/>
      </defs>
      <g>
       <use xlink:href="#m3f8f356171" x="80.797891" y="95.119273" style="fill: #66747c; stroke: #66747c; stroke-width: 0.8"/>
      </g>
     </g>
     <g id="text_6">
      <!-- Контраст -->
      <g style="fill: #66747c" transform="translate(21.947578 99.108452) scale(0.105 -0.105)">
       <defs>
        <path id="DejaVuSans-41a" d="M 628 4666 
L 1259 4666 
L 1259 2359 
L 3516 4666 
L 4325 4666 
L 2522 2822 
L 4419 0 
L 3731 0 
L 2113 2403 
L 1259 1531 
L 1259 0 
L 628 0 
L 628 4666 
z
" transform="scale(0.015625)"/>
        <path id="DejaVuSans-440" d="M 1159 525 
L 1159 -1331 
L 581 -1331 
L 581 3500 
L 1159 3500 
L 1159 2969 
Q 1341 3281 1617 3432 
Q 1894 3584 2278 3584 
Q 2916 3584 3314 3078 
Q 3713 2572 3713 1747 
Q 3713 922 3314 415 
Q 2916 -91 2278 -91 
Q 1894 -91 1617 61 
Q 1341 213 1159 525 
z
M 3116 1747 
Q 3116 2381 2855 2742 
Q 2594 3103 2138 3103 
Q 1681 3103 1420 2742 
Q 1159 2381 1159 1747 
Q 1159 1113 1420 752 
Q 1681 391 2138 391 
Q 2594 391 2855 752 
Q 3116 1113 3116 1747 
z
" transform="scale(0.015625)"/>
       </defs>
       <use xlink:href="#DejaVuSans-41a"/>
       <use xlink:href="#DejaVuSans-43e" transform="translate(70.996094 0)"/>
       <use xlink:href="#DejaVuSans-43d" transform="translate(132.177734 0)"/>
       <use xlink:href="#DejaVuSans-442" transform="translate(197.558594 0)"/>
       <use xlink:href="#DejaVuSans-440" transform="translate(255.810547 0)"/>
       <use xlink:href="#DejaVuSans-430" transform="translate(319.287109 0)"/>
       <use xlink:href="#DejaVuSans-441" transform="translate(380.566406 0)"/>
       <use xlink:href="#DejaVuSans-442" transform="translate(435.546875 0)"/>
      </g>
     </g>
    </g>
    <g id="ytick_2">
     <g id="line2d_10">
      <g>
       <use xlink:href="#m3f8f356171" x="80.797891" y="150.392" style="fill: #66747c; stroke: #66747c; stroke-width: 0.8"/>
      </g>
     </g>
     <g id="text_7">
      <!-- Поворот -->
      <g style="fill: #66747c" transform="translate(27.656953 154.38118) scale(0.105 -0.105)">
       <defs>
        <path id="DejaVuSans-41f" d="M 4184 4666 
L 4184 0 
L 3553 0 
L 3553 4134 
L 1259 4134 
L 1259 0 
L 628 0 
L 628 4666 
L 4184 4666 
z
" transform="scale(0.015625)"/>
        <path id="DejaVuSans-432" d="M 1156 1613 
L 1156 459 
L 1975 459 
Q 2369 459 2575 607 
Q 2781 756 2781 1038 
Q 2781 1319 2575 1466 
Q 2369 1613 1975 1613 
L 1156 1613 
z
M 1156 3041 
L 1156 2072 
L 1913 2072 
Q 2238 2072 2444 2201 
Q 2650 2331 2650 2563 
Q 2650 2794 2444 2917 
Q 2238 3041 1913 3041 
L 1156 3041 
z
M 581 3500 
L 1950 3500 
Q 2566 3500 2897 3275 
Q 3228 3050 3228 2634 
Q 3228 2313 3059 2123 
Q 2891 1934 2559 1888 
Q 2956 1813 3175 1575 
Q 3394 1338 3394 981 
Q 3394 513 3033 256 
Q 2672 0 2003 0 
L 581 0 
L 581 3500 
z
" transform="scale(0.015625)"/>
       </defs>
       <use xlink:href="#DejaVuSans-41f"/>
       <use xlink:href="#DejaVuSans-43e" transform="translate(75.195312 0)"/>
       <use xlink:href="#DejaVuSans-432" transform="translate(136.376953 0)"/>
       <use xlink:href="#DejaVuSans-43e" transform="translate(195.3125 0)"/>
       <use xlink:href="#DejaVuSans-440" transform="translate(256.494141 0)"/>
       <use xlink:href="#DejaVuSans-43e" transform="translate(319.970703 0)"/>
       <use xlink:href="#DejaVuSans-442" transform="translate(381.152344 0)"/>
      </g>
     </g>
    </g>
    <g id="ytick_3">
     <g id="line2d_11">
      <g>
       <use xlink:href="#m3f8f356171" x="80.797891" y="205.664727" style="fill: #66747c; stroke: #66747c; stroke-width: 0.8"/>
      </g>
     </g>
     <g id="text_8">
      <!-- Смешанный -->
      <g style="fill: #66747c" transform="translate(7.2 209.653907) scale(0.105 -0.105)">
       <defs>
        <path id="DejaVuSans-421" d="M 4122 4306 
L 4122 3641 
Q 3803 3938 3442 4084 
Q 3081 4231 2675 4231 
Q 1875 4231 1450 3742 
Q 1025 3253 1025 2328 
Q 1025 1406 1450 917 
Q 1875 428 2675 428 
Q 3081 428 3442 575 
Q 3803 722 4122 1019 
L 4122 359 
Q 3791 134 3420 21 
Q 3050 -91 2638 -91 
Q 1578 -91 968 557 
Q 359 1206 359 2328 
Q 359 3453 968 4101 
Q 1578 4750 2638 4750 
Q 3056 4750 3426 4639 
Q 3797 4528 4122 4306 
z
" transform="scale(0.015625)"/>
        <path id="DejaVuSans-43c" d="M 581 3500 
L 1422 3500 
L 2416 1156 
L 3413 3500 
L 4247 3500 
L 4247 0 
L 3669 0 
L 3669 2950 
L 2703 672 
L 2128 672 
L 1159 2950 
L 1159 0 
L 581 0 
L 581 3500 
z
" transform="scale(0.015625)"/>
        <path id="DejaVuSans-435" d="M 3597 1894 
L 3597 1613 
L 953 1613 
Q 991 1019 1311 708 
Q 1631 397 2203 397 
Q 2534 397 2845 478 
Q 3156 559 3463 722 
L 3463 178 
Q 3153 47 2828 -22 
Q 2503 -91 2169 -91 
Q 1331 -91 842 396 
Q 353 884 353 1716 
Q 353 2575 817 3079 
Q 1281 3584 2069 3584 
Q 2775 3584 3186 3129 
Q 3597 2675 3597 1894 
z
M 3022 2063 
Q 3016 2534 2758 2815 
Q 2500 3097 2075 3097 
Q 1594 3097 1305 2825 
Q 1016 2553 972 2059 
L 3022 2063 
z
" transform="scale(0.015625)"/>
        <path id="DejaVuSans-448" d="M 3216 459 
L 4697 459 
L 4697 3500 
L 5275 3500 
L 5275 0 
L 581 0 
L 581 3500 
L 1159 3500 
L 1159 459 
L 2638 459 
L 2638 3500 
L 3216 3500 
L 3216 459 
z
" transform="scale(0.015625)"/>
        <path id="DejaVuSans-44b" d="M 3907 3500 
L 4482 3500 
L 4482 0 
L 3907 0 
L 3907 3500 
z
M 4195 3584 
L 4195 3584 
z
M 2781 1038 
Q 2781 1319 2576 1466 
Q 2372 1613 1978 1613 
L 1159 1613 
L 1159 459 
L 1978 459 
Q 2372 459 2576 607 
Q 2781 756 2781 1038 
z
M 581 3500 
L 1159 3500 
L 1159 2072 
L 2003 2072 
Q 2672 2072 3033 1817 
Q 3394 1563 3394 1038 
Q 3394 513 3033 256 
Q 2672 0 2003 0 
L 581 0 
L 581 3500 
z
" transform="scale(0.015625)"/>
        <path id="DejaVuSans-439" d="M 3578 3500 
L 3578 0 
L 3006 0 
L 3006 2809 
L 1319 0 
L 581 0 
L 581 3500 
L 1153 3500 
L 1153 697 
L 2838 3500 
L 3578 3500 
z
M 1102 4833 
L 1471 4833 
Q 1505 4599 1656 4481 
Q 1808 4364 2080 4364 
Q 2349 4364 2499 4480 
Q 2649 4596 2689 4833 
L 3058 4833 
Q 3027 4386 2780 4161 
Q 2533 3936 2080 3936 
Q 1627 3936 1380 4161 
Q 1133 4386 1102 4833 
z
" transform="scale(0.015625)"/>
       </defs>
       <use xlink:href="#DejaVuSans-421"/>
       <use xlink:href="#DejaVuSans-43c" transform="translate(69.824219 0)"/>
       <use xlink:href="#DejaVuSans-435" transform="translate(145.263672 0)"/>
       <use xlink:href="#DejaVuSans-448" transform="translate(206.787109 0)"/>
       <use xlink:href="#DejaVuSans-430" transform="translate(298.291016 0)"/>
       <use xlink:href="#DejaVuSans-43d" transform="translate(359.570312 0)"/>
       <use xlink:href="#DejaVuSans-43d" transform="translate(424.951172 0)"/>
       <use xlink:href="#DejaVuSans-44b" transform="translate(490.332031 0)"/>
       <use xlink:href="#DejaVuSans-439" transform="translate(569.287109 0)"/>
      </g>
     </g>
    </g>
   </g>
   <g id="line2d_12">
    <path d="M 179.775939 211.192 
L 179.775939 89.592 
" clip-path="url(#p34cbe676df)" style="fill: none; stroke: #15242d; stroke-width: 1.1; stroke-linecap: square"/>
   </g>
   <g id="patch_3">
    <path d="M 80.797891 211.192 
L 80.797891 89.592 
" style="fill: none; stroke: #66747c; stroke-width: 0.8; stroke-linejoin: miter; stroke-linecap: square"/>
   </g>
   <g id="patch_4">
    <path d="M 80.797891 211.192 
L 351.337891 211.192 
" style="fill: none; stroke: #66747c; stroke-width: 0.8; stroke-linejoin: miter; stroke-linecap: square"/>
   </g>
   <g id="LineCollection_1">
    <path d="M 144.317602 95.119273 
L 189.573301 95.119273 
" clip-path="url(#p34cbe676df)" style="fill: none; stroke: #0b8f83; stroke-width: 2"/>
    <path d="M 160.823111 150.392 
L 253.716572 150.392 
" clip-path="url(#p34cbe676df)" style="fill: none; stroke: #0b8f83; stroke-width: 2"/>
    <path d="M 175.392265 205.664727 
L 323.462053 205.664727 
" clip-path="url(#p34cbe676df)" style="fill: none; stroke: #0b8f83; stroke-width: 2"/>
   </g>
   <g id="line2d_13">
    <defs>
     <path id="mfb2daead7a" d="M 0 4 
L 0 -4 
" style="stroke: #0b8f83; stroke-width: 1.8"/>
    </defs>
    <g clip-path="url(#p34cbe676df)">
     <use xlink:href="#mfb2daead7a" x="144.317602" y="95.119273" style="fill: #0b8f83; stroke: #0b8f83; stroke-width: 1.8"/>
     <use xlink:href="#mfb2daead7a" x="160.823111" y="150.392" style="fill: #0b8f83; stroke: #0b8f83; stroke-width: 1.8"/>
     <use xlink:href="#mfb2daead7a" x="175.392265" y="205.664727" style="fill: #0b8f83; stroke: #0b8f83; stroke-width: 1.8"/>
    </g>
   </g>
   <g id="line2d_14">
    <g clip-path="url(#p34cbe676df)">
     <use xlink:href="#mfb2daead7a" x="189.573301" y="95.119273" style="fill: #0b8f83; stroke: #0b8f83; stroke-width: 1.8"/>
     <use xlink:href="#mfb2daead7a" x="253.716572" y="150.392" style="fill: #0b8f83; stroke: #0b8f83; stroke-width: 1.8"/>
     <use xlink:href="#mfb2daead7a" x="323.462053" y="205.664727" style="fill: #0b8f83; stroke: #0b8f83; stroke-width: 1.8"/>
    </g>
   </g>
   <g id="text_9">
    <!-- -0.19 -->
    <g style="fill: #15242d" transform="translate(153.975608 110.119273) scale(0.09 -0.09)">
     <defs>
      <path id="DejaVuSans-Bold-2d" d="M 347 2297 
L 2309 2297 
L 2309 1388 
L 347 1388 
L 347 2297 
z
" transform="scale(0.015625)"/>
      <path id="DejaVuSans-Bold-30" d="M 2944 2338 
Q 2944 3213 2780 3570 
Q 2616 3928 2228 3928 
Q 1841 3928 1675 3570 
Q 1509 3213 1509 2338 
Q 1509 1453 1675 1090 
Q 1841 728 2228 728 
Q 2613 728 2778 1090 
Q 2944 1453 2944 2338 
z
M 4147 2328 
Q 4147 1169 3647 539 
Q 3147 -91 2228 -91 
Q 1306 -91 806 539 
Q 306 1169 306 2328 
Q 306 3491 806 4120 
Q 1306 4750 2228 4750 
Q 3147 4750 3647 4120 
Q 4147 3491 4147 2328 
z
" transform="scale(0.015625)"/>
      <path id="DejaVuSans-Bold-2e" d="M 653 1209 
L 1778 1209 
L 1778 0 
L 653 0 
L 653 1209 
z
" transform="scale(0.015625)"/>
      <path id="DejaVuSans-Bold-31" d="M 750 831 
L 1813 831 
L 1813 3847 
L 722 3622 
L 722 4441 
L 1806 4666 
L 2950 4666 
L 2950 831 
L 4013 831 
L 4013 0 
L 750 0 
L 750 831 
z
" transform="scale(0.015625)"/>
      <path id="DejaVuSans-Bold-39" d="M 641 103 
L 641 966 
Q 928 831 1190 764 
Q 1453 697 1709 697 
Q 2247 697 2547 995 
Q 2847 1294 2900 1881 
Q 2688 1725 2447 1647 
Q 2206 1569 1925 1569 
Q 1209 1569 770 1986 
Q 331 2403 331 3084 
Q 331 3838 820 4291 
Q 1309 4744 2131 4744 
Q 3044 4744 3544 4128 
Q 4044 3513 4044 2388 
Q 4044 1231 3459 570 
Q 2875 -91 1856 -91 
Q 1528 -91 1228 -42 
Q 928 6 641 103 
z
M 2125 2350 
Q 2441 2350 2600 2554 
Q 2759 2759 2759 3169 
Q 2759 3575 2600 3781 
Q 2441 3988 2125 3988 
Q 1809 3988 1650 3781 
Q 1491 3575 1491 3169 
Q 1491 2759 1650 2554 
Q 1809 2350 2125 2350 
z
" transform="scale(0.015625)"/>
     </defs>
     <use xlink:href="#DejaVuSans-Bold-2d"/>
     <use xlink:href="#DejaVuSans-Bold-30" transform="translate(41.503906 0)"/>
     <use xlink:href="#DejaVuSans-Bold-2e" transform="translate(111.083984 0)"/>
     <use xlink:href="#DejaVuSans-Bold-31" transform="translate(149.072266 0)"/>
     <use xlink:href="#DejaVuSans-Bold-39" transform="translate(218.652344 0)"/>
    </g>
   </g>
   <g id="text_10">
    <!-- +0.42 -->
    <g style="fill: #15242d" transform="translate(192.396639 141.392) scale(0.09 -0.09)">
     <defs>
      <path id="DejaVuSans-Bold-2b" d="M 3053 4013 
L 3053 2375 
L 4684 2375 
L 4684 1638 
L 3053 1638 
L 3053 0 
L 2309 0 
L 2309 1638 
L 678 1638 
L 678 2375 
L 2309 2375 
L 2309 4013 
L 3053 4013 
z
" transform="scale(0.015625)"/>
      <path id="DejaVuSans-Bold-34" d="M 2356 3675 
L 1038 1722 
L 2356 1722 
L 2356 3675 
z
M 2156 4666 
L 3494 4666 
L 3494 1722 
L 4159 1722 
L 4159 850 
L 3494 850 
L 3494 0 
L 2356 0 
L 2356 850 
L 288 850 
L 288 1881 
L 2156 4666 
z
" transform="scale(0.015625)"/>
      <path id="DejaVuSans-Bold-32" d="M 1844 884 
L 3897 884 
L 3897 0 
L 506 0 
L 506 884 
L 2209 2388 
Q 2438 2594 2547 2791 
Q 2656 2988 2656 3200 
Q 2656 3528 2436 3728 
Q 2216 3928 1850 3928 
Q 1569 3928 1234 3808 
Q 900 3688 519 3450 
L 519 4475 
Q 925 4609 1322 4679 
Q 1719 4750 2100 4750 
Q 2938 4750 3402 4381 
Q 3866 4013 3866 3353 
Q 3866 2972 3669 2642 
Q 3472 2313 2841 1759 
L 1844 884 
z
" transform="scale(0.015625)"/>
     </defs>
     <use xlink:href="#DejaVuSans-Bold-2b"/>
     <use xlink:href="#DejaVuSans-Bold-30" transform="translate(83.789062 0)"/>
     <use xlink:href="#DejaVuSans-Bold-2e" transform="translate(153.369141 0)"/>
     <use xlink:href="#DejaVuSans-Bold-34" transform="translate(191.357422 0)"/>
     <use xlink:href="#DejaVuSans-Bold-32" transform="translate(260.9375 0)"/>
    </g>
   </g>
   <g id="text_11">
    <!-- +1.06 -->
    <g style="fill: #15242d" transform="translate(234.553956 196.664727) scale(0.09 -0.09)">
     <defs>
      <path id="DejaVuSans-Bold-36" d="M 2316 2303 
Q 2000 2303 1842 2098 
Q 1684 1894 1684 1484 
Q 1684 1075 1842 870 
Q 2000 666 2316 666 
Q 2634 666 2792 870 
Q 2950 1075 2950 1484 
Q 2950 1894 2792 2098 
Q 2634 2303 2316 2303 
z
M 3803 4544 
L 3803 3681 
Q 3506 3822 3243 3889 
Q 2981 3956 2731 3956 
Q 2194 3956 1894 3657 
Q 1594 3359 1544 2772 
Q 1750 2925 1990 3001 
Q 2231 3078 2516 3078 
Q 3231 3078 3670 2659 
Q 4109 2241 4109 1563 
Q 4109 813 3618 361 
Q 3128 -91 2303 -91 
Q 1394 -91 895 523 
Q 397 1138 397 2266 
Q 397 3422 980 4083 
Q 1563 4744 2578 4744 
Q 2900 4744 3203 4694 
Q 3506 4644 3803 4544 
z
" transform="scale(0.015625)"/>
     </defs>
     <use xlink:href="#DejaVuSans-Bold-2b"/>
     <use xlink:href="#DejaVuSans-Bold-31" transform="translate(83.789062 0)"/>
     <use xlink:href="#DejaVuSans-Bold-2e" transform="translate(153.369141 0)"/>
     <use xlink:href="#DejaVuSans-Bold-30" transform="translate(191.357422 0)"/>
     <use xlink:href="#DejaVuSans-Bold-36" transform="translate(260.9375 0)"/>
    </g>
   </g>
   <g id="text_12">
    <!-- MLP · n=20 удержанных сидов -->
    <g style="fill: #15242d" transform="translate(80.797891 83.592) scale(0.13 -0.13)">
     <defs>
      <path id="DejaVuSans-Bold-4d" d="M 588 4666 
L 2119 4666 
L 3181 2169 
L 4250 4666 
L 5778 4666 
L 5778 0 
L 4641 0 
L 4641 3413 
L 3566 897 
L 2803 897 
L 1728 3413 
L 1728 0 
L 588 0 
L 588 4666 
z
" transform="scale(0.015625)"/>
      <path id="DejaVuSans-Bold-4c" d="M 588 4666 
L 1791 4666 
L 1791 909 
L 3903 909 
L 3903 0 
L 588 0 
L 588 4666 
z
" transform="scale(0.015625)"/>
      <path id="DejaVuSans-Bold-50" d="M 588 4666 
L 2584 4666 
Q 3475 4666 3951 4270 
Q 4428 3875 4428 3144 
Q 4428 2409 3951 2014 
Q 3475 1619 2584 1619 
L 1791 1619 
L 1791 0 
L 588 0 
L 588 4666 
z
M 1791 3794 
L 1791 2491 
L 2456 2491 
Q 2806 2491 2997 2661 
Q 3188 2831 3188 3144 
Q 3188 3456 2997 3625 
Q 2806 3794 2456 3794 
L 1791 3794 
z
" transform="scale(0.015625)"/>
      <path id="DejaVuSans-Bold-20" transform="scale(0.015625)"/>
      <path id="DejaVuSans-Bold-b7" d="M 653 2828 
L 1778 2828 
L 1778 1619 
L 653 1619 
L 653 2828 
z
" transform="scale(0.015625)"/>
      <path id="DejaVuSans-Bold-6e" d="M 4056 2131 
L 4056 0 
L 2931 0 
L 2931 347 
L 2931 1631 
Q 2931 2084 2911 2256 
Q 2891 2428 2841 2509 
Q 2775 2619 2662 2680 
Q 2550 2741 2406 2741 
Q 2056 2741 1856 2470 
Q 1656 2200 1656 1722 
L 1656 0 
L 538 0 
L 538 3500 
L 1656 3500 
L 1656 2988 
Q 1909 3294 2193 3439 
Q 2478 3584 2822 3584 
Q 3428 3584 3742 3212 
Q 4056 2841 4056 2131 
z
" transform="scale(0.015625)"/>
      <path id="DejaVuSans-Bold-3d" d="M 678 3084 
L 4684 3084 
L 4684 2350 
L 678 2350 
L 678 3084 
z
M 678 1663 
L 4684 1663 
L 4684 922 
L 678 922 
L 678 1663 
z
" transform="scale(0.015625)"/>
      <path id="DejaVuSans-Bold-443" d="M 78 3500 
L 1197 3500 
L 2138 1125 
L 2938 3500 
L 4056 3500 
L 2584 -331 
Q 2363 -916 2067 -1148 
Q 1772 -1381 1288 -1381 
L 641 -1381 
L 641 -647 
L 991 -647 
Q 1275 -647 1404 -556 
Q 1534 -466 1606 -231 
L 1638 -134 
L 78 3500 
z
" transform="scale(0.015625)"/>
      <path id="DejaVuSans-Bold-434" d="M 547 800 
Q 903 919 1053 1314 
Q 1203 1709 1203 2838 
L 1203 3500 
L 4228 3500 
L 4228 800 
L 4809 800 
L 4809 -884 
L 4009 -884 
L 4009 0 
L 1159 0 
L 1159 -884 
L 359 -884 
L 359 800 
L 547 800 
z
M 3109 2700 
L 2322 2700 
L 2322 2603 
Q 2322 1456 2063 800 
L 3109 800 
L 3109 2700 
z
" transform="scale(0.015625)"/>
      <path id="DejaVuSans-Bold-435" d="M 4031 1759 
L 4031 1441 
L 1416 1441 
Q 1456 1047 1700 850 
Q 1944 653 2381 653 
Q 2734 653 3104 758 
Q 3475 863 3866 1075 
L 3866 213 
Q 3469 63 3072 -14 
Q 2675 -91 2278 -91 
Q 1328 -91 801 392 
Q 275 875 275 1747 
Q 275 2603 792 3093 
Q 1309 3584 2216 3584 
Q 3041 3584 3536 3087 
Q 4031 2591 4031 1759 
z
M 2881 2131 
Q 2881 2450 2695 2645 
Q 2509 2841 2209 2841 
Q 1884 2841 1681 2658 
Q 1478 2475 1428 2131 
L 2881 2131 
z
" transform="scale(0.015625)"/>
      <path id="DejaVuSans-Bold-440" d="M 1656 506 
L 1656 -1331 
L 538 -1331 
L 538 3500 
L 1656 3500 
L 1656 2988 
Q 1888 3294 2169 3439 
Q 2450 3584 2816 3584 
Q 3463 3584 3878 3070 
Q 4294 2556 4294 1747 
Q 4294 938 3878 423 
Q 3463 -91 2816 -91 
Q 2450 -91 2169 54 
Q 1888 200 1656 506 
z
M 2400 2772 
Q 2041 2772 1848 2508 
Q 1656 2244 1656 1747 
Q 1656 1250 1848 986 
Q 2041 722 2400 722 
Q 2759 722 2948 984 
Q 3138 1247 3138 1747 
Q 3138 2247 2948 2509 
Q 2759 2772 2400 2772 
z
" transform="scale(0.015625)"/>
      <path id="DejaVuSans-Bold-436" d="M 94 0 
L 1678 2078 
L 216 3500 
L 1441 3500 
L 2625 2347 
L 2625 3500 
L 3744 3500 
L 3744 2347 
L 4928 3500 
L 6153 3500 
L 4691 2078 
L 6275 0 
L 5119 0 
L 4025 1431 
L 3744 1159 
L 3744 0 
L 2625 0 
L 2625 1159 
L 2344 1431 
L 1250 0 
L 94 0 
z
" transform="scale(0.015625)"/>
      <path id="DejaVuSans-Bold-430" d="M 2106 1575 
Q 1756 1575 1579 1456 
Q 1403 1338 1403 1106 
Q 1403 894 1545 773 
Q 1688 653 1941 653 
Q 2256 653 2472 879 
Q 2688 1106 2688 1447 
L 2688 1575 
L 2106 1575 
z
M 3816 1997 
L 3816 0 
L 2688 0 
L 2688 519 
Q 2463 200 2181 54 
Q 1900 -91 1497 -91 
Q 953 -91 614 226 
Q 275 544 275 1050 
Q 275 1666 698 1953 
Q 1122 2241 2028 2241 
L 2688 2241 
L 2688 2328 
Q 2688 2594 2478 2717 
Q 2269 2841 1825 2841 
Q 1466 2841 1156 2769 
Q 847 2697 581 2553 
L 581 3406 
Q 941 3494 1303 3539 
Q 1666 3584 2028 3584 
Q 2975 3584 3395 3211 
Q 3816 2838 3816 1997 
z
" transform="scale(0.015625)"/>
      <path id="DejaVuSans-Bold-43d" d="M 538 3500 
L 1656 3500 
L 1656 2169 
L 2766 2169 
L 2766 3500 
L 3884 3500 
L 3884 0 
L 2766 0 
L 2766 1478 
L 1656 1478 
L 1656 0 
L 538 0 
L 538 3500 
z
" transform="scale(0.015625)"/>
      <path id="DejaVuSans-Bold-44b" d="M 4154 3500 
L 5272 3500 
L 5272 0 
L 4154 0 
L 4154 3500 
z
M 2719 1094 
Q 2719 1291 2594 1388 
Q 2472 1481 2222 1481 
L 1656 1481 
L 1656 700 
L 2222 700 
Q 2469 700 2594 800 
Q 2719 897 2719 1094 
z
M 538 3500 
L 1656 3500 
L 1656 2172 
L 2291 2172 
Q 3000 2172 3381 1913 
Q 3766 1650 3766 1081 
Q 3766 513 3381 256 
Q 3000 0 2291 0 
L 538 0 
L 538 3500 
z
" transform="scale(0.015625)"/>
      <path id="DejaVuSans-Bold-445" d="M 1422 1791 
L 159 3500 
L 1344 3500 
L 2059 2463 
L 2784 3500 
L 3969 3500 
L 2706 1797 
L 4031 0 
L 2847 0 
L 2059 1106 
L 1281 0 
L 97 0 
L 1422 1791 
z
" transform="scale(0.015625)"/>
      <path id="DejaVuSans-Bold-441" d="M 3366 3391 
L 3366 2478 
Q 3138 2634 2908 2709 
Q 2678 2784 2431 2784 
Q 1963 2784 1702 2511 
Q 1441 2238 1441 1747 
Q 1441 1256 1702 982 
Q 1963 709 2431 709 
Q 2694 709 2930 787 
Q 3166 866 3366 1019 
L 3366 103 
Q 3103 6 2833 -42 
Q 2563 -91 2291 -91 
Q 1344 -91 809 395 
Q 275 881 275 1747 
Q 275 2613 809 3098 
Q 1344 3584 2291 3584 
Q 2566 3584 2833 3536 
Q 3100 3488 3366 3391 
z
" transform="scale(0.015625)"/>
      <path id="DejaVuSans-Bold-438" d="M 3947 3500 
L 3947 0 
L 2828 0 
L 2828 1863 
L 1700 0 
L 538 0 
L 538 3500 
L 1656 3500 
L 1656 1638 
L 2784 3500 
L 3947 3500 
z
" transform="scale(0.015625)"/>
      <path id="DejaVuSans-Bold-43e" d="M 2203 2784 
Q 1831 2784 1636 2517 
Q 1441 2250 1441 1747 
Q 1441 1244 1636 976 
Q 1831 709 2203 709 
Q 2569 709 2762 976 
Q 2956 1244 2956 1747 
Q 2956 2250 2762 2517 
Q 2569 2784 2203 2784 
z
M 2203 3584 
Q 3106 3584 3614 3096 
Q 4122 2609 4122 1747 
Q 4122 884 3614 396 
Q 3106 -91 2203 -91 
Q 1297 -91 786 396 
Q 275 884 275 1747 
Q 275 2609 786 3096 
Q 1297 3584 2203 3584 
z
" transform="scale(0.015625)"/>
      <path id="DejaVuSans-Bold-432" d="M 2184 2181 
Q 2378 2181 2478 2261 
Q 2578 2341 2578 2497 
Q 2578 2653 2478 2731 
Q 2378 2809 2184 2809 
L 1656 2809 
L 1656 2181 
L 2184 2181 
z
M 2222 700 
Q 2469 700 2594 798 
Q 2719 897 2719 1094 
Q 2719 1288 2594 1384 
Q 2469 1481 2222 1481 
L 1656 1481 
L 1656 700 
L 2222 700 
z
M 538 3500 
L 2141 3500 
Q 2919 3500 3267 3279 
Q 3616 3059 3616 2575 
Q 3616 2319 3487 2139 
Q 3359 1959 3119 1872 
Q 3428 1788 3598 1561 
Q 3769 1334 3769 1003 
Q 3769 497 3403 248 
Q 3038 0 2294 0 
L 538 0 
L 538 3500 
z
" transform="scale(0.015625)"/>
     </defs>
     <use xlink:href="#DejaVuSans-Bold-4d"/>
     <use xlink:href="#DejaVuSans-Bold-4c" transform="translate(99.511719 0)"/>
     <use xlink:href="#DejaVuSans-Bold-50" transform="translate(163.232422 0)"/>
     <use xlink:href="#DejaVuSans-Bold-20" transform="translate(236.523438 0)"/>
     <use xlink:href="#DejaVuSans-Bold-b7" transform="translate(271.337891 0)"/>
     <use xlink:href="#DejaVuSans-Bold-20" transform="translate(309.326172 0)"/>
     <use xlink:href="#DejaVuSans-Bold-6e" transform="translate(344.140625 0)"/>
     <use xlink:href="#DejaVuSans-Bold-3d" transform="translate(415.332031 0)"/>
     <use xlink:href="#DejaVuSans-Bold-32" transform="translate(499.121094 0)"/>
     <use xlink:href="#DejaVuSans-Bold-30" transform="translate(568.701172 0)"/>
     <use xlink:href="#DejaVuSans-Bold-20" transform="translate(638.28125 0)"/>
     <use xlink:href="#DejaVuSans-Bold-443" transform="translate(673.095703 0)"/>
     <use xlink:href="#DejaVuSans-Bold-434" transform="translate(738.28125 0)"/>
     <use xlink:href="#DejaVuSans-Bold-435" transform="translate(819.042969 0)"/>
     <use xlink:href="#DejaVuSans-Bold-440" transform="translate(886.865234 0)"/>
     <use xlink:href="#DejaVuSans-Bold-436" transform="translate(958.447266 0)"/>
     <use xlink:href="#DejaVuSans-Bold-430" transform="translate(1057.958984 0)"/>
     <use xlink:href="#DejaVuSans-Bold-43d" transform="translate(1125.439453 0)"/>
     <use xlink:href="#DejaVuSans-Bold-43d" transform="translate(1194.53125 0)"/>
     <use xlink:href="#DejaVuSans-Bold-44b" transform="translate(1263.623047 0)"/>
     <use xlink:href="#DejaVuSans-Bold-445" transform="translate(1354.052734 0)"/>
     <use xlink:href="#DejaVuSans-Bold-20" transform="translate(1418.554688 0)"/>
     <use xlink:href="#DejaVuSans-Bold-441" transform="translate(1453.369141 0)"/>
     <use xlink:href="#DejaVuSans-Bold-438" transform="translate(1512.646484 0)"/>
     <use xlink:href="#DejaVuSans-Bold-434" transform="translate(1582.714844 0)"/>
     <use xlink:href="#DejaVuSans-Bold-43e" transform="translate(1663.476562 0)"/>
     <use xlink:href="#DejaVuSans-Bold-432" transform="translate(1732.177734 0)"/>
    </g>
   </g>
   <g id="line2d_15">
    <defs>
     <path id="m62cee20e82" d="M 0 3.5 
C 0.928211 3.5 1.81853 3.131218 2.474874 2.474874 
C 3.131218 1.81853 3.5 0.928211 3.5 0 
C 3.5 -0.928211 3.131218 -1.81853 2.474874 -2.474874 
C 1.81853 -3.131218 0.928211 -3.5 0 -3.5 
C -0.928211 -3.5 -1.81853 -3.131218 -2.474874 -2.474874 
C -3.131218 -1.81853 -3.5 -0.928211 -3.5 0 
C -3.5 0.928211 -3.131218 1.81853 -2.474874 2.474874 
C -1.81853 3.131218 -0.928211 3.5 0 3.5 
z
" style="stroke: #0b8f83; stroke-width: 1.8"/>
    </defs>
    <g clip-path="url(#p34cbe676df)">
     <use xlink:href="#m62cee20e82" x="166.945452" y="95.119273" style="fill: #0b8f83; stroke: #0b8f83; stroke-width: 1.8"/>
     <use xlink:href="#m62cee20e82" x="207.269842" y="150.392" style="fill: #0b8f83; stroke: #0b8f83; stroke-width: 1.8"/>
     <use xlink:href="#m62cee20e82" x="249.427159" y="205.664727" style="fill: #0b8f83; stroke: #0b8f83; stroke-width: 1.8"/>
    </g>
   </g>
  </g>
  <g id="axes_2">
   <g id="patch_5">
    <path d="M 375.837891 211.192 
L 646.377891 211.192 
L 646.377891 89.592 
L 375.837891 89.592 
z
" style="fill: #ffffff"/>
   </g>
   <g id="matplotlib.axis_3">
    <g id="xtick_5">
     <g id="line2d_16">
      <path d="M 408.830574 211.192 
L 408.830574 89.592 
" clip-path="url(#p4d06373781)" style="fill: none; stroke: #dde5e7; stroke-width: 0.8; stroke-linecap: square"/>
     </g>
     <g id="line2d_17">
      <g>
       <use xlink:href="#mb272a21e32" x="408.830574" y="211.192" style="fill: #66747c; stroke: #66747c; stroke-width: 0.8"/>
      </g>
     </g>
     <g id="text_13">
      <!-- −1 -->
      <g style="fill: #66747c" transform="translate(401.090925 226.170359) scale(0.105 -0.105)">
       <use xlink:href="#DejaVuSans-2212"/>
       <use xlink:href="#DejaVuSans-31" transform="translate(83.789062 0)"/>
      </g>
     </g>
    </g>
    <g id="xtick_6">
     <g id="line2d_18">
      <path d="M 474.815939 211.192 
L 474.815939 89.592 
" clip-path="url(#p4d06373781)" style="fill: none; stroke: #dde5e7; stroke-width: 0.8; stroke-linecap: square"/>
     </g>
     <g id="line2d_19">
      <g>
       <use xlink:href="#mb272a21e32" x="474.815939" y="211.192" style="fill: #66747c; stroke: #66747c; stroke-width: 0.8"/>
      </g>
     </g>
     <g id="text_14">
      <!-- 0 -->
      <g style="fill: #66747c" transform="translate(471.475627 226.170359) scale(0.105 -0.105)">
       <use xlink:href="#DejaVuSans-30"/>
      </g>
     </g>
    </g>
    <g id="xtick_7">
     <g id="line2d_20">
      <path d="M 540.801305 211.192 
L 540.801305 89.592 
" clip-path="url(#p4d06373781)" style="fill: none; stroke: #dde5e7; stroke-width: 0.8; stroke-linecap: square"/>
     </g>
     <g id="line2d_21">
      <g>
       <use xlink:href="#mb272a21e32" x="540.801305" y="211.192" style="fill: #66747c; stroke: #66747c; stroke-width: 0.8"/>
      </g>
     </g>
     <g id="text_15">
      <!-- 1 -->
      <g style="fill: #66747c" transform="translate(537.460993 226.170359) scale(0.105 -0.105)">
       <use xlink:href="#DejaVuSans-31"/>
      </g>
     </g>
    </g>
    <g id="xtick_8">
     <g id="line2d_22">
      <path d="M 606.786671 211.192 
L 606.786671 89.592 
" clip-path="url(#p4d06373781)" style="fill: none; stroke: #dde5e7; stroke-width: 0.8; stroke-linecap: square"/>
     </g>
     <g id="line2d_23">
      <g>
       <use xlink:href="#mb272a21e32" x="606.786671" y="211.192" style="fill: #66747c; stroke: #66747c; stroke-width: 0.8"/>
      </g>
     </g>
     <g id="text_16">
      <!-- 2 -->
      <g style="fill: #66747c" transform="translate(603.446359 226.170359) scale(0.105 -0.105)">
       <use xlink:href="#DejaVuSans-32"/>
      </g>
     </g>
    </g>
    <g id="text_17">
     <!-- Разность точности DoRA − LoRA, п.п. -->
     <g style="fill: #15242d" transform="translate(408.905977 240.332391) scale(0.105 -0.105)">
      <use xlink:href="#DejaVuSans-420"/>
      <use xlink:href="#DejaVuSans-430" transform="translate(60.302734 0)"/>
      <use xlink:href="#DejaVuSans-437" transform="translate(121.582031 0)"/>
      <use xlink:href="#DejaVuSans-43d" transform="translate(174.755859 0)"/>
      <use xlink:href="#DejaVuSans-43e" transform="translate(240.136719 0)"/>
      <use xlink:href="#DejaVuSans-441" transform="translate(301.318359 0)"/>
      <use xlink:href="#DejaVuSans-442" transform="translate(356.298828 0)"/>
      <use xlink:href="#DejaVuSans-44c" transform="translate(414.550781 0)"/>
      <use xlink:href="#DejaVuSans-20" transform="translate(473.486328 0)"/>
      <use xlink:href="#DejaVuSans-442" transform="translate(505.273438 0)"/>
      <use xlink:href="#DejaVuSans-43e" transform="translate(563.525391 0)"/>
      <use xlink:href="#DejaVuSans-447" transform="translate(624.707031 0)"/>
      <use xlink:href="#DejaVuSans-43d" transform="translate(683.789062 0)"/>
      <use xlink:href="#DejaVuSans-43e" transform="translate(749.169922 0)"/>
      <use xlink:href="#DejaVuSans-441" transform="translate(810.351562 0)"/>
      <use xlink:href="#DejaVuSans-442" transform="translate(865.332031 0)"/>
      <use xlink:href="#DejaVuSans-438" transform="translate(923.583984 0)"/>
      <use xlink:href="#DejaVuSans-20" transform="translate(988.574219 0)"/>
      <use xlink:href="#DejaVuSans-44" transform="translate(1020.361328 0)"/>
      <use xlink:href="#DejaVuSans-6f" transform="translate(1097.363281 0)"/>
      <use xlink:href="#DejaVuSans-52" transform="translate(1158.544922 0)"/>
      <use xlink:href="#DejaVuSans-41" transform="translate(1224.027344 0)"/>
      <use xlink:href="#DejaVuSans-20" transform="translate(1292.435547 0)"/>
      <use xlink:href="#DejaVuSans-2212" transform="translate(1324.222656 0)"/>
      <use xlink:href="#DejaVuSans-20" transform="translate(1408.011719 0)"/>
      <use xlink:href="#DejaVuSans-4c" transform="translate(1439.798828 0)"/>
      <use xlink:href="#DejaVuSans-6f" transform="translate(1493.761719 0)"/>
      <use xlink:href="#DejaVuSans-52" transform="translate(1554.943359 0)"/>
      <use xlink:href="#DejaVuSans-41" transform="translate(1620.425781 0)"/>
      <use xlink:href="#DejaVuSans-2c" transform="translate(1688.833984 0)"/>
      <use xlink:href="#DejaVuSans-20" transform="translate(1720.621094 0)"/>
      <use xlink:href="#DejaVuSans-43f" transform="translate(1752.408203 0)"/>
      <use xlink:href="#DejaVuSans-2e" transform="translate(1817.789062 0)"/>
      <use xlink:href="#DejaVuSans-43f" transform="translate(1849.576172 0)"/>
      <use xlink:href="#DejaVuSans-2e" transform="translate(1914.957031 0)"/>
     </g>
    </g>
   </g>
   <g id="matplotlib.axis_4">
    <g id="ytick_4">
     <g id="line2d_24">
      <g>
       <use xlink:href="#m3f8f356171" x="375.837891" y="95.119273" style="fill: #66747c; stroke: #66747c; stroke-width: 0.8"/>
      </g>
     </g>
    </g>
    <g id="ytick_5">
     <g id="line2d_25">
      <g>
       <use xlink:href="#m3f8f356171" x="375.837891" y="150.392" style="fill: #66747c; stroke: #66747c; stroke-width: 0.8"/>
      </g>
     </g>
    </g>
    <g id="ytick_6">
     <g id="line2d_26">
      <g>
       <use xlink:href="#m3f8f356171" x="375.837891" y="205.664727" style="fill: #66747c; stroke: #66747c; stroke-width: 0.8"/>
      </g>
     </g>
    </g>
   </g>
   <g id="line2d_27">
    <path d="M 474.815939 211.192 
L 474.815939 89.592 
" clip-path="url(#p4d06373781)" style="fill: none; stroke: #15242d; stroke-width: 1.1; stroke-linecap: square"/>
   </g>
   <g id="patch_6">
    <path d="M 375.837891 211.192 
L 375.837891 89.592 
" style="fill: none; stroke: #66747c; stroke-width: 0.8; stroke-linejoin: miter; stroke-linecap: square"/>
   </g>
   <g id="patch_7">
    <path d="M 375.837891 211.192 
L 646.377891 211.192 
" style="fill: none; stroke: #66747c; stroke-width: 0.8; stroke-linejoin: miter; stroke-linecap: square"/>
   </g>
   <g id="LineCollection_2">
    <path d="M 401.320992 95.119273 
L 507.986497 95.119273 
" clip-path="url(#p4d06373781)" style="fill: none; stroke: #0b8f83; stroke-width: 2"/>
    <path d="M 449.564029 150.392 
L 547.723947 150.392 
" clip-path="url(#p4d06373781)" style="fill: none; stroke: #0b8f83; stroke-width: 2"/>
    <path d="M 481.399734 205.664727 
L 589.205316 205.664727 
" clip-path="url(#p4d06373781)" style="fill: none; stroke: #0b8f83; stroke-width: 2"/>
   </g>
   <g id="line2d_28">
    <g clip-path="url(#p4d06373781)">
     <use xlink:href="#mfb2daead7a" x="401.320992" y="95.119273" style="fill: #0b8f83; stroke: #0b8f83; stroke-width: 1.8"/>
     <use xlink:href="#mfb2daead7a" x="449.564029" y="150.392" style="fill: #0b8f83; stroke: #0b8f83; stroke-width: 1.8"/>
     <use xlink:href="#mfb2daead7a" x="481.399734" y="205.664727" style="fill: #0b8f83; stroke: #0b8f83; stroke-width: 1.8"/>
    </g>
   </g>
   <g id="line2d_29">
    <g clip-path="url(#p4d06373781)">
     <use xlink:href="#mfb2daead7a" x="507.986497" y="95.119273" style="fill: #0b8f83; stroke: #0b8f83; stroke-width: 1.8"/>
     <use xlink:href="#mfb2daead7a" x="547.723947" y="150.392" style="fill: #0b8f83; stroke: #0b8f83; stroke-width: 1.8"/>
     <use xlink:href="#mfb2daead7a" x="589.205316" y="205.664727" style="fill: #0b8f83; stroke: #0b8f83; stroke-width: 1.8"/>
    </g>
   </g>
   <g id="text_18">
    <!-- -0.31 -->
    <g style="fill: #15242d" transform="translate(441.683901 110.119273) scale(0.09 -0.09)">
     <defs>
      <path id="DejaVuSans-Bold-33" d="M 2981 2516 
Q 3453 2394 3698 2092 
Q 3944 1791 3944 1325 
Q 3944 631 3412 270 
Q 2881 -91 1863 -91 
Q 1503 -91 1142 -33 
Q 781 25 428 141 
L 428 1069 
Q 766 900 1098 814 
Q 1431 728 1753 728 
Q 2231 728 2486 893 
Q 2741 1059 2741 1369 
Q 2741 1688 2480 1852 
Q 2219 2016 1709 2016 
L 1228 2016 
L 1228 2791 
L 1734 2791 
Q 2188 2791 2409 2933 
Q 2631 3075 2631 3366 
Q 2631 3634 2415 3781 
Q 2200 3928 1806 3928 
Q 1516 3928 1219 3862 
Q 922 3797 628 3669 
L 628 4550 
Q 984 4650 1334 4700 
Q 1684 4750 2022 4750 
Q 2931 4750 3382 4451 
Q 3834 4153 3834 3553 
Q 3834 3144 3618 2883 
Q 3403 2622 2981 2516 
z
" transform="scale(0.015625)"/>
     </defs>
     <use xlink:href="#DejaVuSans-Bold-2d"/>
     <use xlink:href="#DejaVuSans-Bold-30" transform="translate(41.503906 0)"/>
     <use xlink:href="#DejaVuSans-Bold-2e" transform="translate(111.083984 0)"/>
     <use xlink:href="#DejaVuSans-Bold-33" transform="translate(149.072266 0)"/>
     <use xlink:href="#DejaVuSans-Bold-31" transform="translate(218.652344 0)"/>
    </g>
   </g>
   <g id="text_19">
    <!-- +0.36 -->
    <g style="fill: #15242d" transform="translate(483.770785 141.392) scale(0.09 -0.09)">
     <use xlink:href="#DejaVuSans-Bold-2b"/>
     <use xlink:href="#DejaVuSans-Bold-30" transform="translate(83.789062 0)"/>
     <use xlink:href="#DejaVuSans-Bold-2e" transform="translate(153.369141 0)"/>
     <use xlink:href="#DejaVuSans-Bold-33" transform="translate(191.357422 0)"/>
     <use xlink:href="#DejaVuSans-Bold-36" transform="translate(260.9375 0)"/>
    </g>
   </g>
   <g id="text_20">
    <!-- +0.92 -->
    <g style="fill: #15242d" transform="translate(520.429322 196.664727) scale(0.09 -0.09)">
     <use xlink:href="#DejaVuSans-Bold-2b"/>
     <use xlink:href="#DejaVuSans-Bold-30" transform="translate(83.789062 0)"/>
     <use xlink:href="#DejaVuSans-Bold-2e" transform="translate(153.369141 0)"/>
     <use xlink:href="#DejaVuSans-Bold-39" transform="translate(191.357422 0)"/>
     <use xlink:href="#DejaVuSans-Bold-32" transform="translate(260.9375 0)"/>
    </g>
   </g>
   <g id="text_21">
    <!-- CNN · n=10 удержанных сидов -->
    <g style="fill: #15242d" transform="translate(375.837891 83.592) scale(0.13 -0.13)">
     <defs>
      <path id="DejaVuSans-Bold-43" d="M 4288 256 
Q 3956 84 3597 -3 
Q 3238 -91 2847 -91 
Q 1681 -91 1000 561 
Q 319 1213 319 2328 
Q 319 3447 1000 4098 
Q 1681 4750 2847 4750 
Q 3238 4750 3597 4662 
Q 3956 4575 4288 4403 
L 4288 3438 
Q 3953 3666 3628 3772 
Q 3303 3878 2944 3878 
Q 2300 3878 1931 3465 
Q 1563 3053 1563 2328 
Q 1563 1606 1931 1193 
Q 2300 781 2944 781 
Q 3303 781 3628 887 
Q 3953 994 4288 1222 
L 4288 256 
z
" transform="scale(0.015625)"/>
      <path id="DejaVuSans-Bold-4e" d="M 588 4666 
L 1931 4666 
L 3628 1466 
L 3628 4666 
L 4769 4666 
L 4769 0 
L 3425 0 
L 1728 3200 
L 1728 0 
L 588 0 
L 588 4666 
z
" transform="scale(0.015625)"/>
     </defs>
     <use xlink:href="#DejaVuSans-Bold-43"/>
     <use xlink:href="#DejaVuSans-Bold-4e" transform="translate(73.388672 0)"/>
     <use xlink:href="#DejaVuSans-Bold-4e" transform="translate(157.080078 0)"/>
     <use xlink:href="#DejaVuSans-Bold-20" transform="translate(240.771484 0)"/>
     <use xlink:href="#DejaVuSans-Bold-b7" transform="translate(275.585938 0)"/>
     <use xlink:href="#DejaVuSans-Bold-20" transform="translate(313.574219 0)"/>
     <use xlink:href="#DejaVuSans-Bold-6e" transform="translate(348.388672 0)"/>
     <use xlink:href="#DejaVuSans-Bold-3d" transform="translate(419.580078 0)"/>
     <use xlink:href="#DejaVuSans-Bold-31" transform="translate(503.369141 0)"/>
     <use xlink:href="#DejaVuSans-Bold-30" transform="translate(572.949219 0)"/>
     <use xlink:href="#DejaVuSans-Bold-20" transform="translate(642.529297 0)"/>
     <use xlink:href="#DejaVuSans-Bold-443" transform="translate(677.34375 0)"/>
     <use xlink:href="#DejaVuSans-Bold-434" transform="translate(742.529297 0)"/>
     <use xlink:href="#DejaVuSans-Bold-435" transform="translate(823.291016 0)"/>
     <use xlink:href="#DejaVuSans-Bold-440" transform="translate(891.113281 0)"/>
     <use xlink:href="#DejaVuSans-Bold-436" transform="translate(962.695312 0)"/>
     <use xlink:href="#DejaVuSans-Bold-430" transform="translate(1062.207031 0)"/>
     <use xlink:href="#DejaVuSans-Bold-43d" transform="translate(1129.6875 0)"/>
     <use xlink:href="#DejaVuSans-Bold-43d" transform="translate(1198.779297 0)"/>
     <use xlink:href="#DejaVuSans-Bold-44b" transform="translate(1267.871094 0)"/>
     <use xlink:href="#DejaVuSans-Bold-445" transform="translate(1358.300781 0)"/>
     <use xlink:href="#DejaVuSans-Bold-20" transform="translate(1422.802734 0)"/>
     <use xlink:href="#DejaVuSans-Bold-441" transform="translate(1457.617188 0)"/>
     <use xlink:href="#DejaVuSans-Bold-438" transform="translate(1516.894531 0)"/>
     <use xlink:href="#DejaVuSans-Bold-434" transform="translate(1586.962891 0)"/>
     <use xlink:href="#DejaVuSans-Bold-43e" transform="translate(1667.724609 0)"/>
     <use xlink:href="#DejaVuSans-Bold-432" transform="translate(1736.425781 0)"/>
    </g>
   </g>
   <g id="line2d_30">
    <defs>
     <path id="m7072d6e371" d="M -3.5 3.5 
L 3.5 3.5 
L 3.5 -3.5 
L -3.5 -3.5 
z
" style="stroke: #0b8f83; stroke-width: 1.8; stroke-linejoin: miter"/>
    </defs>
    <g clip-path="url(#p4d06373781)">
     <use xlink:href="#m7072d6e371" x="454.653744" y="95.119273" style="fill: #ffffff; stroke: #0b8f83; stroke-width: 1.8; stroke-linejoin: miter"/>
     <use xlink:href="#m7072d6e371" x="498.643988" y="150.392" style="fill: #ffffff; stroke: #0b8f83; stroke-width: 1.8; stroke-linejoin: miter"/>
     <use xlink:href="#m7072d6e371" x="535.302525" y="205.664727" style="fill: #ffffff; stroke: #0b8f83; stroke-width: 1.8; stroke-linejoin: miter"/>
    </g>
   </g>
  </g>
  <g id="text_22">
   <!-- Парные оценки на удержанных сидах -->
   <g style="fill: #15242d" transform="translate(41.685891 16.675594) scale(0.126 -0.126)">
    <defs>
     <path id="DejaVuSans-Bold-41f" d="M 4769 4666 
L 4769 0 
L 3566 0 
L 3566 3756 
L 1791 3756 
L 1791 0 
L 588 0 
L 588 4666 
L 4769 4666 
z
" transform="scale(0.015625)"/>
     <path id="DejaVuSans-Bold-446" d="M 3666 -884 
L 3666 0 
L 538 0 
L 538 3500 
L 1656 3500 
L 1656 800 
L 2766 800 
L 2766 3500 
L 3884 3500 
L 3884 800 
L 4466 800 
L 4466 -884 
L 3666 -884 
z
" transform="scale(0.015625)"/>
     <path id="DejaVuSans-Bold-43a" d="M 538 3500 
L 1656 3500 
L 1656 2316 
L 2903 3500 
L 4128 3500 
L 2634 2078 
L 4250 0 
L 3094 0 
L 1972 1447 
L 1656 1147 
L 1656 0 
L 538 0 
L 538 3500 
z
" transform="scale(0.015625)"/>
    </defs>
    <use xlink:href="#DejaVuSans-Bold-41f"/>
    <use xlink:href="#DejaVuSans-Bold-430" transform="translate(83.691406 0)"/>
    <use xlink:href="#DejaVuSans-Bold-440" transform="translate(151.171875 0)"/>
    <use xlink:href="#DejaVuSans-Bold-43d" transform="translate(222.753906 0)"/>
    <use xlink:href="#DejaVuSans-Bold-44b" transform="translate(291.845703 0)"/>
    <use xlink:href="#DejaVuSans-Bold-435" transform="translate(382.275391 0)"/>
    <use xlink:href="#DejaVuSans-Bold-20" transform="translate(450.097656 0)"/>
    <use xlink:href="#DejaVuSans-Bold-43e" transform="translate(484.912109 0)"/>
    <use xlink:href="#DejaVuSans-Bold-446" transform="translate(553.613281 0)"/>
    <use xlink:href="#DejaVuSans-Bold-435" transform="translate(627.734375 0)"/>
    <use xlink:href="#DejaVuSans-Bold-43d" transform="translate(695.556641 0)"/>
    <use xlink:href="#DejaVuSans-Bold-43a" transform="translate(764.648438 0)"/>
    <use xlink:href="#DejaVuSans-Bold-438" transform="translate(832.519531 0)"/>
    <use xlink:href="#DejaVuSans-Bold-20" transform="translate(902.587891 0)"/>
    <use xlink:href="#DejaVuSans-Bold-43d" transform="translate(937.402344 0)"/>
    <use xlink:href="#DejaVuSans-Bold-430" transform="translate(1006.494141 0)"/>
    <use xlink:href="#DejaVuSans-Bold-20" transform="translate(1073.974609 0)"/>
    <use xlink:href="#DejaVuSans-Bold-443" transform="translate(1108.789062 0)"/>
    <use xlink:href="#DejaVuSans-Bold-434" transform="translate(1173.974609 0)"/>
    <use xlink:href="#DejaVuSans-Bold-435" transform="translate(1254.736328 0)"/>
    <use xlink:href="#DejaVuSans-Bold-440" transform="translate(1322.558594 0)"/>
    <use xlink:href="#DejaVuSans-Bold-436" transform="translate(1394.140625 0)"/>
    <use xlink:href="#DejaVuSans-Bold-430" transform="translate(1493.652344 0)"/>
    <use xlink:href="#DejaVuSans-Bold-43d" transform="translate(1561.132812 0)"/>
    <use xlink:href="#DejaVuSans-Bold-43d" transform="translate(1630.224609 0)"/>
    <use xlink:href="#DejaVuSans-Bold-44b" transform="translate(1699.316406 0)"/>
    <use xlink:href="#DejaVuSans-Bold-445" transform="translate(1789.746094 0)"/>
    <use xlink:href="#DejaVuSans-Bold-20" transform="translate(1854.248047 0)"/>
    <use xlink:href="#DejaVuSans-Bold-441" transform="translate(1889.0625 0)"/>
    <use xlink:href="#DejaVuSans-Bold-438" transform="translate(1948.339844 0)"/>
    <use xlink:href="#DejaVuSans-Bold-434" transform="translate(2018.408203 0)"/>
    <use xlink:href="#DejaVuSans-Bold-430" transform="translate(2099.169922 0)"/>
    <use xlink:href="#DejaVuSans-Bold-445" transform="translate(2166.650391 0)"/>
   </g>
  </g>
  <g id="text_23">
   <!-- Среднее и 95%-й парный t-интервал; один фиксированный чекпоинт на архитектуру -->
   <g style="fill: #66747c" transform="translate(41.685891 27.648) scale(0.095 -0.095)">
    <defs>
     <path id="DejaVuSans-434" d="M 1384 459 
L 3053 459 
L 3053 3041 
L 1844 3041 
L 1844 2603 
Q 1844 1316 1475 628 
L 1384 459 
z
M 550 459 
Q 834 584 959 850 
Q 1266 1509 1266 2838 
L 1266 3500 
L 3631 3500 
L 3631 459 
L 4091 459 
L 4091 -884 
L 3631 -884 
L 3631 0 
L 794 0 
L 794 -884 
L 334 -884 
L 334 459 
L 550 459 
z
" transform="scale(0.015625)"/>
     <path id="DejaVuSans-39" d="M 703 97 
L 703 672 
Q 941 559 1184 500 
Q 1428 441 1663 441 
Q 2288 441 2617 861 
Q 2947 1281 2994 2138 
Q 2813 1869 2534 1725 
Q 2256 1581 1919 1581 
Q 1219 1581 811 2004 
Q 403 2428 403 3163 
Q 403 3881 828 4315 
Q 1253 4750 1959 4750 
Q 2769 4750 3195 4129 
Q 3622 3509 3622 2328 
Q 3622 1225 3098 567 
Q 2575 -91 1691 -91 
Q 1453 -91 1209 -44 
Q 966 3 703 97 
z
M 1959 2075 
Q 2384 2075 2632 2365 
Q 2881 2656 2881 3163 
Q 2881 3666 2632 3958 
Q 2384 4250 1959 4250 
Q 1534 4250 1286 3958 
Q 1038 3666 1038 3163 
Q 1038 2656 1286 2365 
Q 1534 2075 1959 2075 
z
" transform="scale(0.015625)"/>
     <path id="DejaVuSans-35" d="M 691 4666 
L 3169 4666 
L 3169 4134 
L 1269 4134 
L 1269 2991 
Q 1406 3038 1543 3061 
Q 1681 3084 1819 3084 
Q 2600 3084 3056 2656 
Q 3513 2228 3513 1497 
Q 3513 744 3044 326 
Q 2575 -91 1722 -91 
Q 1428 -91 1123 -41 
Q 819 9 494 109 
L 494 744 
Q 775 591 1075 516 
Q 1375 441 1709 441 
Q 2250 441 2565 725 
Q 2881 1009 2881 1497 
Q 2881 1984 2565 2268 
Q 2250 2553 1709 2553 
Q 1456 2553 1204 2497 
Q 953 2441 691 2322 
L 691 4666 
z
" transform="scale(0.015625)"/>
     <path id="DejaVuSans-25" d="M 4653 2053 
Q 4381 2053 4226 1822 
Q 4072 1591 4072 1178 
Q 4072 772 4226 539 
Q 4381 306 4653 306 
Q 4919 306 5073 539 
Q 5228 772 5228 1178 
Q 5228 1588 5073 1820 
Q 4919 2053 4653 2053 
z
M 4653 2450 
Q 5147 2450 5437 2106 
Q 5728 1763 5728 1178 
Q 5728 594 5436 251 
Q 5144 -91 4653 -91 
Q 4153 -91 3862 251 
Q 3572 594 3572 1178 
Q 3572 1766 3864 2108 
Q 4156 2450 4653 2450 
z
M 1428 4353 
Q 1159 4353 1004 4120 
Q 850 3888 850 3481 
Q 850 3069 1003 2837 
Q 1156 2606 1428 2606 
Q 1700 2606 1854 2837 
Q 2009 3069 2009 3481 
Q 2009 3884 1853 4118 
Q 1697 4353 1428 4353 
z
M 4250 4750 
L 4750 4750 
L 1831 -91 
L 1331 -91 
L 4250 4750 
z
M 1428 4750 
Q 1922 4750 2215 4408 
Q 2509 4066 2509 3481 
Q 2509 2891 2217 2550 
Q 1925 2209 1428 2209 
Q 931 2209 642 2551 
Q 353 2894 353 3481 
Q 353 4063 643 4406 
Q 934 4750 1428 4750 
z
" transform="scale(0.015625)"/>
     <path id="DejaVuSans-2d" d="M 313 2009 
L 1997 2009 
L 1997 1497 
L 313 1497 
L 313 2009 
z
" transform="scale(0.015625)"/>
     <path id="DejaVuSans-74" d="M 1172 4494 
L 1172 3500 
L 2356 3500 
L 2356 3053 
L 1172 3053 
L 1172 1153 
Q 1172 725 1289 603 
Q 1406 481 1766 481 
L 2356 481 
L 2356 0 
L 1766 0 
Q 1100 0 847 248 
Q 594 497 594 1153 
L 594 3053 
L 172 3053 
L 172 3500 
L 594 3500 
L 594 4494 
L 1172 4494 
z
" transform="scale(0.015625)"/>
     <path id="DejaVuSans-43b" d="M 238 0 
L 238 478 
Q 806 566 981 959 
Q 1194 1513 1194 2928 
L 1194 3500 
L 3559 3500 
L 3559 0 
L 2984 0 
L 2984 3041 
L 1769 3041 
L 1769 2694 
Q 1769 1344 1494 738 
Q 1200 91 238 0 
z
" transform="scale(0.015625)"/>
     <path id="DejaVuSans-3b" d="M 750 3309 
L 1409 3309 
L 1409 2516 
L 750 2516 
L 750 3309 
z
M 750 794 
L 1409 794 
L 1409 256 
L 897 -744 
L 494 -744 
L 750 256 
L 750 794 
z
" transform="scale(0.015625)"/>
     <path id="DejaVuSans-444" d="M 947 1747 
Q 947 1013 1173 702 
Q 1400 391 1784 391 
Q 2091 391 2447 916 
L 2447 2578 
Q 2091 3103 1784 3103 
Q 1400 3103 1173 2792 
Q 947 2481 947 1747 
z
M 2447 -1331 
L 2447 447 
Q 2269 153 2064 31 
Q 1859 -91 1600 -91 
Q 1078 -91 714 392 
Q 350 875 350 1734 
Q 350 2594 714 3089 
Q 1078 3584 1600 3584 
Q 1859 3584 2064 3465 
Q 2269 3347 2447 3053 
L 2447 4666 
L 3025 4666 
L 3025 3053 
Q 3203 3347 3408 3465 
Q 3613 3584 3872 3584 
Q 4394 3584 4758 3089 
Q 5122 2594 5122 1734 
Q 5122 875 4758 392 
Q 4394 -91 3872 -91 
Q 3613 -91 3408 31 
Q 3203 153 3025 447 
L 3025 -1331 
L 2447 -1331 
z
M 4525 1747 
Q 4525 2481 4298 2792 
Q 4072 3103 3688 3103 
Q 3381 3103 3025 2578 
L 3025 916 
Q 3381 391 3688 391 
Q 4072 391 4298 702 
Q 4525 1013 4525 1747 
z
" transform="scale(0.015625)"/>
     <path id="DejaVuSans-43a" d="M 581 3500 
L 1153 3500 
L 1153 1856 
L 2775 3500 
L 3481 3500 
L 2144 2147 
L 3653 0 
L 3009 0 
L 1769 1766 
L 1153 1141 
L 1153 0 
L 581 0 
L 581 3500 
z
" transform="scale(0.015625)"/>
     <path id="DejaVuSans-445" d="M 3513 3500 
L 2247 1797 
L 3578 0 
L 2900 0 
L 1881 1375 
L 863 0 
L 184 0 
L 1544 1831 
L 300 3500 
L 978 3500 
L 1906 2253 
L 2834 3500 
L 3513 3500 
z
" transform="scale(0.015625)"/>
     <path id="DejaVuSans-443" d="M 2059 -325 
Q 1816 -950 1584 -1140 
Q 1353 -1331 966 -1331 
L 506 -1331 
L 506 -850 
L 844 -850 
Q 1081 -850 1212 -737 
Q 1344 -625 1503 -206 
L 1606 56 
L 191 3500 
L 800 3500 
L 1894 763 
L 2988 3500 
L 3597 3500 
L 2059 -325 
z
" transform="scale(0.015625)"/>
    </defs>
    <use xlink:href="#DejaVuSans-421"/>
    <use xlink:href="#DejaVuSans-440" transform="translate(69.824219 0)"/>
    <use xlink:href="#DejaVuSans-435" transform="translate(133.300781 0)"/>
    <use xlink:href="#DejaVuSans-434" transform="translate(194.824219 0)"/>
    <use xlink:href="#DejaVuSans-43d" transform="translate(263.964844 0)"/>
    <use xlink:href="#DejaVuSans-435" transform="translate(329.345703 0)"/>
    <use xlink:href="#DejaVuSans-435" transform="translate(390.869141 0)"/>
    <use xlink:href="#DejaVuSans-20" transform="translate(452.392578 0)"/>
    <use xlink:href="#DejaVuSans-438" transform="translate(484.179688 0)"/>
    <use xlink:href="#DejaVuSans-20" transform="translate(549.169922 0)"/>
    <use xlink:href="#DejaVuSans-39" transform="translate(580.957031 0)"/>
    <use xlink:href="#DejaVuSans-35" transform="translate(644.580078 0)"/>
    <use xlink:href="#DejaVuSans-25" transform="translate(708.203125 0)"/>
    <use xlink:href="#DejaVuSans-2d" transform="translate(803.222656 0)"/>
    <use xlink:href="#DejaVuSans-439" transform="translate(839.306641 0)"/>
    <use xlink:href="#DejaVuSans-20" transform="translate(904.296875 0)"/>
    <use xlink:href="#DejaVuSans-43f" transform="translate(936.083984 0)"/>
    <use xlink:href="#DejaVuSans-430" transform="translate(1001.464844 0)"/>
    <use xlink:href="#DejaVuSans-440" transform="translate(1062.744141 0)"/>
    <use xlink:href="#DejaVuSans-43d" transform="translate(1126.220703 0)"/>
    <use xlink:href="#DejaVuSans-44b" transform="translate(1191.601562 0)"/>
    <use xlink:href="#DejaVuSans-439" transform="translate(1270.556641 0)"/>
    <use xlink:href="#DejaVuSans-20" transform="translate(1335.546875 0)"/>
    <use xlink:href="#DejaVuSans-74" transform="translate(1367.333984 0)"/>
    <use xlink:href="#DejaVuSans-2d" transform="translate(1406.542969 0)"/>
    <use xlink:href="#DejaVuSans-438" transform="translate(1442.626953 0)"/>
    <use xlink:href="#DejaVuSans-43d" transform="translate(1507.617188 0)"/>
    <use xlink:href="#DejaVuSans-442" transform="translate(1572.998047 0)"/>
    <use xlink:href="#DejaVuSans-435" transform="translate(1631.25 0)"/>
    <use xlink:href="#DejaVuSans-440" transform="translate(1692.773438 0)"/>
    <use xlink:href="#DejaVuSans-432" transform="translate(1756.25 0)"/>
    <use xlink:href="#DejaVuSans-430" transform="translate(1815.185547 0)"/>
    <use xlink:href="#DejaVuSans-43b" transform="translate(1876.464844 0)"/>
    <use xlink:href="#DejaVuSans-3b" transform="translate(1940.380859 0)"/>
    <use xlink:href="#DejaVuSans-20" transform="translate(1974.072266 0)"/>
    <use xlink:href="#DejaVuSans-43e" transform="translate(2005.859375 0)"/>
    <use xlink:href="#DejaVuSans-434" transform="translate(2067.041016 0)"/>
    <use xlink:href="#DejaVuSans-438" transform="translate(2136.181641 0)"/>
    <use xlink:href="#DejaVuSans-43d" transform="translate(2201.171875 0)"/>
    <use xlink:href="#DejaVuSans-20" transform="translate(2266.552734 0)"/>
    <use xlink:href="#DejaVuSans-444" transform="translate(2298.339844 0)"/>
    <use xlink:href="#DejaVuSans-438" transform="translate(2383.837891 0)"/>
    <use xlink:href="#DejaVuSans-43a" transform="translate(2448.828125 0)"/>
    <use xlink:href="#DejaVuSans-441" transform="translate(2509.228516 0)"/>
    <use xlink:href="#DejaVuSans-438" transform="translate(2564.208984 0)"/>
    <use xlink:href="#DejaVuSans-440" transform="translate(2629.199219 0)"/>
    <use xlink:href="#DejaVuSans-43e" transform="translate(2692.675781 0)"/>
    <use xlink:href="#DejaVuSans-432" transform="translate(2753.857422 0)"/>
    <use xlink:href="#DejaVuSans-430" transform="translate(2812.792969 0)"/>
    <use xlink:href="#DejaVuSans-43d" transform="translate(2874.072266 0)"/>
    <use xlink:href="#DejaVuSans-43d" transform="translate(2939.453125 0)"/>
    <use xlink:href="#DejaVuSans-44b" transform="translate(3004.833984 0)"/>
    <use xlink:href="#DejaVuSans-439" transform="translate(3083.789062 0)"/>
    <use xlink:href="#DejaVuSans-20" transform="translate(3148.779297 0)"/>
    <use xlink:href="#DejaVuSans-447" transform="translate(3180.566406 0)"/>
    <use xlink:href="#DejaVuSans-435" transform="translate(3239.648438 0)"/>
    <use xlink:href="#DejaVuSans-43a" transform="translate(3301.171875 0)"/>
    <use xlink:href="#DejaVuSans-43f" transform="translate(3361.572266 0)"/>
    <use xlink:href="#DejaVuSans-43e" transform="translate(3426.953125 0)"/>
    <use xlink:href="#DejaVuSans-438" transform="translate(3488.134766 0)"/>
    <use xlink:href="#DejaVuSans-43d" transform="translate(3553.125 0)"/>
    <use xlink:href="#DejaVuSans-442" transform="translate(3618.505859 0)"/>
    <use xlink:href="#DejaVuSans-20" transform="translate(3676.757812 0)"/>
    <use xlink:href="#DejaVuSans-43d" transform="translate(3708.544922 0)"/>
    <use xlink:href="#DejaVuSans-430" transform="translate(3773.925781 0)"/>
    <use xlink:href="#DejaVuSans-20" transform="translate(3835.205078 0)"/>
    <use xlink:href="#DejaVuSans-430" transform="translate(3866.992188 0)"/>
    <use xlink:href="#DejaVuSans-440" transform="translate(3928.271484 0)"/>
    <use xlink:href="#DejaVuSans-445" transform="translate(3991.748047 0)"/>
    <use xlink:href="#DejaVuSans-438" transform="translate(4050.927734 0)"/>
    <use xlink:href="#DejaVuSans-442" transform="translate(4115.917969 0)"/>
    <use xlink:href="#DejaVuSans-435" transform="translate(4174.169922 0)"/>
    <use xlink:href="#DejaVuSans-43a" transform="translate(4235.693359 0)"/>
    <use xlink:href="#DejaVuSans-442" transform="translate(4296.09375 0)"/>
    <use xlink:href="#DejaVuSans-443" transform="translate(4354.345703 0)"/>
    <use xlink:href="#DejaVuSans-440" transform="translate(4413.525391 0)"/>
    <use xlink:href="#DejaVuSans-443" transform="translate(4477.001953 0)"/>
   </g>
  </g>
 </g>
 <defs>
  <clipPath id="p34cbe676df">
   <rect x="80.797891" y="89.592" width="270.54" height="121.6"/>
  </clipPath>
  <clipPath id="p4d06373781">
   <rect x="375.837891" y="89.592" width="270.54" height="121.6"/>
  </clipPath>
 </defs>
</svg>
