<?xml version="1.0" encoding="utf-8" standalone="no"?>
<!DOCTYPE svg PUBLIC "-//W3C//DTD SVG 1.1//EN"
  "http://www.w3.org/Graphics/SVG/1.1/DTD/svg11.dtd">
<svg xmlns:xlink="http://www.w3.org/1999/xlink" width="506.670937pt" height="284.788359pt" viewBox="0 0 506.670937 284.788359" xmlns="http://www.w3.org/2000/svg" version="1.1">
 <metadata>
  <rdf:RDF xmlns:dc="http://purl.org/dc/elements/1.1/" xmlns:cc="http://creativecommons.org/ns#" xmlns:rdf="http://www.w3.org/1999/02/22-rdf-syntax-ns#">
   <cc:Work>
    <dc:type rdf:resource="http://purl.org/dc/dcmitype/StillImage"/>
    <dc:date>2026-07-21T03:44:07.009058</dc:date>
    <dc:format>image/svg+xml</dc:format>
    <dc:creator>
     <cc:Agent>
      <dc:title>Matplotlib v3.10.8, https://matplotlib.org/</dc:title>
     </cc:Agent>
    </dc:creator>
   </cc:Work>
  </rdf:RDF>
 </metadata>
 <defs>
  <style type="text/css">*{stroke-linejoin: round; stroke-linecap: butt}</style>
 </defs>
 <g id="figure_1">
  <g id="patch_1">
   <path d="M 0 284.788359 
L 506.670937 284.788359 
L 506.670937 0 
L 0 0 
z
" style="fill: #ffffff"/>
  </g>
  <g id="axes_1">
   <g id="patch_2">
    <path d="M 51.740938 246.085469 
L 499.470937 246.085469 
L 499.470937 45.077969 
L 51.740938 45.077969 
z
" style="fill: #ffffff"/>
   </g>
   <g id="matplotlib.axis_1">
    <g id="xtick_1">
     <g id="line2d_1">
      <path d="M 72.092301 246.085469 
L 72.092301 45.077969 
" clip-path="url(#p321057501f)" style="fill: none; stroke: #dde5e7; stroke-width: 0.8; stroke-linecap: square"/>
     </g>
     <g id="line2d_2">
      <defs>
       <path id="mdf938a343d" d="M 0 0 
L 0 3.5 
" style="stroke: #66747c; stroke-width: 0.8"/>
      </defs>
      <g>
       <use xlink:href="#mdf938a343d" x="72.092301" y="246.085469" style="fill: #66747c; stroke: #66747c; stroke-width: 0.8"/>
      </g>
     </g>
     <g id="text_1">
      <!-- 50 -->
      <g style="fill: #66747c" transform="translate(65.411676 261.063828) scale(0.105 -0.105)">
       <defs>
        <path id="DejaVuSans-35" d="M 691 4666 
L 3169 4666 
L 3169 4134 
L 1269 4134 
L 1269 2991 
Q 1406 3038 1543 3061 
Q 1681 3084 1819 3084 
Q 2600 3084 3056 2656 
Q 3513 2228 3513 1497 
Q 3513 744 3044 326 
Q 2575 -91 1722 -91 
Q 1428 -91 1123 -41 
Q 819 9 494 109 
L 494 744 
Q 775 591 1075 516 
Q 1375 441 1709 441 
Q 2250 441 2565 725 
Q 2881 1009 2881 1497 
Q 2881 1984 2565 2268 
Q 2250 2553 1709 2553 
Q 1456 2553 1204 2497 
Q 953 2441 691 2322 
L 691 4666 
z
" transform="scale(0.015625)"/>
        <path id="DejaVuSans-30" d="M 2034 4250 
Q 1547 4250 1301 3770 
Q 1056 3291 1056 2328 
Q 1056 1369 1301 889 
Q 1547 409 2034 409 
Q 2525 409 2770 889 
Q 3016 1369 3016 2328 
Q 3016 3291 2770 3770 
Q 2525 4250 2034 4250 
z
M 2034 4750 
Q 2819 4750 3233 4129 
Q 3647 3509 3647 2328 
Q 3647 1150 3233 529 
Q 2819 -91 2034 -91 
Q 1250 -91 836 529 
Q 422 1150 422 2328 
Q 422 3509 836 4129 
Q 1250 4750 2034 4750 
z
" transform="scale(0.015625)"/>
       </defs>
       <use xlink:href="#DejaVuSans-35"/>
       <use xlink:href="#DejaVuSans-30" transform="translate(63.623047 0)"/>
      </g>
     </g>
    </g>
    <g id="xtick_2">
     <g id="line2d_3">
      <path d="M 130.239054 246.085469 
L 130.239054 45.077969 
" clip-path="url(#p321057501f)" style="fill: none; stroke: #dde5e7; stroke-width: 0.8; stroke-linecap: square"/>
     </g>
     <g id="line2d_4">
      <g>
       <use xlink:href="#mdf938a343d" x="130.239054" y="246.085469" style="fill: #66747c; stroke: #66747c; stroke-width: 0.8"/>
      </g>
     </g>
     <g id="text_2">
      <!-- 100 -->
      <g style="fill: #66747c" transform="translate(120.218117 261.063828) scale(0.105 -0.105)">
       <defs>
        <path id="DejaVuSans-31" d="M 794 531 
L 1825 531 
L 1825 4091 
L 703 3866 
L 703 4441 
L 1819 4666 
L 2450 4666 
L 2450 531 
L 3481 531 
L 3481 0 
L 794 0 
L 794 531 
z
" transform="scale(0.015625)"/>
       </defs>
       <use xlink:href="#DejaVuSans-31"/>
       <use xlink:href="#DejaVuSans-30" transform="translate(63.623047 0)"/>
       <use xlink:href="#DejaVuSans-30" transform="translate(127.246094 0)"/>
      </g>
     </g>
    </g>
    <g id="xtick_3">
     <g id="line2d_5">
      <path d="M 246.532561 246.085469 
L 246.532561 45.077969 
" clip-path="url(#p321057501f)" style="fill: none; stroke: #dde5e7; stroke-width: 0.8; stroke-linecap: square"/>
     </g>
     <g id="line2d_6">
      <g>
       <use xlink:href="#mdf938a343d" x="246.532561" y="246.085469" style="fill: #66747c; stroke: #66747c; stroke-width: 0.8"/>
      </g>
     </g>
     <g id="text_3">
      <!-- 200 -->
      <g style="fill: #66747c" transform="translate(236.511623 261.063828) scale(0.105 -0.105)">
       <defs>
        <path id="DejaVuSans-32" d="M 1228 531 
L 3431 531 
L 3431 0 
L 469 0 
L 469 531 
Q 828 903 1448 1529 
Q 2069 2156 2228 2338 
Q 2531 2678 2651 2914 
Q 2772 3150 2772 3378 
Q 2772 3750 2511 3984 
Q 2250 4219 1831 4219 
Q 1534 4219 1204 4116 
Q 875 4013 500 3803 
L 500 4441 
Q 881 4594 1212 4672 
Q 1544 4750 1819 4750 
Q 2544 4750 2975 4387 
Q 3406 4025 3406 3419 
Q 3406 3131 3298 2873 
Q 3191 2616 2906 2266 
Q 2828 2175 2409 1742 
Q 1991 1309 1228 531 
z
" transform="scale(0.015625)"/>
       </defs>
       <use xlink:href="#DejaVuSans-32"/>
       <use xlink:href="#DejaVuSans-30" transform="translate(63.623047 0)"/>
       <use xlink:href="#DejaVuSans-30" transform="translate(127.246094 0)"/>
      </g>
     </g>
    </g>
    <g id="xtick_4">
     <g id="line2d_7">
      <path d="M 479.119574 246.085469 
L 479.119574 45.077969 
" clip-path="url(#p321057501f)" style="fill: none; stroke: #dde5e7; stroke-width: 0.8; stroke-linecap: square"/>
     </g>
     <g id="line2d_8">
      <g>
       <use xlink:href="#mdf938a343d" x="479.119574" y="246.085469" style="fill: #66747c; stroke: #66747c; stroke-width: 0.8"/>
      </g>
     </g>
     <g id="text_4">
      <!-- 400 -->
      <g style="fill: #66747c" transform="translate(469.098636 261.063828) scale(0.105 -0.105)">
       <defs>
        <path id="DejaVuSans-34" d="M 2419 4116 
L 825 1625 
L 2419 1625 
L 2419 4116 
z
M 2253 4666 
L 3047 4666 
L 3047 1625 
L 3713 1625 
L 3713 1100 
L 3047 1100 
L 3047 0 
L 2419 0 
L 2419 1100 
L 313 1100 
L 313 1709 
L 2253 4666 
z
" transform="scale(0.015625)"/>
       </defs>
       <use xlink:href="#DejaVuSans-34"/>
       <use xlink:href="#DejaVuSans-30" transform="translate(63.623047 0)"/>
       <use xlink:href="#DejaVuSans-30" transform="translate(127.246094 0)"/>
      </g>
     </g>
    </g>
    <g id="text_5">
     <!-- Целевые примеры для адаптации (баланс по 10 классам) -->
     <g style="fill: #15242d" transform="translate(114.941172 275.404687) scale(0.105 -0.105)">
      <defs>
       <path id="DejaVuSans-426" d="M 4184 0 
L 628 0 
L 628 4666 
L 1259 4666 
L 1259 531 
L 3553 531 
L 3553 4666 
L 4184 4666 
L 4184 531 
L 4716 531 
L 4716 -1003 
L 4184 -1003 
L 4184 0 
z
" transform="scale(0.015625)"/>
       <path id="DejaVuSans-435" d="M 3597 1894 
L 3597 1613 
L 953 1613 
Q 991 1019 1311 708 
Q 1631 397 2203 397 
Q 2534 397 2845 478 
Q 3156 559 3463 722 
L 3463 178 
Q 3153 47 2828 -22 
Q 2503 -91 2169 -91 
Q 1331 -91 842 396 
Q 353 884 353 1716 
Q 353 2575 817 3079 
Q 1281 3584 2069 3584 
Q 2775 3584 3186 3129 
Q 3597 2675 3597 1894 
z
M 3022 2063 
Q 3016 2534 2758 2815 
Q 2500 3097 2075 3097 
Q 1594 3097 1305 2825 
Q 1016 2553 972 2059 
L 3022 2063 
z
" transform="scale(0.015625)"/>
       <path id="DejaVuSans-43b" d="M 238 0 
L 238 478 
Q 806 566 981 959 
Q 1194 1513 1194 2928 
L 1194 3500 
L 3559 3500 
L 3559 0 
L 2984 0 
L 2984 3041 
L 1769 3041 
L 1769 2694 
Q 1769 1344 1494 738 
Q 1200 91 238 0 
z
" transform="scale(0.015625)"/>
       <path id="DejaVuSans-432" d="M 1156 1613 
L 1156 459 
L 1975 459 
Q 2369 459 2575 607 
Q 2781 756 2781 1038 
Q 2781 1319 2575 1466 
Q 2369 1613 1975 1613 
L 1156 1613 
z
M 1156 3041 
L 1156 2072 
L 1913 2072 
Q 2238 2072 2444 2201 
Q 2650 2331 2650 2563 
Q 2650 2794 2444 2917 
Q 2238 3041 1913 3041 
L 1156 3041 
z
M 581 3500 
L 1950 3500 
Q 2566 3500 2897 3275 
Q 3228 3050 3228 2634 
Q 3228 2313 3059 2123 
Q 2891 1934 2559 1888 
Q 2956 1813 3175 1575 
Q 3394 1338 3394 981 
Q 3394 513 3033 256 
Q 2672 0 2003 0 
L 581 0 
L 581 3500 
z
" transform="scale(0.015625)"/>
       <path id="DejaVuSans-44b" d="M 3907 3500 
L 4482 3500 
L 4482 0 
L 3907 0 
L 3907 3500 
z
M 4195 3584 
L 4195 3584 
z
M 2781 1038 
Q 2781 1319 2576 1466 
Q 2372 1613 1978 1613 
L 1159 1613 
L 1159 459 
L 1978 459 
Q 2372 459 2576 607 
Q 2781 756 2781 1038 
z
M 581 3500 
L 1159 3500 
L 1159 2072 
L 2003 2072 
Q 2672 2072 3033 1817 
Q 3394 1563 3394 1038 
Q 3394 513 3033 256 
Q 2672 0 2003 0 
L 581 0 
L 581 3500 
z
" transform="scale(0.015625)"/>
       <path id="DejaVuSans-20" transform="scale(0.015625)"/>
       <path id="DejaVuSans-43f" d="M 3603 3500 
L 3603 0 
L 3025 0 
L 3025 3041 
L 1159 3041 
L 1159 0 
L 581 0 
L 581 3500 
L 3603 3500 
z
" transform="scale(0.015625)"/>
       <path id="DejaVuSans-440" d="M 1159 525 
L 1159 -1331 
L 581 -1331 
L 581 3500 
L 1159 3500 
L 1159 2969 
Q 1341 3281 1617 3432 
Q 1894 3584 2278 3584 
Q 2916 3584 3314 3078 
Q 3713 2572 3713 1747 
Q 3713 922 3314 415 
Q 2916 -91 2278 -91 
Q 1894 -91 1617 61 
Q 1341 213 1159 525 
z
M 3116 1747 
Q 3116 2381 2855 2742 
Q 2594 3103 2138 3103 
Q 1681 3103 1420 2742 
Q 1159 2381 1159 1747 
Q 1159 1113 1420 752 
Q 1681 391 2138 391 
Q 2594 391 2855 752 
Q 3116 1113 3116 1747 
z
" transform="scale(0.015625)"/>
       <path id="DejaVuSans-438" d="M 3578 3500 
L 3578 0 
L 3006 0 
L 3006 2809 
L 1319 0 
L 581 0 
L 581 3500 
L 1153 3500 
L 1153 697 
L 2838 3500 
L 3578 3500 
z
" transform="scale(0.015625)"/>
       <path id="DejaVuSans-43c" d="M 581 3500 
L 1422 3500 
L 2416 1156 
L 3413 3500 
L 4247 3500 
L 4247 0 
L 3669 0 
L 3669 2950 
L 2703 672 
L 2128 672 
L 1159 2950 
L 1159 0 
L 581 0 
L 581 3500 
z
" transform="scale(0.015625)"/>
       <path id="DejaVuSans-434" d="M 1384 459 
L 3053 459 
L 3053 3041 
L 1844 3041 
L 1844 2603 
Q 1844 1316 1475 628 
L 1384 459 
z
M 550 459 
Q 834 584 959 850 
Q 1266 1509 1266 2838 
L 1266 3500 
L 3631 3500 
L 3631 459 
L 4091 459 
L 4091 -884 
L 3631 -884 
L 3631 0 
L 794 0 
L 794 -884 
L 334 -884 
L 334 459 
L 550 459 
z
" transform="scale(0.015625)"/>
       <path id="DejaVuSans-44f" d="M 1181 2491 
Q 1181 2231 1381 2084 
Q 1581 1938 1953 1938 
L 2728 1938 
L 2728 3041 
L 1953 3041 
Q 1581 3041 1381 2897 
Q 1181 2753 1181 2491 
z
M 363 0 
L 1431 1534 
Q 1069 1616 828 1830 
Q 588 2044 588 2491 
Q 588 2997 923 3248 
Q 1259 3500 1938 3500 
L 3306 3500 
L 3306 0 
L 2728 0 
L 2728 1478 
L 2013 1478 
L 981 0 
L 363 0 
z
" transform="scale(0.015625)"/>
       <path id="DejaVuSans-430" d="M 2194 1759 
Q 1497 1759 1228 1600 
Q 959 1441 959 1056 
Q 959 750 1161 570 
Q 1363 391 1709 391 
Q 2188 391 2477 730 
Q 2766 1069 2766 1631 
L 2766 1759 
L 2194 1759 
z
M 3341 1997 
L 3341 0 
L 2766 0 
L 2766 531 
Q 2569 213 2275 61 
Q 1981 -91 1556 -91 
Q 1019 -91 701 211 
Q 384 513 384 1019 
Q 384 1609 779 1909 
Q 1175 2209 1959 2209 
L 2766 2209 
L 2766 2266 
Q 2766 2663 2505 2880 
Q 2244 3097 1772 3097 
Q 1472 3097 1187 3025 
Q 903 2953 641 2809 
L 641 3341 
Q 956 3463 1253 3523 
Q 1550 3584 1831 3584 
Q 2591 3584 2966 3190 
Q 3341 2797 3341 1997 
z
" transform="scale(0.015625)"/>
       <path id="DejaVuSans-442" d="M 188 3500 
L 3541 3500 
L 3541 3041 
L 2147 3041 
L 2147 0 
L 1581 0 
L 1581 3041 
L 188 3041 
L 188 3500 
z
" transform="scale(0.015625)"/>
       <path id="DejaVuSans-446" d="M 3603 0 
L 581 0 
L 581 3500 
L 1159 3500 
L 1159 459 
L 3025 459 
L 3025 3500 
L 3603 3500 
L 3603 459 
L 4063 459 
L 4063 -884 
L 3603 -884 
L 3603 0 
z
" transform="scale(0.015625)"/>
       <path id="DejaVuSans-28" d="M 1984 4856 
Q 1566 4138 1362 3434 
Q 1159 2731 1159 2009 
Q 1159 1288 1364 580 
Q 1569 -128 1984 -844 
L 1484 -844 
Q 1016 -109 783 600 
Q 550 1309 550 2009 
Q 550 2706 781 3412 
Q 1013 4119 1484 4856 
L 1984 4856 
z
" transform="scale(0.015625)"/>
       <path id="DejaVuSans-431" d="M 1991 3584 
Q 2741 3584 3169 3096 
Q 3597 2609 3597 1747 
Q 3597 888 3169 398 
Q 2741 -91 1991 -91 
Q 1238 -91 822 384 
Q 406 859 384 1747 
L 366 2463 
Q 350 2834 350 2963 
Q 350 3463 531 3831 
Q 816 4409 1308 4659 
Q 1800 4909 2625 4916 
Q 3006 4919 3175 4972 
L 3334 4516 
Q 3181 4453 3041 4450 
L 2259 4397 
Q 1866 4369 1628 4231 
Q 1006 3866 947 3388 
L 925 3213 
Q 1331 3584 1991 3584 
z
M 1991 3097 
Q 1528 3097 1259 2736 
Q 991 2375 991 1747 
Q 991 1119 1258 758 
Q 1525 397 1991 397 
Q 2450 397 2719 759 
Q 2988 1122 2988 1747 
Q 2988 2369 2719 2733 
Q 2450 3097 1991 3097 
z
" transform="scale(0.015625)"/>
       <path id="DejaVuSans-43d" d="M 581 3500 
L 1159 3500 
L 1159 2072 
L 3025 2072 
L 3025 3500 
L 3603 3500 
L 3603 0 
L 3025 0 
L 3025 1613 
L 1159 1613 
L 1159 0 
L 581 0 
L 581 3500 
z
" transform="scale(0.015625)"/>
       <path id="DejaVuSans-441" d="M 3122 3366 
L 3122 2828 
Q 2878 2963 2633 3030 
Q 2388 3097 2138 3097 
Q 1578 3097 1268 2742 
Q 959 2388 959 1747 
Q 959 1106 1268 751 
Q 1578 397 2138 397 
Q 2388 397 2633 464 
Q 2878 531 3122 666 
L 3122 134 
Q 2881 22 2623 -34 
Q 2366 -91 2075 -91 
Q 1284 -91 818 406 
Q 353 903 353 1747 
Q 353 2603 823 3093 
Q 1294 3584 2113 3584 
Q 2378 3584 2631 3529 
Q 2884 3475 3122 3366 
z
" transform="scale(0.015625)"/>
       <path id="DejaVuSans-43e" d="M 1959 3097 
Q 1497 3097 1228 2736 
Q 959 2375 959 1747 
Q 959 1119 1226 758 
Q 1494 397 1959 397 
Q 2419 397 2687 759 
Q 2956 1122 2956 1747 
Q 2956 2369 2687 2733 
Q 2419 3097 1959 3097 
z
M 1959 3584 
Q 2709 3584 3137 3096 
Q 3566 2609 3566 1747 
Q 3566 888 3137 398 
Q 2709 -91 1959 -91 
Q 1206 -91 779 398 
Q 353 888 353 1747 
Q 353 2609 779 3096 
Q 1206 3584 1959 3584 
z
" transform="scale(0.015625)"/>
       <path id="DejaVuSans-43a" d="M 581 3500 
L 1153 3500 
L 1153 1856 
L 2775 3500 
L 3481 3500 
L 2144 2147 
L 3653 0 
L 3009 0 
L 1769 1766 
L 1153 1141 
L 1153 0 
L 581 0 
L 581 3500 
z
" transform="scale(0.015625)"/>
       <path id="DejaVuSans-29" d="M 513 4856 
L 1013 4856 
Q 1481 4119 1714 3412 
Q 1947 2706 1947 2009 
Q 1947 1309 1714 600 
Q 1481 -109 1013 -844 
L 513 -844 
Q 928 -128 1133 580 
Q 1338 1288 1338 2009 
Q 1338 2731 1133 3434 
Q 928 4138 513 4856 
z
" transform="scale(0.015625)"/>
      </defs>
      <use xlink:href="#DejaVuSans-426"/>
      <use xlink:href="#DejaVuSans-435" transform="translate(77.636719 0)"/>
      <use xlink:href="#DejaVuSans-43b" transform="translate(139.160156 0)"/>
      <use xlink:href="#DejaVuSans-435" transform="translate(203.076172 0)"/>
      <use xlink:href="#DejaVuSans-432" transform="translate(264.599609 0)"/>
      <use xlink:href="#DejaVuSans-44b" transform="translate(323.535156 0)"/>
      <use xlink:href="#DejaVuSans-435" transform="translate(402.490234 0)"/>
      <use xlink:href="#DejaVuSans-20" transform="translate(464.013672 0)"/>
      <use xlink:href="#DejaVuSans-43f" transform="translate(495.800781 0)"/>
      <use xlink:href="#DejaVuSans-440" transform="translate(561.181641 0)"/>
      <use xlink:href="#DejaVuSans-438" transform="translate(624.658203 0)"/>
      <use xlink:href="#DejaVuSans-43c" transform="translate(689.648438 0)"/>
      <use xlink:href="#DejaVuSans-435" transform="translate(765.087891 0)"/>
      <use xlink:href="#DejaVuSans-440" transform="translate(826.611328 0)"/>
      <use xlink:href="#DejaVuSans-44b" transform="translate(890.087891 0)"/>
      <use xlink:href="#DejaVuSans-20" transform="translate(969.042969 0)"/>
      <use xlink:href="#DejaVuSans-434" transform="translate(1000.830078 0)"/>
      <use xlink:href="#DejaVuSans-43b" transform="translate(1069.970703 0)"/>
      <use xlink:href="#DejaVuSans-44f" transform="translate(1133.886719 0)"/>
      <use xlink:href="#DejaVuSans-20" transform="translate(1194.042969 0)"/>
      <use xlink:href="#DejaVuSans-430" transform="translate(1225.830078 0)"/>
      <use xlink:href="#DejaVuSans-434" transform="translate(1287.109375 0)"/>
      <use xlink:href="#DejaVuSans-430" transform="translate(1356.25 0)"/>
      <use xlink:href="#DejaVuSans-43f" transform="translate(1417.529297 0)"/>
      <use xlink:href="#DejaVuSans-442" transform="translate(1482.910156 0)"/>
      <use xlink:href="#DejaVuSans-430" transform="translate(1541.162109 0)"/>
      <use xlink:href="#DejaVuSans-446" transform="translate(1602.441406 0)"/>
      <use xlink:href="#DejaVuSans-438" transform="translate(1670.507812 0)"/>
      <use xlink:href="#DejaVuSans-438" transform="translate(1735.498047 0)"/>
      <use xlink:href="#DejaVuSans-20" transform="translate(1800.488281 0)"/>
      <use xlink:href="#DejaVuSans-28" transform="translate(1832.275391 0)"/>
      <use xlink:href="#DejaVuSans-431" transform="translate(1871.289062 0)"/>
      <use xlink:href="#DejaVuSans-430" transform="translate(1932.958984 0)"/>
      <use xlink:href="#DejaVuSans-43b" transform="translate(1994.238281 0)"/>
      <use xlink:href="#DejaVuSans-430" transform="translate(2058.154297 0)"/>
      <use xlink:href="#DejaVuSans-43d" transform="translate(2119.433594 0)"/>
      <use xlink:href="#DejaVuSans-441" transform="translate(2184.814453 0)"/>
      <use xlink:href="#DejaVuSans-20" transform="translate(2239.794922 0)"/>
      <use xlink:href="#DejaVuSans-43f" transform="translate(2271.582031 0)"/>
      <use xlink:href="#DejaVuSans-43e" transform="translate(2336.962891 0)"/>
      <use xlink:href="#DejaVuSans-20" transform="translate(2398.144531 0)"/>
      <use xlink:href="#DejaVuSans-31" transform="translate(2429.931641 0)"/>
      <use xlink:href="#DejaVuSans-30" transform="translate(2493.554688 0)"/>
      <use xlink:href="#DejaVuSans-20" transform="translate(2557.177734 0)"/>
      <use xlink:href="#DejaVuSans-43a" transform="translate(2588.964844 0)"/>
      <use xlink:href="#DejaVuSans-43b" transform="translate(2649.365234 0)"/>
      <use xlink:href="#DejaVuSans-430" transform="translate(2713.28125 0)"/>
      <use xlink:href="#DejaVuSans-441" transform="translate(2774.560547 0)"/>
      <use xlink:href="#DejaVuSans-441" transform="translate(2829.541016 0)"/>
      <use xlink:href="#DejaVuSans-430" transform="translate(2884.521484 0)"/>
      <use xlink:href="#DejaVuSans-43c" transform="translate(2945.800781 0)"/>
      <use xlink:href="#DejaVuSans-29" transform="translate(3021.240234 0)"/>
     </g>
    </g>
   </g>
   <g id="matplotlib.axis_2">
    <g id="ytick_1">
     <g id="line2d_9">
      <path d="M 51.740938 232.380412 
L 499.470937 232.380412 
" clip-path="url(#p321057501f)" style="fill: none; stroke: #dde5e7; stroke-width: 0.8; stroke-linecap: square"/>
     </g>
     <g id="line2d_10">
      <defs>
       <path id="mfa06eb1aa5" d="M 0 0 
L -3.5 0 
" style="stroke: #66747c; stroke-width: 0.8"/>
      </defs>
      <g>
       <use xlink:href="#mfa06eb1aa5" x="51.740938" y="232.380412" style="fill: #66747c; stroke: #66747c; stroke-width: 0.8"/>
      </g>
     </g>
     <g id="text_6">
      <!-- 57.5 -->
      <g style="fill: #66747c" transform="translate(21.362031 236.369592) scale(0.105 -0.105)">
       <defs>
        <path id="DejaVuSans-37" d="M 525 4666 
L 3525 4666 
L 3525 4397 
L 1831 0 
L 1172 0 
L 2766 4134 
L 525 4134 
L 525 4666 
z
" transform="scale(0.015625)"/>
        <path id="DejaVuSans-2e" d="M 684 794 
L 1344 794 
L 1344 0 
L 684 0 
L 684 794 
z
" transform="scale(0.015625)"/>
       </defs>
       <use xlink:href="#DejaVuSans-35"/>
       <use xlink:href="#DejaVuSans-37" transform="translate(63.623047 0)"/>
       <use xlink:href="#DejaVuSans-2e" transform="translate(127.246094 0)"/>
       <use xlink:href="#DejaVuSans-35" transform="translate(159.033203 0)"/>
      </g>
     </g>
    </g>
    <g id="ytick_2">
     <g id="line2d_11">
      <path d="M 51.740938 209.538651 
L 499.470937 209.538651 
" clip-path="url(#p321057501f)" style="fill: none; stroke: #dde5e7; stroke-width: 0.8; stroke-linecap: square"/>
     </g>
     <g id="line2d_12">
      <g>
       <use xlink:href="#mfa06eb1aa5" x="51.740938" y="209.538651" style="fill: #66747c; stroke: #66747c; stroke-width: 0.8"/>
      </g>
     </g>
     <g id="text_7">
      <!-- 60.0 -->
      <g style="fill: #66747c" transform="translate(21.362031 213.52783) scale(0.105 -0.105)">
       <defs>
        <path id="DejaVuSans-36" d="M 2113 2584 
Q 1688 2584 1439 2293 
Q 1191 2003 1191 1497 
Q 1191 994 1439 701 
Q 1688 409 2113 409 
Q 2538 409 2786 701 
Q 3034 994 3034 1497 
Q 3034 2003 2786 2293 
Q 2538 2584 2113 2584 
z
M 3366 4563 
L 3366 3988 
Q 3128 4100 2886 4159 
Q 2644 4219 2406 4219 
Q 1781 4219 1451 3797 
Q 1122 3375 1075 2522 
Q 1259 2794 1537 2939 
Q 1816 3084 2150 3084 
Q 2853 3084 3261 2657 
Q 3669 2231 3669 1497 
Q 3669 778 3244 343 
Q 2819 -91 2113 -91 
Q 1303 -91 875 529 
Q 447 1150 447 2328 
Q 447 3434 972 4092 
Q 1497 4750 2381 4750 
Q 2619 4750 2861 4703 
Q 3103 4656 3366 4563 
z
" transform="scale(0.015625)"/>
       </defs>
       <use xlink:href="#DejaVuSans-36"/>
       <use xlink:href="#DejaVuSans-30" transform="translate(63.623047 0)"/>
       <use xlink:href="#DejaVuSans-2e" transform="translate(127.246094 0)"/>
       <use xlink:href="#DejaVuSans-30" transform="translate(159.033203 0)"/>
      </g>
     </g>
    </g>
    <g id="ytick_3">
     <g id="line2d_13">
      <path d="M 51.740938 186.696889 
L 499.470937 186.696889 
" clip-path="url(#p321057501f)" style="fill: none; stroke: #dde5e7; stroke-width: 0.8; stroke-linecap: square"/>
     </g>
     <g id="line2d_14">
      <g>
       <use xlink:href="#mfa06eb1aa5" x="51.740938" y="186.696889" style="fill: #66747c; stroke: #66747c; stroke-width: 0.8"/>
      </g>
     </g>
     <g id="text_8">
      <!-- 62.5 -->
      <g style="fill: #66747c" transform="translate(21.362031 190.686069) scale(0.105 -0.105)">
       <use xlink:href="#DejaVuSans-36"/>
       <use xlink:href="#DejaVuSans-32" transform="translate(63.623047 0)"/>
       <use xlink:href="#DejaVuSans-2e" transform="translate(127.246094 0)"/>
       <use xlink:href="#DejaVuSans-35" transform="translate(159.033203 0)"/>
      </g>
     </g>
    </g>
    <g id="ytick_4">
     <g id="line2d_15">
      <path d="M 51.740938 163.855128 
L 499.470937 163.855128 
" clip-path="url(#p321057501f)" style="fill: none; stroke: #dde5e7; stroke-width: 0.8; stroke-linecap: square"/>
     </g>
     <g id="line2d_16">
      <g>
       <use xlink:href="#mfa06eb1aa5" x="51.740938" y="163.855128" style="fill: #66747c; stroke: #66747c; stroke-width: 0.8"/>
      </g>
     </g>
     <g id="text_9">
      <!-- 65.0 -->
      <g style="fill: #66747c" transform="translate(21.362031 167.844308) scale(0.105 -0.105)">
       <use xlink:href="#DejaVuSans-36"/>
       <use xlink:href="#DejaVuSans-35" transform="translate(63.623047 0)"/>
       <use xlink:href="#DejaVuSans-2e" transform="translate(127.246094 0)"/>
       <use xlink:href="#DejaVuSans-30" transform="translate(159.033203 0)"/>
      </g>
     </g>
    </g>
    <g id="ytick_5">
     <g id="line2d_17">
      <path d="M 51.740938 141.013366 
L 499.470937 141.013366 
" clip-path="url(#p321057501f)" style="fill: none; stroke: #dde5e7; stroke-width: 0.8; stroke-linecap: square"/>
     </g>
     <g id="line2d_18">
      <g>
       <use xlink:href="#mfa06eb1aa5" x="51.740938" y="141.013366" style="fill: #66747c; stroke: #66747c; stroke-width: 0.8"/>
      </g>
     </g>
     <g id="text_10">
      <!-- 67.5 -->
      <g style="fill: #66747c" transform="translate(21.362031 145.002546) scale(0.105 -0.105)">
       <use xlink:href="#DejaVuSans-36"/>
       <use xlink:href="#DejaVuSans-37" transform="translate(63.623047 0)"/>
       <use xlink:href="#DejaVuSans-2e" transform="translate(127.246094 0)"/>
       <use xlink:href="#DejaVuSans-35" transform="translate(159.033203 0)"/>
      </g>
     </g>
    </g>
    <g id="ytick_6">
     <g id="line2d_19">
      <path d="M 51.740938 118.171605 
L 499.470937 118.171605 
" clip-path="url(#p321057501f)" style="fill: none; stroke: #dde5e7; stroke-width: 0.8; stroke-linecap: square"/>
     </g>
     <g id="line2d_20">
      <g>
       <use xlink:href="#mfa06eb1aa5" x="51.740938" y="118.171605" style="fill: #66747c; stroke: #66747c; stroke-width: 0.8"/>
      </g>
     </g>
     <g id="text_11">
      <!-- 70.0 -->
      <g style="fill: #66747c" transform="translate(21.362031 122.160785) scale(0.105 -0.105)">
       <use xlink:href="#DejaVuSans-37"/>
       <use xlink:href="#DejaVuSans-30" transform="translate(63.623047 0)"/>
       <use xlink:href="#DejaVuSans-2e" transform="translate(127.246094 0)"/>
       <use xlink:href="#DejaVuSans-30" transform="translate(159.033203 0)"/>
      </g>
     </g>
    </g>
    <g id="ytick_7">
     <g id="line2d_21">
      <path d="M 51.740938 95.329844 
L 499.470937 95.329844 
" clip-path="url(#p321057501f)" style="fill: none; stroke: #dde5e7; stroke-width: 0.8; stroke-linecap: square"/>
     </g>
     <g id="line2d_22">
      <g>
       <use xlink:href="#mfa06eb1aa5" x="51.740938" y="95.329844" style="fill: #66747c; stroke: #66747c; stroke-width: 0.8"/>
      </g>
     </g>
     <g id="text_12">
      <!-- 72.5 -->
      <g style="fill: #66747c" transform="translate(21.362031 99.319023) scale(0.105 -0.105)">
       <use xlink:href="#DejaVuSans-37"/>
       <use xlink:href="#DejaVuSans-32" transform="translate(63.623047 0)"/>
       <use xlink:href="#DejaVuSans-2e" transform="translate(127.246094 0)"/>
       <use xlink:href="#DejaVuSans-35" transform="translate(159.033203 0)"/>
      </g>
     </g>
    </g>
    <g id="ytick_8">
     <g id="line2d_23">
      <path d="M 51.740938 72.488082 
L 499.470937 72.488082 
" clip-path="url(#p321057501f)" style="fill: none; stroke: #dde5e7; stroke-width: 0.8; stroke-linecap: square"/>
     </g>
     <g id="line2d_24">
      <g>
       <use xlink:href="#mfa06eb1aa5" x="51.740938" y="72.488082" style="fill: #66747c; stroke: #66747c; stroke-width: 0.8"/>
      </g>
     </g>
     <g id="text_13">
      <!-- 75.0 -->
      <g style="fill: #66747c" transform="translate(21.362031 76.477262) scale(0.105 -0.105)">
       <use xlink:href="#DejaVuSans-37"/>
       <use xlink:href="#DejaVuSans-35" transform="translate(63.623047 0)"/>
       <use xlink:href="#DejaVuSans-2e" transform="translate(127.246094 0)"/>
       <use xlink:href="#DejaVuSans-30" transform="translate(159.033203 0)"/>
      </g>
     </g>
    </g>
    <g id="ytick_9">
     <g id="line2d_25">
      <path d="M 51.740938 49.646321 
L 499.470937 49.646321 
" clip-path="url(#p321057501f)" style="fill: none; stroke: #dde5e7; stroke-width: 0.8; stroke-linecap: square"/>
     </g>
     <g id="line2d_26">
      <g>
       <use xlink:href="#mfa06eb1aa5" x="51.740938" y="49.646321" style="fill: #66747c; stroke: #66747c; stroke-width: 0.8"/>
      </g>
     </g>
     <g id="text_14">
      <!-- 77.5 -->
      <g style="fill: #66747c" transform="translate(21.362031 53.635501) scale(0.105 -0.105)">
       <use xlink:href="#DejaVuSans-37"/>
       <use xlink:href="#DejaVuSans-37" transform="translate(63.623047 0)"/>
       <use xlink:href="#DejaVuSans-2e" transform="translate(127.246094 0)"/>
       <use xlink:href="#DejaVuSans-35" transform="translate(159.033203 0)"/>
      </g>
     </g>
    </g>
    <g id="text_15">
     <!-- Точность при смешанном сдвиге, % -->
     <g style="fill: #15242d" transform="translate(15.178359 245.44082) rotate(-90) scale(0.105 -0.105)">
      <defs>
       <path id="DejaVuSans-422" d="M -19 4666 
L 3928 4666 
L 3928 4134 
L 2272 4134 
L 2272 0 
L 1638 0 
L 1638 4134 
L -19 4134 
L -19 4666 
z
" transform="scale(0.015625)"/>
       <path id="DejaVuSans-447" d="M 2625 0 
L 2625 1472 
L 1553 1472 
Q 1075 1472 756 1769 
Q 469 2038 469 2613 
L 469 3500 
L 1044 3500 
L 1044 2666 
Q 1044 2300 1206 2116 
Q 1372 1931 1697 1931 
L 2625 1931 
L 2625 3500 
L 3200 3500 
L 3200 0 
L 2625 0 
z
" transform="scale(0.015625)"/>
       <path id="DejaVuSans-44c" d="M 2781 1038 
Q 2781 1319 2576 1466 
Q 2372 1613 1978 1613 
L 1159 1613 
L 1159 459 
L 1978 459 
Q 2372 459 2576 607 
Q 2781 756 2781 1038 
z
M 581 3500 
L 1159 3500 
L 1159 2072 
L 2003 2072 
Q 2672 2072 3033 1817 
Q 3394 1563 3394 1038 
Q 3394 513 3033 256 
Q 2672 0 2003 0 
L 581 0 
L 581 3500 
z
" transform="scale(0.015625)"/>
       <path id="DejaVuSans-448" d="M 3216 459 
L 4697 459 
L 4697 3500 
L 5275 3500 
L 5275 0 
L 581 0 
L 581 3500 
L 1159 3500 
L 1159 459 
L 2638 459 
L 2638 3500 
L 3216 3500 
L 3216 459 
z
" transform="scale(0.015625)"/>
       <path id="DejaVuSans-433" d="M 581 0 
L 581 3500 
L 3050 3500 
L 3050 3041 
L 1159 3041 
L 1159 0 
L 581 0 
z
" transform="scale(0.015625)"/>
       <path id="DejaVuSans-2c" d="M 750 794 
L 1409 794 
L 1409 256 
L 897 -744 
L 494 -744 
L 750 256 
L 750 794 
z
" transform="scale(0.015625)"/>
       <path id="DejaVuSans-25" d="M 4653 2053 
Q 4381 2053 4226 1822 
Q 4072 1591 4072 1178 
Q 4072 772 4226 539 
Q 4381 306 4653 306 
Q 4919 306 5073 539 
Q 5228 772 5228 1178 
Q 5228 1588 5073 1820 
Q 4919 2053 4653 2053 
z
M 4653 2450 
Q 5147 2450 5437 2106 
Q 5728 1763 5728 1178 
Q 5728 594 5436 251 
Q 5144 -91 4653 -91 
Q 4153 -91 3862 251 
Q 3572 594 3572 1178 
Q 3572 1766 3864 2108 
Q 4156 2450 4653 2450 
z
M 1428 4353 
Q 1159 4353 1004 4120 
Q 850 3888 850 3481 
Q 850 3069 1003 2837 
Q 1156 2606 1428 2606 
Q 1700 2606 1854 2837 
Q 2009 3069 2009 3481 
Q 2009 3884 1853 4118 
Q 1697 4353 1428 4353 
z
M 4250 4750 
L 4750 4750 
L 1831 -91 
L 1331 -91 
L 4250 4750 
z
M 1428 4750 
Q 1922 4750 2215 4408 
Q 2509 4066 2509 3481 
Q 2509 2891 2217 2550 
Q 1925 2209 1428 2209 
Q 931 2209 642 2551 
Q 353 2894 353 3481 
Q 353 4063 643 4406 
Q 934 4750 1428 4750 
z
" transform="scale(0.015625)"/>
      </defs>
      <use xlink:href="#DejaVuSans-422"/>
      <use xlink:href="#DejaVuSans-43e" transform="translate(61.083984 0)"/>
      <use xlink:href="#DejaVuSans-447" transform="translate(122.265625 0)"/>
      <use xlink:href="#DejaVuSans-43d" transform="translate(181.347656 0)"/>
      <use xlink:href="#DejaVuSans-43e" transform="translate(246.728516 0)"/>
      <use xlink:href="#DejaVuSans-441" transform="translate(307.910156 0)"/>
      <use xlink:href="#DejaVuSans-442" transform="translate(362.890625 0)"/>
      <use xlink:href="#DejaVuSans-44c" transform="translate(421.142578 0)"/>
      <use xlink:href="#DejaVuSans-20" transform="translate(480.078125 0)"/>
      <use xlink:href="#DejaVuSans-43f" transform="translate(511.865234 0)"/>
      <use xlink:href="#DejaVuSans-440" transform="translate(577.246094 0)"/>
      <use xlink:href="#DejaVuSans-438" transform="translate(640.722656 0)"/>
      <use xlink:href="#DejaVuSans-20" transform="translate(705.712891 0)"/>
      <use xlink:href="#DejaVuSans-441" transform="translate(737.5 0)"/>
      <use xlink:href="#DejaVuSans-43c" transform="translate(792.480469 0)"/>
      <use xlink:href="#DejaVuSans-435" transform="translate(867.919922 0)"/>
      <use xlink:href="#DejaVuSans-448" transform="translate(929.443359 0)"/>
      <use xlink:href="#DejaVuSans-430" transform="translate(1020.947266 0)"/>
      <use xlink:href="#DejaVuSans-43d" transform="translate(1082.226562 0)"/>
      <use xlink:href="#DejaVuSans-43d" transform="translate(1147.607422 0)"/>
      <use xlink:href="#DejaVuSans-43e" transform="translate(1212.988281 0)"/>
      <use xlink:href="#DejaVuSans-43c" transform="translate(1274.169922 0)"/>
      <use xlink:href="#DejaVuSans-20" transform="translate(1349.609375 0)"/>
      <use xlink:href="#DejaVuSans-441" transform="translate(1381.396484 0)"/>
      <use xlink:href="#DejaVuSans-434" transform="translate(1436.376953 0)"/>
      <use xlink:href="#DejaVuSans-432" transform="translate(1505.517578 0)"/>
      <use xlink:href="#DejaVuSans-438" transform="translate(1564.453125 0)"/>
      <use xlink:href="#DejaVuSans-433" transform="translate(1629.443359 0)"/>
      <use xlink:href="#DejaVuSans-435" transform="translate(1681.982422 0)"/>
      <use xlink:href="#DejaVuSans-2c" transform="translate(1743.505859 0)"/>
      <use xlink:href="#DejaVuSans-20" transform="translate(1775.292969 0)"/>
      <use xlink:href="#DejaVuSans-25" transform="translate(1807.080078 0)"/>
     </g>
    </g>
   </g>
   <g id="LineCollection_1">
    <path d="M 72.092301 204.909889 
L 72.092301 187.264893 
" clip-path="url(#p321057501f)" style="fill: none; stroke: #0b8f83; stroke-width: 2"/>
    <path d="M 130.239054 167.790291 
L 130.239054 144.945921 
" clip-path="url(#p321057501f)" style="fill: none; stroke: #0b8f83; stroke-width: 2"/>
    <path d="M 246.532561 123.129731 
L 246.532561 101.285004 
" clip-path="url(#p321057501f)" style="fill: none; stroke: #0b8f83; stroke-width: 2"/>
    <path d="M 479.119574 83.010103 
L 479.119574 64.504035 
" clip-path="url(#p321057501f)" style="fill: none; stroke: #0b8f83; stroke-width: 2"/>
   </g>
   <g id="line2d_27">
    <defs>
     <path id="m39b54b5f5c" d="M 3 0 
L -3 -0 
" style="stroke: #0b8f83; stroke-width: 1.5"/>
    </defs>
    <g clip-path="url(#p321057501f)">
     <use xlink:href="#m39b54b5f5c" x="72.092301" y="204.909889" style="fill: #0b8f83; stroke: #0b8f83; stroke-width: 1.5"/>
     <use xlink:href="#m39b54b5f5c" x="130.239054" y="167.790291" style="fill: #0b8f83; stroke: #0b8f83; stroke-width: 1.5"/>
     <use xlink:href="#m39b54b5f5c" x="246.532561" y="123.129731" style="fill: #0b8f83; stroke: #0b8f83; stroke-width: 1.5"/>
     <use xlink:href="#m39b54b5f5c" x="479.119574" y="83.010103" style="fill: #0b8f83; stroke: #0b8f83; stroke-width: 1.5"/>
    </g>
   </g>
   <g id="line2d_28">
    <g clip-path="url(#p321057501f)">
     <use xlink:href="#m39b54b5f5c" x="72.092301" y="187.264893" style="fill: #0b8f83; stroke: #0b8f83; stroke-width: 1.5"/>
     <use xlink:href="#m39b54b5f5c" x="130.239054" y="144.945921" style="fill: #0b8f83; stroke: #0b8f83; stroke-width: 1.5"/>
     <use xlink:href="#m39b54b5f5c" x="246.532561" y="101.285004" style="fill: #0b8f83; stroke: #0b8f83; stroke-width: 1.5"/>
     <use xlink:href="#m39b54b5f5c" x="479.119574" y="64.504035" style="fill: #0b8f83; stroke: #0b8f83; stroke-width: 1.5"/>
    </g>
   </g>
   <g id="LineCollection_2">
    <path d="M 72.092301 208.250326 
L 72.092301 192.299769 
" clip-path="url(#p321057501f)" style="fill: none; stroke: #3565d4; stroke-width: 2"/>
    <path d="M 130.239054 169.167396 
L 130.239054 153.213115 
" clip-path="url(#p321057501f)" style="fill: none; stroke: #3565d4; stroke-width: 2"/>
    <path d="M 246.532561 130.833062 
L 246.532561 110.332298 
" clip-path="url(#p321057501f)" style="fill: none; stroke: #3565d4; stroke-width: 2"/>
    <path d="M 479.119574 90.767937 
L 479.119574 69.436069 
" clip-path="url(#p321057501f)" style="fill: none; stroke: #3565d4; stroke-width: 2"/>
   </g>
   <g id="line2d_29">
    <defs>
     <path id="m5c5303f7f1" d="M 3 0 
L -3 -0 
" style="stroke: #3565d4; stroke-width: 1.5"/>
    </defs>
    <g clip-path="url(#p321057501f)">
     <use xlink:href="#m5c5303f7f1" x="72.092301" y="208.250326" style="fill: #3565d4; stroke: #3565d4; stroke-width: 1.5"/>
     <use xlink:href="#m5c5303f7f1" x="130.239054" y="169.167396" style="fill: #3565d4; stroke: #3565d4; stroke-width: 1.5"/>
     <use xlink:href="#m5c5303f7f1" x="246.532561" y="130.833062" style="fill: #3565d4; stroke: #3565d4; stroke-width: 1.5"/>
     <use xlink:href="#m5c5303f7f1" x="479.119574" y="90.767937" style="fill: #3565d4; stroke: #3565d4; stroke-width: 1.5"/>
    </g>
   </g>
   <g id="line2d_30">
    <g clip-path="url(#p321057501f)">
     <use xlink:href="#m5c5303f7f1" x="72.092301" y="192.299769" style="fill: #3565d4; stroke: #3565d4; stroke-width: 1.5"/>
     <use xlink:href="#m5c5303f7f1" x="130.239054" y="153.213115" style="fill: #3565d4; stroke: #3565d4; stroke-width: 1.5"/>
     <use xlink:href="#m5c5303f7f1" x="246.532561" y="110.332298" style="fill: #3565d4; stroke: #3565d4; stroke-width: 1.5"/>
     <use xlink:href="#m5c5303f7f1" x="479.119574" y="69.436069" style="fill: #3565d4; stroke: #3565d4; stroke-width: 1.5"/>
    </g>
   </g>
   <g id="LineCollection_3">
    <path d="M 72.092301 226.572006 
L 72.092301 210.524907 
" clip-path="url(#p321057501f)" style="fill: none; stroke: #3565d4; stroke-width: 2"/>
    <path d="M 130.239054 192.588073 
L 130.239054 171.922798 
" clip-path="url(#p321057501f)" style="fill: none; stroke: #3565d4; stroke-width: 2"/>
    <path d="M 246.532561 136.996977 
L 246.532561 119.396224 
" clip-path="url(#p321057501f)" style="fill: none; stroke: #3565d4; stroke-width: 2"/>
    <path d="M 479.119574 96.859917 
L 479.119574 78.825727 
" clip-path="url(#p321057501f)" style="fill: none; stroke: #3565d4; stroke-width: 2"/>
   </g>
   <g id="line2d_31">
    <g clip-path="url(#p321057501f)">
     <use xlink:href="#m5c5303f7f1" x="72.092301" y="226.572006" style="fill: #3565d4; stroke: #3565d4; stroke-width: 1.5"/>
     <use xlink:href="#m5c5303f7f1" x="130.239054" y="192.588073" style="fill: #3565d4; stroke: #3565d4; stroke-width: 1.5"/>
     <use xlink:href="#m5c5303f7f1" x="246.532561" y="136.996977" style="fill: #3565d4; stroke: #3565d4; stroke-width: 1.5"/>
     <use xlink:href="#m5c5303f7f1" x="479.119574" y="96.859917" style="fill: #3565d4; stroke: #3565d4; stroke-width: 1.5"/>
    </g>
   </g>
   <g id="line2d_32">
    <g clip-path="url(#p321057501f)">
     <use xlink:href="#m5c5303f7f1" x="72.092301" y="210.524907" style="fill: #3565d4; stroke: #3565d4; stroke-width: 1.5"/>
     <use xlink:href="#m5c5303f7f1" x="130.239054" y="171.922798" style="fill: #3565d4; stroke: #3565d4; stroke-width: 1.5"/>
     <use xlink:href="#m5c5303f7f1" x="246.532561" y="119.396224" style="fill: #3565d4; stroke: #3565d4; stroke-width: 1.5"/>
     <use xlink:href="#m5c5303f7f1" x="479.119574" y="78.825727" style="fill: #3565d4; stroke: #3565d4; stroke-width: 1.5"/>
    </g>
   </g>
   <g id="line2d_33">
    <path d="M 72.092301 196.087391 
L 130.239054 156.368106 
L 246.532561 112.207367 
L 479.119574 73.757069 
" clip-path="url(#p321057501f)" style="fill: none; stroke: #0b8f83; stroke-width: 2; stroke-linecap: square"/>
    <defs>
     <path id="m02ae3da0ce" d="M 0 3 
C 0.795609 3 1.55874 2.683901 2.12132 2.12132 
C 2.683901 1.55874 3 0.795609 3 0 
C 3 -0.795609 2.683901 -1.55874 2.12132 -2.12132 
C 1.55874 -2.683901 0.795609 -3 0 -3 
C -0.795609 -3 -1.55874 -2.683901 -2.12132 -2.12132 
C -2.683901 -1.55874 -3 -0.795609 -3 0 
C -3 0.795609 -2.683901 1.55874 -2.12132 2.12132 
C -1.55874 2.683901 -0.795609 3 0 3 
z
" style="stroke: #0b8f83; stroke-width: 1.5"/>
    </defs>
    <g clip-path="url(#p321057501f)">
     <use xlink:href="#m02ae3da0ce" x="72.092301" y="196.087391" style="fill: #0b8f83; stroke: #0b8f83; stroke-width: 1.5"/>
     <use xlink:href="#m02ae3da0ce" x="130.239054" y="156.368106" style="fill: #0b8f83; stroke: #0b8f83; stroke-width: 1.5"/>
     <use xlink:href="#m02ae3da0ce" x="246.532561" y="112.207367" style="fill: #0b8f83; stroke: #0b8f83; stroke-width: 1.5"/>
     <use xlink:href="#m02ae3da0ce" x="479.119574" y="73.757069" style="fill: #0b8f83; stroke: #0b8f83; stroke-width: 1.5"/>
    </g>
   </g>
   <g id="line2d_34">
    <path d="M 72.092301 200.275047 
L 130.239054 161.190256 
L 246.532561 120.58268 
L 479.119574 80.102003 
" clip-path="url(#p321057501f)" style="fill: none; stroke: #3565d4; stroke-width: 2; stroke-linecap: square"/>
    <defs>
     <path id="mcb2d382587" d="M -3 3 
L 3 3 
L 3 -3 
L -3 -3 
z
" style="stroke: #3565d4; stroke-width: 1.5; stroke-linejoin: miter"/>
    </defs>
    <g clip-path="url(#p321057501f)">
     <use xlink:href="#mcb2d382587" x="72.092301" y="200.275047" style="fill: #3565d4; stroke: #3565d4; stroke-width: 1.5; stroke-linejoin: miter"/>
     <use xlink:href="#mcb2d382587" x="130.239054" y="161.190256" style="fill: #3565d4; stroke: #3565d4; stroke-width: 1.5; stroke-linejoin: miter"/>
     <use xlink:href="#mcb2d382587" x="246.532561" y="120.58268" style="fill: #3565d4; stroke: #3565d4; stroke-width: 1.5; stroke-linejoin: miter"/>
     <use xlink:href="#mcb2d382587" x="479.119574" y="80.102003" style="fill: #3565d4; stroke: #3565d4; stroke-width: 1.5; stroke-linejoin: miter"/>
    </g>
   </g>
   <g id="line2d_35">
    <path d="M 72.092301 218.548456 
L 130.239054 182.255436 
L 246.532561 128.1966 
L 479.119574 87.842822 
" clip-path="url(#p321057501f)" style="fill: none; stroke-dasharray: 7.4,3.2; stroke-dashoffset: 0; stroke: #3565d4; stroke-width: 2"/>
    <defs>
     <path id="mb3e46cdced" d="M 0 3 
C 0.795609 3 1.55874 2.683901 2.12132 2.12132 
C 2.683901 1.55874 3 0.795609 3 0 
C 3 -0.795609 2.683901 -1.55874 2.12132 -2.12132 
C 1.55874 -2.683901 0.795609 -3 0 -3 
C -0.795609 -3 -1.55874 -2.683901 -2.12132 -2.12132 
C -2.683901 -1.55874 -3 -0.795609 -3 0 
C -3 0.795609 -2.683901 1.55874 -2.12132 2.12132 
C -1.55874 2.683901 -0.795609 3 0 3 
z
" style="stroke: #3565d4; stroke-width: 1.5"/>
    </defs>
    <g clip-path="url(#p321057501f)">
     <use xlink:href="#mb3e46cdced" x="72.092301" y="218.548456" style="fill: #ffffff; stroke: #3565d4; stroke-width: 1.5"/>
     <use xlink:href="#mb3e46cdced" x="130.239054" y="182.255436" style="fill: #ffffff; stroke: #3565d4; stroke-width: 1.5"/>
     <use xlink:href="#mb3e46cdced" x="246.532561" y="128.1966" style="fill: #ffffff; stroke: #3565d4; stroke-width: 1.5"/>
     <use xlink:href="#mb3e46cdced" x="479.119574" y="87.842822" style="fill: #ffffff; stroke: #3565d4; stroke-width: 1.5"/>
    </g>
   </g>
   <g id="patch_3">
    <path d="M 51.740938 246.085469 
L 51.740938 45.077969 
" style="fill: none; stroke: #66747c; stroke-width: 0.8; stroke-linejoin: miter; stroke-linecap: square"/>
   </g>
   <g id="patch_4">
    <path d="M 51.740938 246.085469 
L 499.470937 246.085469 
" style="fill: none; stroke: #66747c; stroke-width: 0.8; stroke-linejoin: miter; stroke-linecap: square"/>
   </g>
   <g id="text_16">
    <!-- 20 парных сидов · вложенные подвыборки · среднее и 95%-й ДИ · увеличенная шкала Y -->
    <g style="fill: #66747c" transform="translate(51.740938 43.067894) scale(0.092 -0.092)">
     <defs>
      <path id="DejaVuSans-445" d="M 3513 3500 
L 2247 1797 
L 3578 0 
L 2900 0 
L 1881 1375 
L 863 0 
L 184 0 
L 1544 1831 
L 300 3500 
L 978 3500 
L 1906 2253 
L 2834 3500 
L 3513 3500 
z
" transform="scale(0.015625)"/>
      <path id="DejaVuSans-b7" d="M 684 2619 
L 1344 2619 
L 1344 1825 
L 684 1825 
L 684 2619 
z
" transform="scale(0.015625)"/>
      <path id="DejaVuSans-436" d="M 2597 3500 
L 3169 3500 
L 3169 1856 
L 4697 3500 
L 5366 3500 
L 4109 2153 
L 5547 0 
L 4931 0 
L 3753 1769 
L 3169 1141 
L 3169 0 
L 2597 0 
L 2597 1141 
L 2013 1769 
L 834 0 
L 219 0 
L 1656 2153 
L 400 3500 
L 1069 3500 
L 2597 1856 
L 2597 3500 
z
" transform="scale(0.015625)"/>
      <path id="DejaVuSans-39" d="M 703 97 
L 703 672 
Q 941 559 1184 500 
Q 1428 441 1663 441 
Q 2288 441 2617 861 
Q 2947 1281 2994 2138 
Q 2813 1869 2534 1725 
Q 2256 1581 1919 1581 
Q 1219 1581 811 2004 
Q 403 2428 403 3163 
Q 403 3881 828 4315 
Q 1253 4750 1959 4750 
Q 2769 4750 3195 4129 
Q 3622 3509 3622 2328 
Q 3622 1225 3098 567 
Q 2575 -91 1691 -91 
Q 1453 -91 1209 -44 
Q 966 3 703 97 
z
M 1959 2075 
Q 2384 2075 2632 2365 
Q 2881 2656 2881 3163 
Q 2881 3666 2632 3958 
Q 2384 4250 1959 4250 
Q 1534 4250 1286 3958 
Q 1038 3666 1038 3163 
Q 1038 2656 1286 2365 
Q 1534 2075 1959 2075 
z
" transform="scale(0.015625)"/>
      <path id="DejaVuSans-2d" d="M 313 2009 
L 1997 2009 
L 1997 1497 
L 313 1497 
L 313 2009 
z
" transform="scale(0.015625)"/>
      <path id="DejaVuSans-439" d="M 3578 3500 
L 3578 0 
L 3006 0 
L 3006 2809 
L 1319 0 
L 581 0 
L 581 3500 
L 1153 3500 
L 1153 697 
L 2838 3500 
L 3578 3500 
z
M 1102 4833 
L 1471 4833 
Q 1505 4599 1656 4481 
Q 1808 4364 2080 4364 
Q 2349 4364 2499 4480 
Q 2649 4596 2689 4833 
L 3058 4833 
Q 3027 4386 2780 4161 
Q 2533 3936 2080 3936 
Q 1627 3936 1380 4161 
Q 1133 4386 1102 4833 
z
" transform="scale(0.015625)"/>
      <path id="DejaVuSans-414" d="M 1459 531 
L 3522 531 
L 3522 4134 
L 2006 4134 
L 2006 3472 
Q 2006 1913 1656 878 
Q 1584 666 1459 531 
z
M 538 531 
Q 956 728 1075 1103 
Q 1378 2066 1378 3784 
L 1378 4666 
L 4153 4666 
L 4153 531 
L 4684 531 
L 4684 -1003 
L 4153 -1003 
L 4153 0 
L 847 0 
L 847 -1003 
L 316 -1003 
L 316 531 
L 538 531 
z
" transform="scale(0.015625)"/>
      <path id="DejaVuSans-418" d="M 4159 4666 
L 4159 0 
L 3547 0 
L 3547 3903 
L 1478 0 
L 628 0 
L 628 4666 
L 1241 4666 
L 1241 763 
L 3309 4666 
L 4159 4666 
z
" transform="scale(0.015625)"/>
      <path id="DejaVuSans-443" d="M 2059 -325 
Q 1816 -950 1584 -1140 
Q 1353 -1331 966 -1331 
L 506 -1331 
L 506 -850 
L 844 -850 
Q 1081 -850 1212 -737 
Q 1344 -625 1503 -206 
L 1606 56 
L 191 3500 
L 800 3500 
L 1894 763 
L 2988 3500 
L 3597 3500 
L 2059 -325 
z
" transform="scale(0.015625)"/>
      <path id="DejaVuSans-59" d="M -13 4666 
L 666 4666 
L 1959 2747 
L 3244 4666 
L 3922 4666 
L 2272 2222 
L 2272 0 
L 1638 0 
L 1638 2222 
L -13 4666 
z
" transform="scale(0.015625)"/>
     </defs>
     <use xlink:href="#DejaVuSans-32"/>
     <use xlink:href="#DejaVuSans-30" transform="translate(63.623047 0)"/>
     <use xlink:href="#DejaVuSans-20" transform="translate(127.246094 0)"/>
     <use xlink:href="#DejaVuSans-43f" transform="translate(159.033203 0)"/>
     <use xlink:href="#DejaVuSans-430" transform="translate(224.414062 0)"/>
     <use xlink:href="#DejaVuSans-440" transform="translate(285.693359 0)"/>
     <use xlink:href="#DejaVuSans-43d" transform="translate(349.169922 0)"/>
     <use xlink:href="#DejaVuSans-44b" transform="translate(414.550781 0)"/>
     <use xlink:href="#DejaVuSans-445" transform="translate(493.505859 0)"/>
     <use xlink:href="#DejaVuSans-20" transform="translate(552.685547 0)"/>
     <use xlink:href="#DejaVuSans-441" transform="translate(584.472656 0)"/>
     <use xlink:href="#DejaVuSans-438" transform="translate(639.453125 0)"/>
     <use xlink:href="#DejaVuSans-434" transform="translate(704.443359 0)"/>
     <use xlink:href="#DejaVuSans-43e" transform="translate(773.583984 0)"/>
     <use xlink:href="#DejaVuSans-432" transform="translate(834.765625 0)"/>
     <use xlink:href="#DejaVuSans-20" transform="translate(893.701172 0)"/>
     <use xlink:href="#DejaVuSans-b7" transform="translate(925.488281 0)"/>
     <use xlink:href="#DejaVuSans-20" transform="translate(957.275391 0)"/>
     <use xlink:href="#DejaVuSans-432" transform="translate(989.0625 0)"/>
     <use xlink:href="#DejaVuSans-43b" transform="translate(1047.998047 0)"/>
     <use xlink:href="#DejaVuSans-43e" transform="translate(1111.914062 0)"/>
     <use xlink:href="#DejaVuSans-436" transform="translate(1173.095703 0)"/>
     <use xlink:href="#DejaVuSans-435" transform="translate(1263.183594 0)"/>
     <use xlink:href="#DejaVuSans-43d" transform="translate(1324.707031 0)"/>
     <use xlink:href="#DejaVuSans-43d" transform="translate(1390.087891 0)"/>
     <use xlink:href="#DejaVuSans-44b" transform="translate(1455.46875 0)"/>
     <use xlink:href="#DejaVuSans-435" transform="translate(1534.423828 0)"/>
     <use xlink:href="#DejaVuSans-20" transform="translate(1595.947266 0)"/>
     <use xlink:href="#DejaVuSans-43f" transform="translate(1627.734375 0)"/>
     <use xlink:href="#DejaVuSans-43e" transform="translate(1693.115234 0)"/>
     <use xlink:href="#DejaVuSans-434" transform="translate(1754.296875 0)"/>
     <use xlink:href="#DejaVuSans-432" transform="translate(1823.4375 0)"/>
     <use xlink:href="#DejaVuSans-44b" transform="translate(1882.373047 0)"/>
     <use xlink:href="#DejaVuSans-431" transform="translate(1961.328125 0)"/>
     <use xlink:href="#DejaVuSans-43e" transform="translate(2022.998047 0)"/>
     <use xlink:href="#DejaVuSans-440" transform="translate(2084.179688 0)"/>
     <use xlink:href="#DejaVuSans-43a" transform="translate(2147.65625 0)"/>
     <use xlink:href="#DejaVuSans-438" transform="translate(2208.056641 0)"/>
     <use xlink:href="#DejaVuSans-20" transform="translate(2273.046875 0)"/>
     <use xlink:href="#DejaVuSans-b7" transform="translate(2304.833984 0)"/>
     <use xlink:href="#DejaVuSans-20" transform="translate(2336.621094 0)"/>
     <use xlink:href="#DejaVuSans-441" transform="translate(2368.408203 0)"/>
     <use xlink:href="#DejaVuSans-440" transform="translate(2423.388672 0)"/>
     <use xlink:href="#DejaVuSans-435" transform="translate(2486.865234 0)"/>
     <use xlink:href="#DejaVuSans-434" transform="translate(2548.388672 0)"/>
     <use xlink:href="#DejaVuSans-43d" transform="translate(2617.529297 0)"/>
     <use xlink:href="#DejaVuSans-435" transform="translate(2682.910156 0)"/>
     <use xlink:href="#DejaVuSans-435" transform="translate(2744.433594 0)"/>
     <use xlink:href="#DejaVuSans-20" transform="translate(2805.957031 0)"/>
     <use xlink:href="#DejaVuSans-438" transform="translate(2837.744141 0)"/>
     <use xlink:href="#DejaVuSans-20" transform="translate(2902.734375 0)"/>
     <use xlink:href="#DejaVuSans-39" transform="translate(2934.521484 0)"/>
     <use xlink:href="#DejaVuSans-35" transform="translate(2998.144531 0)"/>
     <use xlink:href="#DejaVuSans-25" transform="translate(3061.767578 0)"/>
     <use xlink:href="#DejaVuSans-2d" transform="translate(3156.787109 0)"/>
     <use xlink:href="#DejaVuSans-439" transform="translate(3192.871094 0)"/>
     <use xlink:href="#DejaVuSans-20" transform="translate(3257.861328 0)"/>
     <use xlink:href="#DejaVuSans-414" transform="translate(3289.648438 0)"/>
     <use xlink:href="#DejaVuSans-418" transform="translate(3367.773438 0)"/>
     <use xlink:href="#DejaVuSans-20" transform="translate(3442.578125 0)"/>
     <use xlink:href="#DejaVuSans-b7" transform="translate(3474.365234 0)"/>
     <use xlink:href="#DejaVuSans-20" transform="translate(3506.152344 0)"/>
     <use xlink:href="#DejaVuSans-443" transform="translate(3537.939453 0)"/>
     <use xlink:href="#DejaVuSans-432" transform="translate(3597.119141 0)"/>
     <use xlink:href="#DejaVuSans-435" transform="translate(3656.054688 0)"/>
     <use xlink:href="#DejaVuSans-43b" transform="translate(3717.578125 0)"/>
     <use xlink:href="#DejaVuSans-438" transform="translate(3781.494141 0)"/>
     <use xlink:href="#DejaVuSans-447" transform="translate(3846.484375 0)"/>
     <use xlink:href="#DejaVuSans-435" transform="translate(3905.566406 0)"/>
     <use xlink:href="#DejaVuSans-43d" transform="translate(3967.089844 0)"/>
     <use xlink:href="#DejaVuSans-43d" transform="translate(4032.470703 0)"/>
     <use xlink:href="#DejaVuSans-430" transform="translate(4097.851562 0)"/>
     <use xlink:href="#DejaVuSans-44f" transform="translate(4159.130859 0)"/>
     <use xlink:href="#DejaVuSans-20" transform="translate(4219.287109 0)"/>
     <use xlink:href="#DejaVuSans-448" transform="translate(4251.074219 0)"/>
     <use xlink:href="#DejaVuSans-43a" transform="translate(4342.578125 0)"/>
     <use xlink:href="#DejaVuSans-430" transform="translate(4402.978516 0)"/>
     <use xlink:href="#DejaVuSans-43b" transform="translate(4464.257812 0)"/>
     <use xlink:href="#DejaVuSans-430" transform="translate(4528.173828 0)"/>
     <use xlink:href="#DejaVuSans-20" transform="translate(4589.453125 0)"/>
     <use xlink:href="#DejaVuSans-59" transform="translate(4621.240234 0)"/>
    </g>
   </g>
   <g id="text_17">
    <!-- Объёмы целевых данных -->
    <g style="fill: #15242d" transform="translate(51.740938 17.077969) scale(0.13 -0.13)">
     <defs>
      <path id="DejaVuSans-Bold-41e" d="M 2719 3878 
Q 2169 3878 1866 3472 
Q 1563 3066 1563 2328 
Q 1563 1594 1866 1187 
Q 2169 781 2719 781 
Q 3272 781 3575 1187 
Q 3878 1594 3878 2328 
Q 3878 3066 3575 3472 
Q 3272 3878 2719 3878 
z
M 2719 4750 
Q 3844 4750 4481 4106 
Q 5119 3463 5119 2328 
Q 5119 1197 4481 553 
Q 3844 -91 2719 -91 
Q 1597 -91 958 553 
Q 319 1197 319 2328 
Q 319 3463 958 4106 
Q 1597 4750 2719 4750 
z
" transform="scale(0.015625)"/>
      <path id="DejaVuSans-Bold-431" d="M 344 1941 
L 322 2463 
Q 275 2672 275 2881 
Q 275 3494 456 3894 
Q 791 4631 1238 4781 
Q 1606 4909 3141 5031 
Q 3297 5044 3475 5072 
L 3725 4378 
Q 3488 4316 2269 4209 
Q 1734 4163 1516 4013 
Q 1153 3766 1125 3300 
Q 1584 3584 2275 3584 
Q 3178 3584 3686 3096 
Q 4194 2609 4194 1747 
Q 4194 884 3687 396 
Q 3181 -91 2275 -91 
Q 1369 -91 858 396 
Q 347 884 347 1747 
Q 347 1866 344 1941 
z
M 2272 2784 
Q 1903 2784 1708 2517 
Q 1513 2250 1513 1747 
Q 1513 1244 1708 976 
Q 1903 709 2272 709 
Q 2641 709 2834 976 
Q 3028 1244 3028 1747 
Q 3028 2250 2834 2517 
Q 2641 2784 2272 2784 
z
" transform="scale(0.015625)"/>
      <path id="DejaVuSans-Bold-44a" d="M 3009 700 
Q 3256 700 3381 798 
Q 3506 897 3506 1094 
Q 3506 1288 3382 1384 
Q 3259 1481 3009 1481 
L 2444 1481 
L 2444 700 
L 3009 700 
z
M 1325 0 
L 1325 2809 
L 125 2809 
L 125 3500 
L 2444 3500 
L 2444 2172 
L 3078 2172 
Q 3788 2172 4170 1911 
Q 4553 1650 4553 1081 
Q 4553 513 4167 256 
Q 3781 0 3078 0 
L 1325 0 
z
" transform="scale(0.015625)"/>
      <path id="DejaVuSans-Bold-451" d="M 4031 1759 
L 4031 1441 
L 1416 1441 
Q 1456 1047 1700 850 
Q 1944 653 2381 653 
Q 2734 653 3104 758 
Q 3475 863 3866 1075 
L 3866 213 
Q 3469 63 3072 -14 
Q 2675 -91 2278 -91 
Q 1328 -91 801 392 
Q 275 875 275 1747 
Q 275 2603 792 3093 
Q 1309 3584 2216 3584 
Q 3041 3584 3536 3087 
Q 4031 2591 4031 1759 
z
M 2881 2131 
Q 2881 2450 2695 2645 
Q 2509 2841 2209 2841 
Q 1884 2841 1681 2658 
Q 1478 2475 1428 2131 
L 2881 2131 
z
M 1232 4953 
L 1966 4953 
L 1966 4184 
L 1232 4184 
L 1232 4953 
z
M 2466 4953 
L 3200 4953 
L 3200 4184 
L 2466 4184 
L 2466 4953 
z
" transform="scale(0.015625)"/>
      <path id="DejaVuSans-Bold-43c" d="M 538 3500 
L 1825 3500 
L 2613 1750 
L 3400 3500 
L 4691 3500 
L 4691 0 
L 3575 0 
L 3575 1984 
L 2984 672 
L 2250 672 
L 1656 1984 
L 1656 0 
L 538 0 
L 538 3500 
z
" transform="scale(0.015625)"/>
      <path id="DejaVuSans-Bold-44b" d="M 4154 3500 
L 5272 3500 
L 5272 0 
L 4154 0 
L 4154 3500 
z
M 2719 1094 
Q 2719 1291 2594 1388 
Q 2472 1481 2222 1481 
L 1656 1481 
L 1656 700 
L 2222 700 
Q 2469 700 2594 800 
Q 2719 897 2719 1094 
z
M 538 3500 
L 1656 3500 
L 1656 2172 
L 2291 2172 
Q 3000 2172 3381 1913 
Q 3766 1650 3766 1081 
Q 3766 513 3381 256 
Q 3000 0 2291 0 
L 538 0 
L 538 3500 
z
" transform="scale(0.015625)"/>
      <path id="DejaVuSans-Bold-20" transform="scale(0.015625)"/>
      <path id="DejaVuSans-Bold-446" d="M 3666 -884 
L 3666 0 
L 538 0 
L 538 3500 
L 1656 3500 
L 1656 800 
L 2766 800 
L 2766 3500 
L 3884 3500 
L 3884 800 
L 4466 800 
L 4466 -884 
L 3666 -884 
z
" transform="scale(0.015625)"/>
      <path id="DejaVuSans-Bold-435" d="M 4031 1759 
L 4031 1441 
L 1416 1441 
Q 1456 1047 1700 850 
Q 1944 653 2381 653 
Q 2734 653 3104 758 
Q 3475 863 3866 1075 
L 3866 213 
Q 3469 63 3072 -14 
Q 2675 -91 2278 -91 
Q 1328 -91 801 392 
Q 275 875 275 1747 
Q 275 2603 792 3093 
Q 1309 3584 2216 3584 
Q 3041 3584 3536 3087 
Q 4031 2591 4031 1759 
z
M 2881 2131 
Q 2881 2450 2695 2645 
Q 2509 2841 2209 2841 
Q 1884 2841 1681 2658 
Q 1478 2475 1428 2131 
L 2881 2131 
z
" transform="scale(0.015625)"/>
      <path id="DejaVuSans-Bold-43b" d="M 353 0 
L 353 800 
Q 906 913 1031 1278 
Q 1125 1556 1125 2928 
L 1125 3500 
L 4150 3500 
L 4150 0 
L 3031 0 
L 3031 2700 
L 2244 2700 
L 2244 2584 
Q 2244 1213 2028 813 
Q 1591 0 353 0 
z
" transform="scale(0.015625)"/>
      <path id="DejaVuSans-Bold-432" d="M 2184 2181 
Q 2378 2181 2478 2261 
Q 2578 2341 2578 2497 
Q 2578 2653 2478 2731 
Q 2378 2809 2184 2809 
L 1656 2809 
L 1656 2181 
L 2184 2181 
z
M 2222 700 
Q 2469 700 2594 798 
Q 2719 897 2719 1094 
Q 2719 1288 2594 1384 
Q 2469 1481 2222 1481 
L 1656 1481 
L 1656 700 
L 2222 700 
z
M 538 3500 
L 2141 3500 
Q 2919 3500 3267 3279 
Q 3616 3059 3616 2575 
Q 3616 2319 3487 2139 
Q 3359 1959 3119 1872 
Q 3428 1788 3598 1561 
Q 3769 1334 3769 1003 
Q 3769 497 3403 248 
Q 3038 0 2294 0 
L 538 0 
L 538 3500 
z
" transform="scale(0.015625)"/>
      <path id="DejaVuSans-Bold-445" d="M 1422 1791 
L 159 3500 
L 1344 3500 
L 2059 2463 
L 2784 3500 
L 3969 3500 
L 2706 1797 
L 4031 0 
L 2847 0 
L 2059 1106 
L 1281 0 
L 97 0 
L 1422 1791 
z
" transform="scale(0.015625)"/>
      <path id="DejaVuSans-Bold-434" d="M 547 800 
Q 903 919 1053 1314 
Q 1203 1709 1203 2838 
L 1203 3500 
L 4228 3500 
L 4228 800 
L 4809 800 
L 4809 -884 
L 4009 -884 
L 4009 0 
L 1159 0 
L 1159 -884 
L 359 -884 
L 359 800 
L 547 800 
z
M 3109 2700 
L 2322 2700 
L 2322 2603 
Q 2322 1456 2063 800 
L 3109 800 
L 3109 2700 
z
" transform="scale(0.015625)"/>
      <path id="DejaVuSans-Bold-430" d="M 2106 1575 
Q 1756 1575 1579 1456 
Q 1403 1338 1403 1106 
Q 1403 894 1545 773 
Q 1688 653 1941 653 
Q 2256 653 2472 879 
Q 2688 1106 2688 1447 
L 2688 1575 
L 2106 1575 
z
M 3816 1997 
L 3816 0 
L 2688 0 
L 2688 519 
Q 2463 200 2181 54 
Q 1900 -91 1497 -91 
Q 953 -91 614 226 
Q 275 544 275 1050 
Q 275 1666 698 1953 
Q 1122 2241 2028 2241 
L 2688 2241 
L 2688 2328 
Q 2688 2594 2478 2717 
Q 2269 2841 1825 2841 
Q 1466 2841 1156 2769 
Q 847 2697 581 2553 
L 581 3406 
Q 941 3494 1303 3539 
Q 1666 3584 2028 3584 
Q 2975 3584 3395 3211 
Q 3816 2838 3816 1997 
z
" transform="scale(0.015625)"/>
      <path id="DejaVuSans-Bold-43d" d="M 538 3500 
L 1656 3500 
L 1656 2169 
L 2766 2169 
L 2766 3500 
L 3884 3500 
L 3884 0 
L 2766 0 
L 2766 1478 
L 1656 1478 
L 1656 0 
L 538 0 
L 538 3500 
z
" transform="scale(0.015625)"/>
     </defs>
     <use xlink:href="#DejaVuSans-Bold-41e"/>
     <use xlink:href="#DejaVuSans-Bold-431" transform="translate(85.009766 0)"/>
     <use xlink:href="#DejaVuSans-Bold-44a" transform="translate(154.833984 0)"/>
     <use xlink:href="#DejaVuSans-Bold-451" transform="translate(229.980469 0)"/>
     <use xlink:href="#DejaVuSans-Bold-43c" transform="translate(297.802734 0)"/>
     <use xlink:href="#DejaVuSans-Bold-44b" transform="translate(379.541016 0)"/>
     <use xlink:href="#DejaVuSans-Bold-20" transform="translate(469.970703 0)"/>
     <use xlink:href="#DejaVuSans-Bold-446" transform="translate(504.785156 0)"/>
     <use xlink:href="#DejaVuSans-Bold-435" transform="translate(578.90625 0)"/>
     <use xlink:href="#DejaVuSans-Bold-43b" transform="translate(646.728516 0)"/>
     <use xlink:href="#DejaVuSans-Bold-435" transform="translate(719.970703 0)"/>
     <use xlink:href="#DejaVuSans-Bold-432" transform="translate(787.792969 0)"/>
     <use xlink:href="#DejaVuSans-Bold-44b" transform="translate(851.074219 0)"/>
     <use xlink:href="#DejaVuSans-Bold-445" transform="translate(941.503906 0)"/>
     <use xlink:href="#DejaVuSans-Bold-20" transform="translate(1006.005859 0)"/>
     <use xlink:href="#DejaVuSans-Bold-434" transform="translate(1040.820312 0)"/>
     <use xlink:href="#DejaVuSans-Bold-430" transform="translate(1121.582031 0)"/>
     <use xlink:href="#DejaVuSans-Bold-43d" transform="translate(1189.0625 0)"/>
     <use xlink:href="#DejaVuSans-Bold-43d" transform="translate(1258.154297 0)"/>
     <use xlink:href="#DejaVuSans-Bold-44b" transform="translate(1327.246094 0)"/>
     <use xlink:href="#DejaVuSans-Bold-445" transform="translate(1417.675781 0)"/>
    </g>
   </g>
   <g id="legend_1">
    <g id="LineCollection_4">
     <path d="M 280.654219 236.026797 
L 280.654219 225.526797 
" style="fill: none; stroke: #0b8f83; stroke-width: 2"/>
    </g>
    <g id="line2d_36">
     <g>
      <use xlink:href="#m39b54b5f5c" x="280.654219" y="236.026797" style="fill: #0b8f83; stroke: #0b8f83; stroke-width: 1.5"/>
     </g>
    </g>
    <g id="line2d_37">
     <g>
      <use xlink:href="#m39b54b5f5c" x="280.654219" y="225.526797" style="fill: #0b8f83; stroke: #0b8f83; stroke-width: 1.5"/>
     </g>
    </g>
    <g id="line2d_38">
     <path d="M 270.154219 230.776797 
L 291.154219 230.776797 
" style="fill: none; stroke: #0b8f83; stroke-width: 2; stroke-linecap: square"/>
    </g>
    <g id="line2d_39">
     <g>
      <use xlink:href="#m02ae3da0ce" x="280.654219" y="230.776797" style="fill: #0b8f83; stroke: #0b8f83; stroke-width: 1.5"/>
     </g>
    </g>
    <g id="text_18">
     <!-- DoRA -->
     <g style="fill: #15242d" transform="translate(299.554219 234.451797) scale(0.105 -0.105)">
      <defs>
       <path id="DejaVuSans-44" d="M 1259 4147 
L 1259 519 
L 2022 519 
Q 2988 519 3436 956 
Q 3884 1394 3884 2338 
Q 3884 3275 3436 3711 
Q 2988 4147 2022 4147 
L 1259 4147 
z
M 628 4666 
L 1925 4666 
Q 3281 4666 3915 4102 
Q 4550 3538 4550 2338 
Q 4550 1131 3912 565 
Q 3275 0 1925 0 
L 628 0 
L 628 4666 
z
" transform="scale(0.015625)"/>
       <path id="DejaVuSans-6f" d="M 1959 3097 
Q 1497 3097 1228 2736 
Q 959 2375 959 1747 
Q 959 1119 1226 758 
Q 1494 397 1959 397 
Q 2419 397 2687 759 
Q 2956 1122 2956 1747 
Q 2956 2369 2687 2733 
Q 2419 3097 1959 3097 
z
M 1959 3584 
Q 2709 3584 3137 3096 
Q 3566 2609 3566 1747 
Q 3566 888 3137 398 
Q 2709 -91 1959 -91 
Q 1206 -91 779 398 
Q 353 888 353 1747 
Q 353 2609 779 3096 
Q 1206 3584 1959 3584 
z
" transform="scale(0.015625)"/>
       <path id="DejaVuSans-52" d="M 2841 2188 
Q 3044 2119 3236 1894 
Q 3428 1669 3622 1275 
L 4263 0 
L 3584 0 
L 2988 1197 
Q 2756 1666 2539 1819 
Q 2322 1972 1947 1972 
L 1259 1972 
L 1259 0 
L 628 0 
L 628 4666 
L 2053 4666 
Q 2853 4666 3247 4331 
Q 3641 3997 3641 3322 
Q 3641 2881 3436 2590 
Q 3231 2300 2841 2188 
z
M 1259 4147 
L 1259 2491 
L 2053 2491 
Q 2509 2491 2742 2702 
Q 2975 2913 2975 3322 
Q 2975 3731 2742 3939 
Q 2509 4147 2053 4147 
L 1259 4147 
z
" transform="scale(0.015625)"/>
       <path id="DejaVuSans-41" d="M 2188 4044 
L 1331 1722 
L 3047 1722 
L 2188 4044 
z
M 1831 4666 
L 2547 4666 
L 4325 0 
L 3669 0 
L 3244 1197 
L 1141 1197 
L 716 0 
L 50 0 
L 1831 4666 
z
" transform="scale(0.015625)"/>
      </defs>
      <use xlink:href="#DejaVuSans-44"/>
      <use xlink:href="#DejaVuSans-6f" transform="translate(77.001953 0)"/>
      <use xlink:href="#DejaVuSans-52" transform="translate(138.183594 0)"/>
      <use xlink:href="#DejaVuSans-41" transform="translate(203.666016 0)"/>
     </g>
    </g>
    <g id="LineCollection_5">
     <path d="M 359.622422 236.026797 
L 359.622422 225.526797 
" style="fill: none; stroke: #3565d4; stroke-width: 2"/>
    </g>
    <g id="line2d_40">
     <g>
      <use xlink:href="#m5c5303f7f1" x="359.622422" y="236.026797" style="fill: #3565d4; stroke: #3565d4; stroke-width: 1.5"/>
     </g>
    </g>
    <g id="line2d_41">
     <g>
      <use xlink:href="#m5c5303f7f1" x="359.622422" y="225.526797" style="fill: #3565d4; stroke: #3565d4; stroke-width: 1.5"/>
     </g>
    </g>
    <g id="line2d_42">
     <path d="M 349.122422 230.776797 
L 370.122422 230.776797 
" style="fill: none; stroke: #3565d4; stroke-width: 2; stroke-linecap: square"/>
    </g>
    <g id="line2d_43">
     <g>
      <use xlink:href="#mcb2d382587" x="359.622422" y="230.776797" style="fill: #3565d4; stroke: #3565d4; stroke-width: 1.5; stroke-linejoin: miter"/>
     </g>
    </g>
    <g id="text_19">
     <!-- LoRA -->
     <g style="fill: #15242d" transform="translate(378.522422 234.451797) scale(0.105 -0.105)">
      <defs>
       <path id="DejaVuSans-4c" d="M 628 4666 
L 1259 4666 
L 1259 531 
L 3531 531 
L 3531 0 
L 628 0 
L 628 4666 
z
" transform="scale(0.015625)"/>
      </defs>
      <use xlink:href="#DejaVuSans-4c"/>
      <use xlink:href="#DejaVuSans-6f" transform="translate(53.962891 0)"/>
      <use xlink:href="#DejaVuSans-52" transform="translate(115.144531 0)"/>
      <use xlink:href="#DejaVuSans-41" transform="translate(180.626953 0)"/>
     </g>
    </g>
    <g id="LineCollection_6">
     <path d="M 436.172344 236.026797 
L 436.172344 225.526797 
" style="fill: none; stroke: #3565d4; stroke-width: 2"/>
    </g>
    <g id="line2d_44">
     <g>
      <use xlink:href="#m5c5303f7f1" x="436.172344" y="236.026797" style="fill: #3565d4; stroke: #3565d4; stroke-width: 1.5"/>
     </g>
    </g>
    <g id="line2d_45">
     <g>
      <use xlink:href="#m5c5303f7f1" x="436.172344" y="225.526797" style="fill: #3565d4; stroke: #3565d4; stroke-width: 1.5"/>
     </g>
    </g>
    <g id="line2d_46">
     <path d="M 425.672344 230.776797 
L 446.672344 230.776797 
" style="fill: none; stroke-dasharray: 7.4,3.2; stroke-dashoffset: 0; stroke: #3565d4; stroke-width: 2"/>
    </g>
    <g id="line2d_47">
     <g>
      <use xlink:href="#mb3e46cdced" x="436.172344" y="230.776797" style="fill: #ffffff; stroke: #3565d4; stroke-width: 1.5"/>
     </g>
    </g>
    <g id="text_20">
     <!-- LoRA+ -->
     <g style="fill: #15242d" transform="translate(455.072344 234.451797) scale(0.105 -0.105)">
      <defs>
       <path id="DejaVuSans-2b" d="M 2944 4013 
L 2944 2272 
L 4684 2272 
L 4684 1741 
L 2944 1741 
L 2944 0 
L 2419 0 
L 2419 1741 
L 678 1741 
L 678 2272 
L 2419 2272 
L 2419 4013 
L 2944 4013 
z
" transform="scale(0.015625)"/>
      </defs>
      <use xlink:href="#DejaVuSans-4c"/>
      <use xlink:href="#DejaVuSans-6f" transform="translate(53.962891 0)"/>
      <use xlink:href="#DejaVuSans-52" transform="translate(115.144531 0)"/>
      <use xlink:href="#DejaVuSans-41" transform="translate(180.626953 0)"/>
      <use xlink:href="#DejaVuSans-2b" transform="translate(249.035156 0)"/>
     </g>
    </g>
   </g>
  </g>
 </g>
 <defs>
  <clipPath id="p321057501f">
   <rect x="51.740938" y="45.077969" width="447.73" height="201.0075"/>
  </clipPath>
 </defs>
</svg>
