<?xml version="1.0" encoding="utf-8" standalone="no"?>
<!DOCTYPE svg PUBLIC "-//W3C//DTD SVG 1.1//EN"
  "http://www.w3.org/Graphics/SVG/1.1/DTD/svg11.dtd">
<svg xmlns:xlink="http://www.w3.org/1999/xlink" width="523.881328pt" height="264.097812pt" viewBox="0 0 523.881328 264.097812" xmlns="http://www.w3.org/2000/svg" version="1.1">
 <metadata>
  <rdf:RDF xmlns:dc="http://purl.org/dc/elements/1.1/" xmlns:cc="http://creativecommons.org/ns#" xmlns:rdf="http://www.w3.org/1999/02/22-rdf-syntax-ns#">
   <cc:Work>
    <dc:type rdf:resource="http://purl.org/dc/dcmitype/StillImage"/>
    <dc:date>2026-07-21T03:44:07.290645</dc:date>
    <dc:format>image/svg+xml</dc:format>
    <dc:creator>
     <cc:Agent>
      <dc:title>Matplotlib v3.10.8, https://matplotlib.org/</dc:title>
     </cc:Agent>
    </dc:creator>
   </cc:Work>
  </rdf:RDF>
 </metadata>
 <defs>
  <style type="text/css">*{stroke-linejoin: round; stroke-linecap: butt}</style>
 </defs>
 <g id="figure_1">
  <g id="patch_1">
   <path d="M 0 264.097812 
L 523.881328 264.097812 
L 523.881328 0 
L 0 0 
z
" style="fill: #ffffff"/>
  </g>
  <g id="axes_1">
   <g id="patch_2">
    <path d="M 43.841328 225.57375 
L 516.681328 225.57375 
L 516.681328 45.5025 
L 43.841328 45.5025 
z
" style="fill: #ffffff"/>
   </g>
   <g id="matplotlib.axis_1">
    <g id="xtick_1">
     <g id="line2d_1">
      <defs>
       <path id="ma140a72c29" d="M 0 0 
L 0 3.5 
" style="stroke: #66747c; stroke-width: 0.8"/>
      </defs>
      <g>
       <use xlink:href="#ma140a72c29" x="71.304257" y="225.57375" style="fill: #66747c; stroke: #66747c; stroke-width: 0.8"/>
      </g>
     </g>
     <g id="text_1">
      <!-- 50 -->
      <g style="fill: #66747c" transform="translate(64.623632 240.552109) scale(0.105 -0.105)">
       <defs>
        <path id="DejaVuSans-35" d="M 691 4666 
L 3169 4666 
L 3169 4134 
L 1269 4134 
L 1269 2991 
Q 1406 3038 1543 3061 
Q 1681 3084 1819 3084 
Q 2600 3084 3056 2656 
Q 3513 2228 3513 1497 
Q 3513 744 3044 326 
Q 2575 -91 1722 -91 
Q 1428 -91 1123 -41 
Q 819 9 494 109 
L 494 744 
Q 775 591 1075 516 
Q 1375 441 1709 441 
Q 2250 441 2565 725 
Q 2881 1009 2881 1497 
Q 2881 1984 2565 2268 
Q 2250 2553 1709 2553 
Q 1456 2553 1204 2497 
Q 953 2441 691 2322 
L 691 4666 
z
" transform="scale(0.015625)"/>
        <path id="DejaVuSans-30" d="M 2034 4250 
Q 1547 4250 1301 3770 
Q 1056 3291 1056 2328 
Q 1056 1369 1301 889 
Q 1547 409 2034 409 
Q 2525 409 2770 889 
Q 3016 1369 3016 2328 
Q 3016 3291 2770 3770 
Q 2525 4250 2034 4250 
z
M 2034 4750 
Q 2819 4750 3233 4129 
Q 3647 3509 3647 2328 
Q 3647 1150 3233 529 
Q 2819 -91 2034 -91 
Q 1250 -91 836 529 
Q 422 1150 422 2328 
Q 422 3509 836 4129 
Q 1250 4750 2034 4750 
z
" transform="scale(0.015625)"/>
       </defs>
       <use xlink:href="#DejaVuSans-35"/>
       <use xlink:href="#DejaVuSans-30" transform="translate(63.623047 0)"/>
      </g>
     </g>
    </g>
    <g id="xtick_2">
     <g id="line2d_2">
      <g>
       <use xlink:href="#ma140a72c29" x="131.006278" y="225.57375" style="fill: #66747c; stroke: #66747c; stroke-width: 0.8"/>
      </g>
     </g>
     <g id="text_2">
      <!-- 100 -->
      <g style="fill: #66747c" transform="translate(120.98534 240.552109) scale(0.105 -0.105)">
       <defs>
        <path id="DejaVuSans-31" d="M 794 531 
L 1825 531 
L 1825 4091 
L 703 3866 
L 703 4441 
L 1819 4666 
L 2450 4666 
L 2450 531 
L 3481 531 
L 3481 0 
L 794 0 
L 794 531 
z
" transform="scale(0.015625)"/>
       </defs>
       <use xlink:href="#DejaVuSans-31"/>
       <use xlink:href="#DejaVuSans-30" transform="translate(63.623047 0)"/>
       <use xlink:href="#DejaVuSans-30" transform="translate(127.246094 0)"/>
      </g>
     </g>
    </g>
    <g id="xtick_3">
     <g id="line2d_3">
      <g>
       <use xlink:href="#ma140a72c29" x="250.410318" y="225.57375" style="fill: #66747c; stroke: #66747c; stroke-width: 0.8"/>
      </g>
     </g>
     <g id="text_3">
      <!-- 200 -->
      <g style="fill: #66747c" transform="translate(240.389381 240.552109) scale(0.105 -0.105)">
       <defs>
        <path id="DejaVuSans-32" d="M 1228 531 
L 3431 531 
L 3431 0 
L 469 0 
L 469 531 
Q 828 903 1448 1529 
Q 2069 2156 2228 2338 
Q 2531 2678 2651 2914 
Q 2772 3150 2772 3378 
Q 2772 3750 2511 3984 
Q 2250 4219 1831 4219 
Q 1534 4219 1204 4116 
Q 875 4013 500 3803 
L 500 4441 
Q 881 4594 1212 4672 
Q 1544 4750 1819 4750 
Q 2544 4750 2975 4387 
Q 3406 4025 3406 3419 
Q 3406 3131 3298 2873 
Q 3191 2616 2906 2266 
Q 2828 2175 2409 1742 
Q 1991 1309 1228 531 
z
" transform="scale(0.015625)"/>
       </defs>
       <use xlink:href="#DejaVuSans-32"/>
       <use xlink:href="#DejaVuSans-30" transform="translate(63.623047 0)"/>
       <use xlink:href="#DejaVuSans-30" transform="translate(127.246094 0)"/>
      </g>
     </g>
    </g>
    <g id="xtick_4">
     <g id="line2d_4">
      <g>
       <use xlink:href="#ma140a72c29" x="489.218399" y="225.57375" style="fill: #66747c; stroke: #66747c; stroke-width: 0.8"/>
      </g>
     </g>
     <g id="text_4">
      <!-- 400 -->
      <g style="fill: #66747c" transform="translate(479.197461 240.552109) scale(0.105 -0.105)">
       <defs>
        <path id="DejaVuSans-34" d="M 2419 4116 
L 825 1625 
L 2419 1625 
L 2419 4116 
z
M 2253 4666 
L 3047 4666 
L 3047 1625 
L 3713 1625 
L 3713 1100 
L 3047 1100 
L 3047 0 
L 2419 0 
L 2419 1100 
L 313 1100 
L 313 1709 
L 2253 4666 
z
" transform="scale(0.015625)"/>
       </defs>
       <use xlink:href="#DejaVuSans-34"/>
       <use xlink:href="#DejaVuSans-30" transform="translate(63.623047 0)"/>
       <use xlink:href="#DejaVuSans-30" transform="translate(127.246094 0)"/>
      </g>
     </g>
    </g>
    <g id="text_5">
     <!-- Целевые примеры для адаптации -->
     <g style="fill: #15242d" transform="translate(185.735078 254.714141) scale(0.105 -0.105)">
      <defs>
       <path id="DejaVuSans-426" d="M 4184 0 
L 628 0 
L 628 4666 
L 1259 4666 
L 1259 531 
L 3553 531 
L 3553 4666 
L 4184 4666 
L 4184 531 
L 4716 531 
L 4716 -1003 
L 4184 -1003 
L 4184 0 
z
" transform="scale(0.015625)"/>
       <path id="DejaVuSans-435" d="M 3597 1894 
L 3597 1613 
L 953 1613 
Q 991 1019 1311 708 
Q 1631 397 2203 397 
Q 2534 397 2845 478 
Q 3156 559 3463 722 
L 3463 178 
Q 3153 47 2828 -22 
Q 2503 -91 2169 -91 
Q 1331 -91 842 396 
Q 353 884 353 1716 
Q 353 2575 817 3079 
Q 1281 3584 2069 3584 
Q 2775 3584 3186 3129 
Q 3597 2675 3597 1894 
z
M 3022 2063 
Q 3016 2534 2758 2815 
Q 2500 3097 2075 3097 
Q 1594 3097 1305 2825 
Q 1016 2553 972 2059 
L 3022 2063 
z
" transform="scale(0.015625)"/>
       <path id="DejaVuSans-43b" d="M 238 0 
L 238 478 
Q 806 566 981 959 
Q 1194 1513 1194 2928 
L 1194 3500 
L 3559 3500 
L 3559 0 
L 2984 0 
L 2984 3041 
L 1769 3041 
L 1769 2694 
Q 1769 1344 1494 738 
Q 1200 91 238 0 
z
" transform="scale(0.015625)"/>
       <path id="DejaVuSans-432" d="M 1156 1613 
L 1156 459 
L 1975 459 
Q 2369 459 2575 607 
Q 2781 756 2781 1038 
Q 2781 1319 2575 1466 
Q 2369 1613 1975 1613 
L 1156 1613 
z
M 1156 3041 
L 1156 2072 
L 1913 2072 
Q 2238 2072 2444 2201 
Q 2650 2331 2650 2563 
Q 2650 2794 2444 2917 
Q 2238 3041 1913 3041 
L 1156 3041 
z
M 581 3500 
L 1950 3500 
Q 2566 3500 2897 3275 
Q 3228 3050 3228 2634 
Q 3228 2313 3059 2123 
Q 2891 1934 2559 1888 
Q 2956 1813 3175 1575 
Q 3394 1338 3394 981 
Q 3394 513 3033 256 
Q 2672 0 2003 0 
L 581 0 
L 581 3500 
z
" transform="scale(0.015625)"/>
       <path id="DejaVuSans-44b" d="M 3907 3500 
L 4482 3500 
L 4482 0 
L 3907 0 
L 3907 3500 
z
M 4195 3584 
L 4195 3584 
z
M 2781 1038 
Q 2781 1319 2576 1466 
Q 2372 1613 1978 1613 
L 1159 1613 
L 1159 459 
L 1978 459 
Q 2372 459 2576 607 
Q 2781 756 2781 1038 
z
M 581 3500 
L 1159 3500 
L 1159 2072 
L 2003 2072 
Q 2672 2072 3033 1817 
Q 3394 1563 3394 1038 
Q 3394 513 3033 256 
Q 2672 0 2003 0 
L 581 0 
L 581 3500 
z
" transform="scale(0.015625)"/>
       <path id="DejaVuSans-20" transform="scale(0.015625)"/>
       <path id="DejaVuSans-43f" d="M 3603 3500 
L 3603 0 
L 3025 0 
L 3025 3041 
L 1159 3041 
L 1159 0 
L 581 0 
L 581 3500 
L 3603 3500 
z
" transform="scale(0.015625)"/>
       <path id="DejaVuSans-440" d="M 1159 525 
L 1159 -1331 
L 581 -1331 
L 581 3500 
L 1159 3500 
L 1159 2969 
Q 1341 3281 1617 3432 
Q 1894 3584 2278 3584 
Q 2916 3584 3314 3078 
Q 3713 2572 3713 1747 
Q 3713 922 3314 415 
Q 2916 -91 2278 -91 
Q 1894 -91 1617 61 
Q 1341 213 1159 525 
z
M 3116 1747 
Q 3116 2381 2855 2742 
Q 2594 3103 2138 3103 
Q 1681 3103 1420 2742 
Q 1159 2381 1159 1747 
Q 1159 1113 1420 752 
Q 1681 391 2138 391 
Q 2594 391 2855 752 
Q 3116 1113 3116 1747 
z
" transform="scale(0.015625)"/>
       <path id="DejaVuSans-438" d="M 3578 3500 
L 3578 0 
L 3006 0 
L 3006 2809 
L 1319 0 
L 581 0 
L 581 3500 
L 1153 3500 
L 1153 697 
L 2838 3500 
L 3578 3500 
z
" transform="scale(0.015625)"/>
       <path id="DejaVuSans-43c" d="M 581 3500 
L 1422 3500 
L 2416 1156 
L 3413 3500 
L 4247 3500 
L 4247 0 
L 3669 0 
L 3669 2950 
L 2703 672 
L 2128 672 
L 1159 2950 
L 1159 0 
L 581 0 
L 581 3500 
z
" transform="scale(0.015625)"/>
       <path id="DejaVuSans-434" d="M 1384 459 
L 3053 459 
L 3053 3041 
L 1844 3041 
L 1844 2603 
Q 1844 1316 1475 628 
L 1384 459 
z
M 550 459 
Q 834 584 959 850 
Q 1266 1509 1266 2838 
L 1266 3500 
L 3631 3500 
L 3631 459 
L 4091 459 
L 4091 -884 
L 3631 -884 
L 3631 0 
L 794 0 
L 794 -884 
L 334 -884 
L 334 459 
L 550 459 
z
" transform="scale(0.015625)"/>
       <path id="DejaVuSans-44f" d="M 1181 2491 
Q 1181 2231 1381 2084 
Q 1581 1938 1953 1938 
L 2728 1938 
L 2728 3041 
L 1953 3041 
Q 1581 3041 1381 2897 
Q 1181 2753 1181 2491 
z
M 363 0 
L 1431 1534 
Q 1069 1616 828 1830 
Q 588 2044 588 2491 
Q 588 2997 923 3248 
Q 1259 3500 1938 3500 
L 3306 3500 
L 3306 0 
L 2728 0 
L 2728 1478 
L 2013 1478 
L 981 0 
L 363 0 
z
" transform="scale(0.015625)"/>
       <path id="DejaVuSans-430" d="M 2194 1759 
Q 1497 1759 1228 1600 
Q 959 1441 959 1056 
Q 959 750 1161 570 
Q 1363 391 1709 391 
Q 2188 391 2477 730 
Q 2766 1069 2766 1631 
L 2766 1759 
L 2194 1759 
z
M 3341 1997 
L 3341 0 
L 2766 0 
L 2766 531 
Q 2569 213 2275 61 
Q 1981 -91 1556 -91 
Q 1019 -91 701 211 
Q 384 513 384 1019 
Q 384 1609 779 1909 
Q 1175 2209 1959 2209 
L 2766 2209 
L 2766 2266 
Q 2766 2663 2505 2880 
Q 2244 3097 1772 3097 
Q 1472 3097 1187 3025 
Q 903 2953 641 2809 
L 641 3341 
Q 956 3463 1253 3523 
Q 1550 3584 1831 3584 
Q 2591 3584 2966 3190 
Q 3341 2797 3341 1997 
z
" transform="scale(0.015625)"/>
       <path id="DejaVuSans-442" d="M 188 3500 
L 3541 3500 
L 3541 3041 
L 2147 3041 
L 2147 0 
L 1581 0 
L 1581 3041 
L 188 3041 
L 188 3500 
z
" transform="scale(0.015625)"/>
       <path id="DejaVuSans-446" d="M 3603 0 
L 581 0 
L 581 3500 
L 1159 3500 
L 1159 459 
L 3025 459 
L 3025 3500 
L 3603 3500 
L 3603 459 
L 4063 459 
L 4063 -884 
L 3603 -884 
L 3603 0 
z
" transform="scale(0.015625)"/>
      </defs>
      <use xlink:href="#DejaVuSans-426"/>
      <use xlink:href="#DejaVuSans-435" transform="translate(77.636719 0)"/>
      <use xlink:href="#DejaVuSans-43b" transform="translate(139.160156 0)"/>
      <use xlink:href="#DejaVuSans-435" transform="translate(203.076172 0)"/>
      <use xlink:href="#DejaVuSans-432" transform="translate(264.599609 0)"/>
      <use xlink:href="#DejaVuSans-44b" transform="translate(323.535156 0)"/>
      <use xlink:href="#DejaVuSans-435" transform="translate(402.490234 0)"/>
      <use xlink:href="#DejaVuSans-20" transform="translate(464.013672 0)"/>
      <use xlink:href="#DejaVuSans-43f" transform="translate(495.800781 0)"/>
      <use xlink:href="#DejaVuSans-440" transform="translate(561.181641 0)"/>
      <use xlink:href="#DejaVuSans-438" transform="translate(624.658203 0)"/>
      <use xlink:href="#DejaVuSans-43c" transform="translate(689.648438 0)"/>
      <use xlink:href="#DejaVuSans-435" transform="translate(765.087891 0)"/>
      <use xlink:href="#DejaVuSans-440" transform="translate(826.611328 0)"/>
      <use xlink:href="#DejaVuSans-44b" transform="translate(890.087891 0)"/>
      <use xlink:href="#DejaVuSans-20" transform="translate(969.042969 0)"/>
      <use xlink:href="#DejaVuSans-434" transform="translate(1000.830078 0)"/>
      <use xlink:href="#DejaVuSans-43b" transform="translate(1069.970703 0)"/>
      <use xlink:href="#DejaVuSans-44f" transform="translate(1133.886719 0)"/>
      <use xlink:href="#DejaVuSans-20" transform="translate(1194.042969 0)"/>
      <use xlink:href="#DejaVuSans-430" transform="translate(1225.830078 0)"/>
      <use xlink:href="#DejaVuSans-434" transform="translate(1287.109375 0)"/>
      <use xlink:href="#DejaVuSans-430" transform="translate(1356.25 0)"/>
      <use xlink:href="#DejaVuSans-43f" transform="translate(1417.529297 0)"/>
      <use xlink:href="#DejaVuSans-442" transform="translate(1482.910156 0)"/>
      <use xlink:href="#DejaVuSans-430" transform="translate(1541.162109 0)"/>
      <use xlink:href="#DejaVuSans-446" transform="translate(1602.441406 0)"/>
      <use xlink:href="#DejaVuSans-438" transform="translate(1670.507812 0)"/>
      <use xlink:href="#DejaVuSans-438" transform="translate(1735.498047 0)"/>
     </g>
    </g>
   </g>
   <g id="matplotlib.axis_2">
    <g id="ytick_1">
     <g id="line2d_5">
      <path d="M 43.841328 211.722115 
L 516.681328 211.722115 
" clip-path="url(#p3391aaf54f)" style="fill: none; stroke: #dde5e7; stroke-width: 0.8; stroke-linecap: square"/>
     </g>
     <g id="line2d_6">
      <defs>
       <path id="m54ec7c6191" d="M 0 0 
L -3.5 0 
" style="stroke: #66747c; stroke-width: 0.8"/>
      </defs>
      <g>
       <use xlink:href="#m54ec7c6191" x="43.841328" y="211.722115" style="fill: #66747c; stroke: #66747c; stroke-width: 0.8"/>
      </g>
     </g>
     <g id="text_6">
      <!-- −1 -->
      <g style="fill: #66747c" transform="translate(21.362031 215.711295) scale(0.105 -0.105)">
       <defs>
        <path id="DejaVuSans-2212" d="M 678 2272 
L 4684 2272 
L 4684 1741 
L 678 1741 
L 678 2272 
z
" transform="scale(0.015625)"/>
       </defs>
       <use xlink:href="#DejaVuSans-2212"/>
       <use xlink:href="#DejaVuSans-31" transform="translate(83.789062 0)"/>
      </g>
     </g>
    </g>
    <g id="ytick_2">
     <g id="line2d_7">
      <path d="M 43.841328 184.018846 
L 516.681328 184.018846 
" clip-path="url(#p3391aaf54f)" style="fill: none; stroke: #dde5e7; stroke-width: 0.8; stroke-linecap: square"/>
     </g>
     <g id="line2d_8">
      <g>
       <use xlink:href="#m54ec7c6191" x="43.841328" y="184.018846" style="fill: #66747c; stroke: #66747c; stroke-width: 0.8"/>
      </g>
     </g>
     <g id="text_7">
      <!-- 0 -->
      <g style="fill: #66747c" transform="translate(30.160703 188.008026) scale(0.105 -0.105)">
       <use xlink:href="#DejaVuSans-30"/>
      </g>
     </g>
    </g>
    <g id="ytick_3">
     <g id="line2d_9">
      <path d="M 43.841328 156.315577 
L 516.681328 156.315577 
" clip-path="url(#p3391aaf54f)" style="fill: none; stroke: #dde5e7; stroke-width: 0.8; stroke-linecap: square"/>
     </g>
     <g id="line2d_10">
      <g>
       <use xlink:href="#m54ec7c6191" x="43.841328" y="156.315577" style="fill: #66747c; stroke: #66747c; stroke-width: 0.8"/>
      </g>
     </g>
     <g id="text_8">
      <!-- 1 -->
      <g style="fill: #66747c" transform="translate(30.160703 160.304757) scale(0.105 -0.105)">
       <use xlink:href="#DejaVuSans-31"/>
      </g>
     </g>
    </g>
    <g id="ytick_4">
     <g id="line2d_11">
      <path d="M 43.841328 128.612308 
L 516.681328 128.612308 
" clip-path="url(#p3391aaf54f)" style="fill: none; stroke: #dde5e7; stroke-width: 0.8; stroke-linecap: square"/>
     </g>
     <g id="line2d_12">
      <g>
       <use xlink:href="#m54ec7c6191" x="43.841328" y="128.612308" style="fill: #66747c; stroke: #66747c; stroke-width: 0.8"/>
      </g>
     </g>
     <g id="text_9">
      <!-- 2 -->
      <g style="fill: #66747c" transform="translate(30.160703 132.601487) scale(0.105 -0.105)">
       <use xlink:href="#DejaVuSans-32"/>
      </g>
     </g>
    </g>
    <g id="ytick_5">
     <g id="line2d_13">
      <path d="M 43.841328 100.909038 
L 516.681328 100.909038 
" clip-path="url(#p3391aaf54f)" style="fill: none; stroke: #dde5e7; stroke-width: 0.8; stroke-linecap: square"/>
     </g>
     <g id="line2d_14">
      <g>
       <use xlink:href="#m54ec7c6191" x="43.841328" y="100.909038" style="fill: #66747c; stroke: #66747c; stroke-width: 0.8"/>
      </g>
     </g>
     <g id="text_10">
      <!-- 3 -->
      <g style="fill: #66747c" transform="translate(30.160703 104.898218) scale(0.105 -0.105)">
       <defs>
        <path id="DejaVuSans-33" d="M 2597 2516 
Q 3050 2419 3304 2112 
Q 3559 1806 3559 1356 
Q 3559 666 3084 287 
Q 2609 -91 1734 -91 
Q 1441 -91 1130 -33 
Q 819 25 488 141 
L 488 750 
Q 750 597 1062 519 
Q 1375 441 1716 441 
Q 2309 441 2620 675 
Q 2931 909 2931 1356 
Q 2931 1769 2642 2001 
Q 2353 2234 1838 2234 
L 1294 2234 
L 1294 2753 
L 1863 2753 
Q 2328 2753 2575 2939 
Q 2822 3125 2822 3475 
Q 2822 3834 2567 4026 
Q 2313 4219 1838 4219 
Q 1578 4219 1281 4162 
Q 984 4106 628 3988 
L 628 4550 
Q 988 4650 1302 4700 
Q 1616 4750 1894 4750 
Q 2613 4750 3031 4423 
Q 3450 4097 3450 3541 
Q 3450 3153 3228 2886 
Q 3006 2619 2597 2516 
z
" transform="scale(0.015625)"/>
       </defs>
       <use xlink:href="#DejaVuSans-33"/>
      </g>
     </g>
    </g>
    <g id="ytick_6">
     <g id="line2d_15">
      <path d="M 43.841328 73.205769 
L 516.681328 73.205769 
" clip-path="url(#p3391aaf54f)" style="fill: none; stroke: #dde5e7; stroke-width: 0.8; stroke-linecap: square"/>
     </g>
     <g id="line2d_16">
      <g>
       <use xlink:href="#m54ec7c6191" x="43.841328" y="73.205769" style="fill: #66747c; stroke: #66747c; stroke-width: 0.8"/>
      </g>
     </g>
     <g id="text_11">
      <!-- 4 -->
      <g style="fill: #66747c" transform="translate(30.160703 77.194949) scale(0.105 -0.105)">
       <use xlink:href="#DejaVuSans-34"/>
      </g>
     </g>
    </g>
    <g id="ytick_7">
     <g id="line2d_17">
      <path d="M 43.841328 45.5025 
L 516.681328 45.5025 
" clip-path="url(#p3391aaf54f)" style="fill: none; stroke: #dde5e7; stroke-width: 0.8; stroke-linecap: square"/>
     </g>
     <g id="line2d_18">
      <g>
       <use xlink:href="#m54ec7c6191" x="43.841328" y="45.5025" style="fill: #66747c; stroke: #66747c; stroke-width: 0.8"/>
      </g>
     </g>
     <g id="text_12">
      <!-- 5 -->
      <g style="fill: #66747c" transform="translate(30.160703 49.49168) scale(0.105 -0.105)">
       <use xlink:href="#DejaVuSans-35"/>
      </g>
     </g>
    </g>
    <g id="text_13">
     <!-- Преимущество DoRA, п.п. -->
     <g style="fill: #15242d" transform="translate(15.178359 206.446758) rotate(-90) scale(0.105 -0.105)">
      <defs>
       <path id="DejaVuSans-41f" d="M 4184 4666 
L 4184 0 
L 3553 0 
L 3553 4134 
L 1259 4134 
L 1259 0 
L 628 0 
L 628 4666 
L 4184 4666 
z
" transform="scale(0.015625)"/>
       <path id="DejaVuSans-443" d="M 2059 -325 
Q 1816 -950 1584 -1140 
Q 1353 -1331 966 -1331 
L 506 -1331 
L 506 -850 
L 844 -850 
Q 1081 -850 1212 -737 
Q 1344 -625 1503 -206 
L 1606 56 
L 191 3500 
L 800 3500 
L 1894 763 
L 2988 3500 
L 3597 3500 
L 2059 -325 
z
" transform="scale(0.015625)"/>
       <path id="DejaVuSans-449" d="M 5275 0 
L 581 0 
L 581 3500 
L 1159 3500 
L 1159 459 
L 2638 459 
L 2638 3500 
L 3216 3500 
L 3216 459 
L 4697 459 
L 4697 3500 
L 5275 3500 
L 5275 459 
L 5734 459 
L 5734 -884 
L 5275 -884 
L 5275 0 
z
" transform="scale(0.015625)"/>
       <path id="DejaVuSans-441" d="M 3122 3366 
L 3122 2828 
Q 2878 2963 2633 3030 
Q 2388 3097 2138 3097 
Q 1578 3097 1268 2742 
Q 959 2388 959 1747 
Q 959 1106 1268 751 
Q 1578 397 2138 397 
Q 2388 397 2633 464 
Q 2878 531 3122 666 
L 3122 134 
Q 2881 22 2623 -34 
Q 2366 -91 2075 -91 
Q 1284 -91 818 406 
Q 353 903 353 1747 
Q 353 2603 823 3093 
Q 1294 3584 2113 3584 
Q 2378 3584 2631 3529 
Q 2884 3475 3122 3366 
z
" transform="scale(0.015625)"/>
       <path id="DejaVuSans-43e" d="M 1959 3097 
Q 1497 3097 1228 2736 
Q 959 2375 959 1747 
Q 959 1119 1226 758 
Q 1494 397 1959 397 
Q 2419 397 2687 759 
Q 2956 1122 2956 1747 
Q 2956 2369 2687 2733 
Q 2419 3097 1959 3097 
z
M 1959 3584 
Q 2709 3584 3137 3096 
Q 3566 2609 3566 1747 
Q 3566 888 3137 398 
Q 2709 -91 1959 -91 
Q 1206 -91 779 398 
Q 353 888 353 1747 
Q 353 2609 779 3096 
Q 1206 3584 1959 3584 
z
" transform="scale(0.015625)"/>
       <path id="DejaVuSans-44" d="M 1259 4147 
L 1259 519 
L 2022 519 
Q 2988 519 3436 956 
Q 3884 1394 3884 2338 
Q 3884 3275 3436 3711 
Q 2988 4147 2022 4147 
L 1259 4147 
z
M 628 4666 
L 1925 4666 
Q 3281 4666 3915 4102 
Q 4550 3538 4550 2338 
Q 4550 1131 3912 565 
Q 3275 0 1925 0 
L 628 0 
L 628 4666 
z
" transform="scale(0.015625)"/>
       <path id="DejaVuSans-6f" d="M 1959 3097 
Q 1497 3097 1228 2736 
Q 959 2375 959 1747 
Q 959 1119 1226 758 
Q 1494 397 1959 397 
Q 2419 397 2687 759 
Q 2956 1122 2956 1747 
Q 2956 2369 2687 2733 
Q 2419 3097 1959 3097 
z
M 1959 3584 
Q 2709 3584 3137 3096 
Q 3566 2609 3566 1747 
Q 3566 888 3137 398 
Q 2709 -91 1959 -91 
Q 1206 -91 779 398 
Q 353 888 353 1747 
Q 353 2609 779 3096 
Q 1206 3584 1959 3584 
z
" transform="scale(0.015625)"/>
       <path id="DejaVuSans-52" d="M 2841 2188 
Q 3044 2119 3236 1894 
Q 3428 1669 3622 1275 
L 4263 0 
L 3584 0 
L 2988 1197 
Q 2756 1666 2539 1819 
Q 2322 1972 1947 1972 
L 1259 1972 
L 1259 0 
L 628 0 
L 628 4666 
L 2053 4666 
Q 2853 4666 3247 4331 
Q 3641 3997 3641 3322 
Q 3641 2881 3436 2590 
Q 3231 2300 2841 2188 
z
M 1259 4147 
L 1259 2491 
L 2053 2491 
Q 2509 2491 2742 2702 
Q 2975 2913 2975 3322 
Q 2975 3731 2742 3939 
Q 2509 4147 2053 4147 
L 1259 4147 
z
" transform="scale(0.015625)"/>
       <path id="DejaVuSans-41" d="M 2188 4044 
L 1331 1722 
L 3047 1722 
L 2188 4044 
z
M 1831 4666 
L 2547 4666 
L 4325 0 
L 3669 0 
L 3244 1197 
L 1141 1197 
L 716 0 
L 50 0 
L 1831 4666 
z
" transform="scale(0.015625)"/>
       <path id="DejaVuSans-2c" d="M 750 794 
L 1409 794 
L 1409 256 
L 897 -744 
L 494 -744 
L 750 256 
L 750 794 
z
" transform="scale(0.015625)"/>
       <path id="DejaVuSans-2e" d="M 684 794 
L 1344 794 
L 1344 0 
L 684 0 
L 684 794 
z
" transform="scale(0.015625)"/>
      </defs>
      <use xlink:href="#DejaVuSans-41f"/>
      <use xlink:href="#DejaVuSans-440" transform="translate(75.195312 0)"/>
      <use xlink:href="#DejaVuSans-435" transform="translate(138.671875 0)"/>
      <use xlink:href="#DejaVuSans-438" transform="translate(200.195312 0)"/>
      <use xlink:href="#DejaVuSans-43c" transform="translate(265.185547 0)"/>
      <use xlink:href="#DejaVuSans-443" transform="translate(340.625 0)"/>
      <use xlink:href="#DejaVuSans-449" transform="translate(399.804688 0)"/>
      <use xlink:href="#DejaVuSans-435" transform="translate(493.994141 0)"/>
      <use xlink:href="#DejaVuSans-441" transform="translate(555.517578 0)"/>
      <use xlink:href="#DejaVuSans-442" transform="translate(610.498047 0)"/>
      <use xlink:href="#DejaVuSans-432" transform="translate(668.75 0)"/>
      <use xlink:href="#DejaVuSans-43e" transform="translate(727.685547 0)"/>
      <use xlink:href="#DejaVuSans-20" transform="translate(788.867188 0)"/>
      <use xlink:href="#DejaVuSans-44" transform="translate(820.654297 0)"/>
      <use xlink:href="#DejaVuSans-6f" transform="translate(897.65625 0)"/>
      <use xlink:href="#DejaVuSans-52" transform="translate(958.837891 0)"/>
      <use xlink:href="#DejaVuSans-41" transform="translate(1024.320312 0)"/>
      <use xlink:href="#DejaVuSans-2c" transform="translate(1092.728516 0)"/>
      <use xlink:href="#DejaVuSans-20" transform="translate(1124.515625 0)"/>
      <use xlink:href="#DejaVuSans-43f" transform="translate(1156.302734 0)"/>
      <use xlink:href="#DejaVuSans-2e" transform="translate(1221.683594 0)"/>
      <use xlink:href="#DejaVuSans-43f" transform="translate(1253.470703 0)"/>
      <use xlink:href="#DejaVuSans-2e" transform="translate(1318.851562 0)"/>
     </g>
    </g>
   </g>
   <g id="line2d_19">
    <path d="M 43.841328 184.018846 
L 516.681328 184.018846 
" clip-path="url(#p3391aaf54f)" style="fill: none; stroke: #15242d; stroke-width: 1.1; stroke-linecap: square"/>
   </g>
   <g id="LineCollection_1">
    <path d="M 65.334055 195.39005 
L 65.334055 147.252979 
" clip-path="url(#p3391aaf54f)" style="fill: none; stroke: #0b8f83; stroke-width: 2"/>
    <path d="M 125.036076 190.908732 
L 125.036076 147.886621 
" clip-path="url(#p3391aaf54f)" style="fill: none; stroke: #0b8f83; stroke-width: 2"/>
    <path d="M 244.440116 187.320133 
L 244.440116 129.928233 
" clip-path="url(#p3391aaf54f)" style="fill: none; stroke: #0b8f83; stroke-width: 2"/>
    <path d="M 483.248197 184.696322 
L 483.248197 144.864607 
" clip-path="url(#p3391aaf54f)" style="fill: none; stroke: #0b8f83; stroke-width: 2"/>
   </g>
   <g id="line2d_20">
    <defs>
     <path id="m46c1f536f7" d="M 3 0 
L -3 -0 
" style="stroke: #0b8f83; stroke-width: 1.6"/>
    </defs>
    <g clip-path="url(#p3391aaf54f)">
     <use xlink:href="#m46c1f536f7" x="65.334055" y="195.39005" style="fill: #0b8f83; stroke: #0b8f83; stroke-width: 1.6"/>
     <use xlink:href="#m46c1f536f7" x="125.036076" y="190.908732" style="fill: #0b8f83; stroke: #0b8f83; stroke-width: 1.6"/>
     <use xlink:href="#m46c1f536f7" x="244.440116" y="187.320133" style="fill: #0b8f83; stroke: #0b8f83; stroke-width: 1.6"/>
     <use xlink:href="#m46c1f536f7" x="483.248197" y="184.696322" style="fill: #0b8f83; stroke: #0b8f83; stroke-width: 1.6"/>
    </g>
   </g>
   <g id="line2d_21">
    <g clip-path="url(#p3391aaf54f)">
     <use xlink:href="#m46c1f536f7" x="65.334055" y="147.252979" style="fill: #0b8f83; stroke: #0b8f83; stroke-width: 1.6"/>
     <use xlink:href="#m46c1f536f7" x="125.036076" y="147.886621" style="fill: #0b8f83; stroke: #0b8f83; stroke-width: 1.6"/>
     <use xlink:href="#m46c1f536f7" x="244.440116" y="129.928233" style="fill: #0b8f83; stroke: #0b8f83; stroke-width: 1.6"/>
     <use xlink:href="#m46c1f536f7" x="483.248197" y="144.864607" style="fill: #0b8f83; stroke: #0b8f83; stroke-width: 1.6"/>
    </g>
   </g>
   <g id="LineCollection_2">
    <path d="M 77.274459 148.929284 
L 77.274459 82.900667 
" clip-path="url(#p3391aaf54f)" style="fill: none; stroke: #3565d4; stroke-width: 2"/>
    <path d="M 136.97648 142.042343 
L 136.97648 69.010157 
" clip-path="url(#p3391aaf54f)" style="fill: none; stroke: #3565d4; stroke-width: 2"/>
    <path d="M 256.38052 163.535655 
L 256.38052 107.540595 
" clip-path="url(#p3391aaf54f)" style="fill: none; stroke: #3565d4; stroke-width: 2"/>
    <path d="M 495.188601 167.68433 
L 495.188601 114.934948 
" clip-path="url(#p3391aaf54f)" style="fill: none; stroke: #3565d4; stroke-width: 2"/>
   </g>
   <g id="line2d_22">
    <defs>
     <path id="m209ec40ee0" d="M 3 0 
L -3 -0 
" style="stroke: #3565d4; stroke-width: 1.6"/>
    </defs>
    <g clip-path="url(#p3391aaf54f)">
     <use xlink:href="#m209ec40ee0" x="77.274459" y="148.929284" style="fill: #3565d4; stroke: #3565d4; stroke-width: 1.6"/>
     <use xlink:href="#m209ec40ee0" x="136.97648" y="142.042343" style="fill: #3565d4; stroke: #3565d4; stroke-width: 1.6"/>
     <use xlink:href="#m209ec40ee0" x="256.38052" y="163.535655" style="fill: #3565d4; stroke: #3565d4; stroke-width: 1.6"/>
     <use xlink:href="#m209ec40ee0" x="495.188601" y="167.68433" style="fill: #3565d4; stroke: #3565d4; stroke-width: 1.6"/>
    </g>
   </g>
   <g id="line2d_23">
    <g clip-path="url(#p3391aaf54f)">
     <use xlink:href="#m209ec40ee0" x="77.274459" y="82.900667" style="fill: #3565d4; stroke: #3565d4; stroke-width: 1.6"/>
     <use xlink:href="#m209ec40ee0" x="136.97648" y="69.010157" style="fill: #3565d4; stroke: #3565d4; stroke-width: 1.6"/>
     <use xlink:href="#m209ec40ee0" x="256.38052" y="107.540595" style="fill: #3565d4; stroke: #3565d4; stroke-width: 1.6"/>
     <use xlink:href="#m209ec40ee0" x="495.188601" y="114.934948" style="fill: #3565d4; stroke: #3565d4; stroke-width: 1.6"/>
    </g>
   </g>
   <g id="line2d_24">
    <defs>
     <path id="m6e43a77ebb" d="M 0 3.5 
C 0.928211 3.5 1.81853 3.131218 2.474874 2.474874 
C 3.131218 1.81853 3.5 0.928211 3.5 0 
C 3.5 -0.928211 3.131218 -1.81853 2.474874 -2.474874 
C 1.81853 -3.131218 0.928211 -3.5 0 -3.5 
C -0.928211 -3.5 -1.81853 -3.131218 -2.474874 -2.474874 
C -3.131218 -1.81853 -3.5 -0.928211 -3.5 0 
C -3.5 0.928211 -3.131218 1.81853 -2.474874 2.474874 
C -1.81853 3.131218 -0.928211 3.5 0 3.5 
z
" style="stroke: #0b8f83; stroke-width: 1.6"/>
    </defs>
    <g clip-path="url(#p3391aaf54f)">
     <use xlink:href="#m6e43a77ebb" x="65.334055" y="171.321514" style="fill: #0b8f83; stroke: #0b8f83; stroke-width: 1.6"/>
     <use xlink:href="#m6e43a77ebb" x="125.036076" y="169.397676" style="fill: #0b8f83; stroke: #0b8f83; stroke-width: 1.6"/>
     <use xlink:href="#m6e43a77ebb" x="244.440116" y="158.624183" style="fill: #0b8f83; stroke: #0b8f83; stroke-width: 1.6"/>
     <use xlink:href="#m6e43a77ebb" x="483.248197" y="164.780465" style="fill: #0b8f83; stroke: #0b8f83; stroke-width: 1.6"/>
    </g>
   </g>
   <g id="line2d_25">
    <defs>
     <path id="m552bb5b869" d="M -3.5 3.5 
L 3.5 3.5 
L 3.5 -3.5 
L -3.5 -3.5 
z
" style="stroke: #3565d4; stroke-width: 1.6; stroke-linejoin: miter"/>
    </defs>
    <g clip-path="url(#p3391aaf54f)">
     <use xlink:href="#m552bb5b869" x="77.274459" y="115.914976" style="fill: #ffffff; stroke: #3565d4; stroke-width: 1.6; stroke-linejoin: miter"/>
     <use xlink:href="#m552bb5b869" x="136.97648" y="105.52625" style="fill: #ffffff; stroke: #3565d4; stroke-width: 1.6; stroke-linejoin: miter"/>
     <use xlink:href="#m552bb5b869" x="256.38052" y="135.538125" style="fill: #ffffff; stroke: #3565d4; stroke-width: 1.6; stroke-linejoin: miter"/>
     <use xlink:href="#m552bb5b869" x="495.188601" y="141.309639" style="fill: #ffffff; stroke: #3565d4; stroke-width: 1.6; stroke-linejoin: miter"/>
    </g>
   </g>
   <g id="patch_3">
    <path d="M 43.841328 225.57375 
L 43.841328 45.5025 
" style="fill: none; stroke: #66747c; stroke-width: 0.8; stroke-linejoin: miter; stroke-linecap: square"/>
   </g>
   <g id="patch_4">
    <path d="M 43.841328 225.57375 
L 516.681328 225.57375 
" style="fill: none; stroke: #66747c; stroke-width: 0.8; stroke-linejoin: miter; stroke-linecap: square"/>
   </g>
   <g id="text_14">
    <!-- Среднее и 95%-й парный t-интервал · n=20 сидов на объём данных -->
    <g style="fill: #66747c" transform="translate(43.841328 43.701787) scale(0.092 -0.092)">
     <defs>
      <path id="DejaVuSans-421" d="M 4122 4306 
L 4122 3641 
Q 3803 3938 3442 4084 
Q 3081 4231 2675 4231 
Q 1875 4231 1450 3742 
Q 1025 3253 1025 2328 
Q 1025 1406 1450 917 
Q 1875 428 2675 428 
Q 3081 428 3442 575 
Q 3803 722 4122 1019 
L 4122 359 
Q 3791 134 3420 21 
Q 3050 -91 2638 -91 
Q 1578 -91 968 557 
Q 359 1206 359 2328 
Q 359 3453 968 4101 
Q 1578 4750 2638 4750 
Q 3056 4750 3426 4639 
Q 3797 4528 4122 4306 
z
" transform="scale(0.015625)"/>
      <path id="DejaVuSans-43d" d="M 581 3500 
L 1159 3500 
L 1159 2072 
L 3025 2072 
L 3025 3500 
L 3603 3500 
L 3603 0 
L 3025 0 
L 3025 1613 
L 1159 1613 
L 1159 0 
L 581 0 
L 581 3500 
z
" transform="scale(0.015625)"/>
      <path id="DejaVuSans-39" d="M 703 97 
L 703 672 
Q 941 559 1184 500 
Q 1428 441 1663 441 
Q 2288 441 2617 861 
Q 2947 1281 2994 2138 
Q 2813 1869 2534 1725 
Q 2256 1581 1919 1581 
Q 1219 1581 811 2004 
Q 403 2428 403 3163 
Q 403 3881 828 4315 
Q 1253 4750 1959 4750 
Q 2769 4750 3195 4129 
Q 3622 3509 3622 2328 
Q 3622 1225 3098 567 
Q 2575 -91 1691 -91 
Q 1453 -91 1209 -44 
Q 966 3 703 97 
z
M 1959 2075 
Q 2384 2075 2632 2365 
Q 2881 2656 2881 3163 
Q 2881 3666 2632 3958 
Q 2384 4250 1959 4250 
Q 1534 4250 1286 3958 
Q 1038 3666 1038 3163 
Q 1038 2656 1286 2365 
Q 1534 2075 1959 2075 
z
" transform="scale(0.015625)"/>
      <path id="DejaVuSans-25" d="M 4653 2053 
Q 4381 2053 4226 1822 
Q 4072 1591 4072 1178 
Q 4072 772 4226 539 
Q 4381 306 4653 306 
Q 4919 306 5073 539 
Q 5228 772 5228 1178 
Q 5228 1588 5073 1820 
Q 4919 2053 4653 2053 
z
M 4653 2450 
Q 5147 2450 5437 2106 
Q 5728 1763 5728 1178 
Q 5728 594 5436 251 
Q 5144 -91 4653 -91 
Q 4153 -91 3862 251 
Q 3572 594 3572 1178 
Q 3572 1766 3864 2108 
Q 4156 2450 4653 2450 
z
M 1428 4353 
Q 1159 4353 1004 4120 
Q 850 3888 850 3481 
Q 850 3069 1003 2837 
Q 1156 2606 1428 2606 
Q 1700 2606 1854 2837 
Q 2009 3069 2009 3481 
Q 2009 3884 1853 4118 
Q 1697 4353 1428 4353 
z
M 4250 4750 
L 4750 4750 
L 1831 -91 
L 1331 -91 
L 4250 4750 
z
M 1428 4750 
Q 1922 4750 2215 4408 
Q 2509 4066 2509 3481 
Q 2509 2891 2217 2550 
Q 1925 2209 1428 2209 
Q 931 2209 642 2551 
Q 353 2894 353 3481 
Q 353 4063 643 4406 
Q 934 4750 1428 4750 
z
" transform="scale(0.015625)"/>
      <path id="DejaVuSans-2d" d="M 313 2009 
L 1997 2009 
L 1997 1497 
L 313 1497 
L 313 2009 
z
" transform="scale(0.015625)"/>
      <path id="DejaVuSans-439" d="M 3578 3500 
L 3578 0 
L 3006 0 
L 3006 2809 
L 1319 0 
L 581 0 
L 581 3500 
L 1153 3500 
L 1153 697 
L 2838 3500 
L 3578 3500 
z
M 1102 4833 
L 1471 4833 
Q 1505 4599 1656 4481 
Q 1808 4364 2080 4364 
Q 2349 4364 2499 4480 
Q 2649 4596 2689 4833 
L 3058 4833 
Q 3027 4386 2780 4161 
Q 2533 3936 2080 3936 
Q 1627 3936 1380 4161 
Q 1133 4386 1102 4833 
z
" transform="scale(0.015625)"/>
      <path id="DejaVuSans-74" d="M 1172 4494 
L 1172 3500 
L 2356 3500 
L 2356 3053 
L 1172 3053 
L 1172 1153 
Q 1172 725 1289 603 
Q 1406 481 1766 481 
L 2356 481 
L 2356 0 
L 1766 0 
Q 1100 0 847 248 
Q 594 497 594 1153 
L 594 3053 
L 172 3053 
L 172 3500 
L 594 3500 
L 594 4494 
L 1172 4494 
z
" transform="scale(0.015625)"/>
      <path id="DejaVuSans-b7" d="M 684 2619 
L 1344 2619 
L 1344 1825 
L 684 1825 
L 684 2619 
z
" transform="scale(0.015625)"/>
      <path id="DejaVuSans-6e" d="M 3513 2113 
L 3513 0 
L 2938 0 
L 2938 2094 
Q 2938 2591 2744 2837 
Q 2550 3084 2163 3084 
Q 1697 3084 1428 2787 
Q 1159 2491 1159 1978 
L 1159 0 
L 581 0 
L 581 3500 
L 1159 3500 
L 1159 2956 
Q 1366 3272 1645 3428 
Q 1925 3584 2291 3584 
Q 2894 3584 3203 3211 
Q 3513 2838 3513 2113 
z
" transform="scale(0.015625)"/>
      <path id="DejaVuSans-3d" d="M 678 2906 
L 4684 2906 
L 4684 2381 
L 678 2381 
L 678 2906 
z
M 678 1631 
L 4684 1631 
L 4684 1100 
L 678 1100 
L 678 1631 
z
" transform="scale(0.015625)"/>
      <path id="DejaVuSans-431" d="M 1991 3584 
Q 2741 3584 3169 3096 
Q 3597 2609 3597 1747 
Q 3597 888 3169 398 
Q 2741 -91 1991 -91 
Q 1238 -91 822 384 
Q 406 859 384 1747 
L 366 2463 
Q 350 2834 350 2963 
Q 350 3463 531 3831 
Q 816 4409 1308 4659 
Q 1800 4909 2625 4916 
Q 3006 4919 3175 4972 
L 3334 4516 
Q 3181 4453 3041 4450 
L 2259 4397 
Q 1866 4369 1628 4231 
Q 1006 3866 947 3388 
L 925 3213 
Q 1331 3584 1991 3584 
z
M 1991 3097 
Q 1528 3097 1259 2736 
Q 991 2375 991 1747 
Q 991 1119 1258 758 
Q 1525 397 1991 397 
Q 2450 397 2719 759 
Q 2988 1122 2988 1747 
Q 2988 2369 2719 2733 
Q 2450 3097 1991 3097 
z
" transform="scale(0.015625)"/>
      <path id="DejaVuSans-44a" d="M 2753 2072 
Q 3422 2072 3783 1817 
Q 4144 1563 4144 1038 
Q 4144 513 3783 256 
Q 3422 0 2753 0 
L 1328 0 
L 1328 3041 
L 194 3041 
L 194 3500 
L 1906 3500 
L 1906 2072 
L 2753 2072 
z
M 2728 1613 
L 1906 1613 
L 1906 459 
L 2728 459 
Q 3122 459 3326 607 
Q 3531 756 3531 1038 
Q 3531 1319 3326 1466 
Q 3122 1613 2728 1613 
z
" transform="scale(0.015625)"/>
      <path id="DejaVuSans-451" d="M 3597 1894 
L 3597 1613 
L 953 1613 
Q 991 1019 1311 708 
Q 1631 397 2203 397 
Q 2534 397 2845 478 
Q 3156 559 3463 722 
L 3463 178 
Q 3153 47 2828 -22 
Q 2503 -91 2169 -91 
Q 1331 -91 842 396 
Q 353 884 353 1716 
Q 353 2575 817 3079 
Q 1281 3584 2069 3584 
Q 2775 3584 3186 3129 
Q 3597 2675 3597 1894 
z
M 3022 2063 
Q 3016 2534 2758 2815 
Q 2500 3097 2075 3097 
Q 1594 3097 1305 2825 
Q 1016 2553 972 2059 
L 3022 2063 
z
M 2366 4850 
L 3000 4850 
L 3000 4219 
L 2366 4219 
L 2366 4850 
z
M 1144 4850 
L 1778 4850 
L 1778 4219 
L 1144 4219 
L 1144 4850 
z
" transform="scale(0.015625)"/>
      <path id="DejaVuSans-445" d="M 3513 3500 
L 2247 1797 
L 3578 0 
L 2900 0 
L 1881 1375 
L 863 0 
L 184 0 
L 1544 1831 
L 300 3500 
L 978 3500 
L 1906 2253 
L 2834 3500 
L 3513 3500 
z
" transform="scale(0.015625)"/>
     </defs>
     <use xlink:href="#DejaVuSans-421"/>
     <use xlink:href="#DejaVuSans-440" transform="translate(69.824219 0)"/>
     <use xlink:href="#DejaVuSans-435" transform="translate(133.300781 0)"/>
     <use xlink:href="#DejaVuSans-434" transform="translate(194.824219 0)"/>
     <use xlink:href="#DejaVuSans-43d" transform="translate(263.964844 0)"/>
     <use xlink:href="#DejaVuSans-435" transform="translate(329.345703 0)"/>
     <use xlink:href="#DejaVuSans-435" transform="translate(390.869141 0)"/>
     <use xlink:href="#DejaVuSans-20" transform="translate(452.392578 0)"/>
     <use xlink:href="#DejaVuSans-438" transform="translate(484.179688 0)"/>
     <use xlink:href="#DejaVuSans-20" transform="translate(549.169922 0)"/>
     <use xlink:href="#DejaVuSans-39" transform="translate(580.957031 0)"/>
     <use xlink:href="#DejaVuSans-35" transform="translate(644.580078 0)"/>
     <use xlink:href="#DejaVuSans-25" transform="translate(708.203125 0)"/>
     <use xlink:href="#DejaVuSans-2d" transform="translate(803.222656 0)"/>
     <use xlink:href="#DejaVuSans-439" transform="translate(839.306641 0)"/>
     <use xlink:href="#DejaVuSans-20" transform="translate(904.296875 0)"/>
     <use xlink:href="#DejaVuSans-43f" transform="translate(936.083984 0)"/>
     <use xlink:href="#DejaVuSans-430" transform="translate(1001.464844 0)"/>
     <use xlink:href="#DejaVuSans-440" transform="translate(1062.744141 0)"/>
     <use xlink:href="#DejaVuSans-43d" transform="translate(1126.220703 0)"/>
     <use xlink:href="#DejaVuSans-44b" transform="translate(1191.601562 0)"/>
     <use xlink:href="#DejaVuSans-439" transform="translate(1270.556641 0)"/>
     <use xlink:href="#DejaVuSans-20" transform="translate(1335.546875 0)"/>
     <use xlink:href="#DejaVuSans-74" transform="translate(1367.333984 0)"/>
     <use xlink:href="#DejaVuSans-2d" transform="translate(1406.542969 0)"/>
     <use xlink:href="#DejaVuSans-438" transform="translate(1442.626953 0)"/>
     <use xlink:href="#DejaVuSans-43d" transform="translate(1507.617188 0)"/>
     <use xlink:href="#DejaVuSans-442" transform="translate(1572.998047 0)"/>
     <use xlink:href="#DejaVuSans-435" transform="translate(1631.25 0)"/>
     <use xlink:href="#DejaVuSans-440" transform="translate(1692.773438 0)"/>
     <use xlink:href="#DejaVuSans-432" transform="translate(1756.25 0)"/>
     <use xlink:href="#DejaVuSans-430" transform="translate(1815.185547 0)"/>
     <use xlink:href="#DejaVuSans-43b" transform="translate(1876.464844 0)"/>
     <use xlink:href="#DejaVuSans-20" transform="translate(1940.380859 0)"/>
     <use xlink:href="#DejaVuSans-b7" transform="translate(1972.167969 0)"/>
     <use xlink:href="#DejaVuSans-20" transform="translate(2003.955078 0)"/>
     <use xlink:href="#DejaVuSans-6e" transform="translate(2035.742188 0)"/>
     <use xlink:href="#DejaVuSans-3d" transform="translate(2099.121094 0)"/>
     <use xlink:href="#DejaVuSans-32" transform="translate(2182.910156 0)"/>
     <use xlink:href="#DejaVuSans-30" transform="translate(2246.533203 0)"/>
     <use xlink:href="#DejaVuSans-20" transform="translate(2310.15625 0)"/>
     <use xlink:href="#DejaVuSans-441" transform="translate(2341.943359 0)"/>
     <use xlink:href="#DejaVuSans-438" transform="translate(2396.923828 0)"/>
     <use xlink:href="#DejaVuSans-434" transform="translate(2461.914062 0)"/>
     <use xlink:href="#DejaVuSans-43e" transform="translate(2531.054688 0)"/>
     <use xlink:href="#DejaVuSans-432" transform="translate(2592.236328 0)"/>
     <use xlink:href="#DejaVuSans-20" transform="translate(2651.171875 0)"/>
     <use xlink:href="#DejaVuSans-43d" transform="translate(2682.958984 0)"/>
     <use xlink:href="#DejaVuSans-430" transform="translate(2748.339844 0)"/>
     <use xlink:href="#DejaVuSans-20" transform="translate(2809.619141 0)"/>
     <use xlink:href="#DejaVuSans-43e" transform="translate(2841.40625 0)"/>
     <use xlink:href="#DejaVuSans-431" transform="translate(2902.587891 0)"/>
     <use xlink:href="#DejaVuSans-44a" transform="translate(2964.257812 0)"/>
     <use xlink:href="#DejaVuSans-451" transform="translate(3034.912109 0)"/>
     <use xlink:href="#DejaVuSans-43c" transform="translate(3096.435547 0)"/>
     <use xlink:href="#DejaVuSans-20" transform="translate(3171.875 0)"/>
     <use xlink:href="#DejaVuSans-434" transform="translate(3203.662109 0)"/>
     <use xlink:href="#DejaVuSans-430" transform="translate(3272.802734 0)"/>
     <use xlink:href="#DejaVuSans-43d" transform="translate(3334.082031 0)"/>
     <use xlink:href="#DejaVuSans-43d" transform="translate(3399.462891 0)"/>
     <use xlink:href="#DejaVuSans-44b" transform="translate(3464.84375 0)"/>
     <use xlink:href="#DejaVuSans-445" transform="translate(3543.798828 0)"/>
    </g>
   </g>
   <g id="text_15">
    <!-- Парные эффекты DoRA при разных объёмах данных -->
    <g style="fill: #15242d" transform="translate(43.841328 17.5025) scale(0.13 -0.13)">
     <defs>
      <path id="DejaVuSans-Bold-41f" d="M 4769 4666 
L 4769 0 
L 3566 0 
L 3566 3756 
L 1791 3756 
L 1791 0 
L 588 0 
L 588 4666 
L 4769 4666 
z
" transform="scale(0.015625)"/>
      <path id="DejaVuSans-Bold-430" d="M 2106 1575 
Q 1756 1575 1579 1456 
Q 1403 1338 1403 1106 
Q 1403 894 1545 773 
Q 1688 653 1941 653 
Q 2256 653 2472 879 
Q 2688 1106 2688 1447 
L 2688 1575 
L 2106 1575 
z
M 3816 1997 
L 3816 0 
L 2688 0 
L 2688 519 
Q 2463 200 2181 54 
Q 1900 -91 1497 -91 
Q 953 -91 614 226 
Q 275 544 275 1050 
Q 275 1666 698 1953 
Q 1122 2241 2028 2241 
L 2688 2241 
L 2688 2328 
Q 2688 2594 2478 2717 
Q 2269 2841 1825 2841 
Q 1466 2841 1156 2769 
Q 847 2697 581 2553 
L 581 3406 
Q 941 3494 1303 3539 
Q 1666 3584 2028 3584 
Q 2975 3584 3395 3211 
Q 3816 2838 3816 1997 
z
" transform="scale(0.015625)"/>
      <path id="DejaVuSans-Bold-440" d="M 1656 506 
L 1656 -1331 
L 538 -1331 
L 538 3500 
L 1656 3500 
L 1656 2988 
Q 1888 3294 2169 3439 
Q 2450 3584 2816 3584 
Q 3463 3584 3878 3070 
Q 4294 2556 4294 1747 
Q 4294 938 3878 423 
Q 3463 -91 2816 -91 
Q 2450 -91 2169 54 
Q 1888 200 1656 506 
z
M 2400 2772 
Q 2041 2772 1848 2508 
Q 1656 2244 1656 1747 
Q 1656 1250 1848 986 
Q 2041 722 2400 722 
Q 2759 722 2948 984 
Q 3138 1247 3138 1747 
Q 3138 2247 2948 2509 
Q 2759 2772 2400 2772 
z
" transform="scale(0.015625)"/>
      <path id="DejaVuSans-Bold-43d" d="M 538 3500 
L 1656 3500 
L 1656 2169 
L 2766 2169 
L 2766 3500 
L 3884 3500 
L 3884 0 
L 2766 0 
L 2766 1478 
L 1656 1478 
L 1656 0 
L 538 0 
L 538 3500 
z
" transform="scale(0.015625)"/>
      <path id="DejaVuSans-Bold-44b" d="M 4154 3500 
L 5272 3500 
L 5272 0 
L 4154 0 
L 4154 3500 
z
M 2719 1094 
Q 2719 1291 2594 1388 
Q 2472 1481 2222 1481 
L 1656 1481 
L 1656 700 
L 2222 700 
Q 2469 700 2594 800 
Q 2719 897 2719 1094 
z
M 538 3500 
L 1656 3500 
L 1656 2172 
L 2291 2172 
Q 3000 2172 3381 1913 
Q 3766 1650 3766 1081 
Q 3766 513 3381 256 
Q 3000 0 2291 0 
L 538 0 
L 538 3500 
z
" transform="scale(0.015625)"/>
      <path id="DejaVuSans-Bold-435" d="M 4031 1759 
L 4031 1441 
L 1416 1441 
Q 1456 1047 1700 850 
Q 1944 653 2381 653 
Q 2734 653 3104 758 
Q 3475 863 3866 1075 
L 3866 213 
Q 3469 63 3072 -14 
Q 2675 -91 2278 -91 
Q 1328 -91 801 392 
Q 275 875 275 1747 
Q 275 2603 792 3093 
Q 1309 3584 2216 3584 
Q 3041 3584 3536 3087 
Q 4031 2591 4031 1759 
z
M 2881 2131 
Q 2881 2450 2695 2645 
Q 2509 2841 2209 2841 
Q 1884 2841 1681 2658 
Q 1478 2475 1428 2131 
L 2881 2131 
z
" transform="scale(0.015625)"/>
      <path id="DejaVuSans-Bold-20" transform="scale(0.015625)"/>
      <path id="DejaVuSans-Bold-44d" d="M 838 2072 
L 2319 2072 
Q 2278 2306 2054 2545 
Q 1831 2784 1353 2784 
Q 875 2784 428 2478 
L 428 3391 
Q 959 3584 1503 3584 
Q 2450 3584 2984 3098 
Q 3519 2613 3519 1747 
Q 3519 881 2984 395 
Q 2450 -91 1503 -91 
Q 953 -91 428 103 
L 428 1019 
Q 831 709 1331 709 
Q 1816 709 2050 943 
Q 2284 1178 2325 1444 
L 838 1444 
L 838 2072 
z
" transform="scale(0.015625)"/>
      <path id="DejaVuSans-Bold-444" d="M 2091 2772 
Q 1888 2772 1698 2509 
Q 1509 2247 1509 1747 
Q 1509 1247 1698 984 
Q 1888 722 2091 722 
Q 2425 722 2616 953 
L 2616 2541 
Q 2425 2772 2091 2772 
z
M 2616 4863 
L 3734 4863 
L 3734 3356 
Q 4066 3584 4519 3584 
Q 5166 3584 5581 3070 
Q 5997 2556 5997 1747 
Q 5997 938 5581 423 
Q 5166 -91 4519 -91 
Q 4066 -91 3734 138 
L 3734 -1331 
L 2616 -1331 
L 2616 138 
Q 2284 -91 1831 -91 
Q 1184 -91 768 423 
Q 353 938 353 1747 
Q 353 2556 768 3070 
Q 1184 3584 1831 3584 
Q 2284 3584 2616 3356 
L 2616 4863 
z
M 4259 2772 
Q 3925 2772 3734 2541 
L 3734 953 
Q 3925 722 4259 722 
Q 4463 722 4652 984 
Q 4841 1247 4841 1747 
Q 4841 2247 4652 2509 
Q 4463 2772 4259 2772 
z
" transform="scale(0.015625)"/>
      <path id="DejaVuSans-Bold-43a" d="M 538 3500 
L 1656 3500 
L 1656 2316 
L 2903 3500 
L 4128 3500 
L 2634 2078 
L 4250 0 
L 3094 0 
L 1972 1447 
L 1656 1147 
L 1656 0 
L 538 0 
L 538 3500 
z
" transform="scale(0.015625)"/>
      <path id="DejaVuSans-Bold-442" d="M 25 3500 
L 3681 3500 
L 3681 2809 
L 2413 2809 
L 2413 0 
L 1297 0 
L 1297 2809 
L 25 2809 
L 25 3500 
z
" transform="scale(0.015625)"/>
      <path id="DejaVuSans-Bold-44" d="M 1791 3756 
L 1791 909 
L 2222 909 
Q 2959 909 3348 1275 
Q 3738 1641 3738 2338 
Q 3738 3031 3350 3393 
Q 2963 3756 2222 3756 
L 1791 3756 
z
M 588 4666 
L 1856 4666 
Q 2919 4666 3439 4514 
Q 3959 4363 4331 4000 
Q 4659 3684 4818 3271 
Q 4978 2859 4978 2338 
Q 4978 1809 4818 1395 
Q 4659 981 4331 666 
Q 3956 303 3431 151 
Q 2906 0 1856 0 
L 588 0 
L 588 4666 
z
" transform="scale(0.015625)"/>
      <path id="DejaVuSans-Bold-6f" d="M 2203 2784 
Q 1831 2784 1636 2517 
Q 1441 2250 1441 1747 
Q 1441 1244 1636 976 
Q 1831 709 2203 709 
Q 2569 709 2762 976 
Q 2956 1244 2956 1747 
Q 2956 2250 2762 2517 
Q 2569 2784 2203 2784 
z
M 2203 3584 
Q 3106 3584 3614 3096 
Q 4122 2609 4122 1747 
Q 4122 884 3614 396 
Q 3106 -91 2203 -91 
Q 1297 -91 786 396 
Q 275 884 275 1747 
Q 275 2609 786 3096 
Q 1297 3584 2203 3584 
z
" transform="scale(0.015625)"/>
      <path id="DejaVuSans-Bold-52" d="M 2297 2597 
Q 2675 2597 2839 2737 
Q 3003 2878 3003 3200 
Q 3003 3519 2839 3656 
Q 2675 3794 2297 3794 
L 1791 3794 
L 1791 2597 
L 2297 2597 
z
M 1791 1766 
L 1791 0 
L 588 0 
L 588 4666 
L 2425 4666 
Q 3347 4666 3776 4356 
Q 4206 4047 4206 3378 
Q 4206 2916 3982 2619 
Q 3759 2322 3309 2181 
Q 3556 2125 3751 1926 
Q 3947 1728 4147 1325 
L 4800 0 
L 3519 0 
L 2950 1159 
Q 2778 1509 2601 1637 
Q 2425 1766 2131 1766 
L 1791 1766 
z
" transform="scale(0.015625)"/>
      <path id="DejaVuSans-Bold-41" d="M 3419 850 
L 1538 850 
L 1241 0 
L 31 0 
L 1759 4666 
L 3194 4666 
L 4922 0 
L 3713 0 
L 3419 850 
z
M 1838 1716 
L 3116 1716 
L 2478 3572 
L 1838 1716 
z
" transform="scale(0.015625)"/>
      <path id="DejaVuSans-Bold-43f" d="M 3884 3500 
L 3884 0 
L 2766 0 
L 2766 2700 
L 1656 2700 
L 1656 0 
L 538 0 
L 538 3500 
L 3884 3500 
z
" transform="scale(0.015625)"/>
      <path id="DejaVuSans-Bold-438" d="M 3947 3500 
L 3947 0 
L 2828 0 
L 2828 1863 
L 1700 0 
L 538 0 
L 538 3500 
L 1656 3500 
L 1656 1638 
L 2784 3500 
L 3947 3500 
z
" transform="scale(0.015625)"/>
      <path id="DejaVuSans-Bold-437" d="M 900 2181 
L 1413 2181 
Q 1872 2181 2039 2281 
Q 2206 2381 2206 2519 
Q 2206 2841 1469 2841 
Q 853 2841 472 2625 
L 472 3434 
Q 1041 3584 1713 3584 
Q 2500 3584 2862 3361 
Q 3225 3138 3225 2666 
Q 3225 2047 2541 1888 
Q 3313 1697 3313 994 
Q 3313 453 2888 181 
Q 2463 -91 1553 -91 
Q 875 -91 313 84 
L 313 947 
Q 1013 653 1428 653 
Q 1884 653 2089 776 
Q 2294 900 2294 1056 
Q 2294 1491 1394 1491 
L 900 1491 
L 900 2181 
z
" transform="scale(0.015625)"/>
      <path id="DejaVuSans-Bold-445" d="M 1422 1791 
L 159 3500 
L 1344 3500 
L 2059 2463 
L 2784 3500 
L 3969 3500 
L 2706 1797 
L 4031 0 
L 2847 0 
L 2059 1106 
L 1281 0 
L 97 0 
L 1422 1791 
z
" transform="scale(0.015625)"/>
      <path id="DejaVuSans-Bold-43e" d="M 2203 2784 
Q 1831 2784 1636 2517 
Q 1441 2250 1441 1747 
Q 1441 1244 1636 976 
Q 1831 709 2203 709 
Q 2569 709 2762 976 
Q 2956 1244 2956 1747 
Q 2956 2250 2762 2517 
Q 2569 2784 2203 2784 
z
M 2203 3584 
Q 3106 3584 3614 3096 
Q 4122 2609 4122 1747 
Q 4122 884 3614 396 
Q 3106 -91 2203 -91 
Q 1297 -91 786 396 
Q 275 884 275 1747 
Q 275 2609 786 3096 
Q 1297 3584 2203 3584 
z
" transform="scale(0.015625)"/>
      <path id="DejaVuSans-Bold-431" d="M 344 1941 
L 322 2463 
Q 275 2672 275 2881 
Q 275 3494 456 3894 
Q 791 4631 1238 4781 
Q 1606 4909 3141 5031 
Q 3297 5044 3475 5072 
L 3725 4378 
Q 3488 4316 2269 4209 
Q 1734 4163 1516 4013 
Q 1153 3766 1125 3300 
Q 1584 3584 2275 3584 
Q 3178 3584 3686 3096 
Q 4194 2609 4194 1747 
Q 4194 884 3687 396 
Q 3181 -91 2275 -91 
Q 1369 -91 858 396 
Q 347 884 347 1747 
Q 347 1866 344 1941 
z
M 2272 2784 
Q 1903 2784 1708 2517 
Q 1513 2250 1513 1747 
Q 1513 1244 1708 976 
Q 1903 709 2272 709 
Q 2641 709 2834 976 
Q 3028 1244 3028 1747 
Q 3028 2250 2834 2517 
Q 2641 2784 2272 2784 
z
" transform="scale(0.015625)"/>
      <path id="DejaVuSans-Bold-44a" d="M 3009 700 
Q 3256 700 3381 798 
Q 3506 897 3506 1094 
Q 3506 1288 3382 1384 
Q 3259 1481 3009 1481 
L 2444 1481 
L 2444 700 
L 3009 700 
z
M 1325 0 
L 1325 2809 
L 125 2809 
L 125 3500 
L 2444 3500 
L 2444 2172 
L 3078 2172 
Q 3788 2172 4170 1911 
Q 4553 1650 4553 1081 
Q 4553 513 4167 256 
Q 3781 0 3078 0 
L 1325 0 
z
" transform="scale(0.015625)"/>
      <path id="DejaVuSans-Bold-451" d="M 4031 1759 
L 4031 1441 
L 1416 1441 
Q 1456 1047 1700 850 
Q 1944 653 2381 653 
Q 2734 653 3104 758 
Q 3475 863 3866 1075 
L 3866 213 
Q 3469 63 3072 -14 
Q 2675 -91 2278 -91 
Q 1328 -91 801 392 
Q 275 875 275 1747 
Q 275 2603 792 3093 
Q 1309 3584 2216 3584 
Q 3041 3584 3536 3087 
Q 4031 2591 4031 1759 
z
M 2881 2131 
Q 2881 2450 2695 2645 
Q 2509 2841 2209 2841 
Q 1884 2841 1681 2658 
Q 1478 2475 1428 2131 
L 2881 2131 
z
M 1232 4953 
L 1966 4953 
L 1966 4184 
L 1232 4184 
L 1232 4953 
z
M 2466 4953 
L 3200 4953 
L 3200 4184 
L 2466 4184 
L 2466 4953 
z
" transform="scale(0.015625)"/>
      <path id="DejaVuSans-Bold-43c" d="M 538 3500 
L 1825 3500 
L 2613 1750 
L 3400 3500 
L 4691 3500 
L 4691 0 
L 3575 0 
L 3575 1984 
L 2984 672 
L 2250 672 
L 1656 1984 
L 1656 0 
L 538 0 
L 538 3500 
z
" transform="scale(0.015625)"/>
      <path id="DejaVuSans-Bold-434" d="M 547 800 
Q 903 919 1053 1314 
Q 1203 1709 1203 2838 
L 1203 3500 
L 4228 3500 
L 4228 800 
L 4809 800 
L 4809 -884 
L 4009 -884 
L 4009 0 
L 1159 0 
L 1159 -884 
L 359 -884 
L 359 800 
L 547 800 
z
M 3109 2700 
L 2322 2700 
L 2322 2603 
Q 2322 1456 2063 800 
L 3109 800 
L 3109 2700 
z
" transform="scale(0.015625)"/>
     </defs>
     <use xlink:href="#DejaVuSans-Bold-41f"/>
     <use xlink:href="#DejaVuSans-Bold-430" transform="translate(83.691406 0)"/>
     <use xlink:href="#DejaVuSans-Bold-440" transform="translate(151.171875 0)"/>
     <use xlink:href="#DejaVuSans-Bold-43d" transform="translate(222.753906 0)"/>
     <use xlink:href="#DejaVuSans-Bold-44b" transform="translate(291.845703 0)"/>
     <use xlink:href="#DejaVuSans-Bold-435" transform="translate(382.275391 0)"/>
     <use xlink:href="#DejaVuSans-Bold-20" transform="translate(450.097656 0)"/>
     <use xlink:href="#DejaVuSans-Bold-44d" transform="translate(484.912109 0)"/>
     <use xlink:href="#DejaVuSans-Bold-444" transform="translate(544.189453 0)"/>
     <use xlink:href="#DejaVuSans-Bold-444" transform="translate(643.408203 0)"/>
     <use xlink:href="#DejaVuSans-Bold-435" transform="translate(742.626953 0)"/>
     <use xlink:href="#DejaVuSans-Bold-43a" transform="translate(810.449219 0)"/>
     <use xlink:href="#DejaVuSans-Bold-442" transform="translate(878.320312 0)"/>
     <use xlink:href="#DejaVuSans-Bold-44b" transform="translate(936.279297 0)"/>
     <use xlink:href="#DejaVuSans-Bold-20" transform="translate(1026.708984 0)"/>
     <use xlink:href="#DejaVuSans-Bold-44" transform="translate(1061.523438 0)"/>
     <use xlink:href="#DejaVuSans-Bold-6f" transform="translate(1144.53125 0)"/>
     <use xlink:href="#DejaVuSans-Bold-52" transform="translate(1213.232422 0)"/>
     <use xlink:href="#DejaVuSans-Bold-41" transform="translate(1290.234375 0)"/>
     <use xlink:href="#DejaVuSans-Bold-20" transform="translate(1367.626953 0)"/>
     <use xlink:href="#DejaVuSans-Bold-43f" transform="translate(1402.441406 0)"/>
     <use xlink:href="#DejaVuSans-Bold-440" transform="translate(1471.533203 0)"/>
     <use xlink:href="#DejaVuSans-Bold-438" transform="translate(1543.115234 0)"/>
     <use xlink:href="#DejaVuSans-Bold-20" transform="translate(1613.183594 0)"/>
     <use xlink:href="#DejaVuSans-Bold-440" transform="translate(1647.998047 0)"/>
     <use xlink:href="#DejaVuSans-Bold-430" transform="translate(1719.580078 0)"/>
     <use xlink:href="#DejaVuSans-Bold-437" transform="translate(1787.060547 0)"/>
     <use xlink:href="#DejaVuSans-Bold-43d" transform="translate(1845.166016 0)"/>
     <use xlink:href="#DejaVuSans-Bold-44b" transform="translate(1914.257812 0)"/>
     <use xlink:href="#DejaVuSans-Bold-445" transform="translate(2004.6875 0)"/>
     <use xlink:href="#DejaVuSans-Bold-20" transform="translate(2069.189453 0)"/>
     <use xlink:href="#DejaVuSans-Bold-43e" transform="translate(2104.003906 0)"/>
     <use xlink:href="#DejaVuSans-Bold-431" transform="translate(2172.705078 0)"/>
     <use xlink:href="#DejaVuSans-Bold-44a" transform="translate(2242.529297 0)"/>
     <use xlink:href="#DejaVuSans-Bold-451" transform="translate(2317.675781 0)"/>
     <use xlink:href="#DejaVuSans-Bold-43c" transform="translate(2385.498047 0)"/>
     <use xlink:href="#DejaVuSans-Bold-430" transform="translate(2467.236328 0)"/>
     <use xlink:href="#DejaVuSans-Bold-445" transform="translate(2534.716797 0)"/>
     <use xlink:href="#DejaVuSans-Bold-20" transform="translate(2599.21875 0)"/>
     <use xlink:href="#DejaVuSans-Bold-434" transform="translate(2634.033203 0)"/>
     <use xlink:href="#DejaVuSans-Bold-430" transform="translate(2714.794922 0)"/>
     <use xlink:href="#DejaVuSans-Bold-43d" transform="translate(2782.275391 0)"/>
     <use xlink:href="#DejaVuSans-Bold-43d" transform="translate(2851.367188 0)"/>
     <use xlink:href="#DejaVuSans-Bold-44b" transform="translate(2920.458984 0)"/>
     <use xlink:href="#DejaVuSans-Bold-445" transform="translate(3010.888672 0)"/>
    </g>
   </g>
   <g id="legend_1">
    <g id="LineCollection_3">
     <path d="M 410.962734 64.505859 
L 410.962734 54.005859 
" style="fill: none; stroke: #0b8f83; stroke-width: 2"/>
    </g>
    <g id="line2d_26">
     <g>
      <use xlink:href="#m46c1f536f7" x="410.962734" y="64.505859" style="fill: #0b8f83; stroke: #0b8f83; stroke-width: 1.6"/>
     </g>
    </g>
    <g id="line2d_27">
     <g>
      <use xlink:href="#m46c1f536f7" x="410.962734" y="54.005859" style="fill: #0b8f83; stroke: #0b8f83; stroke-width: 1.6"/>
     </g>
    </g>
    <g id="line2d_28"/>
    <g id="line2d_29">
     <g>
      <use xlink:href="#m6e43a77ebb" x="410.962734" y="59.255859" style="fill: #0b8f83; stroke: #0b8f83; stroke-width: 1.6"/>
     </g>
    </g>
    <g id="text_16">
     <!-- против LoRA -->
     <g style="fill: #15242d" transform="translate(429.862734 62.930859) scale(0.105 -0.105)">
      <defs>
       <path id="DejaVuSans-4c" d="M 628 4666 
L 1259 4666 
L 1259 531 
L 3531 531 
L 3531 0 
L 628 0 
L 628 4666 
z
" transform="scale(0.015625)"/>
      </defs>
      <use xlink:href="#DejaVuSans-43f"/>
      <use xlink:href="#DejaVuSans-440" transform="translate(65.380859 0)"/>
      <use xlink:href="#DejaVuSans-43e" transform="translate(128.857422 0)"/>
      <use xlink:href="#DejaVuSans-442" transform="translate(190.039062 0)"/>
      <use xlink:href="#DejaVuSans-438" transform="translate(248.291016 0)"/>
      <use xlink:href="#DejaVuSans-432" transform="translate(313.28125 0)"/>
      <use xlink:href="#DejaVuSans-20" transform="translate(372.216797 0)"/>
      <use xlink:href="#DejaVuSans-4c" transform="translate(404.003906 0)"/>
      <use xlink:href="#DejaVuSans-6f" transform="translate(457.966797 0)"/>
      <use xlink:href="#DejaVuSans-52" transform="translate(519.148438 0)"/>
      <use xlink:href="#DejaVuSans-41" transform="translate(584.630859 0)"/>
     </g>
    </g>
    <g id="LineCollection_4">
     <path d="M 410.962734 79.917891 
L 410.962734 69.417891 
" style="fill: none; stroke: #3565d4; stroke-width: 2"/>
    </g>
    <g id="line2d_30">
     <g>
      <use xlink:href="#m209ec40ee0" x="410.962734" y="79.917891" style="fill: #3565d4; stroke: #3565d4; stroke-width: 1.6"/>
     </g>
    </g>
    <g id="line2d_31">
     <g>
      <use xlink:href="#m209ec40ee0" x="410.962734" y="69.417891" style="fill: #3565d4; stroke: #3565d4; stroke-width: 1.6"/>
     </g>
    </g>
    <g id="line2d_32"/>
    <g id="line2d_33">
     <g>
      <use xlink:href="#m552bb5b869" x="410.962734" y="74.667891" style="fill: #ffffff; stroke: #3565d4; stroke-width: 1.6; stroke-linejoin: miter"/>
     </g>
    </g>
    <g id="text_17">
     <!-- против LoRA+ -->
     <g style="fill: #15242d" transform="translate(429.862734 78.342891) scale(0.105 -0.105)">
      <defs>
       <path id="DejaVuSans-2b" d="M 2944 4013 
L 2944 2272 
L 4684 2272 
L 4684 1741 
L 2944 1741 
L 2944 0 
L 2419 0 
L 2419 1741 
L 678 1741 
L 678 2272 
L 2419 2272 
L 2419 4013 
L 2944 4013 
z
" transform="scale(0.015625)"/>
      </defs>
      <use xlink:href="#DejaVuSans-43f"/>
      <use xlink:href="#DejaVuSans-440" transform="translate(65.380859 0)"/>
      <use xlink:href="#DejaVuSans-43e" transform="translate(128.857422 0)"/>
      <use xlink:href="#DejaVuSans-442" transform="translate(190.039062 0)"/>
      <use xlink:href="#DejaVuSans-438" transform="translate(248.291016 0)"/>
      <use xlink:href="#DejaVuSans-432" transform="translate(313.28125 0)"/>
      <use xlink:href="#DejaVuSans-20" transform="translate(372.216797 0)"/>
      <use xlink:href="#DejaVuSans-4c" transform="translate(404.003906 0)"/>
      <use xlink:href="#DejaVuSans-6f" transform="translate(457.966797 0)"/>
      <use xlink:href="#DejaVuSans-52" transform="translate(519.148438 0)"/>
      <use xlink:href="#DejaVuSans-41" transform="translate(584.630859 0)"/>
      <use xlink:href="#DejaVuSans-2b" transform="translate(653.039062 0)"/>
     </g>
    </g>
   </g>
  </g>
 </g>
 <defs>
  <clipPath id="p3391aaf54f">
   <rect x="43.841328" y="45.5025" width="472.84" height="180.07125"/>
  </clipPath>
 </defs>
</svg>
