<?xml version="1.0" encoding="utf-8" standalone="no"?>
<!DOCTYPE svg PUBLIC "-//W3C//DTD SVG 1.1//EN"
  "http://www.w3.org/Graphics/SVG/1.1/DTD/svg11.dtd">
<svg xmlns:xlink="http://www.w3.org/1999/xlink" width="653.961562pt" height="267.176063pt" viewBox="0 0 653.961562 267.176063" xmlns="http://www.w3.org/2000/svg" version="1.1">
 <metadata>
  <rdf:RDF xmlns:dc="http://purl.org/dc/elements/1.1/" xmlns:cc="http://creativecommons.org/ns#" xmlns:rdf="http://www.w3.org/1999/02/22-rdf-syntax-ns#">
   <cc:Work>
    <dc:type rdf:resource="http://purl.org/dc/dcmitype/StillImage"/>
    <dc:date>2026-07-21T03:44:08.646427</dc:date>
    <dc:format>image/svg+xml</dc:format>
    <dc:creator>
     <cc:Agent>
      <dc:title>Matplotlib v3.10.8, https://matplotlib.org/</dc:title>
     </cc:Agent>
    </dc:creator>
   </cc:Work>
  </rdf:RDF>
 </metadata>
 <defs>
  <style type="text/css">*{stroke-linejoin: round; stroke-linecap: butt}</style>
 </defs>
 <g id="figure_1">
  <g id="patch_1">
   <path d="M 0 267.176063 
L 653.961562 267.176063 
L 653.961562 0 
L 0 0 
z
" style="fill: #ffffff"/>
  </g>
  <g id="axes_1">
   <g id="patch_2">
    <path d="M 123.931562 228.652 
L 373.096562 228.652 
L 373.096562 91.752 
L 123.931562 91.752 
z
" style="fill: #ffffff"/>
   </g>
   <g id="matplotlib.axis_1">
    <g id="xtick_1">
     <g id="line2d_1">
      <path d="M 159.526563 228.652 
L 159.526563 91.752 
" clip-path="url(#p12ea572c5f)" style="fill: none; stroke: #dde5e7; stroke-width: 0.8; stroke-linecap: square"/>
     </g>
     <g id="line2d_2">
      <defs>
       <path id="m13b22c82c5" d="M 0 0 
L 0 3.5 
" style="stroke: #66747c; stroke-width: 0.8"/>
      </defs>
      <g>
       <use xlink:href="#m13b22c82c5" x="159.526563" y="228.652" style="fill: #66747c; stroke: #66747c; stroke-width: 0.8"/>
      </g>
     </g>
     <g id="text_1">
      <!-- 65 -->
      <g style="fill: #66747c" transform="translate(152.845938 243.630359) scale(0.105 -0.105)">
       <defs>
        <path id="DejaVuSans-36" d="M 2113 2584 
Q 1688 2584 1439 2293 
Q 1191 2003 1191 1497 
Q 1191 994 1439 701 
Q 1688 409 2113 409 
Q 2538 409 2786 701 
Q 3034 994 3034 1497 
Q 3034 2003 2786 2293 
Q 2538 2584 2113 2584 
z
M 3366 4563 
L 3366 3988 
Q 3128 4100 2886 4159 
Q 2644 4219 2406 4219 
Q 1781 4219 1451 3797 
Q 1122 3375 1075 2522 
Q 1259 2794 1537 2939 
Q 1816 3084 2150 3084 
Q 2853 3084 3261 2657 
Q 3669 2231 3669 1497 
Q 3669 778 3244 343 
Q 2819 -91 2113 -91 
Q 1303 -91 875 529 
Q 447 1150 447 2328 
Q 447 3434 972 4092 
Q 1497 4750 2381 4750 
Q 2619 4750 2861 4703 
Q 3103 4656 3366 4563 
z
" transform="scale(0.015625)"/>
        <path id="DejaVuSans-35" d="M 691 4666 
L 3169 4666 
L 3169 4134 
L 1269 4134 
L 1269 2991 
Q 1406 3038 1543 3061 
Q 1681 3084 1819 3084 
Q 2600 3084 3056 2656 
Q 3513 2228 3513 1497 
Q 3513 744 3044 326 
Q 2575 -91 1722 -91 
Q 1428 -91 1123 -41 
Q 819 9 494 109 
L 494 744 
Q 775 591 1075 516 
Q 1375 441 1709 441 
Q 2250 441 2565 725 
Q 2881 1009 2881 1497 
Q 2881 1984 2565 2268 
Q 2250 2553 1709 2553 
Q 1456 2553 1204 2497 
Q 953 2441 691 2322 
L 691 4666 
z
" transform="scale(0.015625)"/>
       </defs>
       <use xlink:href="#DejaVuSans-36"/>
       <use xlink:href="#DejaVuSans-35" transform="translate(63.623047 0)"/>
      </g>
     </g>
    </g>
    <g id="xtick_2">
     <g id="line2d_3">
      <path d="M 218.851563 228.652 
L 218.851563 91.752 
" clip-path="url(#p12ea572c5f)" style="fill: none; stroke: #dde5e7; stroke-width: 0.8; stroke-linecap: square"/>
     </g>
     <g id="line2d_4">
      <g>
       <use xlink:href="#m13b22c82c5" x="218.851563" y="228.652" style="fill: #66747c; stroke: #66747c; stroke-width: 0.8"/>
      </g>
     </g>
     <g id="text_2">
      <!-- 70 -->
      <g style="fill: #66747c" transform="translate(212.170938 243.630359) scale(0.105 -0.105)">
       <defs>
        <path id="DejaVuSans-37" d="M 525 4666 
L 3525 4666 
L 3525 4397 
L 1831 0 
L 1172 0 
L 2766 4134 
L 525 4134 
L 525 4666 
z
" transform="scale(0.015625)"/>
        <path id="DejaVuSans-30" d="M 2034 4250 
Q 1547 4250 1301 3770 
Q 1056 3291 1056 2328 
Q 1056 1369 1301 889 
Q 1547 409 2034 409 
Q 2525 409 2770 889 
Q 3016 1369 3016 2328 
Q 3016 3291 2770 3770 
Q 2525 4250 2034 4250 
z
M 2034 4750 
Q 2819 4750 3233 4129 
Q 3647 3509 3647 2328 
Q 3647 1150 3233 529 
Q 2819 -91 2034 -91 
Q 1250 -91 836 529 
Q 422 1150 422 2328 
Q 422 3509 836 4129 
Q 1250 4750 2034 4750 
z
" transform="scale(0.015625)"/>
       </defs>
       <use xlink:href="#DejaVuSans-37"/>
       <use xlink:href="#DejaVuSans-30" transform="translate(63.623047 0)"/>
      </g>
     </g>
    </g>
    <g id="xtick_3">
     <g id="line2d_5">
      <path d="M 278.176563 228.652 
L 278.176563 91.752 
" clip-path="url(#p12ea572c5f)" style="fill: none; stroke: #dde5e7; stroke-width: 0.8; stroke-linecap: square"/>
     </g>
     <g id="line2d_6">
      <g>
       <use xlink:href="#m13b22c82c5" x="278.176563" y="228.652" style="fill: #66747c; stroke: #66747c; stroke-width: 0.8"/>
      </g>
     </g>
     <g id="text_3">
      <!-- 75 -->
      <g style="fill: #66747c" transform="translate(271.495938 243.630359) scale(0.105 -0.105)">
       <use xlink:href="#DejaVuSans-37"/>
       <use xlink:href="#DejaVuSans-35" transform="translate(63.623047 0)"/>
      </g>
     </g>
    </g>
    <g id="xtick_4">
     <g id="line2d_7">
      <path d="M 337.501563 228.652 
L 337.501563 91.752 
" clip-path="url(#p12ea572c5f)" style="fill: none; stroke: #dde5e7; stroke-width: 0.8; stroke-linecap: square"/>
     </g>
     <g id="line2d_8">
      <g>
       <use xlink:href="#m13b22c82c5" x="337.501563" y="228.652" style="fill: #66747c; stroke: #66747c; stroke-width: 0.8"/>
      </g>
     </g>
     <g id="text_4">
      <!-- 80 -->
      <g style="fill: #66747c" transform="translate(330.820938 243.630359) scale(0.105 -0.105)">
       <defs>
        <path id="DejaVuSans-38" d="M 2034 2216 
Q 1584 2216 1326 1975 
Q 1069 1734 1069 1313 
Q 1069 891 1326 650 
Q 1584 409 2034 409 
Q 2484 409 2743 651 
Q 3003 894 3003 1313 
Q 3003 1734 2745 1975 
Q 2488 2216 2034 2216 
z
M 1403 2484 
Q 997 2584 770 2862 
Q 544 3141 544 3541 
Q 544 4100 942 4425 
Q 1341 4750 2034 4750 
Q 2731 4750 3128 4425 
Q 3525 4100 3525 3541 
Q 3525 3141 3298 2862 
Q 3072 2584 2669 2484 
Q 3125 2378 3379 2068 
Q 3634 1759 3634 1313 
Q 3634 634 3220 271 
Q 2806 -91 2034 -91 
Q 1263 -91 848 271 
Q 434 634 434 1313 
Q 434 1759 690 2068 
Q 947 2378 1403 2484 
z
M 1172 3481 
Q 1172 3119 1398 2916 
Q 1625 2713 2034 2713 
Q 2441 2713 2670 2916 
Q 2900 3119 2900 3481 
Q 2900 3844 2670 4047 
Q 2441 4250 2034 4250 
Q 1625 4250 1398 4047 
Q 1172 3844 1172 3481 
z
" transform="scale(0.015625)"/>
       </defs>
       <use xlink:href="#DejaVuSans-38"/>
       <use xlink:href="#DejaVuSans-30" transform="translate(63.623047 0)"/>
      </g>
     </g>
    </g>
    <g id="text_5">
     <!-- Точность при смешанном сдвиге, % -->
     <g style="fill: #15242d" transform="translate(148.654961 257.792391) scale(0.105 -0.105)">
      <defs>
       <path id="DejaVuSans-422" d="M -19 4666 
L 3928 4666 
L 3928 4134 
L 2272 4134 
L 2272 0 
L 1638 0 
L 1638 4134 
L -19 4134 
L -19 4666 
z
" transform="scale(0.015625)"/>
       <path id="DejaVuSans-43e" d="M 1959 3097 
Q 1497 3097 1228 2736 
Q 959 2375 959 1747 
Q 959 1119 1226 758 
Q 1494 397 1959 397 
Q 2419 397 2687 759 
Q 2956 1122 2956 1747 
Q 2956 2369 2687 2733 
Q 2419 3097 1959 3097 
z
M 1959 3584 
Q 2709 3584 3137 3096 
Q 3566 2609 3566 1747 
Q 3566 888 3137 398 
Q 2709 -91 1959 -91 
Q 1206 -91 779 398 
Q 353 888 353 1747 
Q 353 2609 779 3096 
Q 1206 3584 1959 3584 
z
" transform="scale(0.015625)"/>
       <path id="DejaVuSans-447" d="M 2625 0 
L 2625 1472 
L 1553 1472 
Q 1075 1472 756 1769 
Q 469 2038 469 2613 
L 469 3500 
L 1044 3500 
L 1044 2666 
Q 1044 2300 1206 2116 
Q 1372 1931 1697 1931 
L 2625 1931 
L 2625 3500 
L 3200 3500 
L 3200 0 
L 2625 0 
z
" transform="scale(0.015625)"/>
       <path id="DejaVuSans-43d" d="M 581 3500 
L 1159 3500 
L 1159 2072 
L 3025 2072 
L 3025 3500 
L 3603 3500 
L 3603 0 
L 3025 0 
L 3025 1613 
L 1159 1613 
L 1159 0 
L 581 0 
L 581 3500 
z
" transform="scale(0.015625)"/>
       <path id="DejaVuSans-441" d="M 3122 3366 
L 3122 2828 
Q 2878 2963 2633 3030 
Q 2388 3097 2138 3097 
Q 1578 3097 1268 2742 
Q 959 2388 959 1747 
Q 959 1106 1268 751 
Q 1578 397 2138 397 
Q 2388 397 2633 464 
Q 2878 531 3122 666 
L 3122 134 
Q 2881 22 2623 -34 
Q 2366 -91 2075 -91 
Q 1284 -91 818 406 
Q 353 903 353 1747 
Q 353 2603 823 3093 
Q 1294 3584 2113 3584 
Q 2378 3584 2631 3529 
Q 2884 3475 3122 3366 
z
" transform="scale(0.015625)"/>
       <path id="DejaVuSans-442" d="M 188 3500 
L 3541 3500 
L 3541 3041 
L 2147 3041 
L 2147 0 
L 1581 0 
L 1581 3041 
L 188 3041 
L 188 3500 
z
" transform="scale(0.015625)"/>
       <path id="DejaVuSans-44c" d="M 2781 1038 
Q 2781 1319 2576 1466 
Q 2372 1613 1978 1613 
L 1159 1613 
L 1159 459 
L 1978 459 
Q 2372 459 2576 607 
Q 2781 756 2781 1038 
z
M 581 3500 
L 1159 3500 
L 1159 2072 
L 2003 2072 
Q 2672 2072 3033 1817 
Q 3394 1563 3394 1038 
Q 3394 513 3033 256 
Q 2672 0 2003 0 
L 581 0 
L 581 3500 
z
" transform="scale(0.015625)"/>
       <path id="DejaVuSans-20" transform="scale(0.015625)"/>
       <path id="DejaVuSans-43f" d="M 3603 3500 
L 3603 0 
L 3025 0 
L 3025 3041 
L 1159 3041 
L 1159 0 
L 581 0 
L 581 3500 
L 3603 3500 
z
" transform="scale(0.015625)"/>
       <path id="DejaVuSans-440" d="M 1159 525 
L 1159 -1331 
L 581 -1331 
L 581 3500 
L 1159 3500 
L 1159 2969 
Q 1341 3281 1617 3432 
Q 1894 3584 2278 3584 
Q 2916 3584 3314 3078 
Q 3713 2572 3713 1747 
Q 3713 922 3314 415 
Q 2916 -91 2278 -91 
Q 1894 -91 1617 61 
Q 1341 213 1159 525 
z
M 3116 1747 
Q 3116 2381 2855 2742 
Q 2594 3103 2138 3103 
Q 1681 3103 1420 2742 
Q 1159 2381 1159 1747 
Q 1159 1113 1420 752 
Q 1681 391 2138 391 
Q 2594 391 2855 752 
Q 3116 1113 3116 1747 
z
" transform="scale(0.015625)"/>
       <path id="DejaVuSans-438" d="M 3578 3500 
L 3578 0 
L 3006 0 
L 3006 2809 
L 1319 0 
L 581 0 
L 581 3500 
L 1153 3500 
L 1153 697 
L 2838 3500 
L 3578 3500 
z
" transform="scale(0.015625)"/>
       <path id="DejaVuSans-43c" d="M 581 3500 
L 1422 3500 
L 2416 1156 
L 3413 3500 
L 4247 3500 
L 4247 0 
L 3669 0 
L 3669 2950 
L 2703 672 
L 2128 672 
L 1159 2950 
L 1159 0 
L 581 0 
L 581 3500 
z
" transform="scale(0.015625)"/>
       <path id="DejaVuSans-435" d="M 3597 1894 
L 3597 1613 
L 953 1613 
Q 991 1019 1311 708 
Q 1631 397 2203 397 
Q 2534 397 2845 478 
Q 3156 559 3463 722 
L 3463 178 
Q 3153 47 2828 -22 
Q 2503 -91 2169 -91 
Q 1331 -91 842 396 
Q 353 884 353 1716 
Q 353 2575 817 3079 
Q 1281 3584 2069 3584 
Q 2775 3584 3186 3129 
Q 3597 2675 3597 1894 
z
M 3022 2063 
Q 3016 2534 2758 2815 
Q 2500 3097 2075 3097 
Q 1594 3097 1305 2825 
Q 1016 2553 972 2059 
L 3022 2063 
z
" transform="scale(0.015625)"/>
       <path id="DejaVuSans-448" d="M 3216 459 
L 4697 459 
L 4697 3500 
L 5275 3500 
L 5275 0 
L 581 0 
L 581 3500 
L 1159 3500 
L 1159 459 
L 2638 459 
L 2638 3500 
L 3216 3500 
L 3216 459 
z
" transform="scale(0.015625)"/>
       <path id="DejaVuSans-430" d="M 2194 1759 
Q 1497 1759 1228 1600 
Q 959 1441 959 1056 
Q 959 750 1161 570 
Q 1363 391 1709 391 
Q 2188 391 2477 730 
Q 2766 1069 2766 1631 
L 2766 1759 
L 2194 1759 
z
M 3341 1997 
L 3341 0 
L 2766 0 
L 2766 531 
Q 2569 213 2275 61 
Q 1981 -91 1556 -91 
Q 1019 -91 701 211 
Q 384 513 384 1019 
Q 384 1609 779 1909 
Q 1175 2209 1959 2209 
L 2766 2209 
L 2766 2266 
Q 2766 2663 2505 2880 
Q 2244 3097 1772 3097 
Q 1472 3097 1187 3025 
Q 903 2953 641 2809 
L 641 3341 
Q 956 3463 1253 3523 
Q 1550 3584 1831 3584 
Q 2591 3584 2966 3190 
Q 3341 2797 3341 1997 
z
" transform="scale(0.015625)"/>
       <path id="DejaVuSans-434" d="M 1384 459 
L 3053 459 
L 3053 3041 
L 1844 3041 
L 1844 2603 
Q 1844 1316 1475 628 
L 1384 459 
z
M 550 459 
Q 834 584 959 850 
Q 1266 1509 1266 2838 
L 1266 3500 
L 3631 3500 
L 3631 459 
L 4091 459 
L 4091 -884 
L 3631 -884 
L 3631 0 
L 794 0 
L 794 -884 
L 334 -884 
L 334 459 
L 550 459 
z
" transform="scale(0.015625)"/>
       <path id="DejaVuSans-432" d="M 1156 1613 
L 1156 459 
L 1975 459 
Q 2369 459 2575 607 
Q 2781 756 2781 1038 
Q 2781 1319 2575 1466 
Q 2369 1613 1975 1613 
L 1156 1613 
z
M 1156 3041 
L 1156 2072 
L 1913 2072 
Q 2238 2072 2444 2201 
Q 2650 2331 2650 2563 
Q 2650 2794 2444 2917 
Q 2238 3041 1913 3041 
L 1156 3041 
z
M 581 3500 
L 1950 3500 
Q 2566 3500 2897 3275 
Q 3228 3050 3228 2634 
Q 3228 2313 3059 2123 
Q 2891 1934 2559 1888 
Q 2956 1813 3175 1575 
Q 3394 1338 3394 981 
Q 3394 513 3033 256 
Q 2672 0 2003 0 
L 581 0 
L 581 3500 
z
" transform="scale(0.015625)"/>
       <path id="DejaVuSans-433" d="M 581 0 
L 581 3500 
L 3050 3500 
L 3050 3041 
L 1159 3041 
L 1159 0 
L 581 0 
z
" transform="scale(0.015625)"/>
       <path id="DejaVuSans-2c" d="M 750 794 
L 1409 794 
L 1409 256 
L 897 -744 
L 494 -744 
L 750 256 
L 750 794 
z
" transform="scale(0.015625)"/>
       <path id="DejaVuSans-25" d="M 4653 2053 
Q 4381 2053 4226 1822 
Q 4072 1591 4072 1178 
Q 4072 772 4226 539 
Q 4381 306 4653 306 
Q 4919 306 5073 539 
Q 5228 772 5228 1178 
Q 5228 1588 5073 1820 
Q 4919 2053 4653 2053 
z
M 4653 2450 
Q 5147 2450 5437 2106 
Q 5728 1763 5728 1178 
Q 5728 594 5436 251 
Q 5144 -91 4653 -91 
Q 4153 -91 3862 251 
Q 3572 594 3572 1178 
Q 3572 1766 3864 2108 
Q 4156 2450 4653 2450 
z
M 1428 4353 
Q 1159 4353 1004 4120 
Q 850 3888 850 3481 
Q 850 3069 1003 2837 
Q 1156 2606 1428 2606 
Q 1700 2606 1854 2837 
Q 2009 3069 2009 3481 
Q 2009 3884 1853 4118 
Q 1697 4353 1428 4353 
z
M 4250 4750 
L 4750 4750 
L 1831 -91 
L 1331 -91 
L 4250 4750 
z
M 1428 4750 
Q 1922 4750 2215 4408 
Q 2509 4066 2509 3481 
Q 2509 2891 2217 2550 
Q 1925 2209 1428 2209 
Q 931 2209 642 2551 
Q 353 2894 353 3481 
Q 353 4063 643 4406 
Q 934 4750 1428 4750 
z
" transform="scale(0.015625)"/>
      </defs>
      <use xlink:href="#DejaVuSans-422"/>
      <use xlink:href="#DejaVuSans-43e" transform="translate(61.083984 0)"/>
      <use xlink:href="#DejaVuSans-447" transform="translate(122.265625 0)"/>
      <use xlink:href="#DejaVuSans-43d" transform="translate(181.347656 0)"/>
      <use xlink:href="#DejaVuSans-43e" transform="translate(246.728516 0)"/>
      <use xlink:href="#DejaVuSans-441" transform="translate(307.910156 0)"/>
      <use xlink:href="#DejaVuSans-442" transform="translate(362.890625 0)"/>
      <use xlink:href="#DejaVuSans-44c" transform="translate(421.142578 0)"/>
      <use xlink:href="#DejaVuSans-20" transform="translate(480.078125 0)"/>
      <use xlink:href="#DejaVuSans-43f" transform="translate(511.865234 0)"/>
      <use xlink:href="#DejaVuSans-440" transform="translate(577.246094 0)"/>
      <use xlink:href="#DejaVuSans-438" transform="translate(640.722656 0)"/>
      <use xlink:href="#DejaVuSans-20" transform="translate(705.712891 0)"/>
      <use xlink:href="#DejaVuSans-441" transform="translate(737.5 0)"/>
      <use xlink:href="#DejaVuSans-43c" transform="translate(792.480469 0)"/>
      <use xlink:href="#DejaVuSans-435" transform="translate(867.919922 0)"/>
      <use xlink:href="#DejaVuSans-448" transform="translate(929.443359 0)"/>
      <use xlink:href="#DejaVuSans-430" transform="translate(1020.947266 0)"/>
      <use xlink:href="#DejaVuSans-43d" transform="translate(1082.226562 0)"/>
      <use xlink:href="#DejaVuSans-43d" transform="translate(1147.607422 0)"/>
      <use xlink:href="#DejaVuSans-43e" transform="translate(1212.988281 0)"/>
      <use xlink:href="#DejaVuSans-43c" transform="translate(1274.169922 0)"/>
      <use xlink:href="#DejaVuSans-20" transform="translate(1349.609375 0)"/>
      <use xlink:href="#DejaVuSans-441" transform="translate(1381.396484 0)"/>
      <use xlink:href="#DejaVuSans-434" transform="translate(1436.376953 0)"/>
      <use xlink:href="#DejaVuSans-432" transform="translate(1505.517578 0)"/>
      <use xlink:href="#DejaVuSans-438" transform="translate(1564.453125 0)"/>
      <use xlink:href="#DejaVuSans-433" transform="translate(1629.443359 0)"/>
      <use xlink:href="#DejaVuSans-435" transform="translate(1681.982422 0)"/>
      <use xlink:href="#DejaVuSans-2c" transform="translate(1743.505859 0)"/>
      <use xlink:href="#DejaVuSans-20" transform="translate(1775.292969 0)"/>
      <use xlink:href="#DejaVuSans-25" transform="translate(1807.080078 0)"/>
     </g>
    </g>
   </g>
   <g id="matplotlib.axis_2">
    <g id="ytick_1">
     <g id="line2d_9">
      <defs>
       <path id="m57812c90a5" d="M 0 0 
L -3.5 0 
" style="stroke: #66747c; stroke-width: 0.8"/>
      </defs>
      <g>
       <use xlink:href="#m57812c90a5" x="123.931562" y="97.974727" style="fill: #66747c; stroke: #66747c; stroke-width: 0.8"/>
      </g>
     </g>
     <g id="text_6">
      <!-- DoRA -->
      <g style="fill: #66747c" transform="translate(88.363359 101.963907) scale(0.105 -0.105)">
       <defs>
        <path id="DejaVuSans-44" d="M 1259 4147 
L 1259 519 
L 2022 519 
Q 2988 519 3436 956 
Q 3884 1394 3884 2338 
Q 3884 3275 3436 3711 
Q 2988 4147 2022 4147 
L 1259 4147 
z
M 628 4666 
L 1925 4666 
Q 3281 4666 3915 4102 
Q 4550 3538 4550 2338 
Q 4550 1131 3912 565 
Q 3275 0 1925 0 
L 628 0 
L 628 4666 
z
" transform="scale(0.015625)"/>
        <path id="DejaVuSans-6f" d="M 1959 3097 
Q 1497 3097 1228 2736 
Q 959 2375 959 1747 
Q 959 1119 1226 758 
Q 1494 397 1959 397 
Q 2419 397 2687 759 
Q 2956 1122 2956 1747 
Q 2956 2369 2687 2733 
Q 2419 3097 1959 3097 
z
M 1959 3584 
Q 2709 3584 3137 3096 
Q 3566 2609 3566 1747 
Q 3566 888 3137 398 
Q 2709 -91 1959 -91 
Q 1206 -91 779 398 
Q 353 888 353 1747 
Q 353 2609 779 3096 
Q 1206 3584 1959 3584 
z
" transform="scale(0.015625)"/>
        <path id="DejaVuSans-52" d="M 2841 2188 
Q 3044 2119 3236 1894 
Q 3428 1669 3622 1275 
L 4263 0 
L 3584 0 
L 2988 1197 
Q 2756 1666 2539 1819 
Q 2322 1972 1947 1972 
L 1259 1972 
L 1259 0 
L 628 0 
L 628 4666 
L 2053 4666 
Q 2853 4666 3247 4331 
Q 3641 3997 3641 3322 
Q 3641 2881 3436 2590 
Q 3231 2300 2841 2188 
z
M 1259 4147 
L 1259 2491 
L 2053 2491 
Q 2509 2491 2742 2702 
Q 2975 2913 2975 3322 
Q 2975 3731 2742 3939 
Q 2509 4147 2053 4147 
L 1259 4147 
z
" transform="scale(0.015625)"/>
        <path id="DejaVuSans-41" d="M 2188 4044 
L 1331 1722 
L 3047 1722 
L 2188 4044 
z
M 1831 4666 
L 2547 4666 
L 4325 0 
L 3669 0 
L 3244 1197 
L 1141 1197 
L 716 0 
L 50 0 
L 1831 4666 
z
" transform="scale(0.015625)"/>
       </defs>
       <use xlink:href="#DejaVuSans-44"/>
       <use xlink:href="#DejaVuSans-6f" transform="translate(77.001953 0)"/>
       <use xlink:href="#DejaVuSans-52" transform="translate(138.183594 0)"/>
       <use xlink:href="#DejaVuSans-41" transform="translate(203.666016 0)"/>
      </g>
     </g>
    </g>
    <g id="ytick_2">
     <g id="line2d_10">
      <g>
       <use xlink:href="#m57812c90a5" x="123.931562" y="129.088364" style="fill: #66747c; stroke: #66747c; stroke-width: 0.8"/>
      </g>
     </g>
     <g id="text_7">
      <!-- LoRA -->
      <g style="fill: #66747c" transform="translate(90.781641 133.077543) scale(0.105 -0.105)">
       <defs>
        <path id="DejaVuSans-4c" d="M 628 4666 
L 1259 4666 
L 1259 531 
L 3531 531 
L 3531 0 
L 628 0 
L 628 4666 
z
" transform="scale(0.015625)"/>
       </defs>
       <use xlink:href="#DejaVuSans-4c"/>
       <use xlink:href="#DejaVuSans-6f" transform="translate(53.962891 0)"/>
       <use xlink:href="#DejaVuSans-52" transform="translate(115.144531 0)"/>
       <use xlink:href="#DejaVuSans-41" transform="translate(180.626953 0)"/>
      </g>
     </g>
    </g>
    <g id="ytick_3">
     <g id="line2d_11">
      <g>
       <use xlink:href="#m57812c90a5" x="123.931562" y="160.202" style="fill: #66747c; stroke: #66747c; stroke-width: 0.8"/>
      </g>
     </g>
     <g id="text_8">
      <!-- LoRA+ -->
      <g style="fill: #66747c" transform="translate(81.982969 164.19118) scale(0.105 -0.105)">
       <defs>
        <path id="DejaVuSans-2b" d="M 2944 4013 
L 2944 2272 
L 4684 2272 
L 4684 1741 
L 2944 1741 
L 2944 0 
L 2419 0 
L 2419 1741 
L 678 1741 
L 678 2272 
L 2419 2272 
L 2419 4013 
L 2944 4013 
z
" transform="scale(0.015625)"/>
       </defs>
       <use xlink:href="#DejaVuSans-4c"/>
       <use xlink:href="#DejaVuSans-6f" transform="translate(53.962891 0)"/>
       <use xlink:href="#DejaVuSans-52" transform="translate(115.144531 0)"/>
       <use xlink:href="#DejaVuSans-41" transform="translate(180.626953 0)"/>
       <use xlink:href="#DejaVuSans-2b" transform="translate(249.035156 0)"/>
      </g>
     </g>
    </g>
    <g id="ytick_4">
     <g id="line2d_12">
      <g>
       <use xlink:href="#m57812c90a5" x="123.931562" y="191.315636" style="fill: #66747c; stroke: #66747c; stroke-width: 0.8"/>
      </g>
     </g>
     <g id="text_9">
      <!-- Полное дообучение -->
      <g style="fill: #66747c" transform="translate(7.2 195.39423) scale(0.105 -0.105)">
       <defs>
        <path id="DejaVuSans-41f" d="M 4184 4666 
L 4184 0 
L 3553 0 
L 3553 4134 
L 1259 4134 
L 1259 0 
L 628 0 
L 628 4666 
L 4184 4666 
z
" transform="scale(0.015625)"/>
        <path id="DejaVuSans-43b" d="M 238 0 
L 238 478 
Q 806 566 981 959 
Q 1194 1513 1194 2928 
L 1194 3500 
L 3559 3500 
L 3559 0 
L 2984 0 
L 2984 3041 
L 1769 3041 
L 1769 2694 
Q 1769 1344 1494 738 
Q 1200 91 238 0 
z
" transform="scale(0.015625)"/>
        <path id="DejaVuSans-431" d="M 1991 3584 
Q 2741 3584 3169 3096 
Q 3597 2609 3597 1747 
Q 3597 888 3169 398 
Q 2741 -91 1991 -91 
Q 1238 -91 822 384 
Q 406 859 384 1747 
L 366 2463 
Q 350 2834 350 2963 
Q 350 3463 531 3831 
Q 816 4409 1308 4659 
Q 1800 4909 2625 4916 
Q 3006 4919 3175 4972 
L 3334 4516 
Q 3181 4453 3041 4450 
L 2259 4397 
Q 1866 4369 1628 4231 
Q 1006 3866 947 3388 
L 925 3213 
Q 1331 3584 1991 3584 
z
M 1991 3097 
Q 1528 3097 1259 2736 
Q 991 2375 991 1747 
Q 991 1119 1258 758 
Q 1525 397 1991 397 
Q 2450 397 2719 759 
Q 2988 1122 2988 1747 
Q 2988 2369 2719 2733 
Q 2450 3097 1991 3097 
z
" transform="scale(0.015625)"/>
        <path id="DejaVuSans-443" d="M 2059 -325 
Q 1816 -950 1584 -1140 
Q 1353 -1331 966 -1331 
L 506 -1331 
L 506 -850 
L 844 -850 
Q 1081 -850 1212 -737 
Q 1344 -625 1503 -206 
L 1606 56 
L 191 3500 
L 800 3500 
L 1894 763 
L 2988 3500 
L 3597 3500 
L 2059 -325 
z
" transform="scale(0.015625)"/>
       </defs>
       <use xlink:href="#DejaVuSans-41f"/>
       <use xlink:href="#DejaVuSans-43e" transform="translate(75.195312 0)"/>
       <use xlink:href="#DejaVuSans-43b" transform="translate(136.376953 0)"/>
       <use xlink:href="#DejaVuSans-43d" transform="translate(200.292969 0)"/>
       <use xlink:href="#DejaVuSans-43e" transform="translate(265.673828 0)"/>
       <use xlink:href="#DejaVuSans-435" transform="translate(326.855469 0)"/>
       <use xlink:href="#DejaVuSans-20" transform="translate(388.378906 0)"/>
       <use xlink:href="#DejaVuSans-434" transform="translate(420.166016 0)"/>
       <use xlink:href="#DejaVuSans-43e" transform="translate(489.306641 0)"/>
       <use xlink:href="#DejaVuSans-43e" transform="translate(550.488281 0)"/>
       <use xlink:href="#DejaVuSans-431" transform="translate(611.669922 0)"/>
       <use xlink:href="#DejaVuSans-443" transform="translate(673.339844 0)"/>
       <use xlink:href="#DejaVuSans-447" transform="translate(732.519531 0)"/>
       <use xlink:href="#DejaVuSans-435" transform="translate(791.601562 0)"/>
       <use xlink:href="#DejaVuSans-43d" transform="translate(853.125 0)"/>
       <use xlink:href="#DejaVuSans-438" transform="translate(918.505859 0)"/>
       <use xlink:href="#DejaVuSans-435" transform="translate(983.496094 0)"/>
      </g>
     </g>
    </g>
    <g id="ytick_5">
     <g id="line2d_13">
      <g>
       <use xlink:href="#m57812c90a5" x="123.931562" y="222.429273" style="fill: #66747c; stroke: #66747c; stroke-width: 0.8"/>
      </g>
     </g>
     <g id="text_10">
      <!-- Только величина -->
      <g style="fill: #66747c" transform="translate(22.579219 226.418452) scale(0.105 -0.105)">
       <defs>
        <path id="DejaVuSans-43a" d="M 581 3500 
L 1153 3500 
L 1153 1856 
L 2775 3500 
L 3481 3500 
L 2144 2147 
L 3653 0 
L 3009 0 
L 1769 1766 
L 1153 1141 
L 1153 0 
L 581 0 
L 581 3500 
z
" transform="scale(0.015625)"/>
       </defs>
       <use xlink:href="#DejaVuSans-422"/>
       <use xlink:href="#DejaVuSans-43e" transform="translate(61.083984 0)"/>
       <use xlink:href="#DejaVuSans-43b" transform="translate(122.265625 0)"/>
       <use xlink:href="#DejaVuSans-44c" transform="translate(186.181641 0)"/>
       <use xlink:href="#DejaVuSans-43a" transform="translate(245.117188 0)"/>
       <use xlink:href="#DejaVuSans-43e" transform="translate(305.517578 0)"/>
       <use xlink:href="#DejaVuSans-20" transform="translate(366.699219 0)"/>
       <use xlink:href="#DejaVuSans-432" transform="translate(398.486328 0)"/>
       <use xlink:href="#DejaVuSans-435" transform="translate(457.421875 0)"/>
       <use xlink:href="#DejaVuSans-43b" transform="translate(518.945312 0)"/>
       <use xlink:href="#DejaVuSans-438" transform="translate(582.861328 0)"/>
       <use xlink:href="#DejaVuSans-447" transform="translate(647.851562 0)"/>
       <use xlink:href="#DejaVuSans-438" transform="translate(706.933594 0)"/>
       <use xlink:href="#DejaVuSans-43d" transform="translate(771.923828 0)"/>
       <use xlink:href="#DejaVuSans-430" transform="translate(837.304688 0)"/>
      </g>
     </g>
    </g>
   </g>
   <g id="LineCollection_1">
    <path d="M 270.049433 97.974727 
L 291.577026 97.974727 
" clip-path="url(#p12ea572c5f)" style="fill: none; stroke: #0b8f83; stroke-width: 2"/>
   </g>
   <g id="line2d_14">
    <defs>
     <path id="m1b864027d7" d="M 0 3 
L 0 -3 
" style="stroke: #0b8f83"/>
    </defs>
    <g clip-path="url(#p12ea572c5f)">
     <use xlink:href="#m1b864027d7" x="270.049433" y="97.974727" style="fill: #0b8f83; stroke: #0b8f83"/>
    </g>
   </g>
   <g id="line2d_15">
    <g clip-path="url(#p12ea572c5f)">
     <use xlink:href="#m1b864027d7" x="291.577026" y="97.974727" style="fill: #0b8f83; stroke: #0b8f83"/>
    </g>
   </g>
   <g id="LineCollection_2">
    <path d="M 255.658218 129.088364 
L 280.919907 129.088364 
" clip-path="url(#p12ea572c5f)" style="fill: none; stroke: #3565d4; stroke-width: 2"/>
   </g>
   <g id="line2d_16">
    <defs>
     <path id="md952cf93e0" d="M 0 3 
L 0 -3 
" style="stroke: #3565d4"/>
    </defs>
    <g clip-path="url(#p12ea572c5f)">
     <use xlink:href="#md952cf93e0" x="255.658218" y="129.088364" style="fill: #3565d4; stroke: #3565d4"/>
    </g>
   </g>
   <g id="line2d_17">
    <g clip-path="url(#p12ea572c5f)">
     <use xlink:href="#md952cf93e0" x="280.919907" y="129.088364" style="fill: #3565d4; stroke: #3565d4"/>
    </g>
   </g>
   <g id="LineCollection_3">
    <path d="M 249.55903 160.202 
L 278.120345 160.202 
" clip-path="url(#p12ea572c5f)" style="fill: none; stroke: #afc2ef; stroke-width: 2"/>
   </g>
   <g id="line2d_18">
    <defs>
     <path id="md08223442a" d="M 0 3 
L 0 -3 
" style="stroke: #afc2ef"/>
    </defs>
    <g clip-path="url(#p12ea572c5f)">
     <use xlink:href="#md08223442a" x="249.55903" y="160.202" style="fill: #afc2ef; stroke: #afc2ef"/>
    </g>
   </g>
   <g id="line2d_19">
    <g clip-path="url(#p12ea572c5f)">
     <use xlink:href="#md08223442a" x="278.120345" y="160.202" style="fill: #afc2ef; stroke: #afc2ef"/>
    </g>
   </g>
   <g id="LineCollection_4">
    <path d="M 270.786109 191.315636 
L 289.522016 191.315636 
" clip-path="url(#p12ea572c5f)" style="fill: none; stroke: #15242d; stroke-width: 2"/>
   </g>
   <g id="line2d_20">
    <defs>
     <path id="md4a2f4254a" d="M 0 3 
L 0 -3 
" style="stroke: #15242d"/>
    </defs>
    <g clip-path="url(#p12ea572c5f)">
     <use xlink:href="#md4a2f4254a" x="270.786109" y="191.315636" style="fill: #15242d; stroke: #15242d"/>
    </g>
   </g>
   <g id="line2d_21">
    <g clip-path="url(#p12ea572c5f)">
     <use xlink:href="#md4a2f4254a" x="289.522016" y="191.315636" style="fill: #15242d; stroke: #15242d"/>
    </g>
   </g>
   <g id="LineCollection_5">
    <path d="M 164.478461 222.429273 
L 182.259664 222.429273 
" clip-path="url(#p12ea572c5f)" style="fill: none; stroke: #aab4b9; stroke-width: 2"/>
   </g>
   <g id="line2d_22">
    <defs>
     <path id="mf5a26ffc2d" d="M 0 3 
L 0 -3 
" style="stroke: #aab4b9"/>
    </defs>
    <g clip-path="url(#p12ea572c5f)">
     <use xlink:href="#mf5a26ffc2d" x="164.478461" y="222.429273" style="fill: #aab4b9; stroke: #aab4b9"/>
    </g>
   </g>
   <g id="line2d_23">
    <g clip-path="url(#p12ea572c5f)">
     <use xlink:href="#mf5a26ffc2d" x="182.259664" y="222.429273" style="fill: #aab4b9; stroke: #aab4b9"/>
    </g>
   </g>
   <g id="line2d_24">
    <defs>
     <path id="m7692fdcbe1" d="M 0 3.5 
C 0.928211 3.5 1.81853 3.131218 2.474874 2.474874 
C 3.131218 1.81853 3.5 0.928211 3.5 0 
C 3.5 -0.928211 3.131218 -1.81853 2.474874 -2.474874 
C 1.81853 -3.131218 0.928211 -3.5 0 -3.5 
C -0.928211 -3.5 -1.81853 -3.131218 -2.474874 -2.474874 
C -3.131218 -1.81853 -3.5 -0.928211 -3.5 0 
C -3.5 0.928211 -3.131218 1.81853 -2.474874 2.474874 
C -1.81853 3.131218 -0.928211 3.5 0 3.5 
z
" style="stroke: #0b8f83"/>
    </defs>
    <g clip-path="url(#p12ea572c5f)">
     <use xlink:href="#m7692fdcbe1" x="280.813229" y="97.974727" style="fill: #0b8f83; stroke: #0b8f83"/>
    </g>
   </g>
   <g id="line2d_25">
    <defs>
     <path id="m7089899963" d="M 0 3.5 
C 0.928211 3.5 1.81853 3.131218 2.474874 2.474874 
C 3.131218 1.81853 3.5 0.928211 3.5 0 
C 3.5 -0.928211 3.131218 -1.81853 2.474874 -2.474874 
C 1.81853 -3.131218 0.928211 -3.5 0 -3.5 
C -0.928211 -3.5 -1.81853 -3.131218 -2.474874 -2.474874 
C -3.131218 -1.81853 -3.5 -0.928211 -3.5 0 
C -3.5 0.928211 -3.131218 1.81853 -2.474874 2.474874 
C -1.81853 3.131218 -0.928211 3.5 0 3.5 
z
" style="stroke: #3565d4"/>
    </defs>
    <g clip-path="url(#p12ea572c5f)">
     <use xlink:href="#m7089899963" x="268.289063" y="129.088364" style="fill: #3565d4; stroke: #3565d4"/>
    </g>
   </g>
   <g id="line2d_26">
    <defs>
     <path id="m155098668e" d="M 0 3.5 
C 0.928211 3.5 1.81853 3.131218 2.474874 2.474874 
C 3.131218 1.81853 3.5 0.928211 3.5 0 
C 3.5 -0.928211 3.131218 -1.81853 2.474874 -2.474874 
C 1.81853 -3.131218 0.928211 -3.5 0 -3.5 
C -0.928211 -3.5 -1.81853 -3.131218 -2.474874 -2.474874 
C -3.131218 -1.81853 -3.5 -0.928211 -3.5 0 
C -3.5 0.928211 -3.131218 1.81853 -2.474874 2.474874 
C -1.81853 3.131218 -0.928211 3.5 0 3.5 
z
" style="stroke: #afc2ef"/>
    </defs>
    <g clip-path="url(#p12ea572c5f)">
     <use xlink:href="#m155098668e" x="263.839688" y="160.202" style="fill: #afc2ef; stroke: #afc2ef"/>
    </g>
   </g>
   <g id="line2d_27">
    <defs>
     <path id="mad5bbac291" d="M 0 3.5 
C 0.928211 3.5 1.81853 3.131218 2.474874 2.474874 
C 3.131218 1.81853 3.5 0.928211 3.5 0 
C 3.5 -0.928211 3.131218 -1.81853 2.474874 -2.474874 
C 1.81853 -3.131218 0.928211 -3.5 0 -3.5 
C -0.928211 -3.5 -1.81853 -3.131218 -2.474874 -2.474874 
C -3.131218 -1.81853 -3.5 -0.928211 -3.5 0 
C -3.5 0.928211 -3.131218 1.81853 -2.474874 2.474874 
C -1.81853 3.131218 -0.928211 3.5 0 3.5 
z
" style="stroke: #15242d"/>
    </defs>
    <g clip-path="url(#p12ea572c5f)">
     <use xlink:href="#mad5bbac291" x="280.154063" y="191.315636" style="fill: #15242d; stroke: #15242d"/>
    </g>
   </g>
   <g id="line2d_28">
    <defs>
     <path id="m965f300c6e" d="M 0 3.5 
C 0.928211 3.5 1.81853 3.131218 2.474874 2.474874 
C 3.131218 1.81853 3.5 0.928211 3.5 0 
C 3.5 -0.928211 3.131218 -1.81853 2.474874 -2.474874 
C 1.81853 -3.131218 0.928211 -3.5 0 -3.5 
C -0.928211 -3.5 -1.81853 -3.131218 -2.474874 -2.474874 
C -3.131218 -1.81853 -3.5 -0.928211 -3.5 0 
C -3.5 0.928211 -3.131218 1.81853 -2.474874 2.474874 
C -1.81853 3.131218 -0.928211 3.5 0 3.5 
z
" style="stroke: #aab4b9"/>
    </defs>
    <g clip-path="url(#p12ea572c5f)">
     <use xlink:href="#m965f300c6e" x="173.369063" y="222.429273" style="fill: #aab4b9; stroke: #aab4b9"/>
    </g>
   </g>
   <g id="patch_3">
    <path d="M 123.931562 228.652 
L 123.931562 91.752 
" style="fill: none; stroke: #66747c; stroke-width: 0.8; stroke-linejoin: miter; stroke-linecap: square"/>
   </g>
   <g id="patch_4">
    <path d="M 123.931563 228.652 
L 373.096563 228.652 
" style="fill: none; stroke: #66747c; stroke-width: 0.8; stroke-linejoin: miter; stroke-linecap: square"/>
   </g>
   <g id="text_11">
    <!-- 75.2 -->
    <g style="fill: #15242d" transform="translate(285.813229 100.320196) scale(0.085 -0.085)">
     <defs>
      <path id="DejaVuSans-2e" d="M 684 794 
L 1344 794 
L 1344 0 
L 684 0 
L 684 794 
z
" transform="scale(0.015625)"/>
      <path id="DejaVuSans-32" d="M 1228 531 
L 3431 531 
L 3431 0 
L 469 0 
L 469 531 
Q 828 903 1448 1529 
Q 2069 2156 2228 2338 
Q 2531 2678 2651 2914 
Q 2772 3150 2772 3378 
Q 2772 3750 2511 3984 
Q 2250 4219 1831 4219 
Q 1534 4219 1204 4116 
Q 875 4013 500 3803 
L 500 4441 
Q 881 4594 1212 4672 
Q 1544 4750 1819 4750 
Q 2544 4750 2975 4387 
Q 3406 4025 3406 3419 
Q 3406 3131 3298 2873 
Q 3191 2616 2906 2266 
Q 2828 2175 2409 1742 
Q 1991 1309 1228 531 
z
" transform="scale(0.015625)"/>
     </defs>
     <use xlink:href="#DejaVuSans-37"/>
     <use xlink:href="#DejaVuSans-35" transform="translate(63.623047 0)"/>
     <use xlink:href="#DejaVuSans-2e" transform="translate(127.246094 0)"/>
     <use xlink:href="#DejaVuSans-32" transform="translate(159.033203 0)"/>
    </g>
   </g>
   <g id="text_12">
    <!-- 74.2 -->
    <g style="fill: #15242d" transform="translate(273.289063 131.433832) scale(0.085 -0.085)">
     <defs>
      <path id="DejaVuSans-34" d="M 2419 4116 
L 825 1625 
L 2419 1625 
L 2419 4116 
z
M 2253 4666 
L 3047 4666 
L 3047 1625 
L 3713 1625 
L 3713 1100 
L 3047 1100 
L 3047 0 
L 2419 0 
L 2419 1100 
L 313 1100 
L 313 1709 
L 2253 4666 
z
" transform="scale(0.015625)"/>
     </defs>
     <use xlink:href="#DejaVuSans-37"/>
     <use xlink:href="#DejaVuSans-34" transform="translate(63.623047 0)"/>
     <use xlink:href="#DejaVuSans-2e" transform="translate(127.246094 0)"/>
     <use xlink:href="#DejaVuSans-32" transform="translate(159.033203 0)"/>
    </g>
   </g>
   <g id="text_13">
    <!-- 73.8 -->
    <g style="fill: #15242d" transform="translate(268.839688 162.547469) scale(0.085 -0.085)">
     <defs>
      <path id="DejaVuSans-33" d="M 2597 2516 
Q 3050 2419 3304 2112 
Q 3559 1806 3559 1356 
Q 3559 666 3084 287 
Q 2609 -91 1734 -91 
Q 1441 -91 1130 -33 
Q 819 25 488 141 
L 488 750 
Q 750 597 1062 519 
Q 1375 441 1716 441 
Q 2309 441 2620 675 
Q 2931 909 2931 1356 
Q 2931 1769 2642 2001 
Q 2353 2234 1838 2234 
L 1294 2234 
L 1294 2753 
L 1863 2753 
Q 2328 2753 2575 2939 
Q 2822 3125 2822 3475 
Q 2822 3834 2567 4026 
Q 2313 4219 1838 4219 
Q 1578 4219 1281 4162 
Q 984 4106 628 3988 
L 628 4550 
Q 988 4650 1302 4700 
Q 1616 4750 1894 4750 
Q 2613 4750 3031 4423 
Q 3450 4097 3450 3541 
Q 3450 3153 3228 2886 
Q 3006 2619 2597 2516 
z
" transform="scale(0.015625)"/>
     </defs>
     <use xlink:href="#DejaVuSans-37"/>
     <use xlink:href="#DejaVuSans-33" transform="translate(63.623047 0)"/>
     <use xlink:href="#DejaVuSans-2e" transform="translate(127.246094 0)"/>
     <use xlink:href="#DejaVuSans-38" transform="translate(159.033203 0)"/>
    </g>
   </g>
   <g id="text_14">
    <!-- 75.2 -->
    <g style="fill: #15242d" transform="translate(285.154063 193.661105) scale(0.085 -0.085)">
     <use xlink:href="#DejaVuSans-37"/>
     <use xlink:href="#DejaVuSans-35" transform="translate(63.623047 0)"/>
     <use xlink:href="#DejaVuSans-2e" transform="translate(127.246094 0)"/>
     <use xlink:href="#DejaVuSans-32" transform="translate(159.033203 0)"/>
    </g>
   </g>
   <g id="text_15">
    <!-- 66.2 -->
    <g style="fill: #15242d" transform="translate(178.369063 224.774741) scale(0.085 -0.085)">
     <use xlink:href="#DejaVuSans-36"/>
     <use xlink:href="#DejaVuSans-36" transform="translate(63.623047 0)"/>
     <use xlink:href="#DejaVuSans-2e" transform="translate(127.246094 0)"/>
     <use xlink:href="#DejaVuSans-32" transform="translate(159.033203 0)"/>
    </g>
   </g>
   <g id="text_16">
    <!-- MLP · n=20 -->
    <g style="fill: #15242d" transform="translate(123.931562 85.752) scale(0.13 -0.13)">
     <defs>
      <path id="DejaVuSans-Bold-4d" d="M 588 4666 
L 2119 4666 
L 3181 2169 
L 4250 4666 
L 5778 4666 
L 5778 0 
L 4641 0 
L 4641 3413 
L 3566 897 
L 2803 897 
L 1728 3413 
L 1728 0 
L 588 0 
L 588 4666 
z
" transform="scale(0.015625)"/>
      <path id="DejaVuSans-Bold-4c" d="M 588 4666 
L 1791 4666 
L 1791 909 
L 3903 909 
L 3903 0 
L 588 0 
L 588 4666 
z
" transform="scale(0.015625)"/>
      <path id="DejaVuSans-Bold-50" d="M 588 4666 
L 2584 4666 
Q 3475 4666 3951 4270 
Q 4428 3875 4428 3144 
Q 4428 2409 3951 2014 
Q 3475 1619 2584 1619 
L 1791 1619 
L 1791 0 
L 588 0 
L 588 4666 
z
M 1791 3794 
L 1791 2491 
L 2456 2491 
Q 2806 2491 2997 2661 
Q 3188 2831 3188 3144 
Q 3188 3456 2997 3625 
Q 2806 3794 2456 3794 
L 1791 3794 
z
" transform="scale(0.015625)"/>
      <path id="DejaVuSans-Bold-20" transform="scale(0.015625)"/>
      <path id="DejaVuSans-Bold-b7" d="M 653 2828 
L 1778 2828 
L 1778 1619 
L 653 1619 
L 653 2828 
z
" transform="scale(0.015625)"/>
      <path id="DejaVuSans-Bold-6e" d="M 4056 2131 
L 4056 0 
L 2931 0 
L 2931 347 
L 2931 1631 
Q 2931 2084 2911 2256 
Q 2891 2428 2841 2509 
Q 2775 2619 2662 2680 
Q 2550 2741 2406 2741 
Q 2056 2741 1856 2470 
Q 1656 2200 1656 1722 
L 1656 0 
L 538 0 
L 538 3500 
L 1656 3500 
L 1656 2988 
Q 1909 3294 2193 3439 
Q 2478 3584 2822 3584 
Q 3428 3584 3742 3212 
Q 4056 2841 4056 2131 
z
" transform="scale(0.015625)"/>
      <path id="DejaVuSans-Bold-3d" d="M 678 3084 
L 4684 3084 
L 4684 2350 
L 678 2350 
L 678 3084 
z
M 678 1663 
L 4684 1663 
L 4684 922 
L 678 922 
L 678 1663 
z
" transform="scale(0.015625)"/>
      <path id="DejaVuSans-Bold-32" d="M 1844 884 
L 3897 884 
L 3897 0 
L 506 0 
L 506 884 
L 2209 2388 
Q 2438 2594 2547 2791 
Q 2656 2988 2656 3200 
Q 2656 3528 2436 3728 
Q 2216 3928 1850 3928 
Q 1569 3928 1234 3808 
Q 900 3688 519 3450 
L 519 4475 
Q 925 4609 1322 4679 
Q 1719 4750 2100 4750 
Q 2938 4750 3402 4381 
Q 3866 4013 3866 3353 
Q 3866 2972 3669 2642 
Q 3472 2313 2841 1759 
L 1844 884 
z
" transform="scale(0.015625)"/>
      <path id="DejaVuSans-Bold-30" d="M 2944 2338 
Q 2944 3213 2780 3570 
Q 2616 3928 2228 3928 
Q 1841 3928 1675 3570 
Q 1509 3213 1509 2338 
Q 1509 1453 1675 1090 
Q 1841 728 2228 728 
Q 2613 728 2778 1090 
Q 2944 1453 2944 2338 
z
M 4147 2328 
Q 4147 1169 3647 539 
Q 3147 -91 2228 -91 
Q 1306 -91 806 539 
Q 306 1169 306 2328 
Q 306 3491 806 4120 
Q 1306 4750 2228 4750 
Q 3147 4750 3647 4120 
Q 4147 3491 4147 2328 
z
" transform="scale(0.015625)"/>
     </defs>
     <use xlink:href="#DejaVuSans-Bold-4d"/>
     <use xlink:href="#DejaVuSans-Bold-4c" transform="translate(99.511719 0)"/>
     <use xlink:href="#DejaVuSans-Bold-50" transform="translate(163.232422 0)"/>
     <use xlink:href="#DejaVuSans-Bold-20" transform="translate(236.523438 0)"/>
     <use xlink:href="#DejaVuSans-Bold-b7" transform="translate(271.337891 0)"/>
     <use xlink:href="#DejaVuSans-Bold-20" transform="translate(309.326172 0)"/>
     <use xlink:href="#DejaVuSans-Bold-6e" transform="translate(344.140625 0)"/>
     <use xlink:href="#DejaVuSans-Bold-3d" transform="translate(415.332031 0)"/>
     <use xlink:href="#DejaVuSans-Bold-32" transform="translate(499.121094 0)"/>
     <use xlink:href="#DejaVuSans-Bold-30" transform="translate(568.701172 0)"/>
    </g>
   </g>
  </g>
  <g id="axes_2">
   <g id="patch_5">
    <path d="M 397.596562 228.652 
L 646.761562 228.652 
L 646.761562 91.752 
L 397.596562 91.752 
z
" style="fill: #ffffff"/>
   </g>
   <g id="matplotlib.axis_3">
    <g id="xtick_5">
     <g id="line2d_29">
      <path d="M 433.191563 228.652 
L 433.191563 91.752 
" clip-path="url(#p97fbad1de6)" style="fill: none; stroke: #dde5e7; stroke-width: 0.8; stroke-linecap: square"/>
     </g>
     <g id="line2d_30">
      <g>
       <use xlink:href="#m13b22c82c5" x="433.191563" y="228.652" style="fill: #66747c; stroke: #66747c; stroke-width: 0.8"/>
      </g>
     </g>
     <g id="text_17">
      <!-- 65 -->
      <g style="fill: #66747c" transform="translate(426.510938 243.630359) scale(0.105 -0.105)">
       <use xlink:href="#DejaVuSans-36"/>
       <use xlink:href="#DejaVuSans-35" transform="translate(63.623047 0)"/>
      </g>
     </g>
    </g>
    <g id="xtick_6">
     <g id="line2d_31">
      <path d="M 492.516562 228.652 
L 492.516562 91.752 
" clip-path="url(#p97fbad1de6)" style="fill: none; stroke: #dde5e7; stroke-width: 0.8; stroke-linecap: square"/>
     </g>
     <g id="line2d_32">
      <g>
       <use xlink:href="#m13b22c82c5" x="492.516562" y="228.652" style="fill: #66747c; stroke: #66747c; stroke-width: 0.8"/>
      </g>
     </g>
     <g id="text_18">
      <!-- 70 -->
      <g style="fill: #66747c" transform="translate(485.835937 243.630359) scale(0.105 -0.105)">
       <use xlink:href="#DejaVuSans-37"/>
       <use xlink:href="#DejaVuSans-30" transform="translate(63.623047 0)"/>
      </g>
     </g>
    </g>
    <g id="xtick_7">
     <g id="line2d_33">
      <path d="M 551.841563 228.652 
L 551.841563 91.752 
" clip-path="url(#p97fbad1de6)" style="fill: none; stroke: #dde5e7; stroke-width: 0.8; stroke-linecap: square"/>
     </g>
     <g id="line2d_34">
      <g>
       <use xlink:href="#m13b22c82c5" x="551.841563" y="228.652" style="fill: #66747c; stroke: #66747c; stroke-width: 0.8"/>
      </g>
     </g>
     <g id="text_19">
      <!-- 75 -->
      <g style="fill: #66747c" transform="translate(545.160938 243.630359) scale(0.105 -0.105)">
       <use xlink:href="#DejaVuSans-37"/>
       <use xlink:href="#DejaVuSans-35" transform="translate(63.623047 0)"/>
      </g>
     </g>
    </g>
    <g id="xtick_8">
     <g id="line2d_35">
      <path d="M 611.166562 228.652 
L 611.166562 91.752 
" clip-path="url(#p97fbad1de6)" style="fill: none; stroke: #dde5e7; stroke-width: 0.8; stroke-linecap: square"/>
     </g>
     <g id="line2d_36">
      <g>
       <use xlink:href="#m13b22c82c5" x="611.166562" y="228.652" style="fill: #66747c; stroke: #66747c; stroke-width: 0.8"/>
      </g>
     </g>
     <g id="text_20">
      <!-- 80 -->
      <g style="fill: #66747c" transform="translate(604.485937 243.630359) scale(0.105 -0.105)">
       <use xlink:href="#DejaVuSans-38"/>
       <use xlink:href="#DejaVuSans-30" transform="translate(63.623047 0)"/>
      </g>
     </g>
    </g>
    <g id="text_21">
     <!-- Точность при смешанном сдвиге, % -->
     <g style="fill: #15242d" transform="translate(422.319961 257.792391) scale(0.105 -0.105)">
      <use xlink:href="#DejaVuSans-422"/>
      <use xlink:href="#DejaVuSans-43e" transform="translate(61.083984 0)"/>
      <use xlink:href="#DejaVuSans-447" transform="translate(122.265625 0)"/>
      <use xlink:href="#DejaVuSans-43d" transform="translate(181.347656 0)"/>
      <use xlink:href="#DejaVuSans-43e" transform="translate(246.728516 0)"/>
      <use xlink:href="#DejaVuSans-441" transform="translate(307.910156 0)"/>
      <use xlink:href="#DejaVuSans-442" transform="translate(362.890625 0)"/>
      <use xlink:href="#DejaVuSans-44c" transform="translate(421.142578 0)"/>
      <use xlink:href="#DejaVuSans-20" transform="translate(480.078125 0)"/>
      <use xlink:href="#DejaVuSans-43f" transform="translate(511.865234 0)"/>
      <use xlink:href="#DejaVuSans-440" transform="translate(577.246094 0)"/>
      <use xlink:href="#DejaVuSans-438" transform="translate(640.722656 0)"/>
      <use xlink:href="#DejaVuSans-20" transform="translate(705.712891 0)"/>
      <use xlink:href="#DejaVuSans-441" transform="translate(737.5 0)"/>
      <use xlink:href="#DejaVuSans-43c" transform="translate(792.480469 0)"/>
      <use xlink:href="#DejaVuSans-435" transform="translate(867.919922 0)"/>
      <use xlink:href="#DejaVuSans-448" transform="translate(929.443359 0)"/>
      <use xlink:href="#DejaVuSans-430" transform="translate(1020.947266 0)"/>
      <use xlink:href="#DejaVuSans-43d" transform="translate(1082.226562 0)"/>
      <use xlink:href="#DejaVuSans-43d" transform="translate(1147.607422 0)"/>
      <use xlink:href="#DejaVuSans-43e" transform="translate(1212.988281 0)"/>
      <use xlink:href="#DejaVuSans-43c" transform="translate(1274.169922 0)"/>
      <use xlink:href="#DejaVuSans-20" transform="translate(1349.609375 0)"/>
      <use xlink:href="#DejaVuSans-441" transform="translate(1381.396484 0)"/>
      <use xlink:href="#DejaVuSans-434" transform="translate(1436.376953 0)"/>
      <use xlink:href="#DejaVuSans-432" transform="translate(1505.517578 0)"/>
      <use xlink:href="#DejaVuSans-438" transform="translate(1564.453125 0)"/>
      <use xlink:href="#DejaVuSans-433" transform="translate(1629.443359 0)"/>
      <use xlink:href="#DejaVuSans-435" transform="translate(1681.982422 0)"/>
      <use xlink:href="#DejaVuSans-2c" transform="translate(1743.505859 0)"/>
      <use xlink:href="#DejaVuSans-20" transform="translate(1775.292969 0)"/>
      <use xlink:href="#DejaVuSans-25" transform="translate(1807.080078 0)"/>
     </g>
    </g>
   </g>
   <g id="matplotlib.axis_4">
    <g id="ytick_6">
     <g id="line2d_37">
      <g>
       <use xlink:href="#m57812c90a5" x="397.596562" y="97.974727" style="fill: #66747c; stroke: #66747c; stroke-width: 0.8"/>
      </g>
     </g>
    </g>
    <g id="ytick_7">
     <g id="line2d_38">
      <g>
       <use xlink:href="#m57812c90a5" x="397.596562" y="129.088364" style="fill: #66747c; stroke: #66747c; stroke-width: 0.8"/>
      </g>
     </g>
    </g>
    <g id="ytick_8">
     <g id="line2d_39">
      <g>
       <use xlink:href="#m57812c90a5" x="397.596562" y="160.202" style="fill: #66747c; stroke: #66747c; stroke-width: 0.8"/>
      </g>
     </g>
    </g>
    <g id="ytick_9">
     <g id="line2d_40">
      <g>
       <use xlink:href="#m57812c90a5" x="397.596562" y="191.315636" style="fill: #66747c; stroke: #66747c; stroke-width: 0.8"/>
      </g>
     </g>
    </g>
    <g id="ytick_10">
     <g id="line2d_41">
      <g>
       <use xlink:href="#m57812c90a5" x="397.596562" y="222.429273" style="fill: #66747c; stroke: #66747c; stroke-width: 0.8"/>
      </g>
     </g>
    </g>
   </g>
   <g id="LineCollection_6">
    <path d="M 610.359922 97.974727 
L 624.49737 97.974727 
" clip-path="url(#p97fbad1de6)" style="fill: none; stroke: #0b8f83; stroke-width: 2"/>
   </g>
   <g id="line2d_42">
    <g clip-path="url(#p97fbad1de6)">
     <use xlink:href="#m1b864027d7" x="610.359922" y="97.974727" style="fill: #0b8f83; stroke: #0b8f83"/>
    </g>
   </g>
   <g id="line2d_43">
    <g clip-path="url(#p97fbad1de6)">
     <use xlink:href="#m1b864027d7" x="624.49737" y="97.974727" style="fill: #0b8f83; stroke: #0b8f83"/>
    </g>
   </g>
   <g id="LineCollection_7">
    <path d="M 598.146582 129.088364 
L 614.95821 129.088364 
" clip-path="url(#p97fbad1de6)" style="fill: none; stroke: #3565d4; stroke-width: 2"/>
   </g>
   <g id="line2d_44">
    <g clip-path="url(#p97fbad1de6)">
     <use xlink:href="#md952cf93e0" x="598.146582" y="129.088364" style="fill: #3565d4; stroke: #3565d4"/>
    </g>
   </g>
   <g id="line2d_45">
    <g clip-path="url(#p97fbad1de6)">
     <use xlink:href="#md952cf93e0" x="614.95821" y="129.088364" style="fill: #3565d4; stroke: #3565d4"/>
    </g>
   </g>
   <g id="LineCollection_8">
    <path d="M 593.325682 160.202 
L 617.142443 160.202 
" clip-path="url(#p97fbad1de6)" style="fill: none; stroke: #afc2ef; stroke-width: 2"/>
   </g>
   <g id="line2d_46">
    <g clip-path="url(#p97fbad1de6)">
     <use xlink:href="#md08223442a" x="593.325682" y="160.202" style="fill: #afc2ef; stroke: #afc2ef"/>
    </g>
   </g>
   <g id="line2d_47">
    <g clip-path="url(#p97fbad1de6)">
     <use xlink:href="#md08223442a" x="617.142443" y="160.202" style="fill: #afc2ef; stroke: #afc2ef"/>
    </g>
   </g>
   <g id="LineCollection_9">
    <path d="M 609.898015 191.315636 
L 628.25511 191.315636 
" clip-path="url(#p97fbad1de6)" style="fill: none; stroke: #15242d; stroke-width: 2"/>
   </g>
   <g id="line2d_48">
    <g clip-path="url(#p97fbad1de6)">
     <use xlink:href="#md4a2f4254a" x="609.898015" y="191.315636" style="fill: #15242d; stroke: #15242d"/>
    </g>
   </g>
   <g id="line2d_49">
    <g clip-path="url(#p97fbad1de6)">
     <use xlink:href="#md4a2f4254a" x="628.25511" y="191.315636" style="fill: #15242d; stroke: #15242d"/>
    </g>
   </g>
   <g id="LineCollection_10">
    <path d="M 520.726767 222.429273 
L 538.792191 222.429273 
" clip-path="url(#p97fbad1de6)" style="fill: none; stroke: #aab4b9; stroke-width: 2"/>
   </g>
   <g id="line2d_50">
    <g clip-path="url(#p97fbad1de6)">
     <use xlink:href="#mf5a26ffc2d" x="520.726767" y="222.429273" style="fill: #aab4b9; stroke: #aab4b9"/>
    </g>
   </g>
   <g id="line2d_51">
    <g clip-path="url(#p97fbad1de6)">
     <use xlink:href="#mf5a26ffc2d" x="538.792191" y="222.429273" style="fill: #aab4b9; stroke: #aab4b9"/>
    </g>
   </g>
   <g id="line2d_52">
    <g clip-path="url(#p97fbad1de6)">
     <use xlink:href="#m7692fdcbe1" x="617.428646" y="97.974727" style="fill: #0b8f83; stroke: #0b8f83"/>
    </g>
   </g>
   <g id="line2d_53">
    <g clip-path="url(#p97fbad1de6)">
     <use xlink:href="#m7089899963" x="606.552396" y="129.088364" style="fill: #3565d4; stroke: #3565d4"/>
    </g>
   </g>
   <g id="line2d_54">
    <g clip-path="url(#p97fbad1de6)">
     <use xlink:href="#m155098668e" x="605.234062" y="160.202" style="fill: #afc2ef; stroke: #afc2ef"/>
    </g>
   </g>
   <g id="line2d_55">
    <g clip-path="url(#p97fbad1de6)">
     <use xlink:href="#mad5bbac291" x="619.076563" y="191.315636" style="fill: #15242d; stroke: #15242d"/>
    </g>
   </g>
   <g id="line2d_56">
    <g clip-path="url(#p97fbad1de6)">
     <use xlink:href="#m965f300c6e" x="529.759479" y="222.429273" style="fill: #aab4b9; stroke: #aab4b9"/>
    </g>
   </g>
   <g id="patch_6">
    <path d="M 397.596562 228.652 
L 397.596562 91.752 
" style="fill: none; stroke: #66747c; stroke-width: 0.8; stroke-linejoin: miter; stroke-linecap: square"/>
   </g>
   <g id="patch_7">
    <path d="M 397.596563 228.652 
L 646.761562 228.652 
" style="fill: none; stroke: #66747c; stroke-width: 0.8; stroke-linejoin: miter; stroke-linecap: square"/>
   </g>
   <g id="text_22">
    <!-- 80.5 -->
    <g style="fill: #15242d" transform="translate(622.428646 100.320196) scale(0.085 -0.085)">
     <use xlink:href="#DejaVuSans-38"/>
     <use xlink:href="#DejaVuSans-30" transform="translate(63.623047 0)"/>
     <use xlink:href="#DejaVuSans-2e" transform="translate(127.246094 0)"/>
     <use xlink:href="#DejaVuSans-35" transform="translate(159.033203 0)"/>
    </g>
   </g>
   <g id="text_23">
    <!-- 79.6 -->
    <g style="fill: #15242d" transform="translate(611.552396 131.433832) scale(0.085 -0.085)">
     <defs>
      <path id="DejaVuSans-39" d="M 703 97 
L 703 672 
Q 941 559 1184 500 
Q 1428 441 1663 441 
Q 2288 441 2617 861 
Q 2947 1281 2994 2138 
Q 2813 1869 2534 1725 
Q 2256 1581 1919 1581 
Q 1219 1581 811 2004 
Q 403 2428 403 3163 
Q 403 3881 828 4315 
Q 1253 4750 1959 4750 
Q 2769 4750 3195 4129 
Q 3622 3509 3622 2328 
Q 3622 1225 3098 567 
Q 2575 -91 1691 -91 
Q 1453 -91 1209 -44 
Q 966 3 703 97 
z
M 1959 2075 
Q 2384 2075 2632 2365 
Q 2881 2656 2881 3163 
Q 2881 3666 2632 3958 
Q 2384 4250 1959 4250 
Q 1534 4250 1286 3958 
Q 1038 3666 1038 3163 
Q 1038 2656 1286 2365 
Q 1534 2075 1959 2075 
z
" transform="scale(0.015625)"/>
     </defs>
     <use xlink:href="#DejaVuSans-37"/>
     <use xlink:href="#DejaVuSans-39" transform="translate(63.623047 0)"/>
     <use xlink:href="#DejaVuSans-2e" transform="translate(127.246094 0)"/>
     <use xlink:href="#DejaVuSans-36" transform="translate(159.033203 0)"/>
    </g>
   </g>
   <g id="text_24">
    <!-- 79.5 -->
    <g style="fill: #15242d" transform="translate(610.234062 162.547469) scale(0.085 -0.085)">
     <use xlink:href="#DejaVuSans-37"/>
     <use xlink:href="#DejaVuSans-39" transform="translate(63.623047 0)"/>
     <use xlink:href="#DejaVuSans-2e" transform="translate(127.246094 0)"/>
     <use xlink:href="#DejaVuSans-35" transform="translate(159.033203 0)"/>
    </g>
   </g>
   <g id="text_25">
    <!-- 80.7 -->
    <g style="fill: #15242d" transform="translate(624.076563 193.661105) scale(0.085 -0.085)">
     <use xlink:href="#DejaVuSans-38"/>
     <use xlink:href="#DejaVuSans-30" transform="translate(63.623047 0)"/>
     <use xlink:href="#DejaVuSans-2e" transform="translate(127.246094 0)"/>
     <use xlink:href="#DejaVuSans-37" transform="translate(159.033203 0)"/>
    </g>
   </g>
   <g id="text_26">
    <!-- 73.1 -->
    <g style="fill: #15242d" transform="translate(534.759479 224.774741) scale(0.085 -0.085)">
     <defs>
      <path id="DejaVuSans-31" d="M 794 531 
L 1825 531 
L 1825 4091 
L 703 3866 
L 703 4441 
L 1819 4666 
L 2450 4666 
L 2450 531 
L 3481 531 
L 3481 0 
L 794 0 
L 794 531 
z
" transform="scale(0.015625)"/>
     </defs>
     <use xlink:href="#DejaVuSans-37"/>
     <use xlink:href="#DejaVuSans-33" transform="translate(63.623047 0)"/>
     <use xlink:href="#DejaVuSans-2e" transform="translate(127.246094 0)"/>
     <use xlink:href="#DejaVuSans-31" transform="translate(159.033203 0)"/>
    </g>
   </g>
   <g id="text_27">
    <!-- CNN · n=10 -->
    <g style="fill: #15242d" transform="translate(397.596562 85.752) scale(0.13 -0.13)">
     <defs>
      <path id="DejaVuSans-Bold-43" d="M 4288 256 
Q 3956 84 3597 -3 
Q 3238 -91 2847 -91 
Q 1681 -91 1000 561 
Q 319 1213 319 2328 
Q 319 3447 1000 4098 
Q 1681 4750 2847 4750 
Q 3238 4750 3597 4662 
Q 3956 4575 4288 4403 
L 4288 3438 
Q 3953 3666 3628 3772 
Q 3303 3878 2944 3878 
Q 2300 3878 1931 3465 
Q 1563 3053 1563 2328 
Q 1563 1606 1931 1193 
Q 2300 781 2944 781 
Q 3303 781 3628 887 
Q 3953 994 4288 1222 
L 4288 256 
z
" transform="scale(0.015625)"/>
      <path id="DejaVuSans-Bold-4e" d="M 588 4666 
L 1931 4666 
L 3628 1466 
L 3628 4666 
L 4769 4666 
L 4769 0 
L 3425 0 
L 1728 3200 
L 1728 0 
L 588 0 
L 588 4666 
z
" transform="scale(0.015625)"/>
      <path id="DejaVuSans-Bold-31" d="M 750 831 
L 1813 831 
L 1813 3847 
L 722 3622 
L 722 4441 
L 1806 4666 
L 2950 4666 
L 2950 831 
L 4013 831 
L 4013 0 
L 750 0 
L 750 831 
z
" transform="scale(0.015625)"/>
     </defs>
     <use xlink:href="#DejaVuSans-Bold-43"/>
     <use xlink:href="#DejaVuSans-Bold-4e" transform="translate(73.388672 0)"/>
     <use xlink:href="#DejaVuSans-Bold-4e" transform="translate(157.080078 0)"/>
     <use xlink:href="#DejaVuSans-Bold-20" transform="translate(240.771484 0)"/>
     <use xlink:href="#DejaVuSans-Bold-b7" transform="translate(275.585938 0)"/>
     <use xlink:href="#DejaVuSans-Bold-20" transform="translate(313.574219 0)"/>
     <use xlink:href="#DejaVuSans-Bold-6e" transform="translate(348.388672 0)"/>
     <use xlink:href="#DejaVuSans-Bold-3d" transform="translate(419.580078 0)"/>
     <use xlink:href="#DejaVuSans-Bold-31" transform="translate(503.369141 0)"/>
     <use xlink:href="#DejaVuSans-Bold-30" transform="translate(572.949219 0)"/>
    </g>
   </g>
  </g>
  <g id="text_28">
   <!-- Точность при смешанном сдвиге по архитектурам -->
   <g style="fill: #15242d" transform="translate(42.069562 16.675594) scale(0.126 -0.126)">
    <defs>
     <path id="DejaVuSans-Bold-422" d="M 31 4666 
L 4331 4666 
L 4331 3756 
L 2784 3756 
L 2784 0 
L 1581 0 
L 1581 3756 
L 31 3756 
L 31 4666 
z
" transform="scale(0.015625)"/>
     <path id="DejaVuSans-Bold-43e" d="M 2203 2784 
Q 1831 2784 1636 2517 
Q 1441 2250 1441 1747 
Q 1441 1244 1636 976 
Q 1831 709 2203 709 
Q 2569 709 2762 976 
Q 2956 1244 2956 1747 
Q 2956 2250 2762 2517 
Q 2569 2784 2203 2784 
z
M 2203 3584 
Q 3106 3584 3614 3096 
Q 4122 2609 4122 1747 
Q 4122 884 3614 396 
Q 3106 -91 2203 -91 
Q 1297 -91 786 396 
Q 275 884 275 1747 
Q 275 2609 786 3096 
Q 1297 3584 2203 3584 
z
" transform="scale(0.015625)"/>
     <path id="DejaVuSans-Bold-447" d="M 2550 0 
L 2550 1353 
L 1400 1353 
Q 931 1353 672 1629 
Q 413 1906 413 2450 
L 413 3500 
L 1531 3500 
L 1531 2878 
Q 1531 2322 1622 2183 
Q 1713 2044 1950 2044 
L 2550 2044 
L 2550 3500 
L 3669 3500 
L 3669 0 
L 2550 0 
z
" transform="scale(0.015625)"/>
     <path id="DejaVuSans-Bold-43d" d="M 538 3500 
L 1656 3500 
L 1656 2169 
L 2766 2169 
L 2766 3500 
L 3884 3500 
L 3884 0 
L 2766 0 
L 2766 1478 
L 1656 1478 
L 1656 0 
L 538 0 
L 538 3500 
z
" transform="scale(0.015625)"/>
     <path id="DejaVuSans-Bold-441" d="M 3366 3391 
L 3366 2478 
Q 3138 2634 2908 2709 
Q 2678 2784 2431 2784 
Q 1963 2784 1702 2511 
Q 1441 2238 1441 1747 
Q 1441 1256 1702 982 
Q 1963 709 2431 709 
Q 2694 709 2930 787 
Q 3166 866 3366 1019 
L 3366 103 
Q 3103 6 2833 -42 
Q 2563 -91 2291 -91 
Q 1344 -91 809 395 
Q 275 881 275 1747 
Q 275 2613 809 3098 
Q 1344 3584 2291 3584 
Q 2566 3584 2833 3536 
Q 3100 3488 3366 3391 
z
" transform="scale(0.015625)"/>
     <path id="DejaVuSans-Bold-442" d="M 25 3500 
L 3681 3500 
L 3681 2809 
L 2413 2809 
L 2413 0 
L 1297 0 
L 1297 2809 
L 25 2809 
L 25 3500 
z
" transform="scale(0.015625)"/>
     <path id="DejaVuSans-Bold-44c" d="M 2719 1094 
Q 2719 1291 2594 1388 
Q 2472 1481 2222 1481 
L 1656 1481 
L 1656 700 
L 2222 700 
Q 2469 700 2594 800 
Q 2719 897 2719 1094 
z
M 538 3500 
L 1656 3500 
L 1656 2172 
L 2291 2172 
Q 3000 2172 3381 1913 
Q 3766 1650 3766 1081 
Q 3766 513 3381 256 
Q 3000 0 2291 0 
L 538 0 
L 538 3500 
z
" transform="scale(0.015625)"/>
     <path id="DejaVuSans-Bold-43f" d="M 3884 3500 
L 3884 0 
L 2766 0 
L 2766 2700 
L 1656 2700 
L 1656 0 
L 538 0 
L 538 3500 
L 3884 3500 
z
" transform="scale(0.015625)"/>
     <path id="DejaVuSans-Bold-440" d="M 1656 506 
L 1656 -1331 
L 538 -1331 
L 538 3500 
L 1656 3500 
L 1656 2988 
Q 1888 3294 2169 3439 
Q 2450 3584 2816 3584 
Q 3463 3584 3878 3070 
Q 4294 2556 4294 1747 
Q 4294 938 3878 423 
Q 3463 -91 2816 -91 
Q 2450 -91 2169 54 
Q 1888 200 1656 506 
z
M 2400 2772 
Q 2041 2772 1848 2508 
Q 1656 2244 1656 1747 
Q 1656 1250 1848 986 
Q 2041 722 2400 722 
Q 2759 722 2948 984 
Q 3138 1247 3138 1747 
Q 3138 2247 2948 2509 
Q 2759 2772 2400 2772 
z
" transform="scale(0.015625)"/>
     <path id="DejaVuSans-Bold-438" d="M 3947 3500 
L 3947 0 
L 2828 0 
L 2828 1863 
L 1700 0 
L 538 0 
L 538 3500 
L 1656 3500 
L 1656 1638 
L 2784 3500 
L 3947 3500 
z
" transform="scale(0.015625)"/>
     <path id="DejaVuSans-Bold-43c" d="M 538 3500 
L 1825 3500 
L 2613 1750 
L 3400 3500 
L 4691 3500 
L 4691 0 
L 3575 0 
L 3575 1984 
L 2984 672 
L 2250 672 
L 1656 1984 
L 1656 0 
L 538 0 
L 538 3500 
z
" transform="scale(0.015625)"/>
     <path id="DejaVuSans-Bold-435" d="M 4031 1759 
L 4031 1441 
L 1416 1441 
Q 1456 1047 1700 850 
Q 1944 653 2381 653 
Q 2734 653 3104 758 
Q 3475 863 3866 1075 
L 3866 213 
Q 3469 63 3072 -14 
Q 2675 -91 2278 -91 
Q 1328 -91 801 392 
Q 275 875 275 1747 
Q 275 2603 792 3093 
Q 1309 3584 2216 3584 
Q 3041 3584 3536 3087 
Q 4031 2591 4031 1759 
z
M 2881 2131 
Q 2881 2450 2695 2645 
Q 2509 2841 2209 2841 
Q 1884 2841 1681 2658 
Q 1478 2475 1428 2131 
L 2881 2131 
z
" transform="scale(0.015625)"/>
     <path id="DejaVuSans-Bold-448" d="M 3938 800 
L 5100 800 
L 5100 3500 
L 6219 3500 
L 6219 0 
L 538 0 
L 538 3500 
L 1656 3500 
L 1656 800 
L 2819 800 
L 2819 3500 
L 3938 3500 
L 3938 800 
z
" transform="scale(0.015625)"/>
     <path id="DejaVuSans-Bold-430" d="M 2106 1575 
Q 1756 1575 1579 1456 
Q 1403 1338 1403 1106 
Q 1403 894 1545 773 
Q 1688 653 1941 653 
Q 2256 653 2472 879 
Q 2688 1106 2688 1447 
L 2688 1575 
L 2106 1575 
z
M 3816 1997 
L 3816 0 
L 2688 0 
L 2688 519 
Q 2463 200 2181 54 
Q 1900 -91 1497 -91 
Q 953 -91 614 226 
Q 275 544 275 1050 
Q 275 1666 698 1953 
Q 1122 2241 2028 2241 
L 2688 2241 
L 2688 2328 
Q 2688 2594 2478 2717 
Q 2269 2841 1825 2841 
Q 1466 2841 1156 2769 
Q 847 2697 581 2553 
L 581 3406 
Q 941 3494 1303 3539 
Q 1666 3584 2028 3584 
Q 2975 3584 3395 3211 
Q 3816 2838 3816 1997 
z
" transform="scale(0.015625)"/>
     <path id="DejaVuSans-Bold-434" d="M 547 800 
Q 903 919 1053 1314 
Q 1203 1709 1203 2838 
L 1203 3500 
L 4228 3500 
L 4228 800 
L 4809 800 
L 4809 -884 
L 4009 -884 
L 4009 0 
L 1159 0 
L 1159 -884 
L 359 -884 
L 359 800 
L 547 800 
z
M 3109 2700 
L 2322 2700 
L 2322 2603 
Q 2322 1456 2063 800 
L 3109 800 
L 3109 2700 
z
" transform="scale(0.015625)"/>
     <path id="DejaVuSans-Bold-432" d="M 2184 2181 
Q 2378 2181 2478 2261 
Q 2578 2341 2578 2497 
Q 2578 2653 2478 2731 
Q 2378 2809 2184 2809 
L 1656 2809 
L 1656 2181 
L 2184 2181 
z
M 2222 700 
Q 2469 700 2594 798 
Q 2719 897 2719 1094 
Q 2719 1288 2594 1384 
Q 2469 1481 2222 1481 
L 1656 1481 
L 1656 700 
L 2222 700 
z
M 538 3500 
L 2141 3500 
Q 2919 3500 3267 3279 
Q 3616 3059 3616 2575 
Q 3616 2319 3487 2139 
Q 3359 1959 3119 1872 
Q 3428 1788 3598 1561 
Q 3769 1334 3769 1003 
Q 3769 497 3403 248 
Q 3038 0 2294 0 
L 538 0 
L 538 3500 
z
" transform="scale(0.015625)"/>
     <path id="DejaVuSans-Bold-433" d="M 538 0 
L 538 3500 
L 3191 3500 
L 3191 2809 
L 1656 2809 
L 1656 0 
L 538 0 
z
" transform="scale(0.015625)"/>
     <path id="DejaVuSans-Bold-445" d="M 1422 1791 
L 159 3500 
L 1344 3500 
L 2059 2463 
L 2784 3500 
L 3969 3500 
L 2706 1797 
L 4031 0 
L 2847 0 
L 2059 1106 
L 1281 0 
L 97 0 
L 1422 1791 
z
" transform="scale(0.015625)"/>
     <path id="DejaVuSans-Bold-43a" d="M 538 3500 
L 1656 3500 
L 1656 2316 
L 2903 3500 
L 4128 3500 
L 2634 2078 
L 4250 0 
L 3094 0 
L 1972 1447 
L 1656 1147 
L 1656 0 
L 538 0 
L 538 3500 
z
" transform="scale(0.015625)"/>
     <path id="DejaVuSans-Bold-443" d="M 78 3500 
L 1197 3500 
L 2138 1125 
L 2938 3500 
L 4056 3500 
L 2584 -331 
Q 2363 -916 2067 -1148 
Q 1772 -1381 1288 -1381 
L 641 -1381 
L 641 -647 
L 991 -647 
Q 1275 -647 1404 -556 
Q 1534 -466 1606 -231 
L 1638 -134 
L 78 3500 
z
" transform="scale(0.015625)"/>
    </defs>
    <use xlink:href="#DejaVuSans-Bold-422"/>
    <use xlink:href="#DejaVuSans-Bold-43e" transform="translate(68.212891 0)"/>
    <use xlink:href="#DejaVuSans-Bold-447" transform="translate(136.914062 0)"/>
    <use xlink:href="#DejaVuSans-Bold-43d" transform="translate(205.566406 0)"/>
    <use xlink:href="#DejaVuSans-Bold-43e" transform="translate(274.658203 0)"/>
    <use xlink:href="#DejaVuSans-Bold-441" transform="translate(343.359375 0)"/>
    <use xlink:href="#DejaVuSans-Bold-442" transform="translate(402.636719 0)"/>
    <use xlink:href="#DejaVuSans-Bold-44c" transform="translate(460.595703 0)"/>
    <use xlink:href="#DejaVuSans-Bold-20" transform="translate(523.828125 0)"/>
    <use xlink:href="#DejaVuSans-Bold-43f" transform="translate(558.642578 0)"/>
    <use xlink:href="#DejaVuSans-Bold-440" transform="translate(627.734375 0)"/>
    <use xlink:href="#DejaVuSans-Bold-438" transform="translate(699.316406 0)"/>
    <use xlink:href="#DejaVuSans-Bold-20" transform="translate(769.384766 0)"/>
    <use xlink:href="#DejaVuSans-Bold-441" transform="translate(804.199219 0)"/>
    <use xlink:href="#DejaVuSans-Bold-43c" transform="translate(863.476562 0)"/>
    <use xlink:href="#DejaVuSans-Bold-435" transform="translate(945.214844 0)"/>
    <use xlink:href="#DejaVuSans-Bold-448" transform="translate(1013.037109 0)"/>
    <use xlink:href="#DejaVuSans-Bold-430" transform="translate(1119.238281 0)"/>
    <use xlink:href="#DejaVuSans-Bold-43d" transform="translate(1186.71875 0)"/>
    <use xlink:href="#DejaVuSans-Bold-43d" transform="translate(1255.810547 0)"/>
    <use xlink:href="#DejaVuSans-Bold-43e" transform="translate(1324.902344 0)"/>
    <use xlink:href="#DejaVuSans-Bold-43c" transform="translate(1393.603516 0)"/>
    <use xlink:href="#DejaVuSans-Bold-20" transform="translate(1475.341797 0)"/>
    <use xlink:href="#DejaVuSans-Bold-441" transform="translate(1510.15625 0)"/>
    <use xlink:href="#DejaVuSans-Bold-434" transform="translate(1569.433594 0)"/>
    <use xlink:href="#DejaVuSans-Bold-432" transform="translate(1650.195312 0)"/>
    <use xlink:href="#DejaVuSans-Bold-438" transform="translate(1713.476562 0)"/>
    <use xlink:href="#DejaVuSans-Bold-433" transform="translate(1783.544922 0)"/>
    <use xlink:href="#DejaVuSans-Bold-435" transform="translate(1835.791016 0)"/>
    <use xlink:href="#DejaVuSans-Bold-20" transform="translate(1903.613281 0)"/>
    <use xlink:href="#DejaVuSans-Bold-43f" transform="translate(1938.427734 0)"/>
    <use xlink:href="#DejaVuSans-Bold-43e" transform="translate(2007.519531 0)"/>
    <use xlink:href="#DejaVuSans-Bold-20" transform="translate(2076.220703 0)"/>
    <use xlink:href="#DejaVuSans-Bold-430" transform="translate(2111.035156 0)"/>
    <use xlink:href="#DejaVuSans-Bold-440" transform="translate(2178.515625 0)"/>
    <use xlink:href="#DejaVuSans-Bold-445" transform="translate(2250.097656 0)"/>
    <use xlink:href="#DejaVuSans-Bold-438" transform="translate(2314.599609 0)"/>
    <use xlink:href="#DejaVuSans-Bold-442" transform="translate(2384.667969 0)"/>
    <use xlink:href="#DejaVuSans-Bold-435" transform="translate(2442.626953 0)"/>
    <use xlink:href="#DejaVuSans-Bold-43a" transform="translate(2510.449219 0)"/>
    <use xlink:href="#DejaVuSans-Bold-442" transform="translate(2578.320312 0)"/>
    <use xlink:href="#DejaVuSans-Bold-443" transform="translate(2636.279297 0)"/>
    <use xlink:href="#DejaVuSans-Bold-440" transform="translate(2701.464844 0)"/>
    <use xlink:href="#DejaVuSans-Bold-430" transform="translate(2773.046875 0)"/>
    <use xlink:href="#DejaVuSans-Bold-43c" transform="translate(2840.527344 0)"/>
   </g>
  </g>
  <g id="text_29">
   <!-- Среднее и 95%-й ДИ по удержанным сидам адаптации -->
   <g style="fill: #66747c" transform="translate(42.069562 29.088) scale(0.095 -0.095)">
    <defs>
     <path id="DejaVuSans-421" d="M 4122 4306 
L 4122 3641 
Q 3803 3938 3442 4084 
Q 3081 4231 2675 4231 
Q 1875 4231 1450 3742 
Q 1025 3253 1025 2328 
Q 1025 1406 1450 917 
Q 1875 428 2675 428 
Q 3081 428 3442 575 
Q 3803 722 4122 1019 
L 4122 359 
Q 3791 134 3420 21 
Q 3050 -91 2638 -91 
Q 1578 -91 968 557 
Q 359 1206 359 2328 
Q 359 3453 968 4101 
Q 1578 4750 2638 4750 
Q 3056 4750 3426 4639 
Q 3797 4528 4122 4306 
z
" transform="scale(0.015625)"/>
     <path id="DejaVuSans-2d" d="M 313 2009 
L 1997 2009 
L 1997 1497 
L 313 1497 
L 313 2009 
z
" transform="scale(0.015625)"/>
     <path id="DejaVuSans-439" d="M 3578 3500 
L 3578 0 
L 3006 0 
L 3006 2809 
L 1319 0 
L 581 0 
L 581 3500 
L 1153 3500 
L 1153 697 
L 2838 3500 
L 3578 3500 
z
M 1102 4833 
L 1471 4833 
Q 1505 4599 1656 4481 
Q 1808 4364 2080 4364 
Q 2349 4364 2499 4480 
Q 2649 4596 2689 4833 
L 3058 4833 
Q 3027 4386 2780 4161 
Q 2533 3936 2080 3936 
Q 1627 3936 1380 4161 
Q 1133 4386 1102 4833 
z
" transform="scale(0.015625)"/>
     <path id="DejaVuSans-414" d="M 1459 531 
L 3522 531 
L 3522 4134 
L 2006 4134 
L 2006 3472 
Q 2006 1913 1656 878 
Q 1584 666 1459 531 
z
M 538 531 
Q 956 728 1075 1103 
Q 1378 2066 1378 3784 
L 1378 4666 
L 4153 4666 
L 4153 531 
L 4684 531 
L 4684 -1003 
L 4153 -1003 
L 4153 0 
L 847 0 
L 847 -1003 
L 316 -1003 
L 316 531 
L 538 531 
z
" transform="scale(0.015625)"/>
     <path id="DejaVuSans-418" d="M 4159 4666 
L 4159 0 
L 3547 0 
L 3547 3903 
L 1478 0 
L 628 0 
L 628 4666 
L 1241 4666 
L 1241 763 
L 3309 4666 
L 4159 4666 
z
" transform="scale(0.015625)"/>
     <path id="DejaVuSans-436" d="M 2597 3500 
L 3169 3500 
L 3169 1856 
L 4697 3500 
L 5366 3500 
L 4109 2153 
L 5547 0 
L 4931 0 
L 3753 1769 
L 3169 1141 
L 3169 0 
L 2597 0 
L 2597 1141 
L 2013 1769 
L 834 0 
L 219 0 
L 1656 2153 
L 400 3500 
L 1069 3500 
L 2597 1856 
L 2597 3500 
z
" transform="scale(0.015625)"/>
     <path id="DejaVuSans-44b" d="M 3907 3500 
L 4482 3500 
L 4482 0 
L 3907 0 
L 3907 3500 
z
M 4195 3584 
L 4195 3584 
z
M 2781 1038 
Q 2781 1319 2576 1466 
Q 2372 1613 1978 1613 
L 1159 1613 
L 1159 459 
L 1978 459 
Q 2372 459 2576 607 
Q 2781 756 2781 1038 
z
M 581 3500 
L 1159 3500 
L 1159 2072 
L 2003 2072 
Q 2672 2072 3033 1817 
Q 3394 1563 3394 1038 
Q 3394 513 3033 256 
Q 2672 0 2003 0 
L 581 0 
L 581 3500 
z
" transform="scale(0.015625)"/>
     <path id="DejaVuSans-446" d="M 3603 0 
L 581 0 
L 581 3500 
L 1159 3500 
L 1159 459 
L 3025 459 
L 3025 3500 
L 3603 3500 
L 3603 459 
L 4063 459 
L 4063 -884 
L 3603 -884 
L 3603 0 
z
" transform="scale(0.015625)"/>
    </defs>
    <use xlink:href="#DejaVuSans-421"/>
    <use xlink:href="#DejaVuSans-440" transform="translate(69.824219 0)"/>
    <use xlink:href="#DejaVuSans-435" transform="translate(133.300781 0)"/>
    <use xlink:href="#DejaVuSans-434" transform="translate(194.824219 0)"/>
    <use xlink:href="#DejaVuSans-43d" transform="translate(263.964844 0)"/>
    <use xlink:href="#DejaVuSans-435" transform="translate(329.345703 0)"/>
    <use xlink:href="#DejaVuSans-435" transform="translate(390.869141 0)"/>
    <use xlink:href="#DejaVuSans-20" transform="translate(452.392578 0)"/>
    <use xlink:href="#DejaVuSans-438" transform="translate(484.179688 0)"/>
    <use xlink:href="#DejaVuSans-20" transform="translate(549.169922 0)"/>
    <use xlink:href="#DejaVuSans-39" transform="translate(580.957031 0)"/>
    <use xlink:href="#DejaVuSans-35" transform="translate(644.580078 0)"/>
    <use xlink:href="#DejaVuSans-25" transform="translate(708.203125 0)"/>
    <use xlink:href="#DejaVuSans-2d" transform="translate(803.222656 0)"/>
    <use xlink:href="#DejaVuSans-439" transform="translate(839.306641 0)"/>
    <use xlink:href="#DejaVuSans-20" transform="translate(904.296875 0)"/>
    <use xlink:href="#DejaVuSans-414" transform="translate(936.083984 0)"/>
    <use xlink:href="#DejaVuSans-418" transform="translate(1014.208984 0)"/>
    <use xlink:href="#DejaVuSans-20" transform="translate(1089.013672 0)"/>
    <use xlink:href="#DejaVuSans-43f" transform="translate(1120.800781 0)"/>
    <use xlink:href="#DejaVuSans-43e" transform="translate(1186.181641 0)"/>
    <use xlink:href="#DejaVuSans-20" transform="translate(1247.363281 0)"/>
    <use xlink:href="#DejaVuSans-443" transform="translate(1279.150391 0)"/>
    <use xlink:href="#DejaVuSans-434" transform="translate(1338.330078 0)"/>
    <use xlink:href="#DejaVuSans-435" transform="translate(1407.470703 0)"/>
    <use xlink:href="#DejaVuSans-440" transform="translate(1468.994141 0)"/>
    <use xlink:href="#DejaVuSans-436" transform="translate(1532.470703 0)"/>
    <use xlink:href="#DejaVuSans-430" transform="translate(1622.558594 0)"/>
    <use xlink:href="#DejaVuSans-43d" transform="translate(1683.837891 0)"/>
    <use xlink:href="#DejaVuSans-43d" transform="translate(1749.21875 0)"/>
    <use xlink:href="#DejaVuSans-44b" transform="translate(1814.599609 0)"/>
    <use xlink:href="#DejaVuSans-43c" transform="translate(1893.554688 0)"/>
    <use xlink:href="#DejaVuSans-20" transform="translate(1968.994141 0)"/>
    <use xlink:href="#DejaVuSans-441" transform="translate(2000.78125 0)"/>
    <use xlink:href="#DejaVuSans-438" transform="translate(2055.761719 0)"/>
    <use xlink:href="#DejaVuSans-434" transform="translate(2120.751953 0)"/>
    <use xlink:href="#DejaVuSans-430" transform="translate(2189.892578 0)"/>
    <use xlink:href="#DejaVuSans-43c" transform="translate(2251.171875 0)"/>
    <use xlink:href="#DejaVuSans-20" transform="translate(2326.611328 0)"/>
    <use xlink:href="#DejaVuSans-430" transform="translate(2358.398438 0)"/>
    <use xlink:href="#DejaVuSans-434" transform="translate(2419.677734 0)"/>
    <use xlink:href="#DejaVuSans-430" transform="translate(2488.818359 0)"/>
    <use xlink:href="#DejaVuSans-43f" transform="translate(2550.097656 0)"/>
    <use xlink:href="#DejaVuSans-442" transform="translate(2615.478516 0)"/>
    <use xlink:href="#DejaVuSans-430" transform="translate(2673.730469 0)"/>
    <use xlink:href="#DejaVuSans-446" transform="translate(2735.009766 0)"/>
    <use xlink:href="#DejaVuSans-438" transform="translate(2803.076172 0)"/>
    <use xlink:href="#DejaVuSans-438" transform="translate(2868.066406 0)"/>
   </g>
  </g>
 </g>
 <defs>
  <clipPath id="p12ea572c5f">
   <rect x="123.931562" y="91.752" width="249.165" height="136.9"/>
  </clipPath>
  <clipPath id="p97fbad1de6">
   <rect x="397.596562" y="91.752" width="249.165" height="136.9"/>
  </clipPath>
 </defs>
</svg>
