<?xml version="1.0" encoding="utf-8" standalone="no"?>
<!DOCTYPE svg PUBLIC "-//W3C//DTD SVG 1.1//EN"
  "http://www.w3.org/Graphics/SVG/1.1/DTD/svg11.dtd">
<svg xmlns:xlink="http://www.w3.org/1999/xlink" width="823.748359pt" height="249.100391pt" viewBox="0 0 823.748359 249.100391" xmlns="http://www.w3.org/2000/svg" version="1.1">
 <metadata>
  <rdf:RDF xmlns:dc="http://purl.org/dc/elements/1.1/" xmlns:cc="http://creativecommons.org/ns#" xmlns:rdf="http://www.w3.org/1999/02/22-rdf-syntax-ns#">
   <cc:Work>
    <dc:type rdf:resource="http://purl.org/dc/dcmitype/StillImage"/>
    <dc:date>2026-07-21T04:09:20.629355</dc:date>
    <dc:format>image/svg+xml</dc:format>
    <dc:creator>
     <cc:Agent>
      <dc:title>Matplotlib v3.10.8, https://matplotlib.org/</dc:title>
     </cc:Agent>
    </dc:creator>
   </cc:Work>
  </rdf:RDF>
 </metadata>
 <defs>
  <style type="text/css">*{stroke-linejoin: round; stroke-linecap: butt}</style>
 </defs>
 <g id="figure_1">
  <g id="patch_1">
   <path d="M 0 249.100391
L 823.748359 249.100391
L 823.748359 0
L 0 0
z
" style="fill: #ffffff"/>
  </g>
  <g id="axes_1">
   <g id="patch_2">
    <path d="M 316.578672 210.3975
L 443.498672 210.3975
L 443.498672 45.5025
L 316.578672 45.5025
z
" style="fill: #ffffff"/>
   </g>
   <g id="matplotlib.axis_1">
    <g id="xtick_1">
     <g id="line2d_1">
      <path d="M 316.578672 210.3975
L 316.578672 45.5025
" clip-path="url(#pf956df200d)" style="fill: none; stroke: #dde5e7; stroke-width: 0.8; stroke-linecap: square"/>
     </g>
     <g id="line2d_2">
      <defs>
       <path id="mc45fc3b868" d="M 0 0
L 0 3.5
" style="stroke: #66747c; stroke-width: 0.8"/>
      </defs>
      <g>
       <use xlink:href="#mc45fc3b868" x="316.578672" y="210.3975" style="fill: #66747c; stroke: #66747c; stroke-width: 0.8"/>
      </g>
     </g>
     <g id="text_1">
      <!-- −1 -->
      <g style="fill: #66747c" transform="translate(308.839023 225.375859) scale(0.105 -0.105)">
       <defs>
        <path id="DejaVuSans-2212" d="M 678 2272
L 4684 2272
L 4684 1741
L 678 1741
L 678 2272
z
" transform="scale(0.015625)"/>
        <path id="DejaVuSans-31" d="M 794 531
L 1825 531
L 1825 4091
L 703 3866
L 703 4441
L 1819 4666
L 2450 4666
L 2450 531
L 3481 531
L 3481 0
L 794 0
L 794 531
z
" transform="scale(0.015625)"/>
       </defs>
       <use xlink:href="#DejaVuSans-2212"/>
       <use xlink:href="#DejaVuSans-31" transform="translate(83.789062 0)"/>
      </g>
     </g>
    </g>
    <g id="xtick_2">
     <g id="line2d_3">
      <path d="M 348.308672 210.3975
L 348.308672 45.5025
" clip-path="url(#pf956df200d)" style="fill: none; stroke: #dde5e7; stroke-width: 0.8; stroke-linecap: square"/>
     </g>
     <g id="line2d_4">
      <g>
       <use xlink:href="#mc45fc3b868" x="348.308672" y="210.3975" style="fill: #66747c; stroke: #66747c; stroke-width: 0.8"/>
      </g>
     </g>
     <g id="text_2">
      <!-- 0 -->
      <g style="fill: #66747c" transform="translate(344.968359 225.375859) scale(0.105 -0.105)">
       <defs>
        <path id="DejaVuSans-30" d="M 2034 4250
Q 1547 4250 1301 3770
Q 1056 3291 1056 2328
Q 1056 1369 1301 889
Q 1547 409 2034 409
Q 2525 409 2770 889
Q 3016 1369 3016 2328
Q 3016 3291 2770 3770
Q 2525 4250 2034 4250
z
M 2034 4750
Q 2819 4750 3233 4129
Q 3647 3509 3647 2328
Q 3647 1150 3233 529
Q 2819 -91 2034 -91
Q 1250 -91 836 529
Q 422 1150 422 2328
Q 422 3509 836 4129
Q 1250 4750 2034 4750
z
" transform="scale(0.015625)"/>
       </defs>
       <use xlink:href="#DejaVuSans-30"/>
      </g>
     </g>
    </g>
    <g id="xtick_3">
     <g id="line2d_5">
      <path d="M 380.038672 210.3975
L 380.038672 45.5025
" clip-path="url(#pf956df200d)" style="fill: none; stroke: #dde5e7; stroke-width: 0.8; stroke-linecap: square"/>
     </g>
     <g id="line2d_6">
      <g>
       <use xlink:href="#mc45fc3b868" x="380.038672" y="210.3975" style="fill: #66747c; stroke: #66747c; stroke-width: 0.8"/>
      </g>
     </g>
     <g id="text_3">
      <!-- 1 -->
      <g style="fill: #66747c" transform="translate(376.698359 225.375859) scale(0.105 -0.105)">
       <use xlink:href="#DejaVuSans-31"/>
      </g>
     </g>
    </g>
    <g id="xtick_4">
     <g id="line2d_7">
      <path d="M 411.768672 210.3975
L 411.768672 45.5025
" clip-path="url(#pf956df200d)" style="fill: none; stroke: #dde5e7; stroke-width: 0.8; stroke-linecap: square"/>
     </g>
     <g id="line2d_8">
      <g>
       <use xlink:href="#mc45fc3b868" x="411.768672" y="210.3975" style="fill: #66747c; stroke: #66747c; stroke-width: 0.8"/>
      </g>
     </g>
     <g id="text_4">
      <!-- 2 -->
      <g style="fill: #66747c" transform="translate(408.428359 225.375859) scale(0.105 -0.105)">
       <defs>
        <path id="DejaVuSans-32" d="M 1228 531
L 3431 531
L 3431 0
L 469 0
L 469 531
Q 828 903 1448 1529
Q 2069 2156 2228 2338
Q 2531 2678 2651 2914
Q 2772 3150 2772 3378
Q 2772 3750 2511 3984
Q 2250 4219 1831 4219
Q 1534 4219 1204 4116
Q 875 4013 500 3803
L 500 4441
Q 881 4594 1212 4672
Q 1544 4750 1819 4750
Q 2544 4750 2975 4387
Q 3406 4025 3406 3419
Q 3406 3131 3298 2873
Q 3191 2616 2906 2266
Q 2828 2175 2409 1742
Q 1991 1309 1228 531
z
" transform="scale(0.015625)"/>
       </defs>
       <use xlink:href="#DejaVuSans-32"/>
      </g>
     </g>
    </g>
    <g id="xtick_5">
     <g id="line2d_9">
      <path d="M 443.498672 210.3975
L 443.498672 45.5025
" clip-path="url(#pf956df200d)" style="fill: none; stroke: #dde5e7; stroke-width: 0.8; stroke-linecap: square"/>
     </g>
     <g id="line2d_10">
      <g>
       <use xlink:href="#mc45fc3b868" x="443.498672" y="210.3975" style="fill: #66747c; stroke: #66747c; stroke-width: 0.8"/>
      </g>
     </g>
     <g id="text_5">
      <!-- 3 -->
      <g style="fill: #66747c" transform="translate(440.158359 225.375859) scale(0.105 -0.105)">
       <defs>
        <path id="DejaVuSans-33" d="M 2597 2516
Q 3050 2419 3304 2112
Q 3559 1806 3559 1356
Q 3559 666 3084 287
Q 2609 -91 1734 -91
Q 1441 -91 1130 -33
Q 819 25 488 141
L 488 750
Q 750 597 1062 519
Q 1375 441 1716 441
Q 2309 441 2620 675
Q 2931 909 2931 1356
Q 2931 1769 2642 2001
Q 2353 2234 1838 2234
L 1294 2234
L 1294 2753
L 1863 2753
Q 2328 2753 2575 2939
Q 2822 3125 2822 3475
Q 2822 3834 2567 4026
Q 2313 4219 1838 4219
Q 1578 4219 1281 4162
Q 984 4106 628 3988
L 628 4550
Q 988 4650 1302 4700
Q 1616 4750 1894 4750
Q 2613 4750 3031 4423
Q 3450 4097 3450 3541
Q 3450 3153 3228 2886
Q 3006 2619 2597 2516
z
" transform="scale(0.015625)"/>
       </defs>
       <use xlink:href="#DejaVuSans-33"/>
      </g>
     </g>
    </g>
    <g id="text_6">
     <!-- Разность точности DoRA r=4 (2 034 параметра) и базового варианта, п.п. -->
     <g style="fill: #15242d" transform="translate(175.484727 239.716719) scale(0.105 -0.105)">
      <defs>
       <path id="DejaVuSans-420" d="M 1259 4147
L 1259 2394
L 2053 2394
Q 2494 2394 2734 2622
Q 2975 2850 2975 3272
Q 2975 3691 2734 3919
Q 2494 4147 2053 4147
L 1259 4147
z
M 628 4666
L 2053 4666
Q 2838 4666 3239 4311
Q 3641 3956 3641 3272
Q 3641 2581 3239 2228
Q 2838 1875 2053 1875
L 1259 1875
L 1259 0
L 628 0
L 628 4666
z
" transform="scale(0.015625)"/>
       <path id="DejaVuSans-430" d="M 2194 1759
Q 1497 1759 1228 1600
Q 959 1441 959 1056
Q 959 750 1161 570
Q 1363 391 1709 391
Q 2188 391 2477 730
Q 2766 1069 2766 1631
L 2766 1759
L 2194 1759
z
M 3341 1997
L 3341 0
L 2766 0
L 2766 531
Q 2569 213 2275 61
Q 1981 -91 1556 -91
Q 1019 -91 701 211
Q 384 513 384 1019
Q 384 1609 779 1909
Q 1175 2209 1959 2209
L 2766 2209
L 2766 2266
Q 2766 2663 2505 2880
Q 2244 3097 1772 3097
Q 1472 3097 1187 3025
Q 903 2953 641 2809
L 641 3341
Q 956 3463 1253 3523
Q 1550 3584 1831 3584
Q 2591 3584 2966 3190
Q 3341 2797 3341 1997
z
" transform="scale(0.015625)"/>
       <path id="DejaVuSans-437" d="M 2206 1888
Q 2594 1813 2809 1584
Q 3025 1356 3025 1019
Q 3025 478 2622 193
Q 2219 -91 1475 -91
Q 1225 -91 961 -47
Q 697 -3 416 84
L 416 619
Q 638 503 903 445
Q 1169 388 1459 388
Q 1931 388 2195 563
Q 2459 738 2459 1019
Q 2459 1294 2225 1461
Q 1991 1628 1563 1628
L 1100 1628
L 1100 2103
L 1584 2103
Q 1947 2103 2158 2242
Q 2369 2381 2369 2600
Q 2369 2800 2151 2944
Q 1934 3088 1563 3088
Q 1341 3088 1089 3047
Q 838 3006 534 2916
L 534 3438
Q 841 3513 1106 3550
Q 1372 3588 1609 3588
Q 2222 3588 2576 3342
Q 2931 3097 2931 2656
Q 2931 2366 2743 2164
Q 2556 1963 2206 1888
z
" transform="scale(0.015625)"/>
       <path id="DejaVuSans-43d" d="M 581 3500
L 1159 3500
L 1159 2072
L 3025 2072
L 3025 3500
L 3603 3500
L 3603 0
L 3025 0
L 3025 1613
L 1159 1613
L 1159 0
L 581 0
L 581 3500
z
" transform="scale(0.015625)"/>
       <path id="DejaVuSans-43e" d="M 1959 3097
Q 1497 3097 1228 2736
Q 959 2375 959 1747
Q 959 1119 1226 758
Q 1494 397 1959 397
Q 2419 397 2687 759
Q 2956 1122 2956 1747
Q 2956 2369 2687 2733
Q 2419 3097 1959 3097
z
M 1959 3584
Q 2709 3584 3137 3096
Q 3566 2609 3566 1747
Q 3566 888 3137 398
Q 2709 -91 1959 -91
Q 1206 -91 779 398
Q 353 888 353 1747
Q 353 2609 779 3096
Q 1206 3584 1959 3584
z
" transform="scale(0.015625)"/>
       <path id="DejaVuSans-441" d="M 3122 3366
L 3122 2828
Q 2878 2963 2633 3030
Q 2388 3097 2138 3097
Q 1578 3097 1268 2742
Q 959 2388 959 1747
Q 959 1106 1268 751
Q 1578 397 2138 397
Q 2388 397 2633 464
Q 2878 531 3122 666
L 3122 134
Q 2881 22 2623 -34
Q 2366 -91 2075 -91
Q 1284 -91 818 406
Q 353 903 353 1747
Q 353 2603 823 3093
Q 1294 3584 2113 3584
Q 2378 3584 2631 3529
Q 2884 3475 3122 3366
z
" transform="scale(0.015625)"/>
       <path id="DejaVuSans-442" d="M 188 3500
L 3541 3500
L 3541 3041
L 2147 3041
L 2147 0
L 1581 0
L 1581 3041
L 188 3041
L 188 3500
z
" transform="scale(0.015625)"/>
       <path id="DejaVuSans-44c" d="M 2781 1038
Q 2781 1319 2576 1466
Q 2372 1613 1978 1613
L 1159 1613
L 1159 459
L 1978 459
Q 2372 459 2576 607
Q 2781 756 2781 1038
z
M 581 3500
L 1159 3500
L 1159 2072
L 2003 2072
Q 2672 2072 3033 1817
Q 3394 1563 3394 1038
Q 3394 513 3033 256
Q 2672 0 2003 0
L 581 0
L 581 3500
z
" transform="scale(0.015625)"/>
       <path id="DejaVuSans-20" transform="scale(0.015625)"/>
       <path id="DejaVuSans-447" d="M 2625 0
L 2625 1472
L 1553 1472
Q 1075 1472 756 1769
Q 469 2038 469 2613
L 469 3500
L 1044 3500
L 1044 2666
Q 1044 2300 1206 2116
Q 1372 1931 1697 1931
L 2625 1931
L 2625 3500
L 3200 3500
L 3200 0
L 2625 0
z
" transform="scale(0.015625)"/>
       <path id="DejaVuSans-438" d="M 3578 3500
L 3578 0
L 3006 0
L 3006 2809
L 1319 0
L 581 0
L 581 3500
L 1153 3500
L 1153 697
L 2838 3500
L 3578 3500
z
" transform="scale(0.015625)"/>
       <path id="DejaVuSans-44" d="M 1259 4147
L 1259 519
L 2022 519
Q 2988 519 3436 956
Q 3884 1394 3884 2338
Q 3884 3275 3436 3711
Q 2988 4147 2022 4147
L 1259 4147
z
M 628 4666
L 1925 4666
Q 3281 4666 3915 4102
Q 4550 3538 4550 2338
Q 4550 1131 3912 565
Q 3275 0 1925 0
L 628 0
L 628 4666
z
" transform="scale(0.015625)"/>
       <path id="DejaVuSans-6f" d="M 1959 3097
Q 1497 3097 1228 2736
Q 959 2375 959 1747
Q 959 1119 1226 758
Q 1494 397 1959 397
Q 2419 397 2687 759
Q 2956 1122 2956 1747
Q 2956 2369 2687 2733
Q 2419 3097 1959 3097
z
M 1959 3584
Q 2709 3584 3137 3096
Q 3566 2609 3566 1747
Q 3566 888 3137 398
Q 2709 -91 1959 -91
Q 1206 -91 779 398
Q 353 888 353 1747
Q 353 2609 779 3096
Q 1206 3584 1959 3584
z
" transform="scale(0.015625)"/>
       <path id="DejaVuSans-52" d="M 2841 2188
Q 3044 2119 3236 1894
Q 3428 1669 3622 1275
L 4263 0
L 3584 0
L 2988 1197
Q 2756 1666 2539 1819
Q 2322 1972 1947 1972
L 1259 1972
L 1259 0
L 628 0
L 628 4666
L 2053 4666
Q 2853 4666 3247 4331
Q 3641 3997 3641 3322
Q 3641 2881 3436 2590
Q 3231 2300 2841 2188
z
M 1259 4147
L 1259 2491
L 2053 2491
Q 2509 2491 2742 2702
Q 2975 2913 2975 3322
Q 2975 3731 2742 3939
Q 2509 4147 2053 4147
L 1259 4147
z
" transform="scale(0.015625)"/>
       <path id="DejaVuSans-41" d="M 2188 4044
L 1331 1722
L 3047 1722
L 2188 4044
z
M 1831 4666
L 2547 4666
L 4325 0
L 3669 0
L 3244 1197
L 1141 1197
L 716 0
L 50 0
L 1831 4666
z
" transform="scale(0.015625)"/>
       <path id="DejaVuSans-72" d="M 2631 2963
Q 2534 3019 2420 3045
Q 2306 3072 2169 3072
Q 1681 3072 1420 2755
Q 1159 2438 1159 1844
L 1159 0
L 581 0
L 581 3500
L 1159 3500
L 1159 2956
Q 1341 3275 1631 3429
Q 1922 3584 2338 3584
Q 2397 3584 2469 3576
Q 2541 3569 2628 3553
L 2631 2963
z
" transform="scale(0.015625)"/>
       <path id="DejaVuSans-3d" d="M 678 2906
L 4684 2906
L 4684 2381
L 678 2381
L 678 2906
z
M 678 1631
L 4684 1631
L 4684 1100
L 678 1100
L 678 1631
z
" transform="scale(0.015625)"/>
       <path id="DejaVuSans-34" d="M 2419 4116
L 825 1625
L 2419 1625
L 2419 4116
z
M 2253 4666
L 3047 4666
L 3047 1625
L 3713 1625
L 3713 1100
L 3047 1100
L 3047 0
L 2419 0
L 2419 1100
L 313 1100
L 313 1709
L 2253 4666
z
" transform="scale(0.015625)"/>
       <path id="DejaVuSans-28" d="M 1984 4856
Q 1566 4138 1362 3434
Q 1159 2731 1159 2009
Q 1159 1288 1364 580
Q 1569 -128 1984 -844
L 1484 -844
Q 1016 -109 783 600
Q 550 1309 550 2009
Q 550 2706 781 3412
Q 1013 4119 1484 4856
L 1984 4856
z
" transform="scale(0.015625)"/>
       <path id="DejaVuSans-43f" d="M 3603 3500
L 3603 0
L 3025 0
L 3025 3041
L 1159 3041
L 1159 0
L 581 0
L 581 3500
L 3603 3500
z
" transform="scale(0.015625)"/>
       <path id="DejaVuSans-440" d="M 1159 525
L 1159 -1331
L 581 -1331
L 581 3500
L 1159 3500
L 1159 2969
Q 1341 3281 1617 3432
Q 1894 3584 2278 3584
Q 2916 3584 3314 3078
Q 3713 2572 3713 1747
Q 3713 922 3314 415
Q 2916 -91 2278 -91
Q 1894 -91 1617 61
Q 1341 213 1159 525
z
M 3116 1747
Q 3116 2381 2855 2742
Q 2594 3103 2138 3103
Q 1681 3103 1420 2742
Q 1159 2381 1159 1747
Q 1159 1113 1420 752
Q 1681 391 2138 391
Q 2594 391 2855 752
Q 3116 1113 3116 1747
z
" transform="scale(0.015625)"/>
       <path id="DejaVuSans-43c" d="M 581 3500
L 1422 3500
L 2416 1156
L 3413 3500
L 4247 3500
L 4247 0
L 3669 0
L 3669 2950
L 2703 672
L 2128 672
L 1159 2950
L 1159 0
L 581 0
L 581 3500
z
" transform="scale(0.015625)"/>
       <path id="DejaVuSans-435" d="M 3597 1894
L 3597 1613
L 953 1613
Q 991 1019 1311 708
Q 1631 397 2203 397
Q 2534 397 2845 478
Q 3156 559 3463 722
L 3463 178
Q 3153 47 2828 -22
Q 2503 -91 2169 -91
Q 1331 -91 842 396
Q 353 884 353 1716
Q 353 2575 817 3079
Q 1281 3584 2069 3584
Q 2775 3584 3186 3129
Q 3597 2675 3597 1894
z
M 3022 2063
Q 3016 2534 2758 2815
Q 2500 3097 2075 3097
Q 1594 3097 1305 2825
Q 1016 2553 972 2059
L 3022 2063
z
" transform="scale(0.015625)"/>
       <path id="DejaVuSans-29" d="M 513 4856
L 1013 4856
Q 1481 4119 1714 3412
Q 1947 2706 1947 2009
Q 1947 1309 1714 600
Q 1481 -109 1013 -844
L 513 -844
Q 928 -128 1133 580
Q 1338 1288 1338 2009
Q 1338 2731 1133 3434
Q 928 4138 513 4856
z
" transform="scale(0.015625)"/>
       <path id="DejaVuSans-431" d="M 1991 3584
Q 2741 3584 3169 3096
Q 3597 2609 3597 1747
Q 3597 888 3169 398
Q 2741 -91 1991 -91
Q 1238 -91 822 384
Q 406 859 384 1747
L 366 2463
Q 350 2834 350 2963
Q 350 3463 531 3831
Q 816 4409 1308 4659
Q 1800 4909 2625 4916
Q 3006 4919 3175 4972
L 3334 4516
Q 3181 4453 3041 4450
L 2259 4397
Q 1866 4369 1628 4231
Q 1006 3866 947 3388
L 925 3213
Q 1331 3584 1991 3584
z
M 1991 3097
Q 1528 3097 1259 2736
Q 991 2375 991 1747
Q 991 1119 1258 758
Q 1525 397 1991 397
Q 2450 397 2719 759
Q 2988 1122 2988 1747
Q 2988 2369 2719 2733
Q 2450 3097 1991 3097
z
" transform="scale(0.015625)"/>
       <path id="DejaVuSans-432" d="M 1156 1613
L 1156 459
L 1975 459
Q 2369 459 2575 607
Q 2781 756 2781 1038
Q 2781 1319 2575 1466
Q 2369 1613 1975 1613
L 1156 1613
z
M 1156 3041
L 1156 2072
L 1913 2072
Q 2238 2072 2444 2201
Q 2650 2331 2650 2563
Q 2650 2794 2444 2917
Q 2238 3041 1913 3041
L 1156 3041
z
M 581 3500
L 1950 3500
Q 2566 3500 2897 3275
Q 3228 3050 3228 2634
Q 3228 2313 3059 2123
Q 2891 1934 2559 1888
Q 2956 1813 3175 1575
Q 3394 1338 3394 981
Q 3394 513 3033 256
Q 2672 0 2003 0
L 581 0
L 581 3500
z
" transform="scale(0.015625)"/>
       <path id="DejaVuSans-433" d="M 581 0
L 581 3500
L 3050 3500
L 3050 3041
L 1159 3041
L 1159 0
L 581 0
z
" transform="scale(0.015625)"/>
       <path id="DejaVuSans-2c" d="M 750 794
L 1409 794
L 1409 256
L 897 -744
L 494 -744
L 750 256
L 750 794
z
" transform="scale(0.015625)"/>
       <path id="DejaVuSans-2e" d="M 684 794
L 1344 794
L 1344 0
L 684 0
L 684 794
z
" transform="scale(0.015625)"/>
      </defs>
      <use xlink:href="#DejaVuSans-420"/>
      <use xlink:href="#DejaVuSans-430" transform="translate(60.302734 0)"/>
      <use xlink:href="#DejaVuSans-437" transform="translate(121.582031 0)"/>
      <use xlink:href="#DejaVuSans-43d" transform="translate(174.755859 0)"/>
      <use xlink:href="#DejaVuSans-43e" transform="translate(240.136719 0)"/>
      <use xlink:href="#DejaVuSans-441" transform="translate(301.318359 0)"/>
      <use xlink:href="#DejaVuSans-442" transform="translate(356.298828 0)"/>
      <use xlink:href="#DejaVuSans-44c" transform="translate(414.550781 0)"/>
      <use xlink:href="#DejaVuSans-20" transform="translate(473.486328 0)"/>
      <use xlink:href="#DejaVuSans-442" transform="translate(505.273438 0)"/>
      <use xlink:href="#DejaVuSans-43e" transform="translate(563.525391 0)"/>
      <use xlink:href="#DejaVuSans-447" transform="translate(624.707031 0)"/>
      <use xlink:href="#DejaVuSans-43d" transform="translate(683.789062 0)"/>
      <use xlink:href="#DejaVuSans-43e" transform="translate(749.169922 0)"/>
      <use xlink:href="#DejaVuSans-441" transform="translate(810.351562 0)"/>
      <use xlink:href="#DejaVuSans-442" transform="translate(865.332031 0)"/>
      <use xlink:href="#DejaVuSans-438" transform="translate(923.583984 0)"/>
      <use xlink:href="#DejaVuSans-20" transform="translate(988.574219 0)"/>
      <use xlink:href="#DejaVuSans-44" transform="translate(1020.361328 0)"/>
      <use xlink:href="#DejaVuSans-6f" transform="translate(1097.363281 0)"/>
      <use xlink:href="#DejaVuSans-52" transform="translate(1158.544922 0)"/>
      <use xlink:href="#DejaVuSans-41" transform="translate(1224.027344 0)"/>
      <use xlink:href="#DejaVuSans-20" transform="translate(1292.435547 0)"/>
      <use xlink:href="#DejaVuSans-72" transform="translate(1324.222656 0)"/>
      <use xlink:href="#DejaVuSans-3d" transform="translate(1365.335938 0)"/>
      <use xlink:href="#DejaVuSans-34" transform="translate(1449.125 0)"/>
      <use xlink:href="#DejaVuSans-20" transform="translate(1512.748047 0)"/>
      <use xlink:href="#DejaVuSans-28" transform="translate(1544.535156 0)"/>
      <use xlink:href="#DejaVuSans-32" transform="translate(1583.548828 0)"/>
      <use xlink:href="#DejaVuSans-20" transform="translate(1647.171875 0)"/>
      <use xlink:href="#DejaVuSans-30" transform="translate(1678.958984 0)"/>
      <use xlink:href="#DejaVuSans-33" transform="translate(1742.582031 0)"/>
      <use xlink:href="#DejaVuSans-34" transform="translate(1806.205078 0)"/>
      <use xlink:href="#DejaVuSans-20" transform="translate(1869.828125 0)"/>
      <use xlink:href="#DejaVuSans-43f" transform="translate(1901.615234 0)"/>
      <use xlink:href="#DejaVuSans-430" transform="translate(1966.996094 0)"/>
      <use xlink:href="#DejaVuSans-440" transform="translate(2028.275391 0)"/>
      <use xlink:href="#DejaVuSans-430" transform="translate(2091.751953 0)"/>
      <use xlink:href="#DejaVuSans-43c" transform="translate(2153.03125 0)"/>
      <use xlink:href="#DejaVuSans-435" transform="translate(2228.470703 0)"/>
      <use xlink:href="#DejaVuSans-442" transform="translate(2289.994141 0)"/>
      <use xlink:href="#DejaVuSans-440" transform="translate(2348.246094 0)"/>
      <use xlink:href="#DejaVuSans-430" transform="translate(2411.722656 0)"/>
      <use xlink:href="#DejaVuSans-29" transform="translate(2473.001953 0)"/>
      <use xlink:href="#DejaVuSans-20" transform="translate(2512.015625 0)"/>
      <use xlink:href="#DejaVuSans-438" transform="translate(2543.802734 0)"/>
      <use xlink:href="#DejaVuSans-20" transform="translate(2608.792969 0)"/>
      <use xlink:href="#DejaVuSans-431" transform="translate(2640.580078 0)"/>
      <use xlink:href="#DejaVuSans-430" transform="translate(2702.25 0)"/>
      <use xlink:href="#DejaVuSans-437" transform="translate(2763.529297 0)"/>
      <use xlink:href="#DejaVuSans-43e" transform="translate(2816.703125 0)"/>
      <use xlink:href="#DejaVuSans-432" transform="translate(2877.884766 0)"/>
      <use xlink:href="#DejaVuSans-43e" transform="translate(2936.820312 0)"/>
      <use xlink:href="#DejaVuSans-433" transform="translate(2998.001953 0)"/>
      <use xlink:href="#DejaVuSans-43e" transform="translate(3050.541016 0)"/>
      <use xlink:href="#DejaVuSans-20" transform="translate(3111.722656 0)"/>
      <use xlink:href="#DejaVuSans-432" transform="translate(3143.509766 0)"/>
      <use xlink:href="#DejaVuSans-430" transform="translate(3202.445312 0)"/>
      <use xlink:href="#DejaVuSans-440" transform="translate(3263.724609 0)"/>
      <use xlink:href="#DejaVuSans-438" transform="translate(3327.201172 0)"/>
      <use xlink:href="#DejaVuSans-430" transform="translate(3392.191406 0)"/>
      <use xlink:href="#DejaVuSans-43d" transform="translate(3453.470703 0)"/>
      <use xlink:href="#DejaVuSans-442" transform="translate(3518.851562 0)"/>
      <use xlink:href="#DejaVuSans-430" transform="translate(3577.103516 0)"/>
      <use xlink:href="#DejaVuSans-2c" transform="translate(3638.382812 0)"/>
      <use xlink:href="#DejaVuSans-20" transform="translate(3670.169922 0)"/>
      <use xlink:href="#DejaVuSans-43f" transform="translate(3701.957031 0)"/>
      <use xlink:href="#DejaVuSans-2e" transform="translate(3767.337891 0)"/>
      <use xlink:href="#DejaVuSans-43f" transform="translate(3799.125 0)"/>
      <use xlink:href="#DejaVuSans-2e" transform="translate(3864.505859 0)"/>
     </g>
    </g>
   </g>
   <g id="matplotlib.axis_2">
    <g id="ytick_1">
     <g id="line2d_11">
      <defs>
       <path id="m973935ac25" d="M 0 0
L -3.5 0
" style="stroke: #66747c; stroke-width: 0.8"/>
      </defs>
      <g>
       <use xlink:href="#m973935ac25" x="316.578672" y="77.324342" style="fill: #66747c; stroke: #66747c; stroke-width: 0.8"/>
      </g>
     </g>
     <g id="text_7">
      <!-- LoRA · 1 832 параметра -->
      <g style="fill: #66747c" transform="translate(180.023438 81.313522) scale(0.105 -0.105)">
       <defs>
        <path id="DejaVuSans-4c" d="M 628 4666
L 1259 4666
L 1259 531
L 3531 531
L 3531 0
L 628 0
L 628 4666
z
" transform="scale(0.015625)"/>
        <path id="DejaVuSans-b7" d="M 684 2619
L 1344 2619
L 1344 1825
L 684 1825
L 684 2619
z
" transform="scale(0.015625)"/>
        <path id="DejaVuSans-38" d="M 2034 2216
Q 1584 2216 1326 1975
Q 1069 1734 1069 1313
Q 1069 891 1326 650
Q 1584 409 2034 409
Q 2484 409 2743 651
Q 3003 894 3003 1313
Q 3003 1734 2745 1975
Q 2488 2216 2034 2216
z
M 1403 2484
Q 997 2584 770 2862
Q 544 3141 544 3541
Q 544 4100 942 4425
Q 1341 4750 2034 4750
Q 2731 4750 3128 4425
Q 3525 4100 3525 3541
Q 3525 3141 3298 2862
Q 3072 2584 2669 2484
Q 3125 2378 3379 2068
Q 3634 1759 3634 1313
Q 3634 634 3220 271
Q 2806 -91 2034 -91
Q 1263 -91 848 271
Q 434 634 434 1313
Q 434 1759 690 2068
Q 947 2378 1403 2484
z
M 1172 3481
Q 1172 3119 1398 2916
Q 1625 2713 2034 2713
Q 2441 2713 2670 2916
Q 2900 3119 2900 3481
Q 2900 3844 2670 4047
Q 2441 4250 2034 4250
Q 1625 4250 1398 4047
Q 1172 3844 1172 3481
z
" transform="scale(0.015625)"/>
       </defs>
       <use xlink:href="#DejaVuSans-4c"/>
       <use xlink:href="#DejaVuSans-6f" transform="translate(53.962891 0)"/>
       <use xlink:href="#DejaVuSans-52" transform="translate(115.144531 0)"/>
       <use xlink:href="#DejaVuSans-41" transform="translate(180.626953 0)"/>
       <use xlink:href="#DejaVuSans-20" transform="translate(249.035156 0)"/>
       <use xlink:href="#DejaVuSans-b7" transform="translate(280.822266 0)"/>
       <use xlink:href="#DejaVuSans-20" transform="translate(312.609375 0)"/>
       <use xlink:href="#DejaVuSans-31" transform="translate(344.396484 0)"/>
       <use xlink:href="#DejaVuSans-20" transform="translate(408.019531 0)"/>
       <use xlink:href="#DejaVuSans-38" transform="translate(439.806641 0)"/>
       <use xlink:href="#DejaVuSans-33" transform="translate(503.429688 0)"/>
       <use xlink:href="#DejaVuSans-32" transform="translate(567.052734 0)"/>
       <use xlink:href="#DejaVuSans-20" transform="translate(630.675781 0)"/>
       <use xlink:href="#DejaVuSans-43f" transform="translate(662.462891 0)"/>
       <use xlink:href="#DejaVuSans-430" transform="translate(727.84375 0)"/>
       <use xlink:href="#DejaVuSans-440" transform="translate(789.123047 0)"/>
       <use xlink:href="#DejaVuSans-430" transform="translate(852.599609 0)"/>
       <use xlink:href="#DejaVuSans-43c" transform="translate(913.878906 0)"/>
       <use xlink:href="#DejaVuSans-435" transform="translate(989.318359 0)"/>
       <use xlink:href="#DejaVuSans-442" transform="translate(1050.841797 0)"/>
       <use xlink:href="#DejaVuSans-440" transform="translate(1109.09375 0)"/>
       <use xlink:href="#DejaVuSans-430" transform="translate(1172.570312 0)"/>
      </g>
     </g>
    </g>
    <g id="ytick_2">
     <g id="line2d_12">
      <g>
       <use xlink:href="#m973935ac25" x="316.578672" y="135.182237" style="fill: #66747c; stroke: #66747c; stroke-width: 0.8"/>
      </g>
     </g>
     <g id="text_8">
      <!-- LoRA+ · 1 832 параметра -->
      <g style="fill: #66747c" transform="translate(171.224766 139.171417) scale(0.105 -0.105)">
       <defs>
        <path id="DejaVuSans-2b" d="M 2944 4013
L 2944 2272
L 4684 2272
L 4684 1741
L 2944 1741
L 2944 0
L 2419 0
L 2419 1741
L 678 1741
L 678 2272
L 2419 2272
L 2419 4013
L 2944 4013
z
" transform="scale(0.015625)"/>
       </defs>
       <use xlink:href="#DejaVuSans-4c"/>
       <use xlink:href="#DejaVuSans-6f" transform="translate(53.962891 0)"/>
       <use xlink:href="#DejaVuSans-52" transform="translate(115.144531 0)"/>
       <use xlink:href="#DejaVuSans-41" transform="translate(180.626953 0)"/>
       <use xlink:href="#DejaVuSans-2b" transform="translate(249.035156 0)"/>
       <use xlink:href="#DejaVuSans-20" transform="translate(332.824219 0)"/>
       <use xlink:href="#DejaVuSans-b7" transform="translate(364.611328 0)"/>
       <use xlink:href="#DejaVuSans-20" transform="translate(396.398438 0)"/>
       <use xlink:href="#DejaVuSans-31" transform="translate(428.185547 0)"/>
       <use xlink:href="#DejaVuSans-20" transform="translate(491.808594 0)"/>
       <use xlink:href="#DejaVuSans-38" transform="translate(523.595703 0)"/>
       <use xlink:href="#DejaVuSans-33" transform="translate(587.21875 0)"/>
       <use xlink:href="#DejaVuSans-32" transform="translate(650.841797 0)"/>
       <use xlink:href="#DejaVuSans-20" transform="translate(714.464844 0)"/>
       <use xlink:href="#DejaVuSans-43f" transform="translate(746.251953 0)"/>
       <use xlink:href="#DejaVuSans-430" transform="translate(811.632812 0)"/>
       <use xlink:href="#DejaVuSans-440" transform="translate(872.912109 0)"/>
       <use xlink:href="#DejaVuSans-430" transform="translate(936.388672 0)"/>
       <use xlink:href="#DejaVuSans-43c" transform="translate(997.667969 0)"/>
       <use xlink:href="#DejaVuSans-435" transform="translate(1073.107422 0)"/>
       <use xlink:href="#DejaVuSans-442" transform="translate(1134.630859 0)"/>
       <use xlink:href="#DejaVuSans-440" transform="translate(1192.882812 0)"/>
       <use xlink:href="#DejaVuSans-430" transform="translate(1256.359375 0)"/>
      </g>
     </g>
    </g>
    <g id="ytick_3">
     <g id="line2d_13">
      <g>
       <use xlink:href="#m973935ac25" x="316.578672" y="193.040132" style="fill: #66747c; stroke: #66747c; stroke-width: 0.8"/>
      </g>
     </g>
     <g id="text_9">
      <!-- LoRA с бюджетом параметров DoRA · 2 024 параметра -->
      <g style="fill: #66747c" transform="translate(7.2 197.118725) scale(0.105 -0.105)">
       <defs>
        <path id="DejaVuSans-44e" d="M 3431 3097
Q 2969 3097 2700 2736
Q 2431 2375 2431 1747
Q 2431 1119 2698 758
Q 2966 397 3431 397
Q 3891 397 4159 759
Q 4428 1122 4428 1747
Q 4428 2369 4159 2733
Q 3891 3097 3431 3097
z
M 1844 2103
Q 1903 2697 2292 3140
Q 2681 3584 3431 3584
Q 4181 3584 4609 3096
Q 5038 2609 5038 1747
Q 5038 888 4609 398
Q 4181 -91 3431 -91
Q 2678 -91 2267 381
Q 1856 853 1828 1628
L 1178 1628
L 1178 0
L 603 0
L 603 3500
L 1178 3500
L 1178 2103
L 1844 2103
z
" transform="scale(0.015625)"/>
        <path id="DejaVuSans-434" d="M 1384 459
L 3053 459
L 3053 3041
L 1844 3041
L 1844 2603
Q 1844 1316 1475 628
L 1384 459
z
M 550 459
Q 834 584 959 850
Q 1266 1509 1266 2838
L 1266 3500
L 3631 3500
L 3631 459
L 4091 459
L 4091 -884
L 3631 -884
L 3631 0
L 794 0
L 794 -884
L 334 -884
L 334 459
L 550 459
z
" transform="scale(0.015625)"/>
        <path id="DejaVuSans-436" d="M 2597 3500
L 3169 3500
L 3169 1856
L 4697 3500
L 5366 3500
L 4109 2153
L 5547 0
L 4931 0
L 3753 1769
L 3169 1141
L 3169 0
L 2597 0
L 2597 1141
L 2013 1769
L 834 0
L 219 0
L 1656 2153
L 400 3500
L 1069 3500
L 2597 1856
L 2597 3500
z
" transform="scale(0.015625)"/>
       </defs>
       <use xlink:href="#DejaVuSans-4c"/>
       <use xlink:href="#DejaVuSans-6f" transform="translate(53.962891 0)"/>
       <use xlink:href="#DejaVuSans-52" transform="translate(115.144531 0)"/>
       <use xlink:href="#DejaVuSans-41" transform="translate(180.626953 0)"/>
       <use xlink:href="#DejaVuSans-20" transform="translate(249.035156 0)"/>
       <use xlink:href="#DejaVuSans-441" transform="translate(280.822266 0)"/>
       <use xlink:href="#DejaVuSans-20" transform="translate(335.802734 0)"/>
       <use xlink:href="#DejaVuSans-431" transform="translate(367.589844 0)"/>
       <use xlink:href="#DejaVuSans-44e" transform="translate(429.259766 0)"/>
       <use xlink:href="#DejaVuSans-434" transform="translate(513.439453 0)"/>
       <use xlink:href="#DejaVuSans-436" transform="translate(582.580078 0)"/>
       <use xlink:href="#DejaVuSans-435" transform="translate(672.667969 0)"/>
       <use xlink:href="#DejaVuSans-442" transform="translate(734.191406 0)"/>
       <use xlink:href="#DejaVuSans-43e" transform="translate(792.443359 0)"/>
       <use xlink:href="#DejaVuSans-43c" transform="translate(853.625 0)"/>
       <use xlink:href="#DejaVuSans-20" transform="translate(929.064453 0)"/>
       <use xlink:href="#DejaVuSans-43f" transform="translate(960.851562 0)"/>
       <use xlink:href="#DejaVuSans-430" transform="translate(1026.232422 0)"/>
       <use xlink:href="#DejaVuSans-440" transform="translate(1087.511719 0)"/>
       <use xlink:href="#DejaVuSans-430" transform="translate(1150.988281 0)"/>
       <use xlink:href="#DejaVuSans-43c" transform="translate(1212.267578 0)"/>
       <use xlink:href="#DejaVuSans-435" transform="translate(1287.707031 0)"/>
       <use xlink:href="#DejaVuSans-442" transform="translate(1349.230469 0)"/>
       <use xlink:href="#DejaVuSans-440" transform="translate(1407.482422 0)"/>
       <use xlink:href="#DejaVuSans-43e" transform="translate(1470.958984 0)"/>
       <use xlink:href="#DejaVuSans-432" transform="translate(1532.140625 0)"/>
       <use xlink:href="#DejaVuSans-20" transform="translate(1591.076172 0)"/>
       <use xlink:href="#DejaVuSans-44" transform="translate(1622.863281 0)"/>
       <use xlink:href="#DejaVuSans-6f" transform="translate(1699.865234 0)"/>
       <use xlink:href="#DejaVuSans-52" transform="translate(1761.046875 0)"/>
       <use xlink:href="#DejaVuSans-41" transform="translate(1826.529297 0)"/>
       <use xlink:href="#DejaVuSans-20" transform="translate(1894.9375 0)"/>
       <use xlink:href="#DejaVuSans-b7" transform="translate(1926.724609 0)"/>
       <use xlink:href="#DejaVuSans-20" transform="translate(1958.511719 0)"/>
       <use xlink:href="#DejaVuSans-32" transform="translate(1990.298828 0)"/>
       <use xlink:href="#DejaVuSans-20" transform="translate(2053.921875 0)"/>
       <use xlink:href="#DejaVuSans-30" transform="translate(2085.708984 0)"/>
       <use xlink:href="#DejaVuSans-32" transform="translate(2149.332031 0)"/>
       <use xlink:href="#DejaVuSans-34" transform="translate(2212.955078 0)"/>
       <use xlink:href="#DejaVuSans-20" transform="translate(2276.578125 0)"/>
       <use xlink:href="#DejaVuSans-43f" transform="translate(2308.365234 0)"/>
       <use xlink:href="#DejaVuSans-430" transform="translate(2373.746094 0)"/>
       <use xlink:href="#DejaVuSans-440" transform="translate(2435.025391 0)"/>
       <use xlink:href="#DejaVuSans-430" transform="translate(2498.501953 0)"/>
       <use xlink:href="#DejaVuSans-43c" transform="translate(2559.78125 0)"/>
       <use xlink:href="#DejaVuSans-435" transform="translate(2635.220703 0)"/>
       <use xlink:href="#DejaVuSans-442" transform="translate(2696.744141 0)"/>
       <use xlink:href="#DejaVuSans-440" transform="translate(2754.996094 0)"/>
       <use xlink:href="#DejaVuSans-430" transform="translate(2818.472656 0)"/>
      </g>
     </g>
    </g>
   </g>
   <g id="line2d_14">
    <path d="M 348.308672 210.3975
L 348.308672 45.5025
" clip-path="url(#pf956df200d)" style="fill: none; stroke: #15242d; stroke-width: 1.1; stroke-linecap: square"/>
   </g>
   <g id="LineCollection_1">
    <path d="M 346.20072 77.324342
L 417.40218 77.324342
" clip-path="url(#pf956df200d)" style="fill: none; stroke: #0b8f83; stroke-width: 2.2"/>
    <path d="M 362.707546 135.182237
L 424.692854 135.182237
" clip-path="url(#pf956df200d)" style="fill: none; stroke: #0b8f83; stroke-width: 2.2"/>
    <path d="M 339.072733 193.040132
L 391.037389 193.040132
" clip-path="url(#pf956df200d)" style="fill: none; stroke: #0b8f83; stroke-width: 2.2"/>
   </g>
   <g id="line2d_15">
    <defs>
     <path id="md5fd9daffe" d="M 0 4
L 0 -4
" style="stroke: #0b8f83"/>
    </defs>
    <g clip-path="url(#pf956df200d)">
     <use xlink:href="#md5fd9daffe" x="346.20072" y="77.324342" style="fill: #0b8f83; stroke: #0b8f83"/>
     <use xlink:href="#md5fd9daffe" x="362.707546" y="135.182237" style="fill: #0b8f83; stroke: #0b8f83"/>
     <use xlink:href="#md5fd9daffe" x="339.072733" y="193.040132" style="fill: #0b8f83; stroke: #0b8f83"/>
    </g>
   </g>
   <g id="line2d_16">
    <g clip-path="url(#pf956df200d)">
     <use xlink:href="#md5fd9daffe" x="417.40218" y="77.324342" style="fill: #0b8f83; stroke: #0b8f83"/>
     <use xlink:href="#md5fd9daffe" x="424.692854" y="135.182237" style="fill: #0b8f83; stroke: #0b8f83"/>
     <use xlink:href="#md5fd9daffe" x="391.037389" y="193.040132" style="fill: #0b8f83; stroke: #0b8f83"/>
    </g>
   </g>
   <g id="line2d_17">
    <defs>
     <path id="m417c2d847e" d="M 0 4
C 1.060812 4 2.078319 3.578535 2.828427 2.828427
C 3.578535 2.078319 4 1.060812 4 0
C 4 -1.060812 3.578535 -2.078319 2.828427 -2.828427
C 2.078319 -3.578535 1.060812 -4 0 -4
C -1.060812 -4 -2.078319 -3.578535 -2.828427 -2.828427
C -3.578535 -2.078319 -4 -1.060812 -4 0
C -4 1.060812 -3.578535 2.078319 -2.828427 2.828427
C -2.078319 3.578535 -1.060812 4 0 4
z
" style="stroke: #0b8f83"/>
    </defs>
    <g clip-path="url(#pf956df200d)">
     <use xlink:href="#m417c2d847e" x="381.80145" y="77.324342" style="fill: #0b8f83; stroke: #0b8f83"/>
     <use xlink:href="#m417c2d847e" x="393.7002" y="135.182237" style="fill: #0b8f83; stroke: #0b8f83"/>
     <use xlink:href="#m417c2d847e" x="365.055061" y="193.040132" style="fill: #0b8f83; stroke: #0b8f83"/>
    </g>
   </g>
   <g id="patch_3">
    <path d="M 316.578672 210.3975
L 316.578672 45.5025
" style="fill: none; stroke: #66747c; stroke-width: 0.8; stroke-linejoin: miter; stroke-linecap: square"/>
   </g>
   <g id="patch_4">
    <path d="M 316.578672 210.3975
L 443.498672 210.3975
" style="fill: none; stroke: #66747c; stroke-width: 0.8; stroke-linejoin: miter; stroke-linecap: square"/>
   </g>
   <g id="text_10">
    <!-- 20 удержанных сидов · 95%-е t-интервалы · семья сравнений: 9 основных проверок (поправка Холма) -->
    <g style="fill: #66747c" transform="translate(316.578672 43.85355) scale(0.092 -0.092)">
     <defs>
      <path id="DejaVuSans-443" d="M 2059 -325
Q 1816 -950 1584 -1140
Q 1353 -1331 966 -1331
L 506 -1331
L 506 -850
L 844 -850
Q 1081 -850 1212 -737
Q 1344 -625 1503 -206
L 1606 56
L 191 3500
L 800 3500
L 1894 763
L 2988 3500
L 3597 3500
L 2059 -325
z
" transform="scale(0.015625)"/>
      <path id="DejaVuSans-44b" d="M 3907 3500
L 4482 3500
L 4482 0
L 3907 0
L 3907 3500
z
M 4195 3584
L 4195 3584
z
M 2781 1038
Q 2781 1319 2576 1466
Q 2372 1613 1978 1613
L 1159 1613
L 1159 459
L 1978 459
Q 2372 459 2576 607
Q 2781 756 2781 1038
z
M 581 3500
L 1159 3500
L 1159 2072
L 2003 2072
Q 2672 2072 3033 1817
Q 3394 1563 3394 1038
Q 3394 513 3033 256
Q 2672 0 2003 0
L 581 0
L 581 3500
z
" transform="scale(0.015625)"/>
      <path id="DejaVuSans-445" d="M 3513 3500
L 2247 1797
L 3578 0
L 2900 0
L 1881 1375
L 863 0
L 184 0
L 1544 1831
L 300 3500
L 978 3500
L 1906 2253
L 2834 3500
L 3513 3500
z
" transform="scale(0.015625)"/>
      <path id="DejaVuSans-39" d="M 703 97
L 703 672
Q 941 559 1184 500
Q 1428 441 1663 441
Q 2288 441 2617 861
Q 2947 1281 2994 2138
Q 2813 1869 2534 1725
Q 2256 1581 1919 1581
Q 1219 1581 811 2004
Q 403 2428 403 3163
Q 403 3881 828 4315
Q 1253 4750 1959 4750
Q 2769 4750 3195 4129
Q 3622 3509 3622 2328
Q 3622 1225 3098 567
Q 2575 -91 1691 -91
Q 1453 -91 1209 -44
Q 966 3 703 97
z
M 1959 2075
Q 2384 2075 2632 2365
Q 2881 2656 2881 3163
Q 2881 3666 2632 3958
Q 2384 4250 1959 4250
Q 1534 4250 1286 3958
Q 1038 3666 1038 3163
Q 1038 2656 1286 2365
Q 1534 2075 1959 2075
z
" transform="scale(0.015625)"/>
      <path id="DejaVuSans-35" d="M 691 4666
L 3169 4666
L 3169 4134
L 1269 4134
L 1269 2991
Q 1406 3038 1543 3061
Q 1681 3084 1819 3084
Q 2600 3084 3056 2656
Q 3513 2228 3513 1497
Q 3513 744 3044 326
Q 2575 -91 1722 -91
Q 1428 -91 1123 -41
Q 819 9 494 109
L 494 744
Q 775 591 1075 516
Q 1375 441 1709 441
Q 2250 441 2565 725
Q 2881 1009 2881 1497
Q 2881 1984 2565 2268
Q 2250 2553 1709 2553
Q 1456 2553 1204 2497
Q 953 2441 691 2322
L 691 4666
z
" transform="scale(0.015625)"/>
      <path id="DejaVuSans-25" d="M 4653 2053
Q 4381 2053 4226 1822
Q 4072 1591 4072 1178
Q 4072 772 4226 539
Q 4381 306 4653 306
Q 4919 306 5073 539
Q 5228 772 5228 1178
Q 5228 1588 5073 1820
Q 4919 2053 4653 2053
z
M 4653 2450
Q 5147 2450 5437 2106
Q 5728 1763 5728 1178
Q 5728 594 5436 251
Q 5144 -91 4653 -91
Q 4153 -91 3862 251
Q 3572 594 3572 1178
Q 3572 1766 3864 2108
Q 4156 2450 4653 2450
z
M 1428 4353
Q 1159 4353 1004 4120
Q 850 3888 850 3481
Q 850 3069 1003 2837
Q 1156 2606 1428 2606
Q 1700 2606 1854 2837
Q 2009 3069 2009 3481
Q 2009 3884 1853 4118
Q 1697 4353 1428 4353
z
M 4250 4750
L 4750 4750
L 1831 -91
L 1331 -91
L 4250 4750
z
M 1428 4750
Q 1922 4750 2215 4408
Q 2509 4066 2509 3481
Q 2509 2891 2217 2550
Q 1925 2209 1428 2209
Q 931 2209 642 2551
Q 353 2894 353 3481
Q 353 4063 643 4406
Q 934 4750 1428 4750
z
" transform="scale(0.015625)"/>
      <path id="DejaVuSans-2d" d="M 313 2009
L 1997 2009
L 1997 1497
L 313 1497
L 313 2009
z
" transform="scale(0.015625)"/>
      <path id="DejaVuSans-74" d="M 1172 4494
L 1172 3500
L 2356 3500
L 2356 3053
L 1172 3053
L 1172 1153
Q 1172 725 1289 603
Q 1406 481 1766 481
L 2356 481
L 2356 0
L 1766 0
Q 1100 0 847 248
Q 594 497 594 1153
L 594 3053
L 172 3053
L 172 3500
L 594 3500
L 594 4494
L 1172 4494
z
" transform="scale(0.015625)"/>
      <path id="DejaVuSans-43b" d="M 238 0
L 238 478
Q 806 566 981 959
Q 1194 1513 1194 2928
L 1194 3500
L 3559 3500
L 3559 0
L 2984 0
L 2984 3041
L 1769 3041
L 1769 2694
Q 1769 1344 1494 738
Q 1200 91 238 0
z
" transform="scale(0.015625)"/>
      <path id="DejaVuSans-44f" d="M 1181 2491
Q 1181 2231 1381 2084
Q 1581 1938 1953 1938
L 2728 1938
L 2728 3041
L 1953 3041
Q 1581 3041 1381 2897
Q 1181 2753 1181 2491
z
M 363 0
L 1431 1534
Q 1069 1616 828 1830
Q 588 2044 588 2491
Q 588 2997 923 3248
Q 1259 3500 1938 3500
L 3306 3500
L 3306 0
L 2728 0
L 2728 1478
L 2013 1478
L 981 0
L 363 0
z
" transform="scale(0.015625)"/>
      <path id="DejaVuSans-439" d="M 3578 3500
L 3578 0
L 3006 0
L 3006 2809
L 1319 0
L 581 0
L 581 3500
L 1153 3500
L 1153 697
L 2838 3500
L 3578 3500
z
M 1102 4833
L 1471 4833
Q 1505 4599 1656 4481
Q 1808 4364 2080 4364
Q 2349 4364 2499 4480
Q 2649 4596 2689 4833
L 3058 4833
Q 3027 4386 2780 4161
Q 2533 3936 2080 3936
Q 1627 3936 1380 4161
Q 1133 4386 1102 4833
z
" transform="scale(0.015625)"/>
      <path id="DejaVuSans-3a" d="M 750 794
L 1409 794
L 1409 0
L 750 0
L 750 794
z
M 750 3309
L 1409 3309
L 1409 2516
L 750 2516
L 750 3309
z
" transform="scale(0.015625)"/>
      <path id="DejaVuSans-43a" d="M 581 3500
L 1153 3500
L 1153 1856
L 2775 3500
L 3481 3500
L 2144 2147
L 3653 0
L 3009 0
L 1769 1766
L 1153 1141
L 1153 0
L 581 0
L 581 3500
z
" transform="scale(0.015625)"/>
      <path id="DejaVuSans-425" d="M 403 4666
L 1081 4666
L 2241 2931
L 3406 4666
L 4084 4666
L 2584 2425
L 4184 0
L 3506 0
L 2194 1984
L 872 0
L 191 0
L 1856 2491
L 403 4666
z
" transform="scale(0.015625)"/>
     </defs>
     <use xlink:href="#DejaVuSans-32"/>
     <use xlink:href="#DejaVuSans-30" transform="translate(63.623047 0)"/>
     <use xlink:href="#DejaVuSans-20" transform="translate(127.246094 0)"/>
     <use xlink:href="#DejaVuSans-443" transform="translate(159.033203 0)"/>
     <use xlink:href="#DejaVuSans-434" transform="translate(218.212891 0)"/>
     <use xlink:href="#DejaVuSans-435" transform="translate(287.353516 0)"/>
     <use xlink:href="#DejaVuSans-440" transform="translate(348.876953 0)"/>
     <use xlink:href="#DejaVuSans-436" transform="translate(412.353516 0)"/>
     <use xlink:href="#DejaVuSans-430" transform="translate(502.441406 0)"/>
     <use xlink:href="#DejaVuSans-43d" transform="translate(563.720703 0)"/>
     <use xlink:href="#DejaVuSans-43d" transform="translate(629.101562 0)"/>
     <use xlink:href="#DejaVuSans-44b" transform="translate(694.482422 0)"/>
     <use xlink:href="#DejaVuSans-445" transform="translate(773.4375 0)"/>
     <use xlink:href="#DejaVuSans-20" transform="translate(832.617188 0)"/>
     <use xlink:href="#DejaVuSans-441" transform="translate(864.404297 0)"/>
     <use xlink:href="#DejaVuSans-438" transform="translate(919.384766 0)"/>
     <use xlink:href="#DejaVuSans-434" transform="translate(984.375 0)"/>
     <use xlink:href="#DejaVuSans-43e" transform="translate(1053.515625 0)"/>
     <use xlink:href="#DejaVuSans-432" transform="translate(1114.697266 0)"/>
     <use xlink:href="#DejaVuSans-20" transform="translate(1173.632812 0)"/>
     <use xlink:href="#DejaVuSans-b7" transform="translate(1205.419922 0)"/>
     <use xlink:href="#DejaVuSans-20" transform="translate(1237.207031 0)"/>
     <use xlink:href="#DejaVuSans-39" transform="translate(1268.994141 0)"/>
     <use xlink:href="#DejaVuSans-35" transform="translate(1332.617188 0)"/>
     <use xlink:href="#DejaVuSans-25" transform="translate(1396.240234 0)"/>
     <use xlink:href="#DejaVuSans-2d" transform="translate(1491.259766 0)"/>
     <use xlink:href="#DejaVuSans-435" transform="translate(1527.34375 0)"/>
     <use xlink:href="#DejaVuSans-20" transform="translate(1588.867188 0)"/>
     <use xlink:href="#DejaVuSans-74" transform="translate(1620.654297 0)"/>
     <use xlink:href="#DejaVuSans-2d" transform="translate(1659.863281 0)"/>
     <use xlink:href="#DejaVuSans-438" transform="translate(1695.947266 0)"/>
     <use xlink:href="#DejaVuSans-43d" transform="translate(1760.9375 0)"/>
     <use xlink:href="#DejaVuSans-442" transform="translate(1826.318359 0)"/>
     <use xlink:href="#DejaVuSans-435" transform="translate(1884.570312 0)"/>
     <use xlink:href="#DejaVuSans-440" transform="translate(1946.09375 0)"/>
     <use xlink:href="#DejaVuSans-432" transform="translate(2009.570312 0)"/>
     <use xlink:href="#DejaVuSans-430" transform="translate(2068.505859 0)"/>
     <use xlink:href="#DejaVuSans-43b" transform="translate(2129.785156 0)"/>
     <use xlink:href="#DejaVuSans-44b" transform="translate(2193.701172 0)"/>
     <use xlink:href="#DejaVuSans-20" transform="translate(2272.65625 0)"/>
     <use xlink:href="#DejaVuSans-b7" transform="translate(2304.443359 0)"/>
     <use xlink:href="#DejaVuSans-20" transform="translate(2336.230469 0)"/>
     <use xlink:href="#DejaVuSans-441" transform="translate(2368.017578 0)"/>
     <use xlink:href="#DejaVuSans-435" transform="translate(2422.998047 0)"/>
     <use xlink:href="#DejaVuSans-43c" transform="translate(2484.521484 0)"/>
     <use xlink:href="#DejaVuSans-44c" transform="translate(2559.960938 0)"/>
     <use xlink:href="#DejaVuSans-44f" transform="translate(2618.896484 0)"/>
     <use xlink:href="#DejaVuSans-20" transform="translate(2679.052734 0)"/>
     <use xlink:href="#DejaVuSans-441" transform="translate(2710.839844 0)"/>
     <use xlink:href="#DejaVuSans-440" transform="translate(2765.820312 0)"/>
     <use xlink:href="#DejaVuSans-430" transform="translate(2829.296875 0)"/>
     <use xlink:href="#DejaVuSans-432" transform="translate(2890.576172 0)"/>
     <use xlink:href="#DejaVuSans-43d" transform="translate(2949.511719 0)"/>
     <use xlink:href="#DejaVuSans-435" transform="translate(3014.892578 0)"/>
     <use xlink:href="#DejaVuSans-43d" transform="translate(3076.416016 0)"/>
     <use xlink:href="#DejaVuSans-438" transform="translate(3141.796875 0)"/>
     <use xlink:href="#DejaVuSans-439" transform="translate(3206.787109 0)"/>
     <use xlink:href="#DejaVuSans-3a" transform="translate(3271.777344 0)"/>
     <use xlink:href="#DejaVuSans-20" transform="translate(3305.46875 0)"/>
     <use xlink:href="#DejaVuSans-39" transform="translate(3337.255859 0)"/>
     <use xlink:href="#DejaVuSans-20" transform="translate(3400.878906 0)"/>
     <use xlink:href="#DejaVuSans-43e" transform="translate(3432.666016 0)"/>
     <use xlink:href="#DejaVuSans-441" transform="translate(3493.847656 0)"/>
     <use xlink:href="#DejaVuSans-43d" transform="translate(3548.828125 0)"/>
     <use xlink:href="#DejaVuSans-43e" transform="translate(3614.208984 0)"/>
     <use xlink:href="#DejaVuSans-432" transform="translate(3675.390625 0)"/>
     <use xlink:href="#DejaVuSans-43d" transform="translate(3734.326172 0)"/>
     <use xlink:href="#DejaVuSans-44b" transform="translate(3799.707031 0)"/>
     <use xlink:href="#DejaVuSans-445" transform="translate(3878.662109 0)"/>
     <use xlink:href="#DejaVuSans-20" transform="translate(3937.841797 0)"/>
     <use xlink:href="#DejaVuSans-43f" transform="translate(3969.628906 0)"/>
     <use xlink:href="#DejaVuSans-440" transform="translate(4035.009766 0)"/>
     <use xlink:href="#DejaVuSans-43e" transform="translate(4098.486328 0)"/>
     <use xlink:href="#DejaVuSans-432" transform="translate(4159.667969 0)"/>
     <use xlink:href="#DejaVuSans-435" transform="translate(4218.603516 0)"/>
     <use xlink:href="#DejaVuSans-440" transform="translate(4280.126953 0)"/>
     <use xlink:href="#DejaVuSans-43e" transform="translate(4343.603516 0)"/>
     <use xlink:href="#DejaVuSans-43a" transform="translate(4404.785156 0)"/>
     <use xlink:href="#DejaVuSans-20" transform="translate(4465.185547 0)"/>
     <use xlink:href="#DejaVuSans-28" transform="translate(4496.972656 0)"/>
     <use xlink:href="#DejaVuSans-43f" transform="translate(4535.986328 0)"/>
     <use xlink:href="#DejaVuSans-43e" transform="translate(4601.367188 0)"/>
     <use xlink:href="#DejaVuSans-43f" transform="translate(4662.548828 0)"/>
     <use xlink:href="#DejaVuSans-440" transform="translate(4727.929688 0)"/>
     <use xlink:href="#DejaVuSans-430" transform="translate(4791.40625 0)"/>
     <use xlink:href="#DejaVuSans-432" transform="translate(4852.685547 0)"/>
     <use xlink:href="#DejaVuSans-43a" transform="translate(4911.621094 0)"/>
     <use xlink:href="#DejaVuSans-430" transform="translate(4972.021484 0)"/>
     <use xlink:href="#DejaVuSans-20" transform="translate(5033.300781 0)"/>
     <use xlink:href="#DejaVuSans-425" transform="translate(5065.087891 0)"/>
     <use xlink:href="#DejaVuSans-43e" transform="translate(5133.59375 0)"/>
     <use xlink:href="#DejaVuSans-43b" transform="translate(5194.775391 0)"/>
     <use xlink:href="#DejaVuSans-43c" transform="translate(5258.691406 0)"/>
     <use xlink:href="#DejaVuSans-430" transform="translate(5334.130859 0)"/>
     <use xlink:href="#DejaVuSans-29" transform="translate(5395.410156 0)"/>
    </g>
   </g>
   <g id="text_11">
    <!-- +1.06 п.п. -->
    <g style="fill: #15242d" transform="translate(357.83684 93.324342) scale(0.09 -0.09)">
     <defs>
      <path id="DejaVuSans-36" d="M 2113 2584
Q 1688 2584 1439 2293
Q 1191 2003 1191 1497
Q 1191 994 1439 701
Q 1688 409 2113 409
Q 2538 409 2786 701
Q 3034 994 3034 1497
Q 3034 2003 2786 2293
Q 2538 2584 2113 2584
z
M 3366 4563
L 3366 3988
Q 3128 4100 2886 4159
Q 2644 4219 2406 4219
Q 1781 4219 1451 3797
Q 1122 3375 1075 2522
Q 1259 2794 1537 2939
Q 1816 3084 2150 3084
Q 2853 3084 3261 2657
Q 3669 2231 3669 1497
Q 3669 778 3244 343
Q 2819 -91 2113 -91
Q 1303 -91 875 529
Q 447 1150 447 2328
Q 447 3434 972 4092
Q 1497 4750 2381 4750
Q 2619 4750 2861 4703
Q 3103 4656 3366 4563
z
" transform="scale(0.015625)"/>
     </defs>
     <use xlink:href="#DejaVuSans-2b"/>
     <use xlink:href="#DejaVuSans-31" transform="translate(83.789062 0)"/>
     <use xlink:href="#DejaVuSans-2e" transform="translate(147.412109 0)"/>
     <use xlink:href="#DejaVuSans-30" transform="translate(179.199219 0)"/>
     <use xlink:href="#DejaVuSans-36" transform="translate(242.822266 0)"/>
     <use xlink:href="#DejaVuSans-20" transform="translate(306.445312 0)"/>
     <use xlink:href="#DejaVuSans-43f" transform="translate(338.232422 0)"/>
     <use xlink:href="#DejaVuSans-2e" transform="translate(403.613281 0)"/>
     <use xlink:href="#DejaVuSans-43f" transform="translate(435.400391 0)"/>
     <use xlink:href="#DejaVuSans-2e" transform="translate(500.78125 0)"/>
    </g>
   </g>
   <g id="text_12">
    <!-- p с поправкой Холма=0.382 -->
    <g style="fill: #66747c" transform="translate(316.414984 79.669811) scale(0.085 -0.085)">
     <defs>
      <path id="DejaVuSans-70" d="M 1159 525
L 1159 -1331
L 581 -1331
L 581 3500
L 1159 3500
L 1159 2969
Q 1341 3281 1617 3432
Q 1894 3584 2278 3584
Q 2916 3584 3314 3078
Q 3713 2572 3713 1747
Q 3713 922 3314 415
Q 2916 -91 2278 -91
Q 1894 -91 1617 61
Q 1341 213 1159 525
z
M 3116 1747
Q 3116 2381 2855 2742
Q 2594 3103 2138 3103
Q 1681 3103 1420 2742
Q 1159 2381 1159 1747
Q 1159 1113 1420 752
Q 1681 391 2138 391
Q 2594 391 2855 752
Q 3116 1113 3116 1747
z
" transform="scale(0.015625)"/>
     </defs>
     <use xlink:href="#DejaVuSans-70"/>
     <use xlink:href="#DejaVuSans-20" transform="translate(63.476562 0)"/>
     <use xlink:href="#DejaVuSans-441" transform="translate(95.263672 0)"/>
     <use xlink:href="#DejaVuSans-20" transform="translate(150.244141 0)"/>
     <use xlink:href="#DejaVuSans-43f" transform="translate(182.03125 0)"/>
     <use xlink:href="#DejaVuSans-43e" transform="translate(247.412109 0)"/>
     <use xlink:href="#DejaVuSans-43f" transform="translate(308.59375 0)"/>
     <use xlink:href="#DejaVuSans-440" transform="translate(373.974609 0)"/>
     <use xlink:href="#DejaVuSans-430" transform="translate(437.451172 0)"/>
     <use xlink:href="#DejaVuSans-432" transform="translate(498.730469 0)"/>
     <use xlink:href="#DejaVuSans-43a" transform="translate(557.666016 0)"/>
     <use xlink:href="#DejaVuSans-43e" transform="translate(618.066406 0)"/>
     <use xlink:href="#DejaVuSans-439" transform="translate(679.248047 0)"/>
     <use xlink:href="#DejaVuSans-20" transform="translate(744.238281 0)"/>
     <use xlink:href="#DejaVuSans-425" transform="translate(776.025391 0)"/>
     <use xlink:href="#DejaVuSans-43e" transform="translate(844.53125 0)"/>
     <use xlink:href="#DejaVuSans-43b" transform="translate(905.712891 0)"/>
     <use xlink:href="#DejaVuSans-43c" transform="translate(969.628906 0)"/>
     <use xlink:href="#DejaVuSans-430" transform="translate(1045.068359 0)"/>
     <use xlink:href="#DejaVuSans-3d" transform="translate(1106.347656 0)"/>
     <use xlink:href="#DejaVuSans-30" transform="translate(1190.136719 0)"/>
     <use xlink:href="#DejaVuSans-2e" transform="translate(1253.759766 0)"/>
     <use xlink:href="#DejaVuSans-33" transform="translate(1285.546875 0)"/>
     <use xlink:href="#DejaVuSans-38" transform="translate(1349.169922 0)"/>
     <use xlink:href="#DejaVuSans-32" transform="translate(1412.792969 0)"/>
    </g>
   </g>
   <g id="text_13">
    <!-- +1.43 п.п. -->
    <g style="fill: #15242d" transform="translate(369.73559 125.182237) scale(0.09 -0.09)">
     <use xlink:href="#DejaVuSans-2b"/>
     <use xlink:href="#DejaVuSans-31" transform="translate(83.789062 0)"/>
     <use xlink:href="#DejaVuSans-2e" transform="translate(147.412109 0)"/>
     <use xlink:href="#DejaVuSans-34" transform="translate(179.199219 0)"/>
     <use xlink:href="#DejaVuSans-33" transform="translate(242.822266 0)"/>
     <use xlink:href="#DejaVuSans-20" transform="translate(306.445312 0)"/>
     <use xlink:href="#DejaVuSans-43f" transform="translate(338.232422 0)"/>
     <use xlink:href="#DejaVuSans-2e" transform="translate(403.613281 0)"/>
     <use xlink:href="#DejaVuSans-43f" transform="translate(435.400391 0)"/>
     <use xlink:href="#DejaVuSans-2e" transform="translate(500.78125 0)"/>
    </g>
   </g>
   <g id="text_14">
    <!-- p с поправкой Холма=0.051 -->
    <g style="fill: #66747c" transform="translate(316.414984 137.527706) scale(0.085 -0.085)">
     <use xlink:href="#DejaVuSans-70"/>
     <use xlink:href="#DejaVuSans-20" transform="translate(63.476562 0)"/>
     <use xlink:href="#DejaVuSans-441" transform="translate(95.263672 0)"/>
     <use xlink:href="#DejaVuSans-20" transform="translate(150.244141 0)"/>
     <use xlink:href="#DejaVuSans-43f" transform="translate(182.03125 0)"/>
     <use xlink:href="#DejaVuSans-43e" transform="translate(247.412109 0)"/>
     <use xlink:href="#DejaVuSans-43f" transform="translate(308.59375 0)"/>
     <use xlink:href="#DejaVuSans-440" transform="translate(373.974609 0)"/>
     <use xlink:href="#DejaVuSans-430" transform="translate(437.451172 0)"/>
     <use xlink:href="#DejaVuSans-432" transform="translate(498.730469 0)"/>
     <use xlink:href="#DejaVuSans-43a" transform="translate(557.666016 0)"/>
     <use xlink:href="#DejaVuSans-43e" transform="translate(618.066406 0)"/>
     <use xlink:href="#DejaVuSans-439" transform="translate(679.248047 0)"/>
     <use xlink:href="#DejaVuSans-20" transform="translate(744.238281 0)"/>
     <use xlink:href="#DejaVuSans-425" transform="translate(776.025391 0)"/>
     <use xlink:href="#DejaVuSans-43e" transform="translate(844.53125 0)"/>
     <use xlink:href="#DejaVuSans-43b" transform="translate(905.712891 0)"/>
     <use xlink:href="#DejaVuSans-43c" transform="translate(969.628906 0)"/>
     <use xlink:href="#DejaVuSans-430" transform="translate(1045.068359 0)"/>
     <use xlink:href="#DejaVuSans-3d" transform="translate(1106.347656 0)"/>
     <use xlink:href="#DejaVuSans-30" transform="translate(1190.136719 0)"/>
     <use xlink:href="#DejaVuSans-2e" transform="translate(1253.759766 0)"/>
     <use xlink:href="#DejaVuSans-30" transform="translate(1285.546875 0)"/>
     <use xlink:href="#DejaVuSans-35" transform="translate(1349.169922 0)"/>
     <use xlink:href="#DejaVuSans-31" transform="translate(1412.792969 0)"/>
    </g>
   </g>
   <g id="text_15">
    <!-- +0.53 п.п. -->
    <g style="fill: #15242d" transform="translate(341.090451 183.040132) scale(0.09 -0.09)">
     <use xlink:href="#DejaVuSans-2b"/>
     <use xlink:href="#DejaVuSans-30" transform="translate(83.789062 0)"/>
     <use xlink:href="#DejaVuSans-2e" transform="translate(147.412109 0)"/>
     <use xlink:href="#DejaVuSans-35" transform="translate(179.199219 0)"/>
     <use xlink:href="#DejaVuSans-33" transform="translate(242.822266 0)"/>
     <use xlink:href="#DejaVuSans-20" transform="translate(306.445312 0)"/>
     <use xlink:href="#DejaVuSans-43f" transform="translate(338.232422 0)"/>
     <use xlink:href="#DejaVuSans-2e" transform="translate(403.613281 0)"/>
     <use xlink:href="#DejaVuSans-43f" transform="translate(435.400391 0)"/>
     <use xlink:href="#DejaVuSans-2e" transform="translate(500.78125 0)"/>
    </g>
   </g>
   <g id="text_16">
    <!-- p с поправкой Холма=0.773 -->
    <g style="fill: #66747c" transform="translate(316.414984 195.3856) scale(0.085 -0.085)">
     <defs>
      <path id="DejaVuSans-37" d="M 525 4666
L 3525 4666
L 3525 4397
L 1831 0
L 1172 0
L 2766 4134
L 525 4134
L 525 4666
z
" transform="scale(0.015625)"/>
     </defs>
     <use xlink:href="#DejaVuSans-70"/>
     <use xlink:href="#DejaVuSans-20" transform="translate(63.476562 0)"/>
     <use xlink:href="#DejaVuSans-441" transform="translate(95.263672 0)"/>
     <use xlink:href="#DejaVuSans-20" transform="translate(150.244141 0)"/>
     <use xlink:href="#DejaVuSans-43f" transform="translate(182.03125 0)"/>
     <use xlink:href="#DejaVuSans-43e" transform="translate(247.412109 0)"/>
     <use xlink:href="#DejaVuSans-43f" transform="translate(308.59375 0)"/>
     <use xlink:href="#DejaVuSans-440" transform="translate(373.974609 0)"/>
     <use xlink:href="#DejaVuSans-430" transform="translate(437.451172 0)"/>
     <use xlink:href="#DejaVuSans-432" transform="translate(498.730469 0)"/>
     <use xlink:href="#DejaVuSans-43a" transform="translate(557.666016 0)"/>
     <use xlink:href="#DejaVuSans-43e" transform="translate(618.066406 0)"/>
     <use xlink:href="#DejaVuSans-439" transform="translate(679.248047 0)"/>
     <use xlink:href="#DejaVuSans-20" transform="translate(744.238281 0)"/>
     <use xlink:href="#DejaVuSans-425" transform="translate(776.025391 0)"/>
     <use xlink:href="#DejaVuSans-43e" transform="translate(844.53125 0)"/>
     <use xlink:href="#DejaVuSans-43b" transform="translate(905.712891 0)"/>
     <use xlink:href="#DejaVuSans-43c" transform="translate(969.628906 0)"/>
     <use xlink:href="#DejaVuSans-430" transform="translate(1045.068359 0)"/>
     <use xlink:href="#DejaVuSans-3d" transform="translate(1106.347656 0)"/>
     <use xlink:href="#DejaVuSans-30" transform="translate(1190.136719 0)"/>
     <use xlink:href="#DejaVuSans-2e" transform="translate(1253.759766 0)"/>
     <use xlink:href="#DejaVuSans-37" transform="translate(1285.546875 0)"/>
     <use xlink:href="#DejaVuSans-37" transform="translate(1349.169922 0)"/>
     <use xlink:href="#DejaVuSans-33" transform="translate(1412.792969 0)"/>
    </g>
   </g>
   <g id="text_17">
    <!-- MLP, смешанный сдвиг: усиленные базовые варианты -->
    <g style="fill: #15242d" transform="translate(316.578672 17.5025) scale(0.13 -0.13)">
     <defs>
      <path id="DejaVuSans-Bold-4d" d="M 588 4666
L 2119 4666
L 3181 2169
L 4250 4666
L 5778 4666
L 5778 0
L 4641 0
L 4641 3413
L 3566 897
L 2803 897
L 1728 3413
L 1728 0
L 588 0
L 588 4666
z
" transform="scale(0.015625)"/>
      <path id="DejaVuSans-Bold-4c" d="M 588 4666
L 1791 4666
L 1791 909
L 3903 909
L 3903 0
L 588 0
L 588 4666
z
" transform="scale(0.015625)"/>
      <path id="DejaVuSans-Bold-50" d="M 588 4666
L 2584 4666
Q 3475 4666 3951 4270
Q 4428 3875 4428 3144
Q 4428 2409 3951 2014
Q 3475 1619 2584 1619
L 1791 1619
L 1791 0
L 588 0
L 588 4666
z
M 1791 3794
L 1791 2491
L 2456 2491
Q 2806 2491 2997 2661
Q 3188 2831 3188 3144
Q 3188 3456 2997 3625
Q 2806 3794 2456 3794
L 1791 3794
z
" transform="scale(0.015625)"/>
      <path id="DejaVuSans-Bold-2c" d="M 653 1209
L 1778 1209
L 1778 256
L 1006 -909
L 341 -909
L 653 256
L 653 1209
z
" transform="scale(0.015625)"/>
      <path id="DejaVuSans-Bold-20" transform="scale(0.015625)"/>
      <path id="DejaVuSans-Bold-441" d="M 3366 3391
L 3366 2478
Q 3138 2634 2908 2709
Q 2678 2784 2431 2784
Q 1963 2784 1702 2511
Q 1441 2238 1441 1747
Q 1441 1256 1702 982
Q 1963 709 2431 709
Q 2694 709 2930 787
Q 3166 866 3366 1019
L 3366 103
Q 3103 6 2833 -42
Q 2563 -91 2291 -91
Q 1344 -91 809 395
Q 275 881 275 1747
Q 275 2613 809 3098
Q 1344 3584 2291 3584
Q 2566 3584 2833 3536
Q 3100 3488 3366 3391
z
" transform="scale(0.015625)"/>
      <path id="DejaVuSans-Bold-43c" d="M 538 3500
L 1825 3500
L 2613 1750
L 3400 3500
L 4691 3500
L 4691 0
L 3575 0
L 3575 1984
L 2984 672
L 2250 672
L 1656 1984
L 1656 0
L 538 0
L 538 3500
z
" transform="scale(0.015625)"/>
      <path id="DejaVuSans-Bold-435" d="M 4031 1759
L 4031 1441
L 1416 1441
Q 1456 1047 1700 850
Q 1944 653 2381 653
Q 2734 653 3104 758
Q 3475 863 3866 1075
L 3866 213
Q 3469 63 3072 -14
Q 2675 -91 2278 -91
Q 1328 -91 801 392
Q 275 875 275 1747
Q 275 2603 792 3093
Q 1309 3584 2216 3584
Q 3041 3584 3536 3087
Q 4031 2591 4031 1759
z
M 2881 2131
Q 2881 2450 2695 2645
Q 2509 2841 2209 2841
Q 1884 2841 1681 2658
Q 1478 2475 1428 2131
L 2881 2131
z
" transform="scale(0.015625)"/>
      <path id="DejaVuSans-Bold-448" d="M 3938 800
L 5100 800
L 5100 3500
L 6219 3500
L 6219 0
L 538 0
L 538 3500
L 1656 3500
L 1656 800
L 2819 800
L 2819 3500
L 3938 3500
L 3938 800
z
" transform="scale(0.015625)"/>
      <path id="DejaVuSans-Bold-430" d="M 2106 1575
Q 1756 1575 1579 1456
Q 1403 1338 1403 1106
Q 1403 894 1545 773
Q 1688 653 1941 653
Q 2256 653 2472 879
Q 2688 1106 2688 1447
L 2688 1575
L 2106 1575
z
M 3816 1997
L 3816 0
L 2688 0
L 2688 519
Q 2463 200 2181 54
Q 1900 -91 1497 -91
Q 953 -91 614 226
Q 275 544 275 1050
Q 275 1666 698 1953
Q 1122 2241 2028 2241
L 2688 2241
L 2688 2328
Q 2688 2594 2478 2717
Q 2269 2841 1825 2841
Q 1466 2841 1156 2769
Q 847 2697 581 2553
L 581 3406
Q 941 3494 1303 3539
Q 1666 3584 2028 3584
Q 2975 3584 3395 3211
Q 3816 2838 3816 1997
z
" transform="scale(0.015625)"/>
      <path id="DejaVuSans-Bold-43d" d="M 538 3500
L 1656 3500
L 1656 2169
L 2766 2169
L 2766 3500
L 3884 3500
L 3884 0
L 2766 0
L 2766 1478
L 1656 1478
L 1656 0
L 538 0
L 538 3500
z
" transform="scale(0.015625)"/>
      <path id="DejaVuSans-Bold-44b" d="M 4154 3500
L 5272 3500
L 5272 0
L 4154 0
L 4154 3500
z
M 2719 1094
Q 2719 1291 2594 1388
Q 2472 1481 2222 1481
L 1656 1481
L 1656 700
L 2222 700
Q 2469 700 2594 800
Q 2719 897 2719 1094
z
M 538 3500
L 1656 3500
L 1656 2172
L 2291 2172
Q 3000 2172 3381 1913
Q 3766 1650 3766 1081
Q 3766 513 3381 256
Q 3000 0 2291 0
L 538 0
L 538 3500
z
" transform="scale(0.015625)"/>
      <path id="DejaVuSans-Bold-439" d="M 3947 3500
L 3947 0
L 2828 0
L 2828 1863
L 1700 0
L 538 0
L 538 3500
L 1656 3500
L 1656 1638
L 2784 3500
L 3947 3500
z
M 1190 4891
L 1637 4891
Q 1671 4672 1826 4556
Q 1981 4441 2240 4441
Q 2499 4441 2654 4556
Q 2809 4672 2843 4891
L 3290 4891
Q 3271 4441 2999 4202
Q 2728 3963 2240 3963
Q 1753 3963 1481 4202
Q 1209 4441 1190 4891
z
" transform="scale(0.015625)"/>
      <path id="DejaVuSans-Bold-434" d="M 547 800
Q 903 919 1053 1314
Q 1203 1709 1203 2838
L 1203 3500
L 4228 3500
L 4228 800
L 4809 800
L 4809 -884
L 4009 -884
L 4009 0
L 1159 0
L 1159 -884
L 359 -884
L 359 800
L 547 800
z
M 3109 2700
L 2322 2700
L 2322 2603
Q 2322 1456 2063 800
L 3109 800
L 3109 2700
z
" transform="scale(0.015625)"/>
      <path id="DejaVuSans-Bold-432" d="M 2184 2181
Q 2378 2181 2478 2261
Q 2578 2341 2578 2497
Q 2578 2653 2478 2731
Q 2378 2809 2184 2809
L 1656 2809
L 1656 2181
L 2184 2181
z
M 2222 700
Q 2469 700 2594 798
Q 2719 897 2719 1094
Q 2719 1288 2594 1384
Q 2469 1481 2222 1481
L 1656 1481
L 1656 700
L 2222 700
z
M 538 3500
L 2141 3500
Q 2919 3500 3267 3279
Q 3616 3059 3616 2575
Q 3616 2319 3487 2139
Q 3359 1959 3119 1872
Q 3428 1788 3598 1561
Q 3769 1334 3769 1003
Q 3769 497 3403 248
Q 3038 0 2294 0
L 538 0
L 538 3500
z
" transform="scale(0.015625)"/>
      <path id="DejaVuSans-Bold-438" d="M 3947 3500
L 3947 0
L 2828 0
L 2828 1863
L 1700 0
L 538 0
L 538 3500
L 1656 3500
L 1656 1638
L 2784 3500
L 3947 3500
z
" transform="scale(0.015625)"/>
      <path id="DejaVuSans-Bold-433" d="M 538 0
L 538 3500
L 3191 3500
L 3191 2809
L 1656 2809
L 1656 0
L 538 0
z
" transform="scale(0.015625)"/>
      <path id="DejaVuSans-Bold-3a" d="M 716 3500
L 1844 3500
L 1844 2291
L 716 2291
L 716 3500
z
M 716 1209
L 1844 1209
L 1844 0
L 716 0
L 716 1209
z
" transform="scale(0.015625)"/>
      <path id="DejaVuSans-Bold-443" d="M 78 3500
L 1197 3500
L 2138 1125
L 2938 3500
L 4056 3500
L 2584 -331
Q 2363 -916 2067 -1148
Q 1772 -1381 1288 -1381
L 641 -1381
L 641 -647
L 991 -647
Q 1275 -647 1404 -556
Q 1534 -466 1606 -231
L 1638 -134
L 78 3500
z
" transform="scale(0.015625)"/>
      <path id="DejaVuSans-Bold-43b" d="M 353 0
L 353 800
Q 906 913 1031 1278
Q 1125 1556 1125 2928
L 1125 3500
L 4150 3500
L 4150 0
L 3031 0
L 3031 2700
L 2244 2700
L 2244 2584
Q 2244 1213 2028 813
Q 1591 0 353 0
z
" transform="scale(0.015625)"/>
      <path id="DejaVuSans-Bold-431" d="M 344 1941
L 322 2463
Q 275 2672 275 2881
Q 275 3494 456 3894
Q 791 4631 1238 4781
Q 1606 4909 3141 5031
Q 3297 5044 3475 5072
L 3725 4378
Q 3488 4316 2269 4209
Q 1734 4163 1516 4013
Q 1153 3766 1125 3300
Q 1584 3584 2275 3584
Q 3178 3584 3686 3096
Q 4194 2609 4194 1747
Q 4194 884 3687 396
Q 3181 -91 2275 -91
Q 1369 -91 858 396
Q 347 884 347 1747
Q 347 1866 344 1941
z
M 2272 2784
Q 1903 2784 1708 2517
Q 1513 2250 1513 1747
Q 1513 1244 1708 976
Q 1903 709 2272 709
Q 2641 709 2834 976
Q 3028 1244 3028 1747
Q 3028 2250 2834 2517
Q 2641 2784 2272 2784
z
" transform="scale(0.015625)"/>
      <path id="DejaVuSans-Bold-437" d="M 900 2181
L 1413 2181
Q 1872 2181 2039 2281
Q 2206 2381 2206 2519
Q 2206 2841 1469 2841
Q 853 2841 472 2625
L 472 3434
Q 1041 3584 1713 3584
Q 2500 3584 2862 3361
Q 3225 3138 3225 2666
Q 3225 2047 2541 1888
Q 3313 1697 3313 994
Q 3313 453 2888 181
Q 2463 -91 1553 -91
Q 875 -91 313 84
L 313 947
Q 1013 653 1428 653
Q 1884 653 2089 776
Q 2294 900 2294 1056
Q 2294 1491 1394 1491
L 900 1491
L 900 2181
z
" transform="scale(0.015625)"/>
      <path id="DejaVuSans-Bold-43e" d="M 2203 2784
Q 1831 2784 1636 2517
Q 1441 2250 1441 1747
Q 1441 1244 1636 976
Q 1831 709 2203 709
Q 2569 709 2762 976
Q 2956 1244 2956 1747
Q 2956 2250 2762 2517
Q 2569 2784 2203 2784
z
M 2203 3584
Q 3106 3584 3614 3096
Q 4122 2609 4122 1747
Q 4122 884 3614 396
Q 3106 -91 2203 -91
Q 1297 -91 786 396
Q 275 884 275 1747
Q 275 2609 786 3096
Q 1297 3584 2203 3584
z
" transform="scale(0.015625)"/>
      <path id="DejaVuSans-Bold-440" d="M 1656 506
L 1656 -1331
L 538 -1331
L 538 3500
L 1656 3500
L 1656 2988
Q 1888 3294 2169 3439
Q 2450 3584 2816 3584
Q 3463 3584 3878 3070
Q 4294 2556 4294 1747
Q 4294 938 3878 423
Q 3463 -91 2816 -91
Q 2450 -91 2169 54
Q 1888 200 1656 506
z
M 2400 2772
Q 2041 2772 1848 2508
Q 1656 2244 1656 1747
Q 1656 1250 1848 986
Q 2041 722 2400 722
Q 2759 722 2948 984
Q 3138 1247 3138 1747
Q 3138 2247 2948 2509
Q 2759 2772 2400 2772
z
" transform="scale(0.015625)"/>
      <path id="DejaVuSans-Bold-442" d="M 25 3500
L 3681 3500
L 3681 2809
L 2413 2809
L 2413 0
L 1297 0
L 1297 2809
L 25 2809
L 25 3500
z
" transform="scale(0.015625)"/>
     </defs>
     <use xlink:href="#DejaVuSans-Bold-4d"/>
     <use xlink:href="#DejaVuSans-Bold-4c" transform="translate(99.511719 0)"/>
     <use xlink:href="#DejaVuSans-Bold-50" transform="translate(163.232422 0)"/>
     <use xlink:href="#DejaVuSans-Bold-2c" transform="translate(218.148438 0)"/>
     <use xlink:href="#DejaVuSans-Bold-20" transform="translate(256.136719 0)"/>
     <use xlink:href="#DejaVuSans-Bold-441" transform="translate(290.951172 0)"/>
     <use xlink:href="#DejaVuSans-Bold-43c" transform="translate(350.228516 0)"/>
     <use xlink:href="#DejaVuSans-Bold-435" transform="translate(431.966797 0)"/>
     <use xlink:href="#DejaVuSans-Bold-448" transform="translate(499.789062 0)"/>
     <use xlink:href="#DejaVuSans-Bold-430" transform="translate(605.990234 0)"/>
     <use xlink:href="#DejaVuSans-Bold-43d" transform="translate(673.470703 0)"/>
     <use xlink:href="#DejaVuSans-Bold-43d" transform="translate(742.5625 0)"/>
     <use xlink:href="#DejaVuSans-Bold-44b" transform="translate(811.654297 0)"/>
     <use xlink:href="#DejaVuSans-Bold-439" transform="translate(902.083984 0)"/>
     <use xlink:href="#DejaVuSans-Bold-20" transform="translate(972.152344 0)"/>
     <use xlink:href="#DejaVuSans-Bold-441" transform="translate(1006.966797 0)"/>
     <use xlink:href="#DejaVuSans-Bold-434" transform="translate(1066.244141 0)"/>
     <use xlink:href="#DejaVuSans-Bold-432" transform="translate(1147.005859 0)"/>
     <use xlink:href="#DejaVuSans-Bold-438" transform="translate(1210.287109 0)"/>
     <use xlink:href="#DejaVuSans-Bold-433" transform="translate(1280.355469 0)"/>
     <use xlink:href="#DejaVuSans-Bold-3a" transform="translate(1332.601562 0)"/>
     <use xlink:href="#DejaVuSans-Bold-20" transform="translate(1372.591797 0)"/>
     <use xlink:href="#DejaVuSans-Bold-443" transform="translate(1407.40625 0)"/>
     <use xlink:href="#DejaVuSans-Bold-441" transform="translate(1472.591797 0)"/>
     <use xlink:href="#DejaVuSans-Bold-438" transform="translate(1531.869141 0)"/>
     <use xlink:href="#DejaVuSans-Bold-43b" transform="translate(1601.9375 0)"/>
     <use xlink:href="#DejaVuSans-Bold-435" transform="translate(1675.179688 0)"/>
     <use xlink:href="#DejaVuSans-Bold-43d" transform="translate(1743.001953 0)"/>
     <use xlink:href="#DejaVuSans-Bold-43d" transform="translate(1812.09375 0)"/>
     <use xlink:href="#DejaVuSans-Bold-44b" transform="translate(1881.185547 0)"/>
     <use xlink:href="#DejaVuSans-Bold-435" transform="translate(1971.615234 0)"/>
     <use xlink:href="#DejaVuSans-Bold-20" transform="translate(2039.4375 0)"/>
     <use xlink:href="#DejaVuSans-Bold-431" transform="translate(2074.251953 0)"/>
     <use xlink:href="#DejaVuSans-Bold-430" transform="translate(2144.076172 0)"/>
     <use xlink:href="#DejaVuSans-Bold-437" transform="translate(2211.556641 0)"/>
     <use xlink:href="#DejaVuSans-Bold-43e" transform="translate(2269.662109 0)"/>
     <use xlink:href="#DejaVuSans-Bold-432" transform="translate(2338.363281 0)"/>
     <use xlink:href="#DejaVuSans-Bold-44b" transform="translate(2401.644531 0)"/>
     <use xlink:href="#DejaVuSans-Bold-435" transform="translate(2492.074219 0)"/>
     <use xlink:href="#DejaVuSans-Bold-20" transform="translate(2559.896484 0)"/>
     <use xlink:href="#DejaVuSans-Bold-432" transform="translate(2594.710938 0)"/>
     <use xlink:href="#DejaVuSans-Bold-430" transform="translate(2657.992188 0)"/>
     <use xlink:href="#DejaVuSans-Bold-440" transform="translate(2725.472656 0)"/>
     <use xlink:href="#DejaVuSans-Bold-438" transform="translate(2797.054688 0)"/>
     <use xlink:href="#DejaVuSans-Bold-430" transform="translate(2867.123047 0)"/>
     <use xlink:href="#DejaVuSans-Bold-43d" transform="translate(2934.603516 0)"/>
     <use xlink:href="#DejaVuSans-Bold-442" transform="translate(3003.695312 0)"/>
     <use xlink:href="#DejaVuSans-Bold-44b" transform="translate(3061.654297 0)"/>
    </g>
   </g>
  </g>
 </g>
 <defs>
  <clipPath id="pf956df200d">
   <rect x="316.578672" y="45.5025" width="126.92" height="164.895"/>
  </clipPath>
 </defs>
</svg>
