<?xml version="1.0" encoding="utf-8" standalone="no"?>
<!DOCTYPE svg PUBLIC "-//W3C//DTD SVG 1.1//EN"
  "http://www.w3.org/Graphics/SVG/1.1/DTD/svg11.dtd">
<svg xmlns:xlink="http://www.w3.org/1999/xlink" width="663.487031pt" height="237.219875pt" viewBox="0 0 663.487031 237.219875" xmlns="http://www.w3.org/2000/svg" version="1.1">
 <metadata>
  <rdf:RDF xmlns:dc="http://purl.org/dc/elements/1.1/" xmlns:cc="http://creativecommons.org/ns#" xmlns:rdf="http://www.w3.org/1999/02/22-rdf-syntax-ns#">
   <cc:Work>
    <dc:type rdf:resource="http://purl.org/dc/dcmitype/StillImage"/>
    <dc:date>2026-07-16T16:34:43.626324</dc:date>
    <dc:format>image/svg+xml</dc:format>
    <dc:creator>
     <cc:Agent>
      <dc:title>Matplotlib v3.10.8, https://matplotlib.org/</dc:title>
     </cc:Agent>
    </dc:creator>
   </cc:Work>
  </rdf:RDF>
 </metadata>
 <defs>
  <style type="text/css">*{stroke-linejoin: round; stroke-linecap: butt}</style>
 </defs>
 <g id="figure_1">
  <g id="patch_1">
   <path d="M 0 237.219875 
L 663.487031 237.219875 
L 663.487031 0 
L 0 0 
z
" style="fill: #ffffff"/>
  </g>
  <g id="axes_1">
   <g id="patch_2">
    <path d="M 55.557031 197.728 
L 245.547031 197.728 
L 245.547031 90.816 
L 55.557031 90.816 
z
" style="fill: #ffffff"/>
   </g>
   <g id="FillBetweenPolyCollection_1">
    <defs>
     <path id="mb21d622ca7" d="M 64.19294 -85.226453 
L 64.19294 -82.256675 
L 88.866966 -82.256675 
L 138.215018 -82.256675 
L 236.911122 -82.256675 
L 236.911122 -89.384142 
L 236.911122 -89.384142 
L 138.215018 -85.820408 
L 88.866966 -87.602275 
L 64.19294 -85.226453 
z
" style="stroke: #12a594; stroke-opacity: 0.08"/>
    </defs>
    <g clip-path="url(#pb11c8116d9)">
     <use xlink:href="#mb21d622ca7" x="0" y="237.219875" style="fill: #12a594; fill-opacity: 0.08; stroke: #12a594; stroke-opacity: 0.08"/>
    </g>
   </g>
   <g id="matplotlib.axis_1">
    <g id="xtick_1">
     <g id="line2d_1">
      <defs>
       <path id="m218d2a389c" d="M 0 0 
L 0 3.5 
" style="stroke: #66747c; stroke-width: 0.8"/>
      </defs>
      <g>
       <use xlink:href="#m218d2a389c" x="64.19294" y="197.728" style="fill: #66747c; stroke: #66747c; stroke-width: 0.8"/>
      </g>
     </g>
     <g id="text_1">
      <!-- 1 -->
      <g style="fill: #66747c" transform="translate(60.693565 213.086281) scale(0.11 -0.11)">
       <defs>
        <path id="DejaVuSans-31" d="M 794 531 
L 1825 531 
L 1825 4091 
L 703 3866 
L 703 4441 
L 1819 4666 
L 2450 4666 
L 2450 531 
L 3481 531 
L 3481 0 
L 794 0 
L 794 531 
z
" transform="scale(0.015625)"/>
       </defs>
       <use xlink:href="#DejaVuSans-31"/>
      </g>
     </g>
    </g>
    <g id="xtick_2">
     <g id="line2d_2">
      <g>
       <use xlink:href="#m218d2a389c" x="88.866966" y="197.728" style="fill: #66747c; stroke: #66747c; stroke-width: 0.8"/>
      </g>
     </g>
     <g id="text_2">
      <!-- 2 -->
      <g style="fill: #66747c" transform="translate(85.367591 213.086281) scale(0.11 -0.11)">
       <defs>
        <path id="DejaVuSans-32" d="M 1228 531 
L 3431 531 
L 3431 0 
L 469 0 
L 469 531 
Q 828 903 1448 1529 
Q 2069 2156 2228 2338 
Q 2531 2678 2651 2914 
Q 2772 3150 2772 3378 
Q 2772 3750 2511 3984 
Q 2250 4219 1831 4219 
Q 1534 4219 1204 4116 
Q 875 4013 500 3803 
L 500 4441 
Q 881 4594 1212 4672 
Q 1544 4750 1819 4750 
Q 2544 4750 2975 4387 
Q 3406 4025 3406 3419 
Q 3406 3131 3298 2873 
Q 3191 2616 2906 2266 
Q 2828 2175 2409 1742 
Q 1991 1309 1228 531 
z
" transform="scale(0.015625)"/>
       </defs>
       <use xlink:href="#DejaVuSans-32"/>
      </g>
     </g>
    </g>
    <g id="xtick_3">
     <g id="line2d_3">
      <g>
       <use xlink:href="#m218d2a389c" x="138.215018" y="197.728" style="fill: #66747c; stroke: #66747c; stroke-width: 0.8"/>
      </g>
     </g>
     <g id="text_3">
      <!-- 4 -->
      <g style="fill: #66747c" transform="translate(134.715643 213.086281) scale(0.11 -0.11)">
       <defs>
        <path id="DejaVuSans-34" d="M 2419 4116 
L 825 1625 
L 2419 1625 
L 2419 4116 
z
M 2253 4666 
L 3047 4666 
L 3047 1625 
L 3713 1625 
L 3713 1100 
L 3047 1100 
L 3047 0 
L 2419 0 
L 2419 1100 
L 313 1100 
L 313 1709 
L 2253 4666 
z
" transform="scale(0.015625)"/>
       </defs>
       <use xlink:href="#DejaVuSans-34"/>
      </g>
     </g>
    </g>
    <g id="xtick_4">
     <g id="line2d_4">
      <g>
       <use xlink:href="#m218d2a389c" x="236.911122" y="197.728" style="fill: #66747c; stroke: #66747c; stroke-width: 0.8"/>
      </g>
     </g>
     <g id="text_4">
      <!-- 8 -->
      <g style="fill: #66747c" transform="translate(233.411747 213.086281) scale(0.11 -0.11)">
       <defs>
        <path id="DejaVuSans-38" d="M 2034 2216 
Q 1584 2216 1326 1975 
Q 1069 1734 1069 1313 
Q 1069 891 1326 650 
Q 1584 409 2034 409 
Q 2484 409 2743 651 
Q 3003 894 3003 1313 
Q 3003 1734 2745 1975 
Q 2488 2216 2034 2216 
z
M 1403 2484 
Q 997 2584 770 2862 
Q 544 3141 544 3541 
Q 544 4100 942 4425 
Q 1341 4750 2034 4750 
Q 2731 4750 3128 4425 
Q 3525 4100 3525 3541 
Q 3525 3141 3298 2862 
Q 3072 2584 2669 2484 
Q 3125 2378 3379 2068 
Q 3634 1759 3634 1313 
Q 3634 634 3220 271 
Q 2806 -91 2034 -91 
Q 1263 -91 848 271 
Q 434 634 434 1313 
Q 434 1759 690 2068 
Q 947 2378 1403 2484 
z
M 1172 3481 
Q 1172 3119 1398 2916 
Q 1625 2713 2034 2713 
Q 2441 2713 2670 2916 
Q 2900 3119 2900 3481 
Q 2900 3844 2670 4047 
Q 2441 4250 2034 4250 
Q 1625 4250 1398 4047 
Q 1172 3844 1172 3481 
z
" transform="scale(0.015625)"/>
       </defs>
       <use xlink:href="#DejaVuSans-38"/>
      </g>
     </g>
    </g>
    <g id="text_5">
     <!-- Rank -->
     <g style="fill: #15242d" transform="translate(136.813203 227.732219) scale(0.11 -0.11)">
      <defs>
       <path id="DejaVuSans-52" d="M 2841 2188 
Q 3044 2119 3236 1894 
Q 3428 1669 3622 1275 
L 4263 0 
L 3584 0 
L 2988 1197 
Q 2756 1666 2539 1819 
Q 2322 1972 1947 1972 
L 1259 1972 
L 1259 0 
L 628 0 
L 628 4666 
L 2053 4666 
Q 2853 4666 3247 4331 
Q 3641 3997 3641 3322 
Q 3641 2881 3436 2590 
Q 3231 2300 2841 2188 
z
M 1259 4147 
L 1259 2491 
L 2053 2491 
Q 2509 2491 2742 2702 
Q 2975 2913 2975 3322 
Q 2975 3731 2742 3939 
Q 2509 4147 2053 4147 
L 1259 4147 
z
" transform="scale(0.015625)"/>
       <path id="DejaVuSans-61" d="M 2194 1759 
Q 1497 1759 1228 1600 
Q 959 1441 959 1056 
Q 959 750 1161 570 
Q 1363 391 1709 391 
Q 2188 391 2477 730 
Q 2766 1069 2766 1631 
L 2766 1759 
L 2194 1759 
z
M 3341 1997 
L 3341 0 
L 2766 0 
L 2766 531 
Q 2569 213 2275 61 
Q 1981 -91 1556 -91 
Q 1019 -91 701 211 
Q 384 513 384 1019 
Q 384 1609 779 1909 
Q 1175 2209 1959 2209 
L 2766 2209 
L 2766 2266 
Q 2766 2663 2505 2880 
Q 2244 3097 1772 3097 
Q 1472 3097 1187 3025 
Q 903 2953 641 2809 
L 641 3341 
Q 956 3463 1253 3523 
Q 1550 3584 1831 3584 
Q 2591 3584 2966 3190 
Q 3341 2797 3341 1997 
z
" transform="scale(0.015625)"/>
       <path id="DejaVuSans-6e" d="M 3513 2113 
L 3513 0 
L 2938 0 
L 2938 2094 
Q 2938 2591 2744 2837 
Q 2550 3084 2163 3084 
Q 1697 3084 1428 2787 
Q 1159 2491 1159 1978 
L 1159 0 
L 581 0 
L 581 3500 
L 1159 3500 
L 1159 2956 
Q 1366 3272 1645 3428 
Q 1925 3584 2291 3584 
Q 2894 3584 3203 3211 
Q 3513 2838 3513 2113 
z
" transform="scale(0.015625)"/>
       <path id="DejaVuSans-6b" d="M 581 4863 
L 1159 4863 
L 1159 1991 
L 2875 3500 
L 3609 3500 
L 1753 1863 
L 3688 0 
L 2938 0 
L 1159 1709 
L 1159 0 
L 581 0 
L 581 4863 
z
" transform="scale(0.015625)"/>
      </defs>
      <use xlink:href="#DejaVuSans-52"/>
      <use xlink:href="#DejaVuSans-61" transform="translate(67.232422 0)"/>
      <use xlink:href="#DejaVuSans-6e" transform="translate(128.511719 0)"/>
      <use xlink:href="#DejaVuSans-6b" transform="translate(191.890625 0)"/>
     </g>
    </g>
   </g>
   <g id="matplotlib.axis_2">
    <g id="ytick_1">
     <g id="line2d_5">
      <path d="M 55.557031 181.6912 
L 245.547031 181.6912 
" clip-path="url(#pb11c8116d9)" style="fill: none; stroke: #dde5e7; stroke-width: 0.8; stroke-linecap: square"/>
     </g>
     <g id="line2d_6">
      <defs>
       <path id="m86b434ab04" d="M 0 0 
L -3.5 0 
" style="stroke: #66747c; stroke-width: 0.8"/>
      </defs>
      <g>
       <use xlink:href="#m86b434ab04" x="55.557031" y="181.6912" style="fill: #66747c; stroke: #66747c; stroke-width: 0.8"/>
      </g>
     </g>
     <g id="text_6">
      <!-- −2.5 -->
      <g style="fill: #66747c" transform="translate(21.845938 185.870341) scale(0.11 -0.11)">
       <defs>
        <path id="DejaVuSans-2212" d="M 678 2272 
L 4684 2272 
L 4684 1741 
L 678 1741 
L 678 2272 
z
" transform="scale(0.015625)"/>
        <path id="DejaVuSans-2e" d="M 684 794 
L 1344 794 
L 1344 0 
L 684 0 
L 684 794 
z
" transform="scale(0.015625)"/>
        <path id="DejaVuSans-35" d="M 691 4666 
L 3169 4666 
L 3169 4134 
L 1269 4134 
L 1269 2991 
Q 1406 3038 1543 3061 
Q 1681 3084 1819 3084 
Q 2600 3084 3056 2656 
Q 3513 2228 3513 1497 
Q 3513 744 3044 326 
Q 2575 -91 1722 -91 
Q 1428 -91 1123 -41 
Q 819 9 494 109 
L 494 744 
Q 775 591 1075 516 
Q 1375 441 1709 441 
Q 2250 441 2565 725 
Q 2881 1009 2881 1497 
Q 2881 1984 2565 2268 
Q 2250 2553 1709 2553 
Q 1456 2553 1204 2497 
Q 953 2441 691 2322 
L 691 4666 
z
" transform="scale(0.015625)"/>
       </defs>
       <use xlink:href="#DejaVuSans-2212"/>
       <use xlink:href="#DejaVuSans-32" transform="translate(83.789062 0)"/>
       <use xlink:href="#DejaVuSans-2e" transform="translate(147.412109 0)"/>
       <use xlink:href="#DejaVuSans-35" transform="translate(179.199219 0)"/>
      </g>
     </g>
    </g>
    <g id="ytick_2">
     <g id="line2d_7">
      <path d="M 55.557031 154.9632 
L 245.547031 154.9632 
" clip-path="url(#pb11c8116d9)" style="fill: none; stroke: #dde5e7; stroke-width: 0.8; stroke-linecap: square"/>
     </g>
     <g id="line2d_8">
      <g>
       <use xlink:href="#m86b434ab04" x="55.557031" y="154.9632" style="fill: #66747c; stroke: #66747c; stroke-width: 0.8"/>
      </g>
     </g>
     <g id="text_7">
      <!-- 0.0 -->
      <g style="fill: #66747c" transform="translate(31.063594 159.142341) scale(0.11 -0.11)">
       <defs>
        <path id="DejaVuSans-30" d="M 2034 4250 
Q 1547 4250 1301 3770 
Q 1056 3291 1056 2328 
Q 1056 1369 1301 889 
Q 1547 409 2034 409 
Q 2525 409 2770 889 
Q 3016 1369 3016 2328 
Q 3016 3291 2770 3770 
Q 2525 4250 2034 4250 
z
M 2034 4750 
Q 2819 4750 3233 4129 
Q 3647 3509 3647 2328 
Q 3647 1150 3233 529 
Q 2819 -91 2034 -91 
Q 1250 -91 836 529 
Q 422 1150 422 2328 
Q 422 3509 836 4129 
Q 1250 4750 2034 4750 
z
" transform="scale(0.015625)"/>
       </defs>
       <use xlink:href="#DejaVuSans-30"/>
       <use xlink:href="#DejaVuSans-2e" transform="translate(63.623047 0)"/>
       <use xlink:href="#DejaVuSans-30" transform="translate(95.410156 0)"/>
      </g>
     </g>
    </g>
    <g id="ytick_3">
     <g id="line2d_9">
      <path d="M 55.557031 128.2352 
L 245.547031 128.2352 
" clip-path="url(#pb11c8116d9)" style="fill: none; stroke: #dde5e7; stroke-width: 0.8; stroke-linecap: square"/>
     </g>
     <g id="line2d_10">
      <g>
       <use xlink:href="#m86b434ab04" x="55.557031" y="128.2352" style="fill: #66747c; stroke: #66747c; stroke-width: 0.8"/>
      </g>
     </g>
     <g id="text_8">
      <!-- 2.5 -->
      <g style="fill: #66747c" transform="translate(31.063594 132.414341) scale(0.11 -0.11)">
       <use xlink:href="#DejaVuSans-32"/>
       <use xlink:href="#DejaVuSans-2e" transform="translate(63.623047 0)"/>
       <use xlink:href="#DejaVuSans-35" transform="translate(95.410156 0)"/>
      </g>
     </g>
    </g>
    <g id="ytick_4">
     <g id="line2d_11">
      <path d="M 55.557031 101.5072 
L 245.547031 101.5072 
" clip-path="url(#pb11c8116d9)" style="fill: none; stroke: #dde5e7; stroke-width: 0.8; stroke-linecap: square"/>
     </g>
     <g id="line2d_12">
      <g>
       <use xlink:href="#m86b434ab04" x="55.557031" y="101.5072" style="fill: #66747c; stroke: #66747c; stroke-width: 0.8"/>
      </g>
     </g>
     <g id="text_9">
      <!-- 5.0 -->
      <g style="fill: #66747c" transform="translate(31.063594 105.686341) scale(0.11 -0.11)">
       <use xlink:href="#DejaVuSans-35"/>
       <use xlink:href="#DejaVuSans-2e" transform="translate(63.623047 0)"/>
       <use xlink:href="#DejaVuSans-30" transform="translate(95.410156 0)"/>
      </g>
     </g>
    </g>
    <g id="text_10">
     <!-- DoRA − LoRA, п.п. accuracy -->
     <g style="fill: #15242d" transform="translate(15.558281 221.785047) rotate(-90) scale(0.11 -0.11)">
      <defs>
       <path id="DejaVuSans-44" d="M 1259 4147 
L 1259 519 
L 2022 519 
Q 2988 519 3436 956 
Q 3884 1394 3884 2338 
Q 3884 3275 3436 3711 
Q 2988 4147 2022 4147 
L 1259 4147 
z
M 628 4666 
L 1925 4666 
Q 3281 4666 3915 4102 
Q 4550 3538 4550 2338 
Q 4550 1131 3912 565 
Q 3275 0 1925 0 
L 628 0 
L 628 4666 
z
" transform="scale(0.015625)"/>
       <path id="DejaVuSans-6f" d="M 1959 3097 
Q 1497 3097 1228 2736 
Q 959 2375 959 1747 
Q 959 1119 1226 758 
Q 1494 397 1959 397 
Q 2419 397 2687 759 
Q 2956 1122 2956 1747 
Q 2956 2369 2687 2733 
Q 2419 3097 1959 3097 
z
M 1959 3584 
Q 2709 3584 3137 3096 
Q 3566 2609 3566 1747 
Q 3566 888 3137 398 
Q 2709 -91 1959 -91 
Q 1206 -91 779 398 
Q 353 888 353 1747 
Q 353 2609 779 3096 
Q 1206 3584 1959 3584 
z
" transform="scale(0.015625)"/>
       <path id="DejaVuSans-41" d="M 2188 4044 
L 1331 1722 
L 3047 1722 
L 2188 4044 
z
M 1831 4666 
L 2547 4666 
L 4325 0 
L 3669 0 
L 3244 1197 
L 1141 1197 
L 716 0 
L 50 0 
L 1831 4666 
z
" transform="scale(0.015625)"/>
       <path id="DejaVuSans-20" transform="scale(0.015625)"/>
       <path id="DejaVuSans-4c" d="M 628 4666 
L 1259 4666 
L 1259 531 
L 3531 531 
L 3531 0 
L 628 0 
L 628 4666 
z
" transform="scale(0.015625)"/>
       <path id="DejaVuSans-2c" d="M 750 794 
L 1409 794 
L 1409 256 
L 897 -744 
L 494 -744 
L 750 256 
L 750 794 
z
" transform="scale(0.015625)"/>
       <path id="DejaVuSans-43f" d="M 3603 3500 
L 3603 0 
L 3025 0 
L 3025 3041 
L 1159 3041 
L 1159 0 
L 581 0 
L 581 3500 
L 3603 3500 
z
" transform="scale(0.015625)"/>
       <path id="DejaVuSans-63" d="M 3122 3366 
L 3122 2828 
Q 2878 2963 2633 3030 
Q 2388 3097 2138 3097 
Q 1578 3097 1268 2742 
Q 959 2388 959 1747 
Q 959 1106 1268 751 
Q 1578 397 2138 397 
Q 2388 397 2633 464 
Q 2878 531 3122 666 
L 3122 134 
Q 2881 22 2623 -34 
Q 2366 -91 2075 -91 
Q 1284 -91 818 406 
Q 353 903 353 1747 
Q 353 2603 823 3093 
Q 1294 3584 2113 3584 
Q 2378 3584 2631 3529 
Q 2884 3475 3122 3366 
z
" transform="scale(0.015625)"/>
       <path id="DejaVuSans-75" d="M 544 1381 
L 544 3500 
L 1119 3500 
L 1119 1403 
Q 1119 906 1312 657 
Q 1506 409 1894 409 
Q 2359 409 2629 706 
Q 2900 1003 2900 1516 
L 2900 3500 
L 3475 3500 
L 3475 0 
L 2900 0 
L 2900 538 
Q 2691 219 2414 64 
Q 2138 -91 1772 -91 
Q 1169 -91 856 284 
Q 544 659 544 1381 
z
M 1991 3584 
L 1991 3584 
z
" transform="scale(0.015625)"/>
       <path id="DejaVuSans-72" d="M 2631 2963 
Q 2534 3019 2420 3045 
Q 2306 3072 2169 3072 
Q 1681 3072 1420 2755 
Q 1159 2438 1159 1844 
L 1159 0 
L 581 0 
L 581 3500 
L 1159 3500 
L 1159 2956 
Q 1341 3275 1631 3429 
Q 1922 3584 2338 3584 
Q 2397 3584 2469 3576 
Q 2541 3569 2628 3553 
L 2631 2963 
z
" transform="scale(0.015625)"/>
       <path id="DejaVuSans-79" d="M 2059 -325 
Q 1816 -950 1584 -1140 
Q 1353 -1331 966 -1331 
L 506 -1331 
L 506 -850 
L 844 -850 
Q 1081 -850 1212 -737 
Q 1344 -625 1503 -206 
L 1606 56 
L 191 3500 
L 800 3500 
L 1894 763 
L 2988 3500 
L 3597 3500 
L 2059 -325 
z
" transform="scale(0.015625)"/>
      </defs>
      <use xlink:href="#DejaVuSans-44"/>
      <use xlink:href="#DejaVuSans-6f" transform="translate(77.001953 0)"/>
      <use xlink:href="#DejaVuSans-52" transform="translate(138.183594 0)"/>
      <use xlink:href="#DejaVuSans-41" transform="translate(203.666016 0)"/>
      <use xlink:href="#DejaVuSans-20" transform="translate(272.074219 0)"/>
      <use xlink:href="#DejaVuSans-2212" transform="translate(303.861328 0)"/>
      <use xlink:href="#DejaVuSans-20" transform="translate(387.650391 0)"/>
      <use xlink:href="#DejaVuSans-4c" transform="translate(419.4375 0)"/>
      <use xlink:href="#DejaVuSans-6f" transform="translate(473.400391 0)"/>
      <use xlink:href="#DejaVuSans-52" transform="translate(534.582031 0)"/>
      <use xlink:href="#DejaVuSans-41" transform="translate(600.064453 0)"/>
      <use xlink:href="#DejaVuSans-2c" transform="translate(668.472656 0)"/>
      <use xlink:href="#DejaVuSans-20" transform="translate(700.259766 0)"/>
      <use xlink:href="#DejaVuSans-43f" transform="translate(732.046875 0)"/>
      <use xlink:href="#DejaVuSans-2e" transform="translate(797.427734 0)"/>
      <use xlink:href="#DejaVuSans-43f" transform="translate(829.214844 0)"/>
      <use xlink:href="#DejaVuSans-2e" transform="translate(894.595703 0)"/>
      <use xlink:href="#DejaVuSans-20" transform="translate(926.382812 0)"/>
      <use xlink:href="#DejaVuSans-61" transform="translate(958.169922 0)"/>
      <use xlink:href="#DejaVuSans-63" transform="translate(1019.449219 0)"/>
      <use xlink:href="#DejaVuSans-63" transform="translate(1074.429688 0)"/>
      <use xlink:href="#DejaVuSans-75" transform="translate(1129.410156 0)"/>
      <use xlink:href="#DejaVuSans-72" transform="translate(1192.789062 0)"/>
      <use xlink:href="#DejaVuSans-61" transform="translate(1233.902344 0)"/>
      <use xlink:href="#DejaVuSans-63" transform="translate(1295.181641 0)"/>
      <use xlink:href="#DejaVuSans-79" transform="translate(1350.162109 0)"/>
     </g>
    </g>
   </g>
   <g id="line2d_13">
    <path d="M 55.557031 154.9632 
L 245.547031 154.9632 
" clip-path="url(#pb11c8116d9)" style="fill: none; stroke: #15242d; stroke-linecap: square"/>
   </g>
   <g id="LineCollection_1">
    <path d="M 64.19294 171.505659 
L 64.19294 132.481185 
" clip-path="url(#pb11c8116d9)" style="fill: none; stroke: #12a594; stroke-width: 2"/>
    <path d="M 88.866966 159.849903 
L 88.866966 139.385297 
" clip-path="url(#pb11c8116d9)" style="fill: none; stroke: #12a594; stroke-width: 2"/>
    <path d="M 138.215018 171.154101 
L 138.215018 131.644833 
" clip-path="url(#pb11c8116d9)" style="fill: none; stroke: #12a594; stroke-width: 2"/>
    <path d="M 236.911122 168.30034 
L 236.911122 127.371127 
" clip-path="url(#pb11c8116d9)" style="fill: none; stroke: #12a594; stroke-width: 2"/>
   </g>
   <g id="line2d_14">
    <defs>
     <path id="m234c563e4b" d="M 3 0 
L -3 -0 
" style="stroke: #12a594"/>
    </defs>
    <g clip-path="url(#pb11c8116d9)">
     <use xlink:href="#m234c563e4b" x="64.19294" y="171.505659" style="fill: #12a594; stroke: #12a594"/>
     <use xlink:href="#m234c563e4b" x="88.866966" y="159.849903" style="fill: #12a594; stroke: #12a594"/>
     <use xlink:href="#m234c563e4b" x="138.215018" y="171.154101" style="fill: #12a594; stroke: #12a594"/>
     <use xlink:href="#m234c563e4b" x="236.911122" y="168.30034" style="fill: #12a594; stroke: #12a594"/>
    </g>
   </g>
   <g id="line2d_15">
    <g clip-path="url(#pb11c8116d9)">
     <use xlink:href="#m234c563e4b" x="64.19294" y="132.481185" style="fill: #12a594; stroke: #12a594"/>
     <use xlink:href="#m234c563e4b" x="88.866966" y="139.385297" style="fill: #12a594; stroke: #12a594"/>
     <use xlink:href="#m234c563e4b" x="138.215018" y="131.644833" style="fill: #12a594; stroke: #12a594"/>
     <use xlink:href="#m234c563e4b" x="236.911122" y="127.371127" style="fill: #12a594; stroke: #12a594"/>
    </g>
   </g>
   <g id="line2d_16">
    <path d="M 64.19294 151.993422 
L 88.866966 149.6176 
L 138.215018 151.399467 
L 236.911122 147.835733 
" clip-path="url(#pb11c8116d9)" style="fill: none; stroke: #12a594; stroke-width: 2; stroke-linecap: square"/>
    <defs>
     <path id="mee452be939" d="M 0 3 
C 0.795609 3 1.55874 2.683901 2.12132 2.12132 
C 2.683901 1.55874 3 0.795609 3 0 
C 3 -0.795609 2.683901 -1.55874 2.12132 -2.12132 
C 1.55874 -2.683901 0.795609 -3 0 -3 
C -0.795609 -3 -1.55874 -2.683901 -2.12132 -2.12132 
C -2.683901 -1.55874 -3 -0.795609 -3 0 
C -3 0.795609 -2.683901 1.55874 -2.12132 2.12132 
C -1.55874 2.683901 -0.795609 3 0 3 
z
" style="stroke: #12a594"/>
    </defs>
    <g clip-path="url(#pb11c8116d9)">
     <use xlink:href="#mee452be939" x="64.19294" y="151.993422" style="fill: #12a594; stroke: #12a594"/>
     <use xlink:href="#mee452be939" x="88.866966" y="149.6176" style="fill: #12a594; stroke: #12a594"/>
     <use xlink:href="#mee452be939" x="138.215018" y="151.399467" style="fill: #12a594; stroke: #12a594"/>
     <use xlink:href="#mee452be939" x="236.911122" y="147.835733" style="fill: #12a594; stroke: #12a594"/>
    </g>
   </g>
   <g id="patch_3">
    <path d="M 55.557031 197.728 
L 55.557031 90.816 
" style="fill: none; stroke: #66747c; stroke-width: 0.8; stroke-linejoin: miter; stroke-linecap: square"/>
   </g>
   <g id="patch_4">
    <path d="M 55.557031 197.728 
L 245.547031 197.728 
" style="fill: none; stroke: #66747c; stroke-width: 0.8; stroke-linejoin: miter; stroke-linecap: square"/>
   </g>
   <g id="text_11">
    <!-- Контраст -->
    <g style="fill: #15242d" transform="translate(113.187344 84.816) scale(0.14 -0.14)">
     <defs>
      <path id="DejaVuSans-Bold-41a" d="M 588 4666 
L 1791 4666 
L 1791 2741 
L 3672 4666 
L 5034 4666 
L 3181 2775 
L 5138 0 
L 3813 0 
L 2409 1988 
L 1791 1356 
L 1791 0 
L 588 0 
L 588 4666 
z
" transform="scale(0.015625)"/>
      <path id="DejaVuSans-Bold-43e" d="M 2203 2784 
Q 1831 2784 1636 2517 
Q 1441 2250 1441 1747 
Q 1441 1244 1636 976 
Q 1831 709 2203 709 
Q 2569 709 2762 976 
Q 2956 1244 2956 1747 
Q 2956 2250 2762 2517 
Q 2569 2784 2203 2784 
z
M 2203 3584 
Q 3106 3584 3614 3096 
Q 4122 2609 4122 1747 
Q 4122 884 3614 396 
Q 3106 -91 2203 -91 
Q 1297 -91 786 396 
Q 275 884 275 1747 
Q 275 2609 786 3096 
Q 1297 3584 2203 3584 
z
" transform="scale(0.015625)"/>
      <path id="DejaVuSans-Bold-43d" d="M 538 3500 
L 1656 3500 
L 1656 2169 
L 2766 2169 
L 2766 3500 
L 3884 3500 
L 3884 0 
L 2766 0 
L 2766 1478 
L 1656 1478 
L 1656 0 
L 538 0 
L 538 3500 
z
" transform="scale(0.015625)"/>
      <path id="DejaVuSans-Bold-442" d="M 25 3500 
L 3681 3500 
L 3681 2809 
L 2413 2809 
L 2413 0 
L 1297 0 
L 1297 2809 
L 25 2809 
L 25 3500 
z
" transform="scale(0.015625)"/>
      <path id="DejaVuSans-Bold-440" d="M 1656 506 
L 1656 -1331 
L 538 -1331 
L 538 3500 
L 1656 3500 
L 1656 2988 
Q 1888 3294 2169 3439 
Q 2450 3584 2816 3584 
Q 3463 3584 3878 3070 
Q 4294 2556 4294 1747 
Q 4294 938 3878 423 
Q 3463 -91 2816 -91 
Q 2450 -91 2169 54 
Q 1888 200 1656 506 
z
M 2400 2772 
Q 2041 2772 1848 2508 
Q 1656 2244 1656 1747 
Q 1656 1250 1848 986 
Q 2041 722 2400 722 
Q 2759 722 2948 984 
Q 3138 1247 3138 1747 
Q 3138 2247 2948 2509 
Q 2759 2772 2400 2772 
z
" transform="scale(0.015625)"/>
      <path id="DejaVuSans-Bold-430" d="M 2106 1575 
Q 1756 1575 1579 1456 
Q 1403 1338 1403 1106 
Q 1403 894 1545 773 
Q 1688 653 1941 653 
Q 2256 653 2472 879 
Q 2688 1106 2688 1447 
L 2688 1575 
L 2106 1575 
z
M 3816 1997 
L 3816 0 
L 2688 0 
L 2688 519 
Q 2463 200 2181 54 
Q 1900 -91 1497 -91 
Q 953 -91 614 226 
Q 275 544 275 1050 
Q 275 1666 698 1953 
Q 1122 2241 2028 2241 
L 2688 2241 
L 2688 2328 
Q 2688 2594 2478 2717 
Q 2269 2841 1825 2841 
Q 1466 2841 1156 2769 
Q 847 2697 581 2553 
L 581 3406 
Q 941 3494 1303 3539 
Q 1666 3584 2028 3584 
Q 2975 3584 3395 3211 
Q 3816 2838 3816 1997 
z
" transform="scale(0.015625)"/>
      <path id="DejaVuSans-Bold-441" d="M 3366 3391 
L 3366 2478 
Q 3138 2634 2908 2709 
Q 2678 2784 2431 2784 
Q 1963 2784 1702 2511 
Q 1441 2238 1441 1747 
Q 1441 1256 1702 982 
Q 1963 709 2431 709 
Q 2694 709 2930 787 
Q 3166 866 3366 1019 
L 3366 103 
Q 3103 6 2833 -42 
Q 2563 -91 2291 -91 
Q 1344 -91 809 395 
Q 275 881 275 1747 
Q 275 2613 809 3098 
Q 1344 3584 2291 3584 
Q 2566 3584 2833 3536 
Q 3100 3488 3366 3391 
z
" transform="scale(0.015625)"/>
     </defs>
     <use xlink:href="#DejaVuSans-Bold-41a"/>
     <use xlink:href="#DejaVuSans-Bold-43e" transform="translate(81.738281 0)"/>
     <use xlink:href="#DejaVuSans-Bold-43d" transform="translate(150.439453 0)"/>
     <use xlink:href="#DejaVuSans-Bold-442" transform="translate(219.53125 0)"/>
     <use xlink:href="#DejaVuSans-Bold-440" transform="translate(277.490234 0)"/>
     <use xlink:href="#DejaVuSans-Bold-430" transform="translate(349.072266 0)"/>
     <use xlink:href="#DejaVuSans-Bold-441" transform="translate(416.552734 0)"/>
     <use xlink:href="#DejaVuSans-Bold-442" transform="translate(475.830078 0)"/>
    </g>
   </g>
  </g>
  <g id="axes_2">
   <g id="patch_5">
    <path d="M 260.927031 197.728 
L 450.917031 197.728 
L 450.917031 90.816 
L 260.927031 90.816 
z
" style="fill: #ffffff"/>
   </g>
   <g id="FillBetweenPolyCollection_2">
    <defs>
     <path id="m05b6d49e34" d="M 269.56294 -91.166008 
L 269.56294 -82.256675 
L 294.236966 -82.256675 
L 343.585018 -82.256675 
L 442.281122 -82.256675 
L 442.281122 -78.098986 
L 442.281122 -78.098986 
L 343.585018 -89.384142 
L 294.236966 -87.602275 
L 269.56294 -91.166008 
z
" style="stroke: #12a594; stroke-opacity: 0.08"/>
    </defs>
    <g clip-path="url(#pf3065a3bec)">
     <use xlink:href="#m05b6d49e34" x="0" y="237.219875" style="fill: #12a594; fill-opacity: 0.08; stroke: #12a594; stroke-opacity: 0.08"/>
    </g>
   </g>
   <g id="matplotlib.axis_3">
    <g id="xtick_5">
     <g id="line2d_17">
      <g>
       <use xlink:href="#m218d2a389c" x="269.56294" y="197.728" style="fill: #66747c; stroke: #66747c; stroke-width: 0.8"/>
      </g>
     </g>
     <g id="text_12">
      <!-- 1 -->
      <g style="fill: #66747c" transform="translate(266.063565 213.086281) scale(0.11 -0.11)">
       <use xlink:href="#DejaVuSans-31"/>
      </g>
     </g>
    </g>
    <g id="xtick_6">
     <g id="line2d_18">
      <g>
       <use xlink:href="#m218d2a389c" x="294.236966" y="197.728" style="fill: #66747c; stroke: #66747c; stroke-width: 0.8"/>
      </g>
     </g>
     <g id="text_13">
      <!-- 2 -->
      <g style="fill: #66747c" transform="translate(290.737591 213.086281) scale(0.11 -0.11)">
       <use xlink:href="#DejaVuSans-32"/>
      </g>
     </g>
    </g>
    <g id="xtick_7">
     <g id="line2d_19">
      <g>
       <use xlink:href="#m218d2a389c" x="343.585018" y="197.728" style="fill: #66747c; stroke: #66747c; stroke-width: 0.8"/>
      </g>
     </g>
     <g id="text_14">
      <!-- 4 -->
      <g style="fill: #66747c" transform="translate(340.085643 213.086281) scale(0.11 -0.11)">
       <use xlink:href="#DejaVuSans-34"/>
      </g>
     </g>
    </g>
    <g id="xtick_8">
     <g id="line2d_20">
      <g>
       <use xlink:href="#m218d2a389c" x="442.281122" y="197.728" style="fill: #66747c; stroke: #66747c; stroke-width: 0.8"/>
      </g>
     </g>
     <g id="text_15">
      <!-- 8 -->
      <g style="fill: #66747c" transform="translate(438.781747 213.086281) scale(0.11 -0.11)">
       <use xlink:href="#DejaVuSans-38"/>
      </g>
     </g>
    </g>
    <g id="text_16">
     <!-- Rank -->
     <g style="fill: #15242d" transform="translate(342.183203 227.732219) scale(0.11 -0.11)">
      <use xlink:href="#DejaVuSans-52"/>
      <use xlink:href="#DejaVuSans-61" transform="translate(67.232422 0)"/>
      <use xlink:href="#DejaVuSans-6e" transform="translate(128.511719 0)"/>
      <use xlink:href="#DejaVuSans-6b" transform="translate(191.890625 0)"/>
     </g>
    </g>
   </g>
   <g id="matplotlib.axis_4">
    <g id="ytick_5">
     <g id="line2d_21">
      <path d="M 260.927031 181.6912 
L 450.917031 181.6912 
" clip-path="url(#pf3065a3bec)" style="fill: none; stroke: #dde5e7; stroke-width: 0.8; stroke-linecap: square"/>
     </g>
     <g id="line2d_22">
      <g>
       <use xlink:href="#m86b434ab04" x="260.927031" y="181.6912" style="fill: #66747c; stroke: #66747c; stroke-width: 0.8"/>
      </g>
     </g>
    </g>
    <g id="ytick_6">
     <g id="line2d_23">
      <path d="M 260.927031 154.9632 
L 450.917031 154.9632 
" clip-path="url(#pf3065a3bec)" style="fill: none; stroke: #dde5e7; stroke-width: 0.8; stroke-linecap: square"/>
     </g>
     <g id="line2d_24">
      <g>
       <use xlink:href="#m86b434ab04" x="260.927031" y="154.9632" style="fill: #66747c; stroke: #66747c; stroke-width: 0.8"/>
      </g>
     </g>
    </g>
    <g id="ytick_7">
     <g id="line2d_25">
      <path d="M 260.927031 128.2352 
L 450.917031 128.2352 
" clip-path="url(#pf3065a3bec)" style="fill: none; stroke: #dde5e7; stroke-width: 0.8; stroke-linecap: square"/>
     </g>
     <g id="line2d_26">
      <g>
       <use xlink:href="#m86b434ab04" x="260.927031" y="128.2352" style="fill: #66747c; stroke: #66747c; stroke-width: 0.8"/>
      </g>
     </g>
    </g>
    <g id="ytick_8">
     <g id="line2d_27">
      <path d="M 260.927031 101.5072 
L 450.917031 101.5072 
" clip-path="url(#pf3065a3bec)" style="fill: none; stroke: #dde5e7; stroke-width: 0.8; stroke-linecap: square"/>
     </g>
     <g id="line2d_28">
      <g>
       <use xlink:href="#m86b434ab04" x="260.927031" y="101.5072" style="fill: #66747c; stroke: #66747c; stroke-width: 0.8"/>
      </g>
     </g>
    </g>
   </g>
   <g id="line2d_29">
    <path d="M 260.927031 154.9632 
L 450.917031 154.9632 
" clip-path="url(#pf3065a3bec)" style="fill: none; stroke: #15242d; stroke-linecap: square"/>
   </g>
   <g id="LineCollection_2">
    <path d="M 269.56294 165.391102 
L 269.56294 126.716631 
" clip-path="url(#pf3065a3bec)" style="fill: none; stroke: #12a594; stroke-width: 2"/>
    <path d="M 294.236966 168.128533 
L 294.236966 131.106667 
" clip-path="url(#pf3065a3bec)" style="fill: none; stroke: #12a594; stroke-width: 2"/>
    <path d="M 343.585018 152.782988 
L 343.585018 142.888478 
" clip-path="url(#pf3065a3bec)" style="fill: none; stroke: #12a594; stroke-width: 2"/>
    <path d="M 442.281122 165.2912 
L 442.281122 152.950578 
" clip-path="url(#pf3065a3bec)" style="fill: none; stroke: #12a594; stroke-width: 2"/>
   </g>
   <g id="line2d_30">
    <g clip-path="url(#pf3065a3bec)">
     <use xlink:href="#m234c563e4b" x="269.56294" y="165.391102" style="fill: #12a594; stroke: #12a594"/>
     <use xlink:href="#m234c563e4b" x="294.236966" y="168.128533" style="fill: #12a594; stroke: #12a594"/>
     <use xlink:href="#m234c563e4b" x="343.585018" y="152.782988" style="fill: #12a594; stroke: #12a594"/>
     <use xlink:href="#m234c563e4b" x="442.281122" y="165.2912" style="fill: #12a594; stroke: #12a594"/>
    </g>
   </g>
   <g id="line2d_31">
    <g clip-path="url(#pf3065a3bec)">
     <use xlink:href="#m234c563e4b" x="269.56294" y="126.716631" style="fill: #12a594; stroke: #12a594"/>
     <use xlink:href="#m234c563e4b" x="294.236966" y="131.106667" style="fill: #12a594; stroke: #12a594"/>
     <use xlink:href="#m234c563e4b" x="343.585018" y="142.888478" style="fill: #12a594; stroke: #12a594"/>
     <use xlink:href="#m234c563e4b" x="442.281122" y="152.950578" style="fill: #12a594; stroke: #12a594"/>
    </g>
   </g>
   <g id="line2d_32">
    <path d="M 269.56294 146.053867 
L 294.236966 149.6176 
L 343.585018 147.835733 
L 442.281122 159.120889 
" clip-path="url(#pf3065a3bec)" style="fill: none; stroke: #12a594; stroke-width: 2; stroke-linecap: square"/>
    <g clip-path="url(#pf3065a3bec)">
     <use xlink:href="#mee452be939" x="269.56294" y="146.053867" style="fill: #12a594; stroke: #12a594"/>
     <use xlink:href="#mee452be939" x="294.236966" y="149.6176" style="fill: #12a594; stroke: #12a594"/>
     <use xlink:href="#mee452be939" x="343.585018" y="147.835733" style="fill: #12a594; stroke: #12a594"/>
     <use xlink:href="#mee452be939" x="442.281122" y="159.120889" style="fill: #12a594; stroke: #12a594"/>
    </g>
   </g>
   <g id="patch_6">
    <path d="M 260.927031 197.728 
L 260.927031 90.816 
" style="fill: none; stroke: #66747c; stroke-width: 0.8; stroke-linejoin: miter; stroke-linecap: square"/>
   </g>
   <g id="patch_7">
    <path d="M 260.927031 197.728 
L 450.917031 197.728 
" style="fill: none; stroke: #66747c; stroke-width: 0.8; stroke-linejoin: miter; stroke-linecap: square"/>
   </g>
   <g id="text_17">
    <!-- Поворот -->
    <g style="fill: #15242d" transform="translate(322.139375 84.816) scale(0.14 -0.14)">
     <defs>
      <path id="DejaVuSans-Bold-41f" d="M 4769 4666 
L 4769 0 
L 3566 0 
L 3566 3756 
L 1791 3756 
L 1791 0 
L 588 0 
L 588 4666 
L 4769 4666 
z
" transform="scale(0.015625)"/>
      <path id="DejaVuSans-Bold-432" d="M 2184 2181 
Q 2378 2181 2478 2261 
Q 2578 2341 2578 2497 
Q 2578 2653 2478 2731 
Q 2378 2809 2184 2809 
L 1656 2809 
L 1656 2181 
L 2184 2181 
z
M 2222 700 
Q 2469 700 2594 798 
Q 2719 897 2719 1094 
Q 2719 1288 2594 1384 
Q 2469 1481 2222 1481 
L 1656 1481 
L 1656 700 
L 2222 700 
z
M 538 3500 
L 2141 3500 
Q 2919 3500 3267 3279 
Q 3616 3059 3616 2575 
Q 3616 2319 3487 2139 
Q 3359 1959 3119 1872 
Q 3428 1788 3598 1561 
Q 3769 1334 3769 1003 
Q 3769 497 3403 248 
Q 3038 0 2294 0 
L 538 0 
L 538 3500 
z
" transform="scale(0.015625)"/>
     </defs>
     <use xlink:href="#DejaVuSans-Bold-41f"/>
     <use xlink:href="#DejaVuSans-Bold-43e" transform="translate(83.691406 0)"/>
     <use xlink:href="#DejaVuSans-Bold-432" transform="translate(152.392578 0)"/>
     <use xlink:href="#DejaVuSans-Bold-43e" transform="translate(215.673828 0)"/>
     <use xlink:href="#DejaVuSans-Bold-440" transform="translate(284.375 0)"/>
     <use xlink:href="#DejaVuSans-Bold-43e" transform="translate(355.957031 0)"/>
     <use xlink:href="#DejaVuSans-Bold-442" transform="translate(424.658203 0)"/>
    </g>
   </g>
  </g>
  <g id="axes_3">
   <g id="patch_8">
    <path d="M 466.297031 197.728 
L 656.287031 197.728 
L 656.287031 90.816 
L 466.297031 90.816 
z
" style="fill: #ffffff"/>
   </g>
   <g id="FillBetweenPolyCollection_3">
    <defs>
     <path id="m759eeefc7e" d="M 474.93294 -111.360497 
L 474.93294 -82.256675 
L 499.606966 -82.256675 
L 548.955018 -82.256675 
L 647.651122 -82.256675 
L 647.651122 -102.451164 
L 647.651122 -102.451164 
L 548.955018 -97.105564 
L 499.606966 -85.226453 
L 474.93294 -111.360497 
z
" style="stroke: #12a594; stroke-opacity: 0.08"/>
    </defs>
    <g clip-path="url(#p5ab0ae6169)">
     <use xlink:href="#m759eeefc7e" x="0" y="237.219875" style="fill: #12a594; fill-opacity: 0.08; stroke: #12a594; stroke-opacity: 0.08"/>
    </g>
   </g>
   <g id="matplotlib.axis_5">
    <g id="xtick_9">
     <g id="line2d_33">
      <g>
       <use xlink:href="#m218d2a389c" x="474.93294" y="197.728" style="fill: #66747c; stroke: #66747c; stroke-width: 0.8"/>
      </g>
     </g>
     <g id="text_18">
      <!-- 1 -->
      <g style="fill: #66747c" transform="translate(471.433565 213.086281) scale(0.11 -0.11)">
       <use xlink:href="#DejaVuSans-31"/>
      </g>
     </g>
    </g>
    <g id="xtick_10">
     <g id="line2d_34">
      <g>
       <use xlink:href="#m218d2a389c" x="499.606966" y="197.728" style="fill: #66747c; stroke: #66747c; stroke-width: 0.8"/>
      </g>
     </g>
     <g id="text_19">
      <!-- 2 -->
      <g style="fill: #66747c" transform="translate(496.107591 213.086281) scale(0.11 -0.11)">
       <use xlink:href="#DejaVuSans-32"/>
      </g>
     </g>
    </g>
    <g id="xtick_11">
     <g id="line2d_35">
      <g>
       <use xlink:href="#m218d2a389c" x="548.955018" y="197.728" style="fill: #66747c; stroke: #66747c; stroke-width: 0.8"/>
      </g>
     </g>
     <g id="text_20">
      <!-- 4 -->
      <g style="fill: #66747c" transform="translate(545.455643 213.086281) scale(0.11 -0.11)">
       <use xlink:href="#DejaVuSans-34"/>
      </g>
     </g>
    </g>
    <g id="xtick_12">
     <g id="line2d_36">
      <g>
       <use xlink:href="#m218d2a389c" x="647.651122" y="197.728" style="fill: #66747c; stroke: #66747c; stroke-width: 0.8"/>
      </g>
     </g>
     <g id="text_21">
      <!-- 8 -->
      <g style="fill: #66747c" transform="translate(644.151747 213.086281) scale(0.11 -0.11)">
       <use xlink:href="#DejaVuSans-38"/>
      </g>
     </g>
    </g>
    <g id="text_22">
     <!-- Rank -->
     <g style="fill: #15242d" transform="translate(547.553203 227.732219) scale(0.11 -0.11)">
      <use xlink:href="#DejaVuSans-52"/>
      <use xlink:href="#DejaVuSans-61" transform="translate(67.232422 0)"/>
      <use xlink:href="#DejaVuSans-6e" transform="translate(128.511719 0)"/>
      <use xlink:href="#DejaVuSans-6b" transform="translate(191.890625 0)"/>
     </g>
    </g>
   </g>
   <g id="matplotlib.axis_6">
    <g id="ytick_9">
     <g id="line2d_37">
      <path d="M 466.297031 181.6912 
L 656.287031 181.6912 
" clip-path="url(#p5ab0ae6169)" style="fill: none; stroke: #dde5e7; stroke-width: 0.8; stroke-linecap: square"/>
     </g>
     <g id="line2d_38">
      <g>
       <use xlink:href="#m86b434ab04" x="466.297031" y="181.6912" style="fill: #66747c; stroke: #66747c; stroke-width: 0.8"/>
      </g>
     </g>
    </g>
    <g id="ytick_10">
     <g id="line2d_39">
      <path d="M 466.297031 154.9632 
L 656.287031 154.9632 
" clip-path="url(#p5ab0ae6169)" style="fill: none; stroke: #dde5e7; stroke-width: 0.8; stroke-linecap: square"/>
     </g>
     <g id="line2d_40">
      <g>
       <use xlink:href="#m86b434ab04" x="466.297031" y="154.9632" style="fill: #66747c; stroke: #66747c; stroke-width: 0.8"/>
      </g>
     </g>
    </g>
    <g id="ytick_11">
     <g id="line2d_41">
      <path d="M 466.297031 128.2352 
L 656.287031 128.2352 
" clip-path="url(#p5ab0ae6169)" style="fill: none; stroke: #dde5e7; stroke-width: 0.8; stroke-linecap: square"/>
     </g>
     <g id="line2d_42">
      <g>
       <use xlink:href="#m86b434ab04" x="466.297031" y="128.2352" style="fill: #66747c; stroke: #66747c; stroke-width: 0.8"/>
      </g>
     </g>
    </g>
    <g id="ytick_12">
     <g id="line2d_43">
      <path d="M 466.297031 101.5072 
L 656.287031 101.5072 
" clip-path="url(#p5ab0ae6169)" style="fill: none; stroke: #dde5e7; stroke-width: 0.8; stroke-linecap: square"/>
     </g>
     <g id="line2d_44">
      <g>
       <use xlink:href="#m86b434ab04" x="466.297031" y="101.5072" style="fill: #66747c; stroke: #66747c; stroke-width: 0.8"/>
      </g>
     </g>
    </g>
   </g>
   <g id="line2d_45">
    <path d="M 466.297031 154.9632 
L 656.287031 154.9632 
" clip-path="url(#p5ab0ae6169)" style="fill: none; stroke: #15242d; stroke-linecap: square"/>
   </g>
   <g id="LineCollection_3">
    <path d="M 474.93294 156.644752 
L 474.93294 95.074004 
" clip-path="url(#p5ab0ae6169)" style="fill: none; stroke: #12a594; stroke-width: 2"/>
    <path d="M 499.606966 183.28261 
L 499.606966 120.704234 
" clip-path="url(#p5ab0ae6169)" style="fill: none; stroke: #12a594; stroke-width: 2"/>
    <path d="M 548.955018 154.155764 
L 548.955018 126.072858 
" clip-path="url(#p5ab0ae6169)" style="fill: none; stroke: #12a594; stroke-width: 2"/>
    <path d="M 647.651122 150.714604 
L 647.651122 118.822818 
" clip-path="url(#p5ab0ae6169)" style="fill: none; stroke: #12a594; stroke-width: 2"/>
   </g>
   <g id="line2d_46">
    <g clip-path="url(#p5ab0ae6169)">
     <use xlink:href="#m234c563e4b" x="474.93294" y="156.644752" style="fill: #12a594; stroke: #12a594"/>
     <use xlink:href="#m234c563e4b" x="499.606966" y="183.28261" style="fill: #12a594; stroke: #12a594"/>
     <use xlink:href="#m234c563e4b" x="548.955018" y="154.155764" style="fill: #12a594; stroke: #12a594"/>
     <use xlink:href="#m234c563e4b" x="647.651122" y="150.714604" style="fill: #12a594; stroke: #12a594"/>
    </g>
   </g>
   <g id="line2d_47">
    <g clip-path="url(#p5ab0ae6169)">
     <use xlink:href="#m234c563e4b" x="474.93294" y="95.074004" style="fill: #12a594; stroke: #12a594"/>
     <use xlink:href="#m234c563e4b" x="499.606966" y="120.704234" style="fill: #12a594; stroke: #12a594"/>
     <use xlink:href="#m234c563e4b" x="548.955018" y="126.072858" style="fill: #12a594; stroke: #12a594"/>
     <use xlink:href="#m234c563e4b" x="647.651122" y="118.822818" style="fill: #12a594; stroke: #12a594"/>
    </g>
   </g>
   <g id="line2d_48">
    <path d="M 474.93294 125.859378 
L 499.606966 151.993422 
L 548.955018 140.114311 
L 647.651122 134.768711 
" clip-path="url(#p5ab0ae6169)" style="fill: none; stroke: #12a594; stroke-width: 2; stroke-linecap: square"/>
    <g clip-path="url(#p5ab0ae6169)">
     <use xlink:href="#mee452be939" x="474.93294" y="125.859378" style="fill: #12a594; stroke: #12a594"/>
     <use xlink:href="#mee452be939" x="499.606966" y="151.993422" style="fill: #12a594; stroke: #12a594"/>
     <use xlink:href="#mee452be939" x="548.955018" y="140.114311" style="fill: #12a594; stroke: #12a594"/>
     <use xlink:href="#mee452be939" x="647.651122" y="134.768711" style="fill: #12a594; stroke: #12a594"/>
    </g>
   </g>
   <g id="patch_9">
    <path d="M 466.297031 197.728 
L 466.297031 90.816 
" style="fill: none; stroke: #66747c; stroke-width: 0.8; stroke-linejoin: miter; stroke-linecap: square"/>
   </g>
   <g id="patch_10">
    <path d="M 466.297031 197.728 
L 656.287031 197.728 
" style="fill: none; stroke: #66747c; stroke-width: 0.8; stroke-linejoin: miter; stroke-linecap: square"/>
   </g>
   <g id="text_23">
    <!-- Смешанный -->
    <g style="fill: #15242d" transform="translate(512.619062 84.816) scale(0.14 -0.14)">
     <defs>
      <path id="DejaVuSans-Bold-421" d="M 4288 256 
Q 3956 84 3597 -3 
Q 3238 -91 2847 -91 
Q 1681 -91 1000 561 
Q 319 1213 319 2328 
Q 319 3447 1000 4098 
Q 1681 4750 2847 4750 
Q 3238 4750 3597 4662 
Q 3956 4575 4288 4403 
L 4288 3438 
Q 3953 3666 3628 3772 
Q 3303 3878 2944 3878 
Q 2300 3878 1931 3465 
Q 1563 3053 1563 2328 
Q 1563 1606 1931 1193 
Q 2300 781 2944 781 
Q 3303 781 3628 887 
Q 3953 994 4288 1222 
L 4288 256 
z
" transform="scale(0.015625)"/>
      <path id="DejaVuSans-Bold-43c" d="M 538 3500 
L 1825 3500 
L 2613 1750 
L 3400 3500 
L 4691 3500 
L 4691 0 
L 3575 0 
L 3575 1984 
L 2984 672 
L 2250 672 
L 1656 1984 
L 1656 0 
L 538 0 
L 538 3500 
z
" transform="scale(0.015625)"/>
      <path id="DejaVuSans-Bold-435" d="M 4031 1759 
L 4031 1441 
L 1416 1441 
Q 1456 1047 1700 850 
Q 1944 653 2381 653 
Q 2734 653 3104 758 
Q 3475 863 3866 1075 
L 3866 213 
Q 3469 63 3072 -14 
Q 2675 -91 2278 -91 
Q 1328 -91 801 392 
Q 275 875 275 1747 
Q 275 2603 792 3093 
Q 1309 3584 2216 3584 
Q 3041 3584 3536 3087 
Q 4031 2591 4031 1759 
z
M 2881 2131 
Q 2881 2450 2695 2645 
Q 2509 2841 2209 2841 
Q 1884 2841 1681 2658 
Q 1478 2475 1428 2131 
L 2881 2131 
z
" transform="scale(0.015625)"/>
      <path id="DejaVuSans-Bold-448" d="M 3938 800 
L 5100 800 
L 5100 3500 
L 6219 3500 
L 6219 0 
L 538 0 
L 538 3500 
L 1656 3500 
L 1656 800 
L 2819 800 
L 2819 3500 
L 3938 3500 
L 3938 800 
z
" transform="scale(0.015625)"/>
      <path id="DejaVuSans-Bold-44b" d="M 4154 3500 
L 5272 3500 
L 5272 0 
L 4154 0 
L 4154 3500 
z
M 2719 1094 
Q 2719 1291 2594 1388 
Q 2472 1481 2222 1481 
L 1656 1481 
L 1656 700 
L 2222 700 
Q 2469 700 2594 800 
Q 2719 897 2719 1094 
z
M 538 3500 
L 1656 3500 
L 1656 2172 
L 2291 2172 
Q 3000 2172 3381 1913 
Q 3766 1650 3766 1081 
Q 3766 513 3381 256 
Q 3000 0 2291 0 
L 538 0 
L 538 3500 
z
" transform="scale(0.015625)"/>
      <path id="DejaVuSans-Bold-439" d="M 3947 3500 
L 3947 0 
L 2828 0 
L 2828 1863 
L 1700 0 
L 538 0 
L 538 3500 
L 1656 3500 
L 1656 1638 
L 2784 3500 
L 3947 3500 
z
M 1190 4891 
L 1637 4891 
Q 1671 4672 1826 4556 
Q 1981 4441 2240 4441 
Q 2499 4441 2654 4556 
Q 2809 4672 2843 4891 
L 3290 4891 
Q 3271 4441 2999 4202 
Q 2728 3963 2240 3963 
Q 1753 3963 1481 4202 
Q 1209 4441 1190 4891 
z
" transform="scale(0.015625)"/>
     </defs>
     <use xlink:href="#DejaVuSans-Bold-421"/>
     <use xlink:href="#DejaVuSans-Bold-43c" transform="translate(73.388672 0)"/>
     <use xlink:href="#DejaVuSans-Bold-435" transform="translate(155.126953 0)"/>
     <use xlink:href="#DejaVuSans-Bold-448" transform="translate(222.949219 0)"/>
     <use xlink:href="#DejaVuSans-Bold-430" transform="translate(329.150391 0)"/>
     <use xlink:href="#DejaVuSans-Bold-43d" transform="translate(396.630859 0)"/>
     <use xlink:href="#DejaVuSans-Bold-43d" transform="translate(465.722656 0)"/>
     <use xlink:href="#DejaVuSans-Bold-44b" transform="translate(534.814453 0)"/>
     <use xlink:href="#DejaVuSans-Bold-439" transform="translate(625.244141 0)"/>
    </g>
   </g>
  </g>
  <g id="text_24">
   <!-- Парная разница при одинаковом rank -->
   <g style="fill: #15242d" transform="translate(52.135031 17.837813) scale(0.14 -0.14)">
    <defs>
     <path id="DejaVuSans-Bold-44f" d="M 1528 2394 
Q 1528 2169 1651 2069 
Q 1775 1969 2059 1969 
L 2463 1969 
L 2463 2816 
L 2059 2816 
Q 1775 2816 1651 2719 
Q 1528 2622 1528 2394 
z
M 197 0 
L 1113 1497 
Q 847 1650 650 1917 
Q 453 2184 453 2516 
Q 453 3013 789 3256 
Q 1125 3500 1878 3500 
L 3581 3500 
L 3581 0 
L 2463 0 
L 2463 1278 
L 2069 1278 
L 1288 0 
L 197 0 
z
" transform="scale(0.015625)"/>
     <path id="DejaVuSans-Bold-20" transform="scale(0.015625)"/>
     <path id="DejaVuSans-Bold-437" d="M 900 2181 
L 1413 2181 
Q 1872 2181 2039 2281 
Q 2206 2381 2206 2519 
Q 2206 2841 1469 2841 
Q 853 2841 472 2625 
L 472 3434 
Q 1041 3584 1713 3584 
Q 2500 3584 2862 3361 
Q 3225 3138 3225 2666 
Q 3225 2047 2541 1888 
Q 3313 1697 3313 994 
Q 3313 453 2888 181 
Q 2463 -91 1553 -91 
Q 875 -91 313 84 
L 313 947 
Q 1013 653 1428 653 
Q 1884 653 2089 776 
Q 2294 900 2294 1056 
Q 2294 1491 1394 1491 
L 900 1491 
L 900 2181 
z
" transform="scale(0.015625)"/>
     <path id="DejaVuSans-Bold-438" d="M 3947 3500 
L 3947 0 
L 2828 0 
L 2828 1863 
L 1700 0 
L 538 0 
L 538 3500 
L 1656 3500 
L 1656 1638 
L 2784 3500 
L 3947 3500 
z
" transform="scale(0.015625)"/>
     <path id="DejaVuSans-Bold-446" d="M 3666 -884 
L 3666 0 
L 538 0 
L 538 3500 
L 1656 3500 
L 1656 800 
L 2766 800 
L 2766 3500 
L 3884 3500 
L 3884 800 
L 4466 800 
L 4466 -884 
L 3666 -884 
z
" transform="scale(0.015625)"/>
     <path id="DejaVuSans-Bold-43f" d="M 3884 3500 
L 3884 0 
L 2766 0 
L 2766 2700 
L 1656 2700 
L 1656 0 
L 538 0 
L 538 3500 
L 3884 3500 
z
" transform="scale(0.015625)"/>
     <path id="DejaVuSans-Bold-434" d="M 547 800 
Q 903 919 1053 1314 
Q 1203 1709 1203 2838 
L 1203 3500 
L 4228 3500 
L 4228 800 
L 4809 800 
L 4809 -884 
L 4009 -884 
L 4009 0 
L 1159 0 
L 1159 -884 
L 359 -884 
L 359 800 
L 547 800 
z
M 3109 2700 
L 2322 2700 
L 2322 2603 
Q 2322 1456 2063 800 
L 3109 800 
L 3109 2700 
z
" transform="scale(0.015625)"/>
     <path id="DejaVuSans-Bold-43a" d="M 538 3500 
L 1656 3500 
L 1656 2316 
L 2903 3500 
L 4128 3500 
L 2634 2078 
L 4250 0 
L 3094 0 
L 1972 1447 
L 1656 1147 
L 1656 0 
L 538 0 
L 538 3500 
z
" transform="scale(0.015625)"/>
     <path id="DejaVuSans-Bold-72" d="M 3138 2547 
Q 2991 2616 2845 2648 
Q 2700 2681 2553 2681 
Q 2122 2681 1889 2404 
Q 1656 2128 1656 1613 
L 1656 0 
L 538 0 
L 538 3500 
L 1656 3500 
L 1656 2925 
Q 1872 3269 2151 3426 
Q 2431 3584 2822 3584 
Q 2878 3584 2943 3579 
Q 3009 3575 3134 3559 
L 3138 2547 
z
" transform="scale(0.015625)"/>
     <path id="DejaVuSans-Bold-61" d="M 2106 1575 
Q 1756 1575 1579 1456 
Q 1403 1338 1403 1106 
Q 1403 894 1545 773 
Q 1688 653 1941 653 
Q 2256 653 2472 879 
Q 2688 1106 2688 1447 
L 2688 1575 
L 2106 1575 
z
M 3816 1997 
L 3816 0 
L 2688 0 
L 2688 519 
Q 2463 200 2181 54 
Q 1900 -91 1497 -91 
Q 953 -91 614 226 
Q 275 544 275 1050 
Q 275 1666 698 1953 
Q 1122 2241 2028 2241 
L 2688 2241 
L 2688 2328 
Q 2688 2594 2478 2717 
Q 2269 2841 1825 2841 
Q 1466 2841 1156 2769 
Q 847 2697 581 2553 
L 581 3406 
Q 941 3494 1303 3539 
Q 1666 3584 2028 3584 
Q 2975 3584 3395 3211 
Q 3816 2838 3816 1997 
z
" transform="scale(0.015625)"/>
     <path id="DejaVuSans-Bold-6e" d="M 4056 2131 
L 4056 0 
L 2931 0 
L 2931 347 
L 2931 1631 
Q 2931 2084 2911 2256 
Q 2891 2428 2841 2509 
Q 2775 2619 2662 2680 
Q 2550 2741 2406 2741 
Q 2056 2741 1856 2470 
Q 1656 2200 1656 1722 
L 1656 0 
L 538 0 
L 538 3500 
L 1656 3500 
L 1656 2988 
Q 1909 3294 2193 3439 
Q 2478 3584 2822 3584 
Q 3428 3584 3742 3212 
Q 4056 2841 4056 2131 
z
" transform="scale(0.015625)"/>
     <path id="DejaVuSans-Bold-6b" d="M 538 4863 
L 1656 4863 
L 1656 2216 
L 2944 3500 
L 4244 3500 
L 2534 1894 
L 4378 0 
L 3022 0 
L 1656 1459 
L 1656 0 
L 538 0 
L 538 4863 
z
" transform="scale(0.015625)"/>
    </defs>
    <use xlink:href="#DejaVuSans-Bold-41f"/>
    <use xlink:href="#DejaVuSans-Bold-430" transform="translate(83.691406 0)"/>
    <use xlink:href="#DejaVuSans-Bold-440" transform="translate(151.171875 0)"/>
    <use xlink:href="#DejaVuSans-Bold-43d" transform="translate(222.753906 0)"/>
    <use xlink:href="#DejaVuSans-Bold-430" transform="translate(291.845703 0)"/>
    <use xlink:href="#DejaVuSans-Bold-44f" transform="translate(359.326172 0)"/>
    <use xlink:href="#DejaVuSans-Bold-20" transform="translate(423.535156 0)"/>
    <use xlink:href="#DejaVuSans-Bold-440" transform="translate(458.349609 0)"/>
    <use xlink:href="#DejaVuSans-Bold-430" transform="translate(529.931641 0)"/>
    <use xlink:href="#DejaVuSans-Bold-437" transform="translate(597.412109 0)"/>
    <use xlink:href="#DejaVuSans-Bold-43d" transform="translate(655.517578 0)"/>
    <use xlink:href="#DejaVuSans-Bold-438" transform="translate(724.609375 0)"/>
    <use xlink:href="#DejaVuSans-Bold-446" transform="translate(794.677734 0)"/>
    <use xlink:href="#DejaVuSans-Bold-430" transform="translate(868.798828 0)"/>
    <use xlink:href="#DejaVuSans-Bold-20" transform="translate(936.279297 0)"/>
    <use xlink:href="#DejaVuSans-Bold-43f" transform="translate(971.09375 0)"/>
    <use xlink:href="#DejaVuSans-Bold-440" transform="translate(1040.185547 0)"/>
    <use xlink:href="#DejaVuSans-Bold-438" transform="translate(1111.767578 0)"/>
    <use xlink:href="#DejaVuSans-Bold-20" transform="translate(1181.835938 0)"/>
    <use xlink:href="#DejaVuSans-Bold-43e" transform="translate(1216.650391 0)"/>
    <use xlink:href="#DejaVuSans-Bold-434" transform="translate(1285.351562 0)"/>
    <use xlink:href="#DejaVuSans-Bold-438" transform="translate(1366.113281 0)"/>
    <use xlink:href="#DejaVuSans-Bold-43d" transform="translate(1436.181641 0)"/>
    <use xlink:href="#DejaVuSans-Bold-430" transform="translate(1505.273438 0)"/>
    <use xlink:href="#DejaVuSans-Bold-43a" transform="translate(1572.753906 0)"/>
    <use xlink:href="#DejaVuSans-Bold-43e" transform="translate(1640.625 0)"/>
    <use xlink:href="#DejaVuSans-Bold-432" transform="translate(1709.326172 0)"/>
    <use xlink:href="#DejaVuSans-Bold-43e" transform="translate(1772.607422 0)"/>
    <use xlink:href="#DejaVuSans-Bold-43c" transform="translate(1841.308594 0)"/>
    <use xlink:href="#DejaVuSans-Bold-20" transform="translate(1923.046875 0)"/>
    <use xlink:href="#DejaVuSans-Bold-72" transform="translate(1957.861328 0)"/>
    <use xlink:href="#DejaVuSans-Bold-61" transform="translate(2007.177734 0)"/>
    <use xlink:href="#DejaVuSans-Bold-6e" transform="translate(2074.658203 0)"/>
    <use xlink:href="#DejaVuSans-Bold-6b" transform="translate(2145.849609 0)"/>
   </g>
  </g>
  <g id="text_25">
   <!-- Среднее и 95% t-интервал по 5 seed -->
   <g style="fill: #66747c" transform="translate(52.135031 31.68) scale(0.1 -0.1)">
    <defs>
     <path id="DejaVuSans-421" d="M 4122 4306 
L 4122 3641 
Q 3803 3938 3442 4084 
Q 3081 4231 2675 4231 
Q 1875 4231 1450 3742 
Q 1025 3253 1025 2328 
Q 1025 1406 1450 917 
Q 1875 428 2675 428 
Q 3081 428 3442 575 
Q 3803 722 4122 1019 
L 4122 359 
Q 3791 134 3420 21 
Q 3050 -91 2638 -91 
Q 1578 -91 968 557 
Q 359 1206 359 2328 
Q 359 3453 968 4101 
Q 1578 4750 2638 4750 
Q 3056 4750 3426 4639 
Q 3797 4528 4122 4306 
z
" transform="scale(0.015625)"/>
     <path id="DejaVuSans-440" d="M 1159 525 
L 1159 -1331 
L 581 -1331 
L 581 3500 
L 1159 3500 
L 1159 2969 
Q 1341 3281 1617 3432 
Q 1894 3584 2278 3584 
Q 2916 3584 3314 3078 
Q 3713 2572 3713 1747 
Q 3713 922 3314 415 
Q 2916 -91 2278 -91 
Q 1894 -91 1617 61 
Q 1341 213 1159 525 
z
M 3116 1747 
Q 3116 2381 2855 2742 
Q 2594 3103 2138 3103 
Q 1681 3103 1420 2742 
Q 1159 2381 1159 1747 
Q 1159 1113 1420 752 
Q 1681 391 2138 391 
Q 2594 391 2855 752 
Q 3116 1113 3116 1747 
z
" transform="scale(0.015625)"/>
     <path id="DejaVuSans-435" d="M 3597 1894 
L 3597 1613 
L 953 1613 
Q 991 1019 1311 708 
Q 1631 397 2203 397 
Q 2534 397 2845 478 
Q 3156 559 3463 722 
L 3463 178 
Q 3153 47 2828 -22 
Q 2503 -91 2169 -91 
Q 1331 -91 842 396 
Q 353 884 353 1716 
Q 353 2575 817 3079 
Q 1281 3584 2069 3584 
Q 2775 3584 3186 3129 
Q 3597 2675 3597 1894 
z
M 3022 2063 
Q 3016 2534 2758 2815 
Q 2500 3097 2075 3097 
Q 1594 3097 1305 2825 
Q 1016 2553 972 2059 
L 3022 2063 
z
" transform="scale(0.015625)"/>
     <path id="DejaVuSans-434" d="M 1384 459 
L 3053 459 
L 3053 3041 
L 1844 3041 
L 1844 2603 
Q 1844 1316 1475 628 
L 1384 459 
z
M 550 459 
Q 834 584 959 850 
Q 1266 1509 1266 2838 
L 1266 3500 
L 3631 3500 
L 3631 459 
L 4091 459 
L 4091 -884 
L 3631 -884 
L 3631 0 
L 794 0 
L 794 -884 
L 334 -884 
L 334 459 
L 550 459 
z
" transform="scale(0.015625)"/>
     <path id="DejaVuSans-43d" d="M 581 3500 
L 1159 3500 
L 1159 2072 
L 3025 2072 
L 3025 3500 
L 3603 3500 
L 3603 0 
L 3025 0 
L 3025 1613 
L 1159 1613 
L 1159 0 
L 581 0 
L 581 3500 
z
" transform="scale(0.015625)"/>
     <path id="DejaVuSans-438" d="M 3578 3500 
L 3578 0 
L 3006 0 
L 3006 2809 
L 1319 0 
L 581 0 
L 581 3500 
L 1153 3500 
L 1153 697 
L 2838 3500 
L 3578 3500 
z
" transform="scale(0.015625)"/>
     <path id="DejaVuSans-39" d="M 703 97 
L 703 672 
Q 941 559 1184 500 
Q 1428 441 1663 441 
Q 2288 441 2617 861 
Q 2947 1281 2994 2138 
Q 2813 1869 2534 1725 
Q 2256 1581 1919 1581 
Q 1219 1581 811 2004 
Q 403 2428 403 3163 
Q 403 3881 828 4315 
Q 1253 4750 1959 4750 
Q 2769 4750 3195 4129 
Q 3622 3509 3622 2328 
Q 3622 1225 3098 567 
Q 2575 -91 1691 -91 
Q 1453 -91 1209 -44 
Q 966 3 703 97 
z
M 1959 2075 
Q 2384 2075 2632 2365 
Q 2881 2656 2881 3163 
Q 2881 3666 2632 3958 
Q 2384 4250 1959 4250 
Q 1534 4250 1286 3958 
Q 1038 3666 1038 3163 
Q 1038 2656 1286 2365 
Q 1534 2075 1959 2075 
z
" transform="scale(0.015625)"/>
     <path id="DejaVuSans-25" d="M 4653 2053 
Q 4381 2053 4226 1822 
Q 4072 1591 4072 1178 
Q 4072 772 4226 539 
Q 4381 306 4653 306 
Q 4919 306 5073 539 
Q 5228 772 5228 1178 
Q 5228 1588 5073 1820 
Q 4919 2053 4653 2053 
z
M 4653 2450 
Q 5147 2450 5437 2106 
Q 5728 1763 5728 1178 
Q 5728 594 5436 251 
Q 5144 -91 4653 -91 
Q 4153 -91 3862 251 
Q 3572 594 3572 1178 
Q 3572 1766 3864 2108 
Q 4156 2450 4653 2450 
z
M 1428 4353 
Q 1159 4353 1004 4120 
Q 850 3888 850 3481 
Q 850 3069 1003 2837 
Q 1156 2606 1428 2606 
Q 1700 2606 1854 2837 
Q 2009 3069 2009 3481 
Q 2009 3884 1853 4118 
Q 1697 4353 1428 4353 
z
M 4250 4750 
L 4750 4750 
L 1831 -91 
L 1331 -91 
L 4250 4750 
z
M 1428 4750 
Q 1922 4750 2215 4408 
Q 2509 4066 2509 3481 
Q 2509 2891 2217 2550 
Q 1925 2209 1428 2209 
Q 931 2209 642 2551 
Q 353 2894 353 3481 
Q 353 4063 643 4406 
Q 934 4750 1428 4750 
z
" transform="scale(0.015625)"/>
     <path id="DejaVuSans-74" d="M 1172 4494 
L 1172 3500 
L 2356 3500 
L 2356 3053 
L 1172 3053 
L 1172 1153 
Q 1172 725 1289 603 
Q 1406 481 1766 481 
L 2356 481 
L 2356 0 
L 1766 0 
Q 1100 0 847 248 
Q 594 497 594 1153 
L 594 3053 
L 172 3053 
L 172 3500 
L 594 3500 
L 594 4494 
L 1172 4494 
z
" transform="scale(0.015625)"/>
     <path id="DejaVuSans-2d" d="M 313 2009 
L 1997 2009 
L 1997 1497 
L 313 1497 
L 313 2009 
z
" transform="scale(0.015625)"/>
     <path id="DejaVuSans-442" d="M 188 3500 
L 3541 3500 
L 3541 3041 
L 2147 3041 
L 2147 0 
L 1581 0 
L 1581 3041 
L 188 3041 
L 188 3500 
z
" transform="scale(0.015625)"/>
     <path id="DejaVuSans-432" d="M 1156 1613 
L 1156 459 
L 1975 459 
Q 2369 459 2575 607 
Q 2781 756 2781 1038 
Q 2781 1319 2575 1466 
Q 2369 1613 1975 1613 
L 1156 1613 
z
M 1156 3041 
L 1156 2072 
L 1913 2072 
Q 2238 2072 2444 2201 
Q 2650 2331 2650 2563 
Q 2650 2794 2444 2917 
Q 2238 3041 1913 3041 
L 1156 3041 
z
M 581 3500 
L 1950 3500 
Q 2566 3500 2897 3275 
Q 3228 3050 3228 2634 
Q 3228 2313 3059 2123 
Q 2891 1934 2559 1888 
Q 2956 1813 3175 1575 
Q 3394 1338 3394 981 
Q 3394 513 3033 256 
Q 2672 0 2003 0 
L 581 0 
L 581 3500 
z
" transform="scale(0.015625)"/>
     <path id="DejaVuSans-430" d="M 2194 1759 
Q 1497 1759 1228 1600 
Q 959 1441 959 1056 
Q 959 750 1161 570 
Q 1363 391 1709 391 
Q 2188 391 2477 730 
Q 2766 1069 2766 1631 
L 2766 1759 
L 2194 1759 
z
M 3341 1997 
L 3341 0 
L 2766 0 
L 2766 531 
Q 2569 213 2275 61 
Q 1981 -91 1556 -91 
Q 1019 -91 701 211 
Q 384 513 384 1019 
Q 384 1609 779 1909 
Q 1175 2209 1959 2209 
L 2766 2209 
L 2766 2266 
Q 2766 2663 2505 2880 
Q 2244 3097 1772 3097 
Q 1472 3097 1187 3025 
Q 903 2953 641 2809 
L 641 3341 
Q 956 3463 1253 3523 
Q 1550 3584 1831 3584 
Q 2591 3584 2966 3190 
Q 3341 2797 3341 1997 
z
" transform="scale(0.015625)"/>
     <path id="DejaVuSans-43b" d="M 238 0 
L 238 478 
Q 806 566 981 959 
Q 1194 1513 1194 2928 
L 1194 3500 
L 3559 3500 
L 3559 0 
L 2984 0 
L 2984 3041 
L 1769 3041 
L 1769 2694 
Q 1769 1344 1494 738 
Q 1200 91 238 0 
z
" transform="scale(0.015625)"/>
     <path id="DejaVuSans-43e" d="M 1959 3097 
Q 1497 3097 1228 2736 
Q 959 2375 959 1747 
Q 959 1119 1226 758 
Q 1494 397 1959 397 
Q 2419 397 2687 759 
Q 2956 1122 2956 1747 
Q 2956 2369 2687 2733 
Q 2419 3097 1959 3097 
z
M 1959 3584 
Q 2709 3584 3137 3096 
Q 3566 2609 3566 1747 
Q 3566 888 3137 398 
Q 2709 -91 1959 -91 
Q 1206 -91 779 398 
Q 353 888 353 1747 
Q 353 2609 779 3096 
Q 1206 3584 1959 3584 
z
" transform="scale(0.015625)"/>
     <path id="DejaVuSans-73" d="M 2834 3397 
L 2834 2853 
Q 2591 2978 2328 3040 
Q 2066 3103 1784 3103 
Q 1356 3103 1142 2972 
Q 928 2841 928 2578 
Q 928 2378 1081 2264 
Q 1234 2150 1697 2047 
L 1894 2003 
Q 2506 1872 2764 1633 
Q 3022 1394 3022 966 
Q 3022 478 2636 193 
Q 2250 -91 1575 -91 
Q 1294 -91 989 -36 
Q 684 19 347 128 
L 347 722 
Q 666 556 975 473 
Q 1284 391 1588 391 
Q 1994 391 2212 530 
Q 2431 669 2431 922 
Q 2431 1156 2273 1281 
Q 2116 1406 1581 1522 
L 1381 1569 
Q 847 1681 609 1914 
Q 372 2147 372 2553 
Q 372 3047 722 3315 
Q 1072 3584 1716 3584 
Q 2034 3584 2315 3537 
Q 2597 3491 2834 3397 
z
" transform="scale(0.015625)"/>
     <path id="DejaVuSans-65" d="M 3597 1894 
L 3597 1613 
L 953 1613 
Q 991 1019 1311 708 
Q 1631 397 2203 397 
Q 2534 397 2845 478 
Q 3156 559 3463 722 
L 3463 178 
Q 3153 47 2828 -22 
Q 2503 -91 2169 -91 
Q 1331 -91 842 396 
Q 353 884 353 1716 
Q 353 2575 817 3079 
Q 1281 3584 2069 3584 
Q 2775 3584 3186 3129 
Q 3597 2675 3597 1894 
z
M 3022 2063 
Q 3016 2534 2758 2815 
Q 2500 3097 2075 3097 
Q 1594 3097 1305 2825 
Q 1016 2553 972 2059 
L 3022 2063 
z
" transform="scale(0.015625)"/>
     <path id="DejaVuSans-64" d="M 2906 2969 
L 2906 4863 
L 3481 4863 
L 3481 0 
L 2906 0 
L 2906 525 
Q 2725 213 2448 61 
Q 2172 -91 1784 -91 
Q 1150 -91 751 415 
Q 353 922 353 1747 
Q 353 2572 751 3078 
Q 1150 3584 1784 3584 
Q 2172 3584 2448 3432 
Q 2725 3281 2906 2969 
z
M 947 1747 
Q 947 1113 1208 752 
Q 1469 391 1925 391 
Q 2381 391 2643 752 
Q 2906 1113 2906 1747 
Q 2906 2381 2643 2742 
Q 2381 3103 1925 3103 
Q 1469 3103 1208 2742 
Q 947 2381 947 1747 
z
" transform="scale(0.015625)"/>
    </defs>
    <use xlink:href="#DejaVuSans-421"/>
    <use xlink:href="#DejaVuSans-440" transform="translate(69.824219 0)"/>
    <use xlink:href="#DejaVuSans-435" transform="translate(133.300781 0)"/>
    <use xlink:href="#DejaVuSans-434" transform="translate(194.824219 0)"/>
    <use xlink:href="#DejaVuSans-43d" transform="translate(263.964844 0)"/>
    <use xlink:href="#DejaVuSans-435" transform="translate(329.345703 0)"/>
    <use xlink:href="#DejaVuSans-435" transform="translate(390.869141 0)"/>
    <use xlink:href="#DejaVuSans-20" transform="translate(452.392578 0)"/>
    <use xlink:href="#DejaVuSans-438" transform="translate(484.179688 0)"/>
    <use xlink:href="#DejaVuSans-20" transform="translate(549.169922 0)"/>
    <use xlink:href="#DejaVuSans-39" transform="translate(580.957031 0)"/>
    <use xlink:href="#DejaVuSans-35" transform="translate(644.580078 0)"/>
    <use xlink:href="#DejaVuSans-25" transform="translate(708.203125 0)"/>
    <use xlink:href="#DejaVuSans-20" transform="translate(803.222656 0)"/>
    <use xlink:href="#DejaVuSans-74" transform="translate(835.009766 0)"/>
    <use xlink:href="#DejaVuSans-2d" transform="translate(874.21875 0)"/>
    <use xlink:href="#DejaVuSans-438" transform="translate(910.302734 0)"/>
    <use xlink:href="#DejaVuSans-43d" transform="translate(975.292969 0)"/>
    <use xlink:href="#DejaVuSans-442" transform="translate(1040.673828 0)"/>
    <use xlink:href="#DejaVuSans-435" transform="translate(1098.925781 0)"/>
    <use xlink:href="#DejaVuSans-440" transform="translate(1160.449219 0)"/>
    <use xlink:href="#DejaVuSans-432" transform="translate(1223.925781 0)"/>
    <use xlink:href="#DejaVuSans-430" transform="translate(1282.861328 0)"/>
    <use xlink:href="#DejaVuSans-43b" transform="translate(1344.140625 0)"/>
    <use xlink:href="#DejaVuSans-20" transform="translate(1408.056641 0)"/>
    <use xlink:href="#DejaVuSans-43f" transform="translate(1439.84375 0)"/>
    <use xlink:href="#DejaVuSans-43e" transform="translate(1505.224609 0)"/>
    <use xlink:href="#DejaVuSans-20" transform="translate(1566.40625 0)"/>
    <use xlink:href="#DejaVuSans-35" transform="translate(1598.193359 0)"/>
    <use xlink:href="#DejaVuSans-20" transform="translate(1661.816406 0)"/>
    <use xlink:href="#DejaVuSans-73" transform="translate(1693.603516 0)"/>
    <use xlink:href="#DejaVuSans-65" transform="translate(1745.703125 0)"/>
    <use xlink:href="#DejaVuSans-65" transform="translate(1807.226562 0)"/>
    <use xlink:href="#DejaVuSans-64" transform="translate(1868.75 0)"/>
   </g>
  </g>
 </g>
 <defs>
  <clipPath id="pb11c8116d9">
   <rect x="55.557031" y="90.816" width="189.99" height="106.912"/>
  </clipPath>
  <clipPath id="pf3065a3bec">
   <rect x="260.927031" y="90.816" width="189.99" height="106.912"/>
  </clipPath>
  <clipPath id="p5ab0ae6169">
   <rect x="466.297031" y="90.816" width="189.99" height="106.912"/>
  </clipPath>
 </defs>
</svg>
