<?xml version="1.0" encoding="utf-8" standalone="no"?>
<!DOCTYPE svg PUBLIC "-//W3C//DTD SVG 1.1//EN"
  "http://www.w3.org/Graphics/SVG/1.1/DTD/svg11.dtd">
<svg xmlns:xlink="http://www.w3.org/1999/xlink" width="653.092187pt" height="266.115877pt" viewBox="0 0 653.092187 266.115877" xmlns="http://www.w3.org/2000/svg" version="1.1">
 <metadata>
  <rdf:RDF xmlns:dc="http://purl.org/dc/elements/1.1/" xmlns:cc="http://creativecommons.org/ns#" xmlns:rdf="http://www.w3.org/1999/02/22-rdf-syntax-ns#">
   <cc:Work>
    <dc:type rdf:resource="http://purl.org/dc/dcmitype/StillImage"/>
    <dc:date>2026-07-16T16:34:43.344361</dc:date>
    <dc:format>image/svg+xml</dc:format>
    <dc:creator>
     <cc:Agent>
      <dc:title>Matplotlib v3.10.8, https://matplotlib.org/</dc:title>
     </cc:Agent>
    </dc:creator>
   </cc:Work>
  </rdf:RDF>
 </metadata>
 <defs>
  <style type="text/css">*{stroke-linejoin: round; stroke-linecap: butt}</style>
 </defs>
 <g id="figure_1">
  <g id="patch_1">
   <path d="M 0 266.115877 
L 653.092187 266.115877 
L 653.092187 0 
L 0 0 
z
" style="fill: #ffffff"/>
  </g>
  <g id="axes_1">
   <g id="patch_2">
    <path d="M 49.842188 208.95928 
L 645.892187 208.95928 
L 645.892187 24.295 
L 49.842188 24.295 
z
" style="fill: #ffffff"/>
   </g>
   <g id="matplotlib.axis_1">
    <g id="xtick_1">
     <g id="line2d_1">
      <defs>
       <path id="ma9ea2f88a8" d="M 0 0 
L 0 3.5 
" style="stroke: #66747c; stroke-width: 0.8"/>
      </defs>
      <g>
       <use xlink:href="#ma9ea2f88a8" x="150.825865" y="208.95928" style="fill: #66747c; stroke: #66747c; stroke-width: 0.8"/>
      </g>
     </g>
     <g id="text_1">
      <!-- Контраст -->
      <g style="fill: #66747c" transform="translate(123.666178 224.317561) scale(0.11 -0.11)">
       <defs>
        <path id="DejaVuSans-41a" d="M 628 4666 
L 1259 4666 
L 1259 2359 
L 3516 4666 
L 4325 4666 
L 2522 2822 
L 4419 0 
L 3731 0 
L 2113 2403 
L 1259 1531 
L 1259 0 
L 628 0 
L 628 4666 
z
" transform="scale(0.015625)"/>
        <path id="DejaVuSans-43e" d="M 1959 3097 
Q 1497 3097 1228 2736 
Q 959 2375 959 1747 
Q 959 1119 1226 758 
Q 1494 397 1959 397 
Q 2419 397 2687 759 
Q 2956 1122 2956 1747 
Q 2956 2369 2687 2733 
Q 2419 3097 1959 3097 
z
M 1959 3584 
Q 2709 3584 3137 3096 
Q 3566 2609 3566 1747 
Q 3566 888 3137 398 
Q 2709 -91 1959 -91 
Q 1206 -91 779 398 
Q 353 888 353 1747 
Q 353 2609 779 3096 
Q 1206 3584 1959 3584 
z
" transform="scale(0.015625)"/>
        <path id="DejaVuSans-43d" d="M 581 3500 
L 1159 3500 
L 1159 2072 
L 3025 2072 
L 3025 3500 
L 3603 3500 
L 3603 0 
L 3025 0 
L 3025 1613 
L 1159 1613 
L 1159 0 
L 581 0 
L 581 3500 
z
" transform="scale(0.015625)"/>
        <path id="DejaVuSans-442" d="M 188 3500 
L 3541 3500 
L 3541 3041 
L 2147 3041 
L 2147 0 
L 1581 0 
L 1581 3041 
L 188 3041 
L 188 3500 
z
" transform="scale(0.015625)"/>
        <path id="DejaVuSans-440" d="M 1159 525 
L 1159 -1331 
L 581 -1331 
L 581 3500 
L 1159 3500 
L 1159 2969 
Q 1341 3281 1617 3432 
Q 1894 3584 2278 3584 
Q 2916 3584 3314 3078 
Q 3713 2572 3713 1747 
Q 3713 922 3314 415 
Q 2916 -91 2278 -91 
Q 1894 -91 1617 61 
Q 1341 213 1159 525 
z
M 3116 1747 
Q 3116 2381 2855 2742 
Q 2594 3103 2138 3103 
Q 1681 3103 1420 2742 
Q 1159 2381 1159 1747 
Q 1159 1113 1420 752 
Q 1681 391 2138 391 
Q 2594 391 2855 752 
Q 3116 1113 3116 1747 
z
" transform="scale(0.015625)"/>
        <path id="DejaVuSans-430" d="M 2194 1759 
Q 1497 1759 1228 1600 
Q 959 1441 959 1056 
Q 959 750 1161 570 
Q 1363 391 1709 391 
Q 2188 391 2477 730 
Q 2766 1069 2766 1631 
L 2766 1759 
L 2194 1759 
z
M 3341 1997 
L 3341 0 
L 2766 0 
L 2766 531 
Q 2569 213 2275 61 
Q 1981 -91 1556 -91 
Q 1019 -91 701 211 
Q 384 513 384 1019 
Q 384 1609 779 1909 
Q 1175 2209 1959 2209 
L 2766 2209 
L 2766 2266 
Q 2766 2663 2505 2880 
Q 2244 3097 1772 3097 
Q 1472 3097 1187 3025 
Q 903 2953 641 2809 
L 641 3341 
Q 956 3463 1253 3523 
Q 1550 3584 1831 3584 
Q 2591 3584 2966 3190 
Q 3341 2797 3341 1997 
z
" transform="scale(0.015625)"/>
        <path id="DejaVuSans-441" d="M 3122 3366 
L 3122 2828 
Q 2878 2963 2633 3030 
Q 2388 3097 2138 3097 
Q 1578 3097 1268 2742 
Q 959 2388 959 1747 
Q 959 1106 1268 751 
Q 1578 397 2138 397 
Q 2388 397 2633 464 
Q 2878 531 3122 666 
L 3122 134 
Q 2881 22 2623 -34 
Q 2366 -91 2075 -91 
Q 1284 -91 818 406 
Q 353 903 353 1747 
Q 353 2603 823 3093 
Q 1294 3584 2113 3584 
Q 2378 3584 2631 3529 
Q 2884 3475 3122 3366 
z
" transform="scale(0.015625)"/>
       </defs>
       <use xlink:href="#DejaVuSans-41a"/>
       <use xlink:href="#DejaVuSans-43e" transform="translate(70.996094 0)"/>
       <use xlink:href="#DejaVuSans-43d" transform="translate(132.177734 0)"/>
       <use xlink:href="#DejaVuSans-442" transform="translate(197.558594 0)"/>
       <use xlink:href="#DejaVuSans-440" transform="translate(255.810547 0)"/>
       <use xlink:href="#DejaVuSans-430" transform="translate(319.287109 0)"/>
       <use xlink:href="#DejaVuSans-441" transform="translate(380.566406 0)"/>
       <use xlink:href="#DejaVuSans-442" transform="translate(435.546875 0)"/>
      </g>
     </g>
    </g>
    <g id="xtick_2">
     <g id="line2d_2">
      <g>
       <use xlink:href="#ma9ea2f88a8" x="347.867188" y="208.95928" style="fill: #66747c; stroke: #66747c; stroke-width: 0.8"/>
      </g>
     </g>
     <g id="text_2">
      <!-- Поворот -->
      <g style="fill: #66747c" transform="translate(323.698125 224.317561) scale(0.11 -0.11)">
       <defs>
        <path id="DejaVuSans-41f" d="M 4184 4666 
L 4184 0 
L 3553 0 
L 3553 4134 
L 1259 4134 
L 1259 0 
L 628 0 
L 628 4666 
L 4184 4666 
z
" transform="scale(0.015625)"/>
        <path id="DejaVuSans-432" d="M 1156 1613 
L 1156 459 
L 1975 459 
Q 2369 459 2575 607 
Q 2781 756 2781 1038 
Q 2781 1319 2575 1466 
Q 2369 1613 1975 1613 
L 1156 1613 
z
M 1156 3041 
L 1156 2072 
L 1913 2072 
Q 2238 2072 2444 2201 
Q 2650 2331 2650 2563 
Q 2650 2794 2444 2917 
Q 2238 3041 1913 3041 
L 1156 3041 
z
M 581 3500 
L 1950 3500 
Q 2566 3500 2897 3275 
Q 3228 3050 3228 2634 
Q 3228 2313 3059 2123 
Q 2891 1934 2559 1888 
Q 2956 1813 3175 1575 
Q 3394 1338 3394 981 
Q 3394 513 3033 256 
Q 2672 0 2003 0 
L 581 0 
L 581 3500 
z
" transform="scale(0.015625)"/>
       </defs>
       <use xlink:href="#DejaVuSans-41f"/>
       <use xlink:href="#DejaVuSans-43e" transform="translate(75.195312 0)"/>
       <use xlink:href="#DejaVuSans-432" transform="translate(136.376953 0)"/>
       <use xlink:href="#DejaVuSans-43e" transform="translate(195.3125 0)"/>
       <use xlink:href="#DejaVuSans-440" transform="translate(256.494141 0)"/>
       <use xlink:href="#DejaVuSans-43e" transform="translate(319.970703 0)"/>
       <use xlink:href="#DejaVuSans-442" transform="translate(381.152344 0)"/>
      </g>
     </g>
    </g>
    <g id="xtick_3">
     <g id="line2d_3">
      <g>
       <use xlink:href="#ma9ea2f88a8" x="544.90851" y="208.95928" style="fill: #66747c; stroke: #66747c; stroke-width: 0.8"/>
      </g>
     </g>
     <g id="text_3">
      <!-- Смешанный -->
      <g style="fill: #66747c" transform="translate(510.0239 224.317561) scale(0.11 -0.11)">
       <defs>
        <path id="DejaVuSans-421" d="M 4122 4306 
L 4122 3641 
Q 3803 3938 3442 4084 
Q 3081 4231 2675 4231 
Q 1875 4231 1450 3742 
Q 1025 3253 1025 2328 
Q 1025 1406 1450 917 
Q 1875 428 2675 428 
Q 3081 428 3442 575 
Q 3803 722 4122 1019 
L 4122 359 
Q 3791 134 3420 21 
Q 3050 -91 2638 -91 
Q 1578 -91 968 557 
Q 359 1206 359 2328 
Q 359 3453 968 4101 
Q 1578 4750 2638 4750 
Q 3056 4750 3426 4639 
Q 3797 4528 4122 4306 
z
" transform="scale(0.015625)"/>
        <path id="DejaVuSans-43c" d="M 581 3500 
L 1422 3500 
L 2416 1156 
L 3413 3500 
L 4247 3500 
L 4247 0 
L 3669 0 
L 3669 2950 
L 2703 672 
L 2128 672 
L 1159 2950 
L 1159 0 
L 581 0 
L 581 3500 
z
" transform="scale(0.015625)"/>
        <path id="DejaVuSans-435" d="M 3597 1894 
L 3597 1613 
L 953 1613 
Q 991 1019 1311 708 
Q 1631 397 2203 397 
Q 2534 397 2845 478 
Q 3156 559 3463 722 
L 3463 178 
Q 3153 47 2828 -22 
Q 2503 -91 2169 -91 
Q 1331 -91 842 396 
Q 353 884 353 1716 
Q 353 2575 817 3079 
Q 1281 3584 2069 3584 
Q 2775 3584 3186 3129 
Q 3597 2675 3597 1894 
z
M 3022 2063 
Q 3016 2534 2758 2815 
Q 2500 3097 2075 3097 
Q 1594 3097 1305 2825 
Q 1016 2553 972 2059 
L 3022 2063 
z
" transform="scale(0.015625)"/>
        <path id="DejaVuSans-448" d="M 3216 459 
L 4697 459 
L 4697 3500 
L 5275 3500 
L 5275 0 
L 581 0 
L 581 3500 
L 1159 3500 
L 1159 459 
L 2638 459 
L 2638 3500 
L 3216 3500 
L 3216 459 
z
" transform="scale(0.015625)"/>
        <path id="DejaVuSans-44b" d="M 3907 3500 
L 4482 3500 
L 4482 0 
L 3907 0 
L 3907 3500 
z
M 4195 3584 
L 4195 3584 
z
M 2781 1038 
Q 2781 1319 2576 1466 
Q 2372 1613 1978 1613 
L 1159 1613 
L 1159 459 
L 1978 459 
Q 2372 459 2576 607 
Q 2781 756 2781 1038 
z
M 581 3500 
L 1159 3500 
L 1159 2072 
L 2003 2072 
Q 2672 2072 3033 1817 
Q 3394 1563 3394 1038 
Q 3394 513 3033 256 
Q 2672 0 2003 0 
L 581 0 
L 581 3500 
z
" transform="scale(0.015625)"/>
        <path id="DejaVuSans-439" d="M 3578 3500 
L 3578 0 
L 3006 0 
L 3006 2809 
L 1319 0 
L 581 0 
L 581 3500 
L 1153 3500 
L 1153 697 
L 2838 3500 
L 3578 3500 
z
M 1102 4833 
L 1471 4833 
Q 1505 4599 1656 4481 
Q 1808 4364 2080 4364 
Q 2349 4364 2499 4480 
Q 2649 4596 2689 4833 
L 3058 4833 
Q 3027 4386 2780 4161 
Q 2533 3936 2080 3936 
Q 1627 3936 1380 4161 
Q 1133 4386 1102 4833 
z
" transform="scale(0.015625)"/>
       </defs>
       <use xlink:href="#DejaVuSans-421"/>
       <use xlink:href="#DejaVuSans-43c" transform="translate(69.824219 0)"/>
       <use xlink:href="#DejaVuSans-435" transform="translate(145.263672 0)"/>
       <use xlink:href="#DejaVuSans-448" transform="translate(206.787109 0)"/>
       <use xlink:href="#DejaVuSans-430" transform="translate(298.291016 0)"/>
       <use xlink:href="#DejaVuSans-43d" transform="translate(359.570312 0)"/>
       <use xlink:href="#DejaVuSans-43d" transform="translate(424.951172 0)"/>
       <use xlink:href="#DejaVuSans-44b" transform="translate(490.332031 0)"/>
       <use xlink:href="#DejaVuSans-439" transform="translate(569.287109 0)"/>
      </g>
     </g>
    </g>
   </g>
   <g id="matplotlib.axis_2">
    <g id="ytick_1">
     <g id="line2d_4">
      <path d="M 49.842188 208.95928 
L 645.892187 208.95928 
" clip-path="url(#p0fd3d091e4)" style="fill: none; stroke: #dde5e7; stroke-width: 0.8; stroke-linecap: square"/>
     </g>
     <g id="line2d_5">
      <defs>
       <path id="m3fdec776aa" d="M 0 0 
L -3.5 0 
" style="stroke: #66747c; stroke-width: 0.8"/>
      </defs>
      <g>
       <use xlink:href="#m3fdec776aa" x="49.842188" y="208.95928" style="fill: #66747c; stroke: #66747c; stroke-width: 0.8"/>
      </g>
     </g>
     <g id="text_4">
      <!-- 0 -->
      <g style="fill: #66747c" transform="translate(35.843438 213.138421) scale(0.11 -0.11)">
       <defs>
        <path id="DejaVuSans-30" d="M 2034 4250 
Q 1547 4250 1301 3770 
Q 1056 3291 1056 2328 
Q 1056 1369 1301 889 
Q 1547 409 2034 409 
Q 2525 409 2770 889 
Q 3016 1369 3016 2328 
Q 3016 3291 2770 3770 
Q 2525 4250 2034 4250 
z
M 2034 4750 
Q 2819 4750 3233 4129 
Q 3647 3509 3647 2328 
Q 3647 1150 3233 529 
Q 2819 -91 2034 -91 
Q 1250 -91 836 529 
Q 422 1150 422 2328 
Q 422 3509 836 4129 
Q 1250 4750 2034 4750 
z
" transform="scale(0.015625)"/>
       </defs>
       <use xlink:href="#DejaVuSans-30"/>
      </g>
     </g>
    </g>
    <g id="ytick_2">
     <g id="line2d_6">
      <path d="M 49.842188 173.785131 
L 645.892187 173.785131 
" clip-path="url(#p0fd3d091e4)" style="fill: none; stroke: #dde5e7; stroke-width: 0.8; stroke-linecap: square"/>
     </g>
     <g id="line2d_7">
      <g>
       <use xlink:href="#m3fdec776aa" x="49.842188" y="173.785131" style="fill: #66747c; stroke: #66747c; stroke-width: 0.8"/>
      </g>
     </g>
     <g id="text_5">
      <!-- 20 -->
      <g style="fill: #66747c" transform="translate(28.844687 177.964272) scale(0.11 -0.11)">
       <defs>
        <path id="DejaVuSans-32" d="M 1228 531 
L 3431 531 
L 3431 0 
L 469 0 
L 469 531 
Q 828 903 1448 1529 
Q 2069 2156 2228 2338 
Q 2531 2678 2651 2914 
Q 2772 3150 2772 3378 
Q 2772 3750 2511 3984 
Q 2250 4219 1831 4219 
Q 1534 4219 1204 4116 
Q 875 4013 500 3803 
L 500 4441 
Q 881 4594 1212 4672 
Q 1544 4750 1819 4750 
Q 2544 4750 2975 4387 
Q 3406 4025 3406 3419 
Q 3406 3131 3298 2873 
Q 3191 2616 2906 2266 
Q 2828 2175 2409 1742 
Q 1991 1309 1228 531 
z
" transform="scale(0.015625)"/>
       </defs>
       <use xlink:href="#DejaVuSans-32"/>
       <use xlink:href="#DejaVuSans-30" transform="translate(63.623047 0)"/>
      </g>
     </g>
    </g>
    <g id="ytick_3">
     <g id="line2d_8">
      <path d="M 49.842188 138.610983 
L 645.892187 138.610983 
" clip-path="url(#p0fd3d091e4)" style="fill: none; stroke: #dde5e7; stroke-width: 0.8; stroke-linecap: square"/>
     </g>
     <g id="line2d_9">
      <g>
       <use xlink:href="#m3fdec776aa" x="49.842188" y="138.610983" style="fill: #66747c; stroke: #66747c; stroke-width: 0.8"/>
      </g>
     </g>
     <g id="text_6">
      <!-- 40 -->
      <g style="fill: #66747c" transform="translate(28.844687 142.790123) scale(0.11 -0.11)">
       <defs>
        <path id="DejaVuSans-34" d="M 2419 4116 
L 825 1625 
L 2419 1625 
L 2419 4116 
z
M 2253 4666 
L 3047 4666 
L 3047 1625 
L 3713 1625 
L 3713 1100 
L 3047 1100 
L 3047 0 
L 2419 0 
L 2419 1100 
L 313 1100 
L 313 1709 
L 2253 4666 
z
" transform="scale(0.015625)"/>
       </defs>
       <use xlink:href="#DejaVuSans-34"/>
       <use xlink:href="#DejaVuSans-30" transform="translate(63.623047 0)"/>
      </g>
     </g>
    </g>
    <g id="ytick_4">
     <g id="line2d_10">
      <path d="M 49.842188 103.436834 
L 645.892187 103.436834 
" clip-path="url(#p0fd3d091e4)" style="fill: none; stroke: #dde5e7; stroke-width: 0.8; stroke-linecap: square"/>
     </g>
     <g id="line2d_11">
      <g>
       <use xlink:href="#m3fdec776aa" x="49.842188" y="103.436834" style="fill: #66747c; stroke: #66747c; stroke-width: 0.8"/>
      </g>
     </g>
     <g id="text_7">
      <!-- 60 -->
      <g style="fill: #66747c" transform="translate(28.844687 107.615975) scale(0.11 -0.11)">
       <defs>
        <path id="DejaVuSans-36" d="M 2113 2584 
Q 1688 2584 1439 2293 
Q 1191 2003 1191 1497 
Q 1191 994 1439 701 
Q 1688 409 2113 409 
Q 2538 409 2786 701 
Q 3034 994 3034 1497 
Q 3034 2003 2786 2293 
Q 2538 2584 2113 2584 
z
M 3366 4563 
L 3366 3988 
Q 3128 4100 2886 4159 
Q 2644 4219 2406 4219 
Q 1781 4219 1451 3797 
Q 1122 3375 1075 2522 
Q 1259 2794 1537 2939 
Q 1816 3084 2150 3084 
Q 2853 3084 3261 2657 
Q 3669 2231 3669 1497 
Q 3669 778 3244 343 
Q 2819 -91 2113 -91 
Q 1303 -91 875 529 
Q 447 1150 447 2328 
Q 447 3434 972 4092 
Q 1497 4750 2381 4750 
Q 2619 4750 2861 4703 
Q 3103 4656 3366 4563 
z
" transform="scale(0.015625)"/>
       </defs>
       <use xlink:href="#DejaVuSans-36"/>
       <use xlink:href="#DejaVuSans-30" transform="translate(63.623047 0)"/>
      </g>
     </g>
    </g>
    <g id="ytick_5">
     <g id="line2d_12">
      <path d="M 49.842188 68.262686 
L 645.892187 68.262686 
" clip-path="url(#p0fd3d091e4)" style="fill: none; stroke: #dde5e7; stroke-width: 0.8; stroke-linecap: square"/>
     </g>
     <g id="line2d_13">
      <g>
       <use xlink:href="#m3fdec776aa" x="49.842188" y="68.262686" style="fill: #66747c; stroke: #66747c; stroke-width: 0.8"/>
      </g>
     </g>
     <g id="text_8">
      <!-- 80 -->
      <g style="fill: #66747c" transform="translate(28.844687 72.441826) scale(0.11 -0.11)">
       <defs>
        <path id="DejaVuSans-38" d="M 2034 2216 
Q 1584 2216 1326 1975 
Q 1069 1734 1069 1313 
Q 1069 891 1326 650 
Q 1584 409 2034 409 
Q 2484 409 2743 651 
Q 3003 894 3003 1313 
Q 3003 1734 2745 1975 
Q 2488 2216 2034 2216 
z
M 1403 2484 
Q 997 2584 770 2862 
Q 544 3141 544 3541 
Q 544 4100 942 4425 
Q 1341 4750 2034 4750 
Q 2731 4750 3128 4425 
Q 3525 4100 3525 3541 
Q 3525 3141 3298 2862 
Q 3072 2584 2669 2484 
Q 3125 2378 3379 2068 
Q 3634 1759 3634 1313 
Q 3634 634 3220 271 
Q 2806 -91 2034 -91 
Q 1263 -91 848 271 
Q 434 634 434 1313 
Q 434 1759 690 2068 
Q 947 2378 1403 2484 
z
M 1172 3481 
Q 1172 3119 1398 2916 
Q 1625 2713 2034 2713 
Q 2441 2713 2670 2916 
Q 2900 3119 2900 3481 
Q 2900 3844 2670 4047 
Q 2441 4250 2034 4250 
Q 1625 4250 1398 4047 
Q 1172 3844 1172 3481 
z
" transform="scale(0.015625)"/>
       </defs>
       <use xlink:href="#DejaVuSans-38"/>
       <use xlink:href="#DejaVuSans-30" transform="translate(63.623047 0)"/>
      </g>
     </g>
    </g>
    <g id="ytick_6">
     <g id="line2d_14">
      <path d="M 49.842188 33.088537 
L 645.892187 33.088537 
" clip-path="url(#p0fd3d091e4)" style="fill: none; stroke: #dde5e7; stroke-width: 0.8; stroke-linecap: square"/>
     </g>
     <g id="line2d_15">
      <g>
       <use xlink:href="#m3fdec776aa" x="49.842188" y="33.088537" style="fill: #66747c; stroke: #66747c; stroke-width: 0.8"/>
      </g>
     </g>
     <g id="text_9">
      <!-- 100 -->
      <g style="fill: #66747c" transform="translate(21.845938 37.267678) scale(0.11 -0.11)">
       <defs>
        <path id="DejaVuSans-31" d="M 794 531 
L 1825 531 
L 1825 4091 
L 703 3866 
L 703 4441 
L 1819 4666 
L 2450 4666 
L 2450 531 
L 3481 531 
L 3481 0 
L 794 0 
L 794 531 
z
" transform="scale(0.015625)"/>
       </defs>
       <use xlink:href="#DejaVuSans-31"/>
       <use xlink:href="#DejaVuSans-30" transform="translate(63.623047 0)"/>
       <use xlink:href="#DejaVuSans-30" transform="translate(127.246094 0)"/>
      </g>
     </g>
    </g>
    <g id="text_10">
     <!-- Test accuracy, % -->
     <g style="fill: #15242d" transform="translate(15.558281 162.742062) rotate(-90) scale(0.11 -0.11)">
      <defs>
       <path id="DejaVuSans-54" d="M -19 4666 
L 3928 4666 
L 3928 4134 
L 2272 4134 
L 2272 0 
L 1638 0 
L 1638 4134 
L -19 4134 
L -19 4666 
z
" transform="scale(0.015625)"/>
       <path id="DejaVuSans-65" d="M 3597 1894 
L 3597 1613 
L 953 1613 
Q 991 1019 1311 708 
Q 1631 397 2203 397 
Q 2534 397 2845 478 
Q 3156 559 3463 722 
L 3463 178 
Q 3153 47 2828 -22 
Q 2503 -91 2169 -91 
Q 1331 -91 842 396 
Q 353 884 353 1716 
Q 353 2575 817 3079 
Q 1281 3584 2069 3584 
Q 2775 3584 3186 3129 
Q 3597 2675 3597 1894 
z
M 3022 2063 
Q 3016 2534 2758 2815 
Q 2500 3097 2075 3097 
Q 1594 3097 1305 2825 
Q 1016 2553 972 2059 
L 3022 2063 
z
" transform="scale(0.015625)"/>
       <path id="DejaVuSans-73" d="M 2834 3397 
L 2834 2853 
Q 2591 2978 2328 3040 
Q 2066 3103 1784 3103 
Q 1356 3103 1142 2972 
Q 928 2841 928 2578 
Q 928 2378 1081 2264 
Q 1234 2150 1697 2047 
L 1894 2003 
Q 2506 1872 2764 1633 
Q 3022 1394 3022 966 
Q 3022 478 2636 193 
Q 2250 -91 1575 -91 
Q 1294 -91 989 -36 
Q 684 19 347 128 
L 347 722 
Q 666 556 975 473 
Q 1284 391 1588 391 
Q 1994 391 2212 530 
Q 2431 669 2431 922 
Q 2431 1156 2273 1281 
Q 2116 1406 1581 1522 
L 1381 1569 
Q 847 1681 609 1914 
Q 372 2147 372 2553 
Q 372 3047 722 3315 
Q 1072 3584 1716 3584 
Q 2034 3584 2315 3537 
Q 2597 3491 2834 3397 
z
" transform="scale(0.015625)"/>
       <path id="DejaVuSans-74" d="M 1172 4494 
L 1172 3500 
L 2356 3500 
L 2356 3053 
L 1172 3053 
L 1172 1153 
Q 1172 725 1289 603 
Q 1406 481 1766 481 
L 2356 481 
L 2356 0 
L 1766 0 
Q 1100 0 847 248 
Q 594 497 594 1153 
L 594 3053 
L 172 3053 
L 172 3500 
L 594 3500 
L 594 4494 
L 1172 4494 
z
" transform="scale(0.015625)"/>
       <path id="DejaVuSans-20" transform="scale(0.015625)"/>
       <path id="DejaVuSans-61" d="M 2194 1759 
Q 1497 1759 1228 1600 
Q 959 1441 959 1056 
Q 959 750 1161 570 
Q 1363 391 1709 391 
Q 2188 391 2477 730 
Q 2766 1069 2766 1631 
L 2766 1759 
L 2194 1759 
z
M 3341 1997 
L 3341 0 
L 2766 0 
L 2766 531 
Q 2569 213 2275 61 
Q 1981 -91 1556 -91 
Q 1019 -91 701 211 
Q 384 513 384 1019 
Q 384 1609 779 1909 
Q 1175 2209 1959 2209 
L 2766 2209 
L 2766 2266 
Q 2766 2663 2505 2880 
Q 2244 3097 1772 3097 
Q 1472 3097 1187 3025 
Q 903 2953 641 2809 
L 641 3341 
Q 956 3463 1253 3523 
Q 1550 3584 1831 3584 
Q 2591 3584 2966 3190 
Q 3341 2797 3341 1997 
z
" transform="scale(0.015625)"/>
       <path id="DejaVuSans-63" d="M 3122 3366 
L 3122 2828 
Q 2878 2963 2633 3030 
Q 2388 3097 2138 3097 
Q 1578 3097 1268 2742 
Q 959 2388 959 1747 
Q 959 1106 1268 751 
Q 1578 397 2138 397 
Q 2388 397 2633 464 
Q 2878 531 3122 666 
L 3122 134 
Q 2881 22 2623 -34 
Q 2366 -91 2075 -91 
Q 1284 -91 818 406 
Q 353 903 353 1747 
Q 353 2603 823 3093 
Q 1294 3584 2113 3584 
Q 2378 3584 2631 3529 
Q 2884 3475 3122 3366 
z
" transform="scale(0.015625)"/>
       <path id="DejaVuSans-75" d="M 544 1381 
L 544 3500 
L 1119 3500 
L 1119 1403 
Q 1119 906 1312 657 
Q 1506 409 1894 409 
Q 2359 409 2629 706 
Q 2900 1003 2900 1516 
L 2900 3500 
L 3475 3500 
L 3475 0 
L 2900 0 
L 2900 538 
Q 2691 219 2414 64 
Q 2138 -91 1772 -91 
Q 1169 -91 856 284 
Q 544 659 544 1381 
z
M 1991 3584 
L 1991 3584 
z
" transform="scale(0.015625)"/>
       <path id="DejaVuSans-72" d="M 2631 2963 
Q 2534 3019 2420 3045 
Q 2306 3072 2169 3072 
Q 1681 3072 1420 2755 
Q 1159 2438 1159 1844 
L 1159 0 
L 581 0 
L 581 3500 
L 1159 3500 
L 1159 2956 
Q 1341 3275 1631 3429 
Q 1922 3584 2338 3584 
Q 2397 3584 2469 3576 
Q 2541 3569 2628 3553 
L 2631 2963 
z
" transform="scale(0.015625)"/>
       <path id="DejaVuSans-79" d="M 2059 -325 
Q 1816 -950 1584 -1140 
Q 1353 -1331 966 -1331 
L 506 -1331 
L 506 -850 
L 844 -850 
Q 1081 -850 1212 -737 
Q 1344 -625 1503 -206 
L 1606 56 
L 191 3500 
L 800 3500 
L 1894 763 
L 2988 3500 
L 3597 3500 
L 2059 -325 
z
" transform="scale(0.015625)"/>
       <path id="DejaVuSans-2c" d="M 750 794 
L 1409 794 
L 1409 256 
L 897 -744 
L 494 -744 
L 750 256 
L 750 794 
z
" transform="scale(0.015625)"/>
       <path id="DejaVuSans-25" d="M 4653 2053 
Q 4381 2053 4226 1822 
Q 4072 1591 4072 1178 
Q 4072 772 4226 539 
Q 4381 306 4653 306 
Q 4919 306 5073 539 
Q 5228 772 5228 1178 
Q 5228 1588 5073 1820 
Q 4919 2053 4653 2053 
z
M 4653 2450 
Q 5147 2450 5437 2106 
Q 5728 1763 5728 1178 
Q 5728 594 5436 251 
Q 5144 -91 4653 -91 
Q 4153 -91 3862 251 
Q 3572 594 3572 1178 
Q 3572 1766 3864 2108 
Q 4156 2450 4653 2450 
z
M 1428 4353 
Q 1159 4353 1004 4120 
Q 850 3888 850 3481 
Q 850 3069 1003 2837 
Q 1156 2606 1428 2606 
Q 1700 2606 1854 2837 
Q 2009 3069 2009 3481 
Q 2009 3884 1853 4118 
Q 1697 4353 1428 4353 
z
M 4250 4750 
L 4750 4750 
L 1831 -91 
L 1331 -91 
L 4250 4750 
z
M 1428 4750 
Q 1922 4750 2215 4408 
Q 2509 4066 2509 3481 
Q 2509 2891 2217 2550 
Q 1925 2209 1428 2209 
Q 931 2209 642 2551 
Q 353 2894 353 3481 
Q 353 4063 643 4406 
Q 934 4750 1428 4750 
z
" transform="scale(0.015625)"/>
      </defs>
      <use xlink:href="#DejaVuSans-54"/>
      <use xlink:href="#DejaVuSans-65" transform="translate(44.083984 0)"/>
      <use xlink:href="#DejaVuSans-73" transform="translate(105.607422 0)"/>
      <use xlink:href="#DejaVuSans-74" transform="translate(157.707031 0)"/>
      <use xlink:href="#DejaVuSans-20" transform="translate(196.916016 0)"/>
      <use xlink:href="#DejaVuSans-61" transform="translate(228.703125 0)"/>
      <use xlink:href="#DejaVuSans-63" transform="translate(289.982422 0)"/>
      <use xlink:href="#DejaVuSans-63" transform="translate(344.962891 0)"/>
      <use xlink:href="#DejaVuSans-75" transform="translate(399.943359 0)"/>
      <use xlink:href="#DejaVuSans-72" transform="translate(463.322266 0)"/>
      <use xlink:href="#DejaVuSans-61" transform="translate(504.435547 0)"/>
      <use xlink:href="#DejaVuSans-63" transform="translate(565.714844 0)"/>
      <use xlink:href="#DejaVuSans-79" transform="translate(620.695312 0)"/>
      <use xlink:href="#DejaVuSans-2c" transform="translate(679.875 0)"/>
      <use xlink:href="#DejaVuSans-20" transform="translate(711.662109 0)"/>
      <use xlink:href="#DejaVuSans-25" transform="translate(743.449219 0)"/>
     </g>
    </g>
   </g>
   <g id="patch_3">
    <path d="M 76.935369 208.95928 
L 106.491568 208.95928 
L 106.491568 72.659454 
L 76.935369 72.659454 
z
" clip-path="url(#p0fd3d091e4)" style="fill: #aab4b9; stroke: #ffffff; stroke-width: 0.8; stroke-linejoin: miter"/>
   </g>
   <g id="patch_4">
    <path d="M 273.976692 208.95928 
L 303.53289 208.95928 
L 303.53289 118.09273 
L 273.976692 118.09273 
z
" clip-path="url(#p0fd3d091e4)" style="fill: #aab4b9; stroke: #ffffff; stroke-width: 0.8; stroke-linejoin: miter"/>
   </g>
   <g id="patch_5">
    <path d="M 471.018014 208.95928 
L 500.574212 208.95928 
L 500.574212 119.558319 
L 471.018014 119.558319 
z
" clip-path="url(#p0fd3d091e4)" style="fill: #aab4b9; stroke: #ffffff; stroke-width: 0.8; stroke-linejoin: miter"/>
   </g>
   <g id="patch_6">
    <path d="M 106.491568 208.95928 
L 136.047766 208.95928 
L 136.047766 38.364659 
L 106.491568 38.364659 
z
" clip-path="url(#p0fd3d091e4)" style="fill: #f39b42; stroke: #ffffff; stroke-width: 0.8; stroke-linejoin: miter"/>
   </g>
   <g id="patch_7">
    <path d="M 303.53289 208.95928 
L 333.089088 208.95928 
L 333.089088 56.831087 
L 303.53289 56.831087 
z
" clip-path="url(#p0fd3d091e4)" style="fill: #f39b42; stroke: #ffffff; stroke-width: 0.8; stroke-linejoin: miter"/>
   </g>
   <g id="patch_8">
    <path d="M 500.574212 208.95928 
L 530.130411 208.95928 
L 530.130411 93.080002 
L 500.574212 93.080002 
z
" clip-path="url(#p0fd3d091e4)" style="fill: #f39b42; stroke: #ffffff; stroke-width: 0.8; stroke-linejoin: miter"/>
   </g>
   <g id="patch_9">
    <path d="M 136.047766 208.95928 
L 165.603964 208.95928 
L 165.603964 42.370604 
L 136.047766 42.370604 
z
" clip-path="url(#p0fd3d091e4)" style="fill: #3565d4; stroke: #ffffff; stroke-width: 0.8; stroke-linejoin: miter"/>
   </g>
   <g id="patch_10">
    <path d="M 333.089088 208.95928 
L 362.645287 208.95928 
L 362.645287 44.910959 
L 333.089088 44.910959 
z
" clip-path="url(#p0fd3d091e4)" style="fill: #3565d4; stroke: #ffffff; stroke-width: 0.8; stroke-linejoin: miter"/>
   </g>
   <g id="patch_11">
    <path d="M 530.130411 208.95928 
L 559.686609 208.95928 
L 559.686609 79.987402 
L 530.130411 79.987402 
z
" clip-path="url(#p0fd3d091e4)" style="fill: #3565d4; stroke: #ffffff; stroke-width: 0.8; stroke-linejoin: miter"/>
   </g>
   <g id="patch_12">
    <path d="M 165.603964 208.95928 
L 195.160163 208.95928 
L 195.160163 41.784368 
L 165.603964 41.784368 
z
" clip-path="url(#p0fd3d091e4)" style="fill: #12a594; stroke: #ffffff; stroke-width: 0.8; stroke-linejoin: miter"/>
   </g>
   <g id="patch_13">
    <path d="M 362.645287 208.95928 
L 392.201485 208.95928 
L 392.201485 43.738488 
L 362.645287 43.738488 
z
" clip-path="url(#p0fd3d091e4)" style="fill: #12a594; stroke: #ffffff; stroke-width: 0.8; stroke-linejoin: miter"/>
   </g>
   <g id="patch_14">
    <path d="M 559.686609 208.95928 
L 589.242807 208.95928 
L 589.242807 77.544753 
L 559.686609 77.544753 
z
" clip-path="url(#p0fd3d091e4)" style="fill: #12a594; stroke: #ffffff; stroke-width: 0.8; stroke-linejoin: miter"/>
   </g>
   <g id="patch_15">
    <path d="M 195.160163 208.95928 
L 224.716361 208.95928 
L 224.716361 39.439425 
L 195.160163 39.439425 
z
" clip-path="url(#p0fd3d091e4)" style="fill: #15242d; stroke: #ffffff; stroke-width: 0.8; stroke-linejoin: miter"/>
   </g>
   <g id="patch_16">
    <path d="M 392.201485 208.95928 
L 421.757683 208.95928 
L 421.757683 45.008665 
L 392.201485 45.008665 
z
" clip-path="url(#p0fd3d091e4)" style="fill: #15242d; stroke: #ffffff; stroke-width: 0.8; stroke-linejoin: miter"/>
   </g>
   <g id="patch_17">
    <path d="M 589.242807 208.95928 
L 618.799006 208.95928 
L 618.799006 79.987402 
L 589.242807 79.987402 
z
" clip-path="url(#p0fd3d091e4)" style="fill: #15242d; stroke: #ffffff; stroke-width: 0.8; stroke-linejoin: miter"/>
   </g>
   <g id="LineCollection_1">
    <path d="M 91.713468 72.659454 
L 91.713468 72.659454 
" clip-path="url(#p0fd3d091e4)" style="fill: none; stroke: #66747c"/>
    <path d="M 288.754791 118.09273 
L 288.754791 118.09273 
" clip-path="url(#p0fd3d091e4)" style="fill: none; stroke: #66747c"/>
    <path d="M 485.796113 119.558319 
L 485.796113 119.558319 
" clip-path="url(#p0fd3d091e4)" style="fill: none; stroke: #66747c"/>
   </g>
   <g id="line2d_16">
    <defs>
     <path id="mf3c36f7884" d="M 2 0 
L -2 -0 
" style="stroke: #66747c"/>
    </defs>
    <g clip-path="url(#p0fd3d091e4)">
     <use xlink:href="#mf3c36f7884" x="91.713468" y="72.659454" style="fill: #1f77b4; stroke: #66747c"/>
     <use xlink:href="#mf3c36f7884" x="288.754791" y="118.09273" style="fill: #1f77b4; stroke: #66747c"/>
     <use xlink:href="#mf3c36f7884" x="485.796113" y="119.558319" style="fill: #1f77b4; stroke: #66747c"/>
    </g>
   </g>
   <g id="line2d_17">
    <g clip-path="url(#p0fd3d091e4)">
     <use xlink:href="#mf3c36f7884" x="91.713468" y="72.659454" style="fill: #1f77b4; stroke: #66747c"/>
     <use xlink:href="#mf3c36f7884" x="288.754791" y="118.09273" style="fill: #1f77b4; stroke: #66747c"/>
     <use xlink:href="#mf3c36f7884" x="485.796113" y="119.558319" style="fill: #1f77b4; stroke: #66747c"/>
    </g>
   </g>
   <g id="LineCollection_2">
    <path d="M 121.269667 38.872169 
L 121.269667 37.85715 
" clip-path="url(#p0fd3d091e4)" style="fill: none; stroke: #66747c"/>
    <path d="M 318.310989 60.633782 
L 318.310989 53.028393 
" clip-path="url(#p0fd3d091e4)" style="fill: none; stroke: #66747c"/>
    <path d="M 515.352311 97.60713 
L 515.352311 88.552874 
" clip-path="url(#p0fd3d091e4)" style="fill: none; stroke: #66747c"/>
   </g>
   <g id="line2d_18">
    <g clip-path="url(#p0fd3d091e4)">
     <use xlink:href="#mf3c36f7884" x="121.269667" y="38.872169" style="fill: #1f77b4; stroke: #66747c"/>
     <use xlink:href="#mf3c36f7884" x="318.310989" y="60.633782" style="fill: #1f77b4; stroke: #66747c"/>
     <use xlink:href="#mf3c36f7884" x="515.352311" y="97.60713" style="fill: #1f77b4; stroke: #66747c"/>
    </g>
   </g>
   <g id="line2d_19">
    <g clip-path="url(#p0fd3d091e4)">
     <use xlink:href="#mf3c36f7884" x="121.269667" y="37.85715" style="fill: #1f77b4; stroke: #66747c"/>
     <use xlink:href="#mf3c36f7884" x="318.310989" y="53.028393" style="fill: #1f77b4; stroke: #66747c"/>
     <use xlink:href="#mf3c36f7884" x="515.352311" y="88.552874" style="fill: #1f77b4; stroke: #66747c"/>
    </g>
   </g>
   <g id="LineCollection_3">
    <path d="M 150.825865 44.382435 
L 150.825865 40.358773 
" clip-path="url(#p0fd3d091e4)" style="fill: none; stroke: #66747c"/>
    <path d="M 347.867188 46.800173 
L 347.867188 43.021746 
" clip-path="url(#p0fd3d091e4)" style="fill: none; stroke: #66747c"/>
    <path d="M 544.90851 84.705564 
L 544.90851 75.26924 
" clip-path="url(#p0fd3d091e4)" style="fill: none; stroke: #66747c"/>
   </g>
   <g id="line2d_20">
    <g clip-path="url(#p0fd3d091e4)">
     <use xlink:href="#mf3c36f7884" x="150.825865" y="44.382435" style="fill: #1f77b4; stroke: #66747c"/>
     <use xlink:href="#mf3c36f7884" x="347.867188" y="46.800173" style="fill: #1f77b4; stroke: #66747c"/>
     <use xlink:href="#mf3c36f7884" x="544.90851" y="84.705564" style="fill: #1f77b4; stroke: #66747c"/>
    </g>
   </g>
   <g id="line2d_21">
    <g clip-path="url(#p0fd3d091e4)">
     <use xlink:href="#mf3c36f7884" x="150.825865" y="40.358773" style="fill: #1f77b4; stroke: #66747c"/>
     <use xlink:href="#mf3c36f7884" x="347.867188" y="43.021746" style="fill: #1f77b4; stroke: #66747c"/>
     <use xlink:href="#mf3c36f7884" x="544.90851" y="75.26924" style="fill: #1f77b4; stroke: #66747c"/>
    </g>
   </g>
   <g id="LineCollection_4">
    <path d="M 180.382064 44.476698 
L 180.382064 39.092038 
" clip-path="url(#p0fd3d091e4)" style="fill: none; stroke: #66747c"/>
    <path d="M 377.423386 45.768526 
L 377.423386 41.70845 
" clip-path="url(#p0fd3d091e4)" style="fill: none; stroke: #66747c"/>
    <path d="M 574.464708 82.583467 
L 574.464708 72.506038 
" clip-path="url(#p0fd3d091e4)" style="fill: none; stroke: #66747c"/>
   </g>
   <g id="line2d_22">
    <g clip-path="url(#p0fd3d091e4)">
     <use xlink:href="#mf3c36f7884" x="180.382064" y="44.476698" style="fill: #1f77b4; stroke: #66747c"/>
     <use xlink:href="#mf3c36f7884" x="377.423386" y="45.768526" style="fill: #1f77b4; stroke: #66747c"/>
     <use xlink:href="#mf3c36f7884" x="574.464708" y="82.583467" style="fill: #1f77b4; stroke: #66747c"/>
    </g>
   </g>
   <g id="line2d_23">
    <g clip-path="url(#p0fd3d091e4)">
     <use xlink:href="#mf3c36f7884" x="180.382064" y="39.092038" style="fill: #1f77b4; stroke: #66747c"/>
     <use xlink:href="#mf3c36f7884" x="377.423386" y="41.70845" style="fill: #1f77b4; stroke: #66747c"/>
     <use xlink:href="#mf3c36f7884" x="574.464708" y="72.506038" style="fill: #1f77b4; stroke: #66747c"/>
    </g>
   </g>
   <g id="LineCollection_5">
    <path d="M 209.938262 40.398528 
L 209.938262 38.480322 
" clip-path="url(#p0fd3d091e4)" style="fill: none; stroke: #66747c"/>
    <path d="M 406.979584 47.840862 
L 406.979584 42.176468 
" clip-path="url(#p0fd3d091e4)" style="fill: none; stroke: #66747c"/>
    <path d="M 604.020907 84.626923 
L 604.020907 75.347881 
" clip-path="url(#p0fd3d091e4)" style="fill: none; stroke: #66747c"/>
   </g>
   <g id="line2d_24">
    <g clip-path="url(#p0fd3d091e4)">
     <use xlink:href="#mf3c36f7884" x="209.938262" y="40.398528" style="fill: #1f77b4; stroke: #66747c"/>
     <use xlink:href="#mf3c36f7884" x="406.979584" y="47.840862" style="fill: #1f77b4; stroke: #66747c"/>
     <use xlink:href="#mf3c36f7884" x="604.020907" y="84.626923" style="fill: #1f77b4; stroke: #66747c"/>
    </g>
   </g>
   <g id="line2d_25">
    <g clip-path="url(#p0fd3d091e4)">
     <use xlink:href="#mf3c36f7884" x="209.938262" y="38.480322" style="fill: #1f77b4; stroke: #66747c"/>
     <use xlink:href="#mf3c36f7884" x="406.979584" y="42.176468" style="fill: #1f77b4; stroke: #66747c"/>
     <use xlink:href="#mf3c36f7884" x="604.020907" y="75.347881" style="fill: #1f77b4; stroke: #66747c"/>
    </g>
   </g>
   <g id="patch_18">
    <path d="M 49.842188 208.95928 
L 49.842188 24.295 
" style="fill: none; stroke: #66747c; stroke-width: 0.8; stroke-linejoin: miter; stroke-linecap: square"/>
   </g>
   <g id="patch_19">
    <path d="M 49.842188 208.95928 
L 645.892188 208.95928 
" style="fill: none; stroke: #66747c; stroke-width: 0.8; stroke-linejoin: miter; stroke-linecap: square"/>
   </g>
   <g id="text_11">
    <!-- 77.5 -->
    <g style="fill: #15242d" transform="translate(82.807218 68.885255) scale(0.08 -0.08)">
     <defs>
      <path id="DejaVuSans-37" d="M 525 4666 
L 3525 4666 
L 3525 4397 
L 1831 0 
L 1172 0 
L 2766 4134 
L 525 4134 
L 525 4666 
z
" transform="scale(0.015625)"/>
      <path id="DejaVuSans-2e" d="M 684 794 
L 1344 794 
L 1344 0 
L 684 0 
L 684 794 
z
" transform="scale(0.015625)"/>
      <path id="DejaVuSans-35" d="M 691 4666 
L 3169 4666 
L 3169 4134 
L 1269 4134 
L 1269 2991 
Q 1406 3038 1543 3061 
Q 1681 3084 1819 3084 
Q 2600 3084 3056 2656 
Q 3513 2228 3513 1497 
Q 3513 744 3044 326 
Q 2575 -91 1722 -91 
Q 1428 -91 1123 -41 
Q 819 9 494 109 
L 494 744 
Q 775 591 1075 516 
Q 1375 441 1709 441 
Q 2250 441 2565 725 
Q 2881 1009 2881 1497 
Q 2881 1984 2565 2268 
Q 2250 2553 1709 2553 
Q 1456 2553 1204 2497 
Q 953 2441 691 2322 
L 691 4666 
z
" transform="scale(0.015625)"/>
     </defs>
     <use xlink:href="#DejaVuSans-37"/>
     <use xlink:href="#DejaVuSans-37" transform="translate(63.623047 0)"/>
     <use xlink:href="#DejaVuSans-2e" transform="translate(127.246094 0)"/>
     <use xlink:href="#DejaVuSans-35" transform="translate(159.033203 0)"/>
    </g>
   </g>
   <g id="text_12">
    <!-- 51.7 -->
    <g style="fill: #15242d" transform="translate(279.848541 114.318531) scale(0.08 -0.08)">
     <use xlink:href="#DejaVuSans-35"/>
     <use xlink:href="#DejaVuSans-31" transform="translate(63.623047 0)"/>
     <use xlink:href="#DejaVuSans-2e" transform="translate(127.246094 0)"/>
     <use xlink:href="#DejaVuSans-37" transform="translate(159.033203 0)"/>
    </g>
   </g>
   <g id="text_13">
    <!-- 50.8 -->
    <g style="fill: #15242d" transform="translate(476.889863 115.78412) scale(0.08 -0.08)">
     <use xlink:href="#DejaVuSans-35"/>
     <use xlink:href="#DejaVuSans-30" transform="translate(63.623047 0)"/>
     <use xlink:href="#DejaVuSans-2e" transform="translate(127.246094 0)"/>
     <use xlink:href="#DejaVuSans-38" transform="translate(159.033203 0)"/>
    </g>
   </g>
   <g id="text_14">
    <!-- 97.0 -->
    <g style="fill: #15242d" transform="translate(112.363417 34.590461) scale(0.08 -0.08)">
     <defs>
      <path id="DejaVuSans-39" d="M 703 97 
L 703 672 
Q 941 559 1184 500 
Q 1428 441 1663 441 
Q 2288 441 2617 861 
Q 2947 1281 2994 2138 
Q 2813 1869 2534 1725 
Q 2256 1581 1919 1581 
Q 1219 1581 811 2004 
Q 403 2428 403 3163 
Q 403 3881 828 4315 
Q 1253 4750 1959 4750 
Q 2769 4750 3195 4129 
Q 3622 3509 3622 2328 
Q 3622 1225 3098 567 
Q 2575 -91 1691 -91 
Q 1453 -91 1209 -44 
Q 966 3 703 97 
z
M 1959 2075 
Q 2384 2075 2632 2365 
Q 2881 2656 2881 3163 
Q 2881 3666 2632 3958 
Q 2384 4250 1959 4250 
Q 1534 4250 1286 3958 
Q 1038 3666 1038 3163 
Q 1038 2656 1286 2365 
Q 1534 2075 1959 2075 
z
" transform="scale(0.015625)"/>
     </defs>
     <use xlink:href="#DejaVuSans-39"/>
     <use xlink:href="#DejaVuSans-37" transform="translate(63.623047 0)"/>
     <use xlink:href="#DejaVuSans-2e" transform="translate(127.246094 0)"/>
     <use xlink:href="#DejaVuSans-30" transform="translate(159.033203 0)"/>
    </g>
   </g>
   <g id="text_15">
    <!-- 86.5 -->
    <g style="fill: #15242d" transform="translate(309.404739 53.056889) scale(0.08 -0.08)">
     <use xlink:href="#DejaVuSans-38"/>
     <use xlink:href="#DejaVuSans-36" transform="translate(63.623047 0)"/>
     <use xlink:href="#DejaVuSans-2e" transform="translate(127.246094 0)"/>
     <use xlink:href="#DejaVuSans-35" transform="translate(159.033203 0)"/>
    </g>
   </g>
   <g id="text_16">
    <!-- 65.9 -->
    <g style="fill: #15242d" transform="translate(506.446061 89.305803) scale(0.08 -0.08)">
     <use xlink:href="#DejaVuSans-36"/>
     <use xlink:href="#DejaVuSans-35" transform="translate(63.623047 0)"/>
     <use xlink:href="#DejaVuSans-2e" transform="translate(127.246094 0)"/>
     <use xlink:href="#DejaVuSans-39" transform="translate(159.033203 0)"/>
    </g>
   </g>
   <g id="text_17">
    <!-- 94.7 -->
    <g style="fill: #15242d" transform="translate(141.919615 38.596405) scale(0.08 -0.08)">
     <use xlink:href="#DejaVuSans-39"/>
     <use xlink:href="#DejaVuSans-34" transform="translate(63.623047 0)"/>
     <use xlink:href="#DejaVuSans-2e" transform="translate(127.246094 0)"/>
     <use xlink:href="#DejaVuSans-37" transform="translate(159.033203 0)"/>
    </g>
   </g>
   <g id="text_18">
    <!-- 93.3 -->
    <g style="fill: #15242d" transform="translate(338.960938 41.13676) scale(0.08 -0.08)">
     <defs>
      <path id="DejaVuSans-33" d="M 2597 2516 
Q 3050 2419 3304 2112 
Q 3559 1806 3559 1356 
Q 3559 666 3084 287 
Q 2609 -91 1734 -91 
Q 1441 -91 1130 -33 
Q 819 25 488 141 
L 488 750 
Q 750 597 1062 519 
Q 1375 441 1716 441 
Q 2309 441 2620 675 
Q 2931 909 2931 1356 
Q 2931 1769 2642 2001 
Q 2353 2234 1838 2234 
L 1294 2234 
L 1294 2753 
L 1863 2753 
Q 2328 2753 2575 2939 
Q 2822 3125 2822 3475 
Q 2822 3834 2567 4026 
Q 2313 4219 1838 4219 
Q 1578 4219 1281 4162 
Q 984 4106 628 3988 
L 628 4550 
Q 988 4650 1302 4700 
Q 1616 4750 1894 4750 
Q 2613 4750 3031 4423 
Q 3450 4097 3450 3541 
Q 3450 3153 3228 2886 
Q 3006 2619 2597 2516 
z
" transform="scale(0.015625)"/>
     </defs>
     <use xlink:href="#DejaVuSans-39"/>
     <use xlink:href="#DejaVuSans-33" transform="translate(63.623047 0)"/>
     <use xlink:href="#DejaVuSans-2e" transform="translate(127.246094 0)"/>
     <use xlink:href="#DejaVuSans-33" transform="translate(159.033203 0)"/>
    </g>
   </g>
   <g id="text_19">
    <!-- 73.3 -->
    <g style="fill: #15242d" transform="translate(536.00226 76.213203) scale(0.08 -0.08)">
     <use xlink:href="#DejaVuSans-37"/>
     <use xlink:href="#DejaVuSans-33" transform="translate(63.623047 0)"/>
     <use xlink:href="#DejaVuSans-2e" transform="translate(127.246094 0)"/>
     <use xlink:href="#DejaVuSans-33" transform="translate(159.033203 0)"/>
    </g>
   </g>
   <g id="text_20">
    <!-- 95.1 -->
    <g style="fill: #15242d" transform="translate(171.475814 38.010169) scale(0.08 -0.08)">
     <use xlink:href="#DejaVuSans-39"/>
     <use xlink:href="#DejaVuSans-35" transform="translate(63.623047 0)"/>
     <use xlink:href="#DejaVuSans-2e" transform="translate(127.246094 0)"/>
     <use xlink:href="#DejaVuSans-31" transform="translate(159.033203 0)"/>
    </g>
   </g>
   <g id="text_21">
    <!-- 93.9 -->
    <g style="fill: #15242d" transform="translate(368.517136 39.964289) scale(0.08 -0.08)">
     <use xlink:href="#DejaVuSans-39"/>
     <use xlink:href="#DejaVuSans-33" transform="translate(63.623047 0)"/>
     <use xlink:href="#DejaVuSans-2e" transform="translate(127.246094 0)"/>
     <use xlink:href="#DejaVuSans-39" transform="translate(159.033203 0)"/>
    </g>
   </g>
   <g id="text_22">
    <!-- 74.7 -->
    <g style="fill: #15242d" transform="translate(565.558458 73.770554) scale(0.08 -0.08)">
     <use xlink:href="#DejaVuSans-37"/>
     <use xlink:href="#DejaVuSans-34" transform="translate(63.623047 0)"/>
     <use xlink:href="#DejaVuSans-2e" transform="translate(127.246094 0)"/>
     <use xlink:href="#DejaVuSans-37" transform="translate(159.033203 0)"/>
    </g>
   </g>
   <g id="text_23">
    <!-- 96.4 -->
    <g style="fill: #15242d" transform="translate(201.032012 35.665226) scale(0.08 -0.08)">
     <use xlink:href="#DejaVuSans-39"/>
     <use xlink:href="#DejaVuSans-36" transform="translate(63.623047 0)"/>
     <use xlink:href="#DejaVuSans-2e" transform="translate(127.246094 0)"/>
     <use xlink:href="#DejaVuSans-34" transform="translate(159.033203 0)"/>
    </g>
   </g>
   <g id="text_24">
    <!-- 93.2 -->
    <g style="fill: #15242d" transform="translate(398.073334 41.234466) scale(0.08 -0.08)">
     <use xlink:href="#DejaVuSans-39"/>
     <use xlink:href="#DejaVuSans-33" transform="translate(63.623047 0)"/>
     <use xlink:href="#DejaVuSans-2e" transform="translate(127.246094 0)"/>
     <use xlink:href="#DejaVuSans-32" transform="translate(159.033203 0)"/>
    </g>
   </g>
   <g id="text_25">
    <!-- 73.3 -->
    <g style="fill: #15242d" transform="translate(595.114657 76.213203) scale(0.08 -0.08)">
     <use xlink:href="#DejaVuSans-37"/>
     <use xlink:href="#DejaVuSans-33" transform="translate(63.623047 0)"/>
     <use xlink:href="#DejaVuSans-2e" transform="translate(127.246094 0)"/>
     <use xlink:href="#DejaVuSans-33" transform="translate(159.033203 0)"/>
    </g>
   </g>
   <g id="text_26">
    <!-- sklearn Digits · 400 target-примеров · 5 paired seed · LoRA/DoRA rank 4 -->
    <g style="fill: #66747c" transform="translate(49.842188 18.755072) scale(0.1 -0.1)">
     <defs>
      <path id="DejaVuSans-6b" d="M 581 4863 
L 1159 4863 
L 1159 1991 
L 2875 3500 
L 3609 3500 
L 1753 1863 
L 3688 0 
L 2938 0 
L 1159 1709 
L 1159 0 
L 581 0 
L 581 4863 
z
" transform="scale(0.015625)"/>
      <path id="DejaVuSans-6c" d="M 603 4863 
L 1178 4863 
L 1178 0 
L 603 0 
L 603 4863 
z
" transform="scale(0.015625)"/>
      <path id="DejaVuSans-6e" d="M 3513 2113 
L 3513 0 
L 2938 0 
L 2938 2094 
Q 2938 2591 2744 2837 
Q 2550 3084 2163 3084 
Q 1697 3084 1428 2787 
Q 1159 2491 1159 1978 
L 1159 0 
L 581 0 
L 581 3500 
L 1159 3500 
L 1159 2956 
Q 1366 3272 1645 3428 
Q 1925 3584 2291 3584 
Q 2894 3584 3203 3211 
Q 3513 2838 3513 2113 
z
" transform="scale(0.015625)"/>
      <path id="DejaVuSans-44" d="M 1259 4147 
L 1259 519 
L 2022 519 
Q 2988 519 3436 956 
Q 3884 1394 3884 2338 
Q 3884 3275 3436 3711 
Q 2988 4147 2022 4147 
L 1259 4147 
z
M 628 4666 
L 1925 4666 
Q 3281 4666 3915 4102 
Q 4550 3538 4550 2338 
Q 4550 1131 3912 565 
Q 3275 0 1925 0 
L 628 0 
L 628 4666 
z
" transform="scale(0.015625)"/>
      <path id="DejaVuSans-69" d="M 603 3500 
L 1178 3500 
L 1178 0 
L 603 0 
L 603 3500 
z
M 603 4863 
L 1178 4863 
L 1178 4134 
L 603 4134 
L 603 4863 
z
" transform="scale(0.015625)"/>
      <path id="DejaVuSans-67" d="M 2906 1791 
Q 2906 2416 2648 2759 
Q 2391 3103 1925 3103 
Q 1463 3103 1205 2759 
Q 947 2416 947 1791 
Q 947 1169 1205 825 
Q 1463 481 1925 481 
Q 2391 481 2648 825 
Q 2906 1169 2906 1791 
z
M 3481 434 
Q 3481 -459 3084 -895 
Q 2688 -1331 1869 -1331 
Q 1566 -1331 1297 -1286 
Q 1028 -1241 775 -1147 
L 775 -588 
Q 1028 -725 1275 -790 
Q 1522 -856 1778 -856 
Q 2344 -856 2625 -561 
Q 2906 -266 2906 331 
L 2906 616 
Q 2728 306 2450 153 
Q 2172 0 1784 0 
Q 1141 0 747 490 
Q 353 981 353 1791 
Q 353 2603 747 3093 
Q 1141 3584 1784 3584 
Q 2172 3584 2450 3431 
Q 2728 3278 2906 2969 
L 2906 3500 
L 3481 3500 
L 3481 434 
z
" transform="scale(0.015625)"/>
      <path id="DejaVuSans-b7" d="M 684 2619 
L 1344 2619 
L 1344 1825 
L 684 1825 
L 684 2619 
z
" transform="scale(0.015625)"/>
      <path id="DejaVuSans-2d" d="M 313 2009 
L 1997 2009 
L 1997 1497 
L 313 1497 
L 313 2009 
z
" transform="scale(0.015625)"/>
      <path id="DejaVuSans-43f" d="M 3603 3500 
L 3603 0 
L 3025 0 
L 3025 3041 
L 1159 3041 
L 1159 0 
L 581 0 
L 581 3500 
L 3603 3500 
z
" transform="scale(0.015625)"/>
      <path id="DejaVuSans-438" d="M 3578 3500 
L 3578 0 
L 3006 0 
L 3006 2809 
L 1319 0 
L 581 0 
L 581 3500 
L 1153 3500 
L 1153 697 
L 2838 3500 
L 3578 3500 
z
" transform="scale(0.015625)"/>
      <path id="DejaVuSans-70" d="M 1159 525 
L 1159 -1331 
L 581 -1331 
L 581 3500 
L 1159 3500 
L 1159 2969 
Q 1341 3281 1617 3432 
Q 1894 3584 2278 3584 
Q 2916 3584 3314 3078 
Q 3713 2572 3713 1747 
Q 3713 922 3314 415 
Q 2916 -91 2278 -91 
Q 1894 -91 1617 61 
Q 1341 213 1159 525 
z
M 3116 1747 
Q 3116 2381 2855 2742 
Q 2594 3103 2138 3103 
Q 1681 3103 1420 2742 
Q 1159 2381 1159 1747 
Q 1159 1113 1420 752 
Q 1681 391 2138 391 
Q 2594 391 2855 752 
Q 3116 1113 3116 1747 
z
" transform="scale(0.015625)"/>
      <path id="DejaVuSans-64" d="M 2906 2969 
L 2906 4863 
L 3481 4863 
L 3481 0 
L 2906 0 
L 2906 525 
Q 2725 213 2448 61 
Q 2172 -91 1784 -91 
Q 1150 -91 751 415 
Q 353 922 353 1747 
Q 353 2572 751 3078 
Q 1150 3584 1784 3584 
Q 2172 3584 2448 3432 
Q 2725 3281 2906 2969 
z
M 947 1747 
Q 947 1113 1208 752 
Q 1469 391 1925 391 
Q 2381 391 2643 752 
Q 2906 1113 2906 1747 
Q 2906 2381 2643 2742 
Q 2381 3103 1925 3103 
Q 1469 3103 1208 2742 
Q 947 2381 947 1747 
z
" transform="scale(0.015625)"/>
      <path id="DejaVuSans-4c" d="M 628 4666 
L 1259 4666 
L 1259 531 
L 3531 531 
L 3531 0 
L 628 0 
L 628 4666 
z
" transform="scale(0.015625)"/>
      <path id="DejaVuSans-6f" d="M 1959 3097 
Q 1497 3097 1228 2736 
Q 959 2375 959 1747 
Q 959 1119 1226 758 
Q 1494 397 1959 397 
Q 2419 397 2687 759 
Q 2956 1122 2956 1747 
Q 2956 2369 2687 2733 
Q 2419 3097 1959 3097 
z
M 1959 3584 
Q 2709 3584 3137 3096 
Q 3566 2609 3566 1747 
Q 3566 888 3137 398 
Q 2709 -91 1959 -91 
Q 1206 -91 779 398 
Q 353 888 353 1747 
Q 353 2609 779 3096 
Q 1206 3584 1959 3584 
z
" transform="scale(0.015625)"/>
      <path id="DejaVuSans-52" d="M 2841 2188 
Q 3044 2119 3236 1894 
Q 3428 1669 3622 1275 
L 4263 0 
L 3584 0 
L 2988 1197 
Q 2756 1666 2539 1819 
Q 2322 1972 1947 1972 
L 1259 1972 
L 1259 0 
L 628 0 
L 628 4666 
L 2053 4666 
Q 2853 4666 3247 4331 
Q 3641 3997 3641 3322 
Q 3641 2881 3436 2590 
Q 3231 2300 2841 2188 
z
M 1259 4147 
L 1259 2491 
L 2053 2491 
Q 2509 2491 2742 2702 
Q 2975 2913 2975 3322 
Q 2975 3731 2742 3939 
Q 2509 4147 2053 4147 
L 1259 4147 
z
" transform="scale(0.015625)"/>
      <path id="DejaVuSans-41" d="M 2188 4044 
L 1331 1722 
L 3047 1722 
L 2188 4044 
z
M 1831 4666 
L 2547 4666 
L 4325 0 
L 3669 0 
L 3244 1197 
L 1141 1197 
L 716 0 
L 50 0 
L 1831 4666 
z
" transform="scale(0.015625)"/>
      <path id="DejaVuSans-2f" d="M 1625 4666 
L 2156 4666 
L 531 -594 
L 0 -594 
L 1625 4666 
z
" transform="scale(0.015625)"/>
     </defs>
     <use xlink:href="#DejaVuSans-73"/>
     <use xlink:href="#DejaVuSans-6b" transform="translate(52.099609 0)"/>
     <use xlink:href="#DejaVuSans-6c" transform="translate(110.009766 0)"/>
     <use xlink:href="#DejaVuSans-65" transform="translate(137.792969 0)"/>
     <use xlink:href="#DejaVuSans-61" transform="translate(199.316406 0)"/>
     <use xlink:href="#DejaVuSans-72" transform="translate(260.595703 0)"/>
     <use xlink:href="#DejaVuSans-6e" transform="translate(299.958984 0)"/>
     <use xlink:href="#DejaVuSans-20" transform="translate(363.337891 0)"/>
     <use xlink:href="#DejaVuSans-44" transform="translate(395.125 0)"/>
     <use xlink:href="#DejaVuSans-69" transform="translate(472.126953 0)"/>
     <use xlink:href="#DejaVuSans-67" transform="translate(499.910156 0)"/>
     <use xlink:href="#DejaVuSans-69" transform="translate(563.386719 0)"/>
     <use xlink:href="#DejaVuSans-74" transform="translate(591.169922 0)"/>
     <use xlink:href="#DejaVuSans-73" transform="translate(630.378906 0)"/>
     <use xlink:href="#DejaVuSans-20" transform="translate(682.478516 0)"/>
     <use xlink:href="#DejaVuSans-b7" transform="translate(714.265625 0)"/>
     <use xlink:href="#DejaVuSans-20" transform="translate(746.052734 0)"/>
     <use xlink:href="#DejaVuSans-34" transform="translate(777.839844 0)"/>
     <use xlink:href="#DejaVuSans-30" transform="translate(841.462891 0)"/>
     <use xlink:href="#DejaVuSans-30" transform="translate(905.085938 0)"/>
     <use xlink:href="#DejaVuSans-20" transform="translate(968.708984 0)"/>
     <use xlink:href="#DejaVuSans-74" transform="translate(1000.496094 0)"/>
     <use xlink:href="#DejaVuSans-61" transform="translate(1039.705078 0)"/>
     <use xlink:href="#DejaVuSans-72" transform="translate(1100.984375 0)"/>
     <use xlink:href="#DejaVuSans-67" transform="translate(1140.347656 0)"/>
     <use xlink:href="#DejaVuSans-65" transform="translate(1203.824219 0)"/>
     <use xlink:href="#DejaVuSans-74" transform="translate(1265.347656 0)"/>
     <use xlink:href="#DejaVuSans-2d" transform="translate(1304.556641 0)"/>
     <use xlink:href="#DejaVuSans-43f" transform="translate(1340.640625 0)"/>
     <use xlink:href="#DejaVuSans-440" transform="translate(1406.021484 0)"/>
     <use xlink:href="#DejaVuSans-438" transform="translate(1469.498047 0)"/>
     <use xlink:href="#DejaVuSans-43c" transform="translate(1534.488281 0)"/>
     <use xlink:href="#DejaVuSans-435" transform="translate(1609.927734 0)"/>
     <use xlink:href="#DejaVuSans-440" transform="translate(1671.451172 0)"/>
     <use xlink:href="#DejaVuSans-43e" transform="translate(1734.927734 0)"/>
     <use xlink:href="#DejaVuSans-432" transform="translate(1796.109375 0)"/>
     <use xlink:href="#DejaVuSans-20" transform="translate(1855.044922 0)"/>
     <use xlink:href="#DejaVuSans-b7" transform="translate(1886.832031 0)"/>
     <use xlink:href="#DejaVuSans-20" transform="translate(1918.619141 0)"/>
     <use xlink:href="#DejaVuSans-35" transform="translate(1950.40625 0)"/>
     <use xlink:href="#DejaVuSans-20" transform="translate(2014.029297 0)"/>
     <use xlink:href="#DejaVuSans-70" transform="translate(2045.816406 0)"/>
     <use xlink:href="#DejaVuSans-61" transform="translate(2109.292969 0)"/>
     <use xlink:href="#DejaVuSans-69" transform="translate(2170.572266 0)"/>
     <use xlink:href="#DejaVuSans-72" transform="translate(2198.355469 0)"/>
     <use xlink:href="#DejaVuSans-65" transform="translate(2237.21875 0)"/>
     <use xlink:href="#DejaVuSans-64" transform="translate(2298.742188 0)"/>
     <use xlink:href="#DejaVuSans-20" transform="translate(2362.21875 0)"/>
     <use xlink:href="#DejaVuSans-73" transform="translate(2394.005859 0)"/>
     <use xlink:href="#DejaVuSans-65" transform="translate(2446.105469 0)"/>
     <use xlink:href="#DejaVuSans-65" transform="translate(2507.628906 0)"/>
     <use xlink:href="#DejaVuSans-64" transform="translate(2569.152344 0)"/>
     <use xlink:href="#DejaVuSans-20" transform="translate(2632.628906 0)"/>
     <use xlink:href="#DejaVuSans-b7" transform="translate(2664.416016 0)"/>
     <use xlink:href="#DejaVuSans-20" transform="translate(2696.203125 0)"/>
     <use xlink:href="#DejaVuSans-4c" transform="translate(2727.990234 0)"/>
     <use xlink:href="#DejaVuSans-6f" transform="translate(2781.953125 0)"/>
     <use xlink:href="#DejaVuSans-52" transform="translate(2843.134766 0)"/>
     <use xlink:href="#DejaVuSans-41" transform="translate(2908.617188 0)"/>
     <use xlink:href="#DejaVuSans-2f" transform="translate(2977.025391 0)"/>
     <use xlink:href="#DejaVuSans-44" transform="translate(3010.716797 0)"/>
     <use xlink:href="#DejaVuSans-6f" transform="translate(3087.71875 0)"/>
     <use xlink:href="#DejaVuSans-52" transform="translate(3148.900391 0)"/>
     <use xlink:href="#DejaVuSans-41" transform="translate(3214.382812 0)"/>
     <use xlink:href="#DejaVuSans-20" transform="translate(3282.791016 0)"/>
     <use xlink:href="#DejaVuSans-72" transform="translate(3314.578125 0)"/>
     <use xlink:href="#DejaVuSans-61" transform="translate(3355.691406 0)"/>
     <use xlink:href="#DejaVuSans-6e" transform="translate(3416.970703 0)"/>
     <use xlink:href="#DejaVuSans-6b" transform="translate(3480.349609 0)"/>
     <use xlink:href="#DejaVuSans-20" transform="translate(3538.259766 0)"/>
     <use xlink:href="#DejaVuSans-34" transform="translate(3570.046875 0)"/>
    </g>
   </g>
   <g id="text_27">
    <!-- Few-shot адаптация на реальных изображениях -->
    <g style="fill: #15242d" transform="translate(49.842188 18.295) scale(0.14 -0.14)">
     <defs>
      <path id="DejaVuSans-Bold-46" d="M 588 4666 
L 3834 4666 
L 3834 3756 
L 1791 3756 
L 1791 2888 
L 3713 2888 
L 3713 1978 
L 1791 1978 
L 1791 0 
L 588 0 
L 588 4666 
z
" transform="scale(0.015625)"/>
      <path id="DejaVuSans-Bold-65" d="M 4031 1759 
L 4031 1441 
L 1416 1441 
Q 1456 1047 1700 850 
Q 1944 653 2381 653 
Q 2734 653 3104 758 
Q 3475 863 3866 1075 
L 3866 213 
Q 3469 63 3072 -14 
Q 2675 -91 2278 -91 
Q 1328 -91 801 392 
Q 275 875 275 1747 
Q 275 2603 792 3093 
Q 1309 3584 2216 3584 
Q 3041 3584 3536 3087 
Q 4031 2591 4031 1759 
z
M 2881 2131 
Q 2881 2450 2695 2645 
Q 2509 2841 2209 2841 
Q 1884 2841 1681 2658 
Q 1478 2475 1428 2131 
L 2881 2131 
z
" transform="scale(0.015625)"/>
      <path id="DejaVuSans-Bold-77" d="M 225 3500 
L 1313 3500 
L 1900 1088 
L 2491 3500 
L 3425 3500 
L 4013 1113 
L 4603 3500 
L 5691 3500 
L 4769 0 
L 3547 0 
L 2956 2406 
L 2369 0 
L 1147 0 
L 225 3500 
z
" transform="scale(0.015625)"/>
      <path id="DejaVuSans-Bold-2d" d="M 347 2297 
L 2309 2297 
L 2309 1388 
L 347 1388 
L 347 2297 
z
" transform="scale(0.015625)"/>
      <path id="DejaVuSans-Bold-73" d="M 3272 3391 
L 3272 2541 
Q 2913 2691 2578 2766 
Q 2244 2841 1947 2841 
Q 1628 2841 1473 2761 
Q 1319 2681 1319 2516 
Q 1319 2381 1436 2309 
Q 1553 2238 1856 2203 
L 2053 2175 
Q 2913 2066 3209 1816 
Q 3506 1566 3506 1031 
Q 3506 472 3093 190 
Q 2681 -91 1863 -91 
Q 1516 -91 1145 -36 
Q 775 19 384 128 
L 384 978 
Q 719 816 1070 734 
Q 1422 653 1784 653 
Q 2113 653 2278 743 
Q 2444 834 2444 1013 
Q 2444 1163 2330 1236 
Q 2216 1309 1875 1350 
L 1678 1375 
Q 931 1469 631 1722 
Q 331 1975 331 2491 
Q 331 3047 712 3315 
Q 1094 3584 1881 3584 
Q 2191 3584 2531 3537 
Q 2872 3491 3272 3391 
z
" transform="scale(0.015625)"/>
      <path id="DejaVuSans-Bold-68" d="M 4056 2131 
L 4056 0 
L 2931 0 
L 2931 347 
L 2931 1625 
Q 2931 2084 2911 2256 
Q 2891 2428 2841 2509 
Q 2775 2619 2662 2680 
Q 2550 2741 2406 2741 
Q 2056 2741 1856 2470 
Q 1656 2200 1656 1722 
L 1656 0 
L 538 0 
L 538 4863 
L 1656 4863 
L 1656 2988 
Q 1909 3294 2193 3439 
Q 2478 3584 2822 3584 
Q 3428 3584 3742 3212 
Q 4056 2841 4056 2131 
z
" transform="scale(0.015625)"/>
      <path id="DejaVuSans-Bold-6f" d="M 2203 2784 
Q 1831 2784 1636 2517 
Q 1441 2250 1441 1747 
Q 1441 1244 1636 976 
Q 1831 709 2203 709 
Q 2569 709 2762 976 
Q 2956 1244 2956 1747 
Q 2956 2250 2762 2517 
Q 2569 2784 2203 2784 
z
M 2203 3584 
Q 3106 3584 3614 3096 
Q 4122 2609 4122 1747 
Q 4122 884 3614 396 
Q 3106 -91 2203 -91 
Q 1297 -91 786 396 
Q 275 884 275 1747 
Q 275 2609 786 3096 
Q 1297 3584 2203 3584 
z
" transform="scale(0.015625)"/>
      <path id="DejaVuSans-Bold-74" d="M 1759 4494 
L 1759 3500 
L 2913 3500 
L 2913 2700 
L 1759 2700 
L 1759 1216 
Q 1759 972 1856 886 
Q 1953 800 2241 800 
L 2816 800 
L 2816 0 
L 1856 0 
Q 1194 0 917 276 
Q 641 553 641 1216 
L 641 2700 
L 84 2700 
L 84 3500 
L 641 3500 
L 641 4494 
L 1759 4494 
z
" transform="scale(0.015625)"/>
      <path id="DejaVuSans-Bold-20" transform="scale(0.015625)"/>
      <path id="DejaVuSans-Bold-430" d="M 2106 1575 
Q 1756 1575 1579 1456 
Q 1403 1338 1403 1106 
Q 1403 894 1545 773 
Q 1688 653 1941 653 
Q 2256 653 2472 879 
Q 2688 1106 2688 1447 
L 2688 1575 
L 2106 1575 
z
M 3816 1997 
L 3816 0 
L 2688 0 
L 2688 519 
Q 2463 200 2181 54 
Q 1900 -91 1497 -91 
Q 953 -91 614 226 
Q 275 544 275 1050 
Q 275 1666 698 1953 
Q 1122 2241 2028 2241 
L 2688 2241 
L 2688 2328 
Q 2688 2594 2478 2717 
Q 2269 2841 1825 2841 
Q 1466 2841 1156 2769 
Q 847 2697 581 2553 
L 581 3406 
Q 941 3494 1303 3539 
Q 1666 3584 2028 3584 
Q 2975 3584 3395 3211 
Q 3816 2838 3816 1997 
z
" transform="scale(0.015625)"/>
      <path id="DejaVuSans-Bold-434" d="M 547 800 
Q 903 919 1053 1314 
Q 1203 1709 1203 2838 
L 1203 3500 
L 4228 3500 
L 4228 800 
L 4809 800 
L 4809 -884 
L 4009 -884 
L 4009 0 
L 1159 0 
L 1159 -884 
L 359 -884 
L 359 800 
L 547 800 
z
M 3109 2700 
L 2322 2700 
L 2322 2603 
Q 2322 1456 2063 800 
L 3109 800 
L 3109 2700 
z
" transform="scale(0.015625)"/>
      <path id="DejaVuSans-Bold-43f" d="M 3884 3500 
L 3884 0 
L 2766 0 
L 2766 2700 
L 1656 2700 
L 1656 0 
L 538 0 
L 538 3500 
L 3884 3500 
z
" transform="scale(0.015625)"/>
      <path id="DejaVuSans-Bold-442" d="M 25 3500 
L 3681 3500 
L 3681 2809 
L 2413 2809 
L 2413 0 
L 1297 0 
L 1297 2809 
L 25 2809 
L 25 3500 
z
" transform="scale(0.015625)"/>
      <path id="DejaVuSans-Bold-446" d="M 3666 -884 
L 3666 0 
L 538 0 
L 538 3500 
L 1656 3500 
L 1656 800 
L 2766 800 
L 2766 3500 
L 3884 3500 
L 3884 800 
L 4466 800 
L 4466 -884 
L 3666 -884 
z
" transform="scale(0.015625)"/>
      <path id="DejaVuSans-Bold-438" d="M 3947 3500 
L 3947 0 
L 2828 0 
L 2828 1863 
L 1700 0 
L 538 0 
L 538 3500 
L 1656 3500 
L 1656 1638 
L 2784 3500 
L 3947 3500 
z
" transform="scale(0.015625)"/>
      <path id="DejaVuSans-Bold-44f" d="M 1528 2394 
Q 1528 2169 1651 2069 
Q 1775 1969 2059 1969 
L 2463 1969 
L 2463 2816 
L 2059 2816 
Q 1775 2816 1651 2719 
Q 1528 2622 1528 2394 
z
M 197 0 
L 1113 1497 
Q 847 1650 650 1917 
Q 453 2184 453 2516 
Q 453 3013 789 3256 
Q 1125 3500 1878 3500 
L 3581 3500 
L 3581 0 
L 2463 0 
L 2463 1278 
L 2069 1278 
L 1288 0 
L 197 0 
z
" transform="scale(0.015625)"/>
      <path id="DejaVuSans-Bold-43d" d="M 538 3500 
L 1656 3500 
L 1656 2169 
L 2766 2169 
L 2766 3500 
L 3884 3500 
L 3884 0 
L 2766 0 
L 2766 1478 
L 1656 1478 
L 1656 0 
L 538 0 
L 538 3500 
z
" transform="scale(0.015625)"/>
      <path id="DejaVuSans-Bold-440" d="M 1656 506 
L 1656 -1331 
L 538 -1331 
L 538 3500 
L 1656 3500 
L 1656 2988 
Q 1888 3294 2169 3439 
Q 2450 3584 2816 3584 
Q 3463 3584 3878 3070 
Q 4294 2556 4294 1747 
Q 4294 938 3878 423 
Q 3463 -91 2816 -91 
Q 2450 -91 2169 54 
Q 1888 200 1656 506 
z
M 2400 2772 
Q 2041 2772 1848 2508 
Q 1656 2244 1656 1747 
Q 1656 1250 1848 986 
Q 2041 722 2400 722 
Q 2759 722 2948 984 
Q 3138 1247 3138 1747 
Q 3138 2247 2948 2509 
Q 2759 2772 2400 2772 
z
" transform="scale(0.015625)"/>
      <path id="DejaVuSans-Bold-435" d="M 4031 1759 
L 4031 1441 
L 1416 1441 
Q 1456 1047 1700 850 
Q 1944 653 2381 653 
Q 2734 653 3104 758 
Q 3475 863 3866 1075 
L 3866 213 
Q 3469 63 3072 -14 
Q 2675 -91 2278 -91 
Q 1328 -91 801 392 
Q 275 875 275 1747 
Q 275 2603 792 3093 
Q 1309 3584 2216 3584 
Q 3041 3584 3536 3087 
Q 4031 2591 4031 1759 
z
M 2881 2131 
Q 2881 2450 2695 2645 
Q 2509 2841 2209 2841 
Q 1884 2841 1681 2658 
Q 1478 2475 1428 2131 
L 2881 2131 
z
" transform="scale(0.015625)"/>
      <path id="DejaVuSans-Bold-43b" d="M 353 0 
L 353 800 
Q 906 913 1031 1278 
Q 1125 1556 1125 2928 
L 1125 3500 
L 4150 3500 
L 4150 0 
L 3031 0 
L 3031 2700 
L 2244 2700 
L 2244 2584 
Q 2244 1213 2028 813 
Q 1591 0 353 0 
z
" transform="scale(0.015625)"/>
      <path id="DejaVuSans-Bold-44c" d="M 2719 1094 
Q 2719 1291 2594 1388 
Q 2472 1481 2222 1481 
L 1656 1481 
L 1656 700 
L 2222 700 
Q 2469 700 2594 800 
Q 2719 897 2719 1094 
z
M 538 3500 
L 1656 3500 
L 1656 2172 
L 2291 2172 
Q 3000 2172 3381 1913 
Q 3766 1650 3766 1081 
Q 3766 513 3381 256 
Q 3000 0 2291 0 
L 538 0 
L 538 3500 
z
" transform="scale(0.015625)"/>
      <path id="DejaVuSans-Bold-44b" d="M 4154 3500 
L 5272 3500 
L 5272 0 
L 4154 0 
L 4154 3500 
z
M 2719 1094 
Q 2719 1291 2594 1388 
Q 2472 1481 2222 1481 
L 1656 1481 
L 1656 700 
L 2222 700 
Q 2469 700 2594 800 
Q 2719 897 2719 1094 
z
M 538 3500 
L 1656 3500 
L 1656 2172 
L 2291 2172 
Q 3000 2172 3381 1913 
Q 3766 1650 3766 1081 
Q 3766 513 3381 256 
Q 3000 0 2291 0 
L 538 0 
L 538 3500 
z
" transform="scale(0.015625)"/>
      <path id="DejaVuSans-Bold-445" d="M 1422 1791 
L 159 3500 
L 1344 3500 
L 2059 2463 
L 2784 3500 
L 3969 3500 
L 2706 1797 
L 4031 0 
L 2847 0 
L 2059 1106 
L 1281 0 
L 97 0 
L 1422 1791 
z
" transform="scale(0.015625)"/>
      <path id="DejaVuSans-Bold-437" d="M 900 2181 
L 1413 2181 
Q 1872 2181 2039 2281 
Q 2206 2381 2206 2519 
Q 2206 2841 1469 2841 
Q 853 2841 472 2625 
L 472 3434 
Q 1041 3584 1713 3584 
Q 2500 3584 2862 3361 
Q 3225 3138 3225 2666 
Q 3225 2047 2541 1888 
Q 3313 1697 3313 994 
Q 3313 453 2888 181 
Q 2463 -91 1553 -91 
Q 875 -91 313 84 
L 313 947 
Q 1013 653 1428 653 
Q 1884 653 2089 776 
Q 2294 900 2294 1056 
Q 2294 1491 1394 1491 
L 900 1491 
L 900 2181 
z
" transform="scale(0.015625)"/>
      <path id="DejaVuSans-Bold-43e" d="M 2203 2784 
Q 1831 2784 1636 2517 
Q 1441 2250 1441 1747 
Q 1441 1244 1636 976 
Q 1831 709 2203 709 
Q 2569 709 2762 976 
Q 2956 1244 2956 1747 
Q 2956 2250 2762 2517 
Q 2569 2784 2203 2784 
z
M 2203 3584 
Q 3106 3584 3614 3096 
Q 4122 2609 4122 1747 
Q 4122 884 3614 396 
Q 3106 -91 2203 -91 
Q 1297 -91 786 396 
Q 275 884 275 1747 
Q 275 2609 786 3096 
Q 1297 3584 2203 3584 
z
" transform="scale(0.015625)"/>
      <path id="DejaVuSans-Bold-431" d="M 344 1941 
L 322 2463 
Q 275 2672 275 2881 
Q 275 3494 456 3894 
Q 791 4631 1238 4781 
Q 1606 4909 3141 5031 
Q 3297 5044 3475 5072 
L 3725 4378 
Q 3488 4316 2269 4209 
Q 1734 4163 1516 4013 
Q 1153 3766 1125 3300 
Q 1584 3584 2275 3584 
Q 3178 3584 3686 3096 
Q 4194 2609 4194 1747 
Q 4194 884 3687 396 
Q 3181 -91 2275 -91 
Q 1369 -91 858 396 
Q 347 884 347 1747 
Q 347 1866 344 1941 
z
M 2272 2784 
Q 1903 2784 1708 2517 
Q 1513 2250 1513 1747 
Q 1513 1244 1708 976 
Q 1903 709 2272 709 
Q 2641 709 2834 976 
Q 3028 1244 3028 1747 
Q 3028 2250 2834 2517 
Q 2641 2784 2272 2784 
z
" transform="scale(0.015625)"/>
      <path id="DejaVuSans-Bold-436" d="M 94 0 
L 1678 2078 
L 216 3500 
L 1441 3500 
L 2625 2347 
L 2625 3500 
L 3744 3500 
L 3744 2347 
L 4928 3500 
L 6153 3500 
L 4691 2078 
L 6275 0 
L 5119 0 
L 4025 1431 
L 3744 1159 
L 3744 0 
L 2625 0 
L 2625 1159 
L 2344 1431 
L 1250 0 
L 94 0 
z
" transform="scale(0.015625)"/>
     </defs>
     <use xlink:href="#DejaVuSans-Bold-46"/>
     <use xlink:href="#DejaVuSans-Bold-65" transform="translate(64.310547 0)"/>
     <use xlink:href="#DejaVuSans-Bold-77" transform="translate(132.132812 0)"/>
     <use xlink:href="#DejaVuSans-Bold-2d" transform="translate(224.515625 0)"/>
     <use xlink:href="#DejaVuSans-Bold-73" transform="translate(266.019531 0)"/>
     <use xlink:href="#DejaVuSans-Bold-68" transform="translate(325.541016 0)"/>
     <use xlink:href="#DejaVuSans-Bold-6f" transform="translate(396.732422 0)"/>
     <use xlink:href="#DejaVuSans-Bold-74" transform="translate(465.433594 0)"/>
     <use xlink:href="#DejaVuSans-Bold-20" transform="translate(513.236328 0)"/>
     <use xlink:href="#DejaVuSans-Bold-430" transform="translate(548.050781 0)"/>
     <use xlink:href="#DejaVuSans-Bold-434" transform="translate(615.53125 0)"/>
     <use xlink:href="#DejaVuSans-Bold-430" transform="translate(696.292969 0)"/>
     <use xlink:href="#DejaVuSans-Bold-43f" transform="translate(763.773438 0)"/>
     <use xlink:href="#DejaVuSans-Bold-442" transform="translate(832.865234 0)"/>
     <use xlink:href="#DejaVuSans-Bold-430" transform="translate(890.824219 0)"/>
     <use xlink:href="#DejaVuSans-Bold-446" transform="translate(958.304688 0)"/>
     <use xlink:href="#DejaVuSans-Bold-438" transform="translate(1032.425781 0)"/>
     <use xlink:href="#DejaVuSans-Bold-44f" transform="translate(1102.494141 0)"/>
     <use xlink:href="#DejaVuSans-Bold-20" transform="translate(1166.703125 0)"/>
     <use xlink:href="#DejaVuSans-Bold-43d" transform="translate(1201.517578 0)"/>
     <use xlink:href="#DejaVuSans-Bold-430" transform="translate(1270.609375 0)"/>
     <use xlink:href="#DejaVuSans-Bold-20" transform="translate(1338.089844 0)"/>
     <use xlink:href="#DejaVuSans-Bold-440" transform="translate(1372.904297 0)"/>
     <use xlink:href="#DejaVuSans-Bold-435" transform="translate(1444.486328 0)"/>
     <use xlink:href="#DejaVuSans-Bold-430" transform="translate(1512.308594 0)"/>
     <use xlink:href="#DejaVuSans-Bold-43b" transform="translate(1579.789062 0)"/>
     <use xlink:href="#DejaVuSans-Bold-44c" transform="translate(1653.03125 0)"/>
     <use xlink:href="#DejaVuSans-Bold-43d" transform="translate(1716.263672 0)"/>
     <use xlink:href="#DejaVuSans-Bold-44b" transform="translate(1785.355469 0)"/>
     <use xlink:href="#DejaVuSans-Bold-445" transform="translate(1875.785156 0)"/>
     <use xlink:href="#DejaVuSans-Bold-20" transform="translate(1940.287109 0)"/>
     <use xlink:href="#DejaVuSans-Bold-438" transform="translate(1975.101562 0)"/>
     <use xlink:href="#DejaVuSans-Bold-437" transform="translate(2045.169922 0)"/>
     <use xlink:href="#DejaVuSans-Bold-43e" transform="translate(2103.275391 0)"/>
     <use xlink:href="#DejaVuSans-Bold-431" transform="translate(2171.976562 0)"/>
     <use xlink:href="#DejaVuSans-Bold-440" transform="translate(2241.800781 0)"/>
     <use xlink:href="#DejaVuSans-Bold-430" transform="translate(2313.382812 0)"/>
     <use xlink:href="#DejaVuSans-Bold-436" transform="translate(2380.863281 0)"/>
     <use xlink:href="#DejaVuSans-Bold-435" transform="translate(2480.375 0)"/>
     <use xlink:href="#DejaVuSans-Bold-43d" transform="translate(2548.197266 0)"/>
     <use xlink:href="#DejaVuSans-Bold-438" transform="translate(2617.289062 0)"/>
     <use xlink:href="#DejaVuSans-Bold-44f" transform="translate(2687.357422 0)"/>
     <use xlink:href="#DejaVuSans-Bold-445" transform="translate(2751.566406 0)"/>
    </g>
   </g>
   <g id="legend_1">
    <g id="patch_20">
     <path d="M 141.973906 253.444159 
L 159.973906 253.444159 
L 159.973906 247.144159 
L 141.973906 247.144159 
z
" style="fill: #aab4b9; stroke: #ffffff; stroke-width: 0.8; stroke-linejoin: miter"/>
    </g>
    <g id="text_28">
     <!-- Frozen -->
     <g style="fill: #15242d" transform="translate(167.173906 253.444159) scale(0.09 -0.09)">
      <defs>
       <path id="DejaVuSans-46" d="M 628 4666 
L 3309 4666 
L 3309 4134 
L 1259 4134 
L 1259 2759 
L 3109 2759 
L 3109 2228 
L 1259 2228 
L 1259 0 
L 628 0 
L 628 4666 
z
" transform="scale(0.015625)"/>
       <path id="DejaVuSans-7a" d="M 353 3500 
L 3084 3500 
L 3084 2975 
L 922 459 
L 3084 459 
L 3084 0 
L 275 0 
L 275 525 
L 2438 3041 
L 353 3041 
L 353 3500 
z
" transform="scale(0.015625)"/>
      </defs>
      <use xlink:href="#DejaVuSans-46"/>
      <use xlink:href="#DejaVuSans-72" transform="translate(50.269531 0)"/>
      <use xlink:href="#DejaVuSans-6f" transform="translate(89.132812 0)"/>
      <use xlink:href="#DejaVuSans-7a" transform="translate(150.314453 0)"/>
      <use xlink:href="#DejaVuSans-65" transform="translate(202.804688 0)"/>
      <use xlink:href="#DejaVuSans-6e" transform="translate(264.328125 0)"/>
     </g>
    </g>
    <g id="patch_21">
     <path d="M 214.667187 253.444159 
L 232.667187 253.444159 
L 232.667187 247.144159 
L 214.667187 247.144159 
z
" style="fill: #f39b42; stroke: #ffffff; stroke-width: 0.8; stroke-linejoin: miter"/>
    </g>
    <g id="text_29">
     <!-- Magnitude-only -->
     <g style="fill: #15242d" transform="translate(239.867187 253.444159) scale(0.09 -0.09)">
      <defs>
       <path id="DejaVuSans-4d" d="M 628 4666 
L 1569 4666 
L 2759 1491 
L 3956 4666 
L 4897 4666 
L 4897 0 
L 4281 0 
L 4281 4097 
L 3078 897 
L 2444 897 
L 1241 4097 
L 1241 0 
L 628 0 
L 628 4666 
z
" transform="scale(0.015625)"/>
      </defs>
      <use xlink:href="#DejaVuSans-4d"/>
      <use xlink:href="#DejaVuSans-61" transform="translate(86.279297 0)"/>
      <use xlink:href="#DejaVuSans-67" transform="translate(147.558594 0)"/>
      <use xlink:href="#DejaVuSans-6e" transform="translate(211.035156 0)"/>
      <use xlink:href="#DejaVuSans-69" transform="translate(274.414062 0)"/>
      <use xlink:href="#DejaVuSans-74" transform="translate(302.197266 0)"/>
      <use xlink:href="#DejaVuSans-75" transform="translate(341.40625 0)"/>
      <use xlink:href="#DejaVuSans-64" transform="translate(404.785156 0)"/>
      <use xlink:href="#DejaVuSans-65" transform="translate(468.261719 0)"/>
      <use xlink:href="#DejaVuSans-2d" transform="translate(529.785156 0)"/>
      <use xlink:href="#DejaVuSans-6f" transform="translate(567.744141 0)"/>
      <use xlink:href="#DejaVuSans-6e" transform="translate(628.925781 0)"/>
      <use xlink:href="#DejaVuSans-6c" transform="translate(692.304688 0)"/>
      <use xlink:href="#DejaVuSans-79" transform="translate(720.087891 0)"/>
     </g>
    </g>
    <g id="patch_22">
     <path d="M 328.0025 253.444159 
L 346.0025 253.444159 
L 346.0025 247.144159 
L 328.0025 247.144159 
z
" style="fill: #3565d4; stroke: #ffffff; stroke-width: 0.8; stroke-linejoin: miter"/>
    </g>
    <g id="text_30">
     <!-- LoRA -->
     <g style="fill: #15242d" transform="translate(353.2025 253.444159) scale(0.09 -0.09)">
      <use xlink:href="#DejaVuSans-4c"/>
      <use xlink:href="#DejaVuSans-6f" transform="translate(53.962891 0)"/>
      <use xlink:href="#DejaVuSans-52" transform="translate(115.144531 0)"/>
      <use xlink:href="#DejaVuSans-41" transform="translate(180.626953 0)"/>
     </g>
    </g>
    <g id="patch_23">
     <path d="M 393.616719 253.444159 
L 411.616719 253.444159 
L 411.616719 247.144159 
L 393.616719 247.144159 
z
" style="fill: #12a594; stroke: #ffffff; stroke-width: 0.8; stroke-linejoin: miter"/>
    </g>
    <g id="text_31">
     <!-- DoRA -->
     <g style="fill: #15242d" transform="translate(418.816719 253.444159) scale(0.09 -0.09)">
      <use xlink:href="#DejaVuSans-44"/>
      <use xlink:href="#DejaVuSans-6f" transform="translate(77.001953 0)"/>
      <use xlink:href="#DejaVuSans-52" transform="translate(138.183594 0)"/>
      <use xlink:href="#DejaVuSans-41" transform="translate(203.666016 0)"/>
     </g>
    </g>
    <g id="patch_24">
     <path d="M 461.30375 253.444159 
L 479.30375 253.444159 
L 479.30375 247.144159 
L 461.30375 247.144159 
z
" style="fill: #15242d; stroke: #ffffff; stroke-width: 0.8; stroke-linejoin: miter"/>
    </g>
    <g id="text_32">
     <!-- Full fine-tuning -->
     <g style="fill: #15242d" transform="translate(486.50375 253.444159) scale(0.09 -0.09)">
      <defs>
       <path id="DejaVuSans-66" d="M 2375 4863 
L 2375 4384 
L 1825 4384 
Q 1516 4384 1395 4259 
Q 1275 4134 1275 3809 
L 1275 3500 
L 2222 3500 
L 2222 3053 
L 1275 3053 
L 1275 0 
L 697 0 
L 697 3053 
L 147 3053 
L 147 3500 
L 697 3500 
L 697 3744 
Q 697 4328 969 4595 
Q 1241 4863 1831 4863 
L 2375 4863 
z
" transform="scale(0.015625)"/>
      </defs>
      <use xlink:href="#DejaVuSans-46"/>
      <use xlink:href="#DejaVuSans-75" transform="translate(52.019531 0)"/>
      <use xlink:href="#DejaVuSans-6c" transform="translate(115.398438 0)"/>
      <use xlink:href="#DejaVuSans-6c" transform="translate(143.181641 0)"/>
      <use xlink:href="#DejaVuSans-20" transform="translate(170.964844 0)"/>
      <use xlink:href="#DejaVuSans-66" transform="translate(202.751953 0)"/>
      <use xlink:href="#DejaVuSans-69" transform="translate(237.957031 0)"/>
      <use xlink:href="#DejaVuSans-6e" transform="translate(265.740234 0)"/>
      <use xlink:href="#DejaVuSans-65" transform="translate(329.119141 0)"/>
      <use xlink:href="#DejaVuSans-2d" transform="translate(390.642578 0)"/>
      <use xlink:href="#DejaVuSans-74" transform="translate(426.726562 0)"/>
      <use xlink:href="#DejaVuSans-75" transform="translate(465.935547 0)"/>
      <use xlink:href="#DejaVuSans-6e" transform="translate(529.314453 0)"/>
      <use xlink:href="#DejaVuSans-69" transform="translate(592.693359 0)"/>
      <use xlink:href="#DejaVuSans-6e" transform="translate(620.476562 0)"/>
      <use xlink:href="#DejaVuSans-67" transform="translate(683.855469 0)"/>
     </g>
    </g>
   </g>
  </g>
 </g>
 <defs>
  <clipPath id="p0fd3d091e4">
   <rect x="49.842188" y="24.295" width="596.05" height="184.66428"/>
  </clipPath>
 </defs>
</svg>
